G04 #@! TF.GenerationSoftware,KiCad,Pcbnew,9.0.7*
G04 #@! TF.CreationDate,2026-03-04T21:28:19-06:00*
G04 #@! TF.ProjectId,stencil,7374656e-6369-46c2-9e6b-696361645f70,B*
G04 #@! TF.SameCoordinates,Original*
G04 #@! TF.FileFunction,Paste,Bot*
G04 #@! TF.FilePolarity,Positive*
%FSLAX46Y46*%
G04 Gerber Fmt 4.6, Leading zero omitted, Abs format (unit mm)*
G04 Created by KiCad (PCBNEW 9.0.7) date 2026-03-04 21:28:19*
%MOMM*%
%LPD*%
G01*
G04 APERTURE LIST*
G04 Aperture macros list*
%AMRoundRect*
0 Rectangle with rounded corners*
0 $1 Rounding radius*
0 $2 $3 $4 $5 $6 $7 $8 $9 X,Y pos of 4 corners*
0 Add a 4 corners polygon primitive as box body*
4,1,4,$2,$3,$4,$5,$6,$7,$8,$9,$2,$3,0*
0 Add four circle primitives for the rounded corners*
1,1,$1+$1,$2,$3*
1,1,$1+$1,$4,$5*
1,1,$1+$1,$6,$7*
1,1,$1+$1,$8,$9*
0 Add four rect primitives between the rounded corners*
20,1,$1+$1,$2,$3,$4,$5,0*
20,1,$1+$1,$4,$5,$6,$7,0*
20,1,$1+$1,$6,$7,$8,$9,0*
20,1,$1+$1,$8,$9,$2,$3,0*%
G04 Aperture macros list end*
%ADD10C,1.050000*%
%ADD11C,0.500000*%
%ADD12C,1.000000*%
%ADD13RoundRect,0.250000X0.250000X0.475000X-0.250000X0.475000X-0.250000X-0.475000X0.250000X-0.475000X0*%
%ADD14RoundRect,0.062500X0.117500X0.062500X-0.117500X0.062500X-0.117500X-0.062500X0.117500X-0.062500X0*%
%ADD15RoundRect,0.112500X0.187500X0.112500X-0.187500X0.112500X-0.187500X-0.112500X0.187500X-0.112500X0*%
%ADD16RoundRect,0.250000X-0.450000X0.262500X-0.450000X-0.262500X0.450000X-0.262500X0.450000X0.262500X0*%
%ADD17RoundRect,0.062500X-0.117500X-0.062500X0.117500X-0.062500X0.117500X0.062500X-0.117500X0.062500X0*%
%ADD18RoundRect,0.250000X0.400000X0.450000X-0.400000X0.450000X-0.400000X-0.450000X0.400000X-0.450000X0*%
G04 APERTURE END LIST*
D10*
X91025000Y4850000D02*
G75*
G02*
X89975000Y4850000I-525000J0D01*
G01*
X89975000Y4850000D02*
G75*
G02*
X91025000Y4850000I525000J0D01*
G01*
D11*
X88250000Y-95900000D02*
G75*
G02*
X87250000Y-94900000I0J1000000D01*
G01*
X87250000Y-44900000D02*
X87250000Y-55900000D01*
X87250000Y-57900000D02*
X87250000Y-68900000D01*
X191250000Y-94900000D02*
G75*
G02*
X190250000Y-95900000I-1000000J0D01*
G01*
D12*
X164125000Y-92650000D02*
G75*
G02*
X163125000Y-92650000I-500000J0D01*
G01*
X163125000Y-92650000D02*
G75*
G02*
X164125000Y-92650000I500000J0D01*
G01*
D11*
X87250000Y-18900000D02*
X87250000Y-29900000D01*
X99250000Y8100000D02*
G75*
G02*
X99750000Y7600000I0J-500000D01*
G01*
X125750000Y-95400000D02*
G75*
G02*
X125250000Y-95900000I-500000J0D01*
G01*
X191250000Y-31900000D02*
X191250000Y-42900000D01*
X112750000Y-95400000D02*
G75*
G02*
X112250000Y-95900000I-500000J0D01*
G01*
X87250000Y-70900000D02*
X87250000Y-81900000D01*
X166250000Y-95900000D02*
X177250000Y-95900000D01*
X190750000Y-70400000D02*
G75*
G02*
X191250000Y-70900000I0J-500000D01*
G01*
X191250000Y-16900000D02*
G75*
G02*
X190750000Y-17400000I-500000J0D01*
G01*
X177250000Y8100000D02*
G75*
G02*
X177750000Y7600000I0J-500000D01*
G01*
X191250000Y-29900000D02*
G75*
G02*
X190750000Y-30400000I-500000J0D01*
G01*
X177750000Y-95400000D02*
G75*
G02*
X177250000Y-95900000I-500000J0D01*
G01*
X87250000Y7100000D02*
G75*
G02*
X88250000Y8100000I1000000J0D01*
G01*
X191250000Y-81900000D02*
G75*
G02*
X190750000Y-82400000I-500000J0D01*
G01*
X87250000Y-83900000D02*
G75*
G02*
X87750000Y-83400000I500000J0D01*
G01*
D12*
X139750000Y-92650000D02*
G75*
G02*
X138750000Y-92650000I-500000J0D01*
G01*
X138750000Y-92650000D02*
G75*
G02*
X139750000Y-92650000I500000J0D01*
G01*
D11*
X166250000Y8100000D02*
X177250000Y8100000D01*
X191250000Y-18900000D02*
X191250000Y-29900000D01*
X153250000Y-95900000D02*
X164250000Y-95900000D01*
X138250000Y8100000D02*
G75*
G02*
X138750000Y7600000I0J-500000D01*
G01*
X87250000Y-70900000D02*
G75*
G02*
X87750000Y-70400000I500000J0D01*
G01*
D12*
X188500000Y-68275000D02*
G75*
G02*
X187500000Y-68275000I-500000J0D01*
G01*
X187500000Y-68275000D02*
G75*
G02*
X188500000Y-68275000I500000J0D01*
G01*
D11*
X125250000Y8100000D02*
G75*
G02*
X125750000Y7600000I0J-500000D01*
G01*
X87750000Y-43400000D02*
G75*
G02*
X87250000Y-42900000I0J500000D01*
G01*
X191250000Y-68900000D02*
G75*
G02*
X190750000Y-69400000I-500000J0D01*
G01*
X113750000Y7600000D02*
G75*
G02*
X114250000Y8100000I500000J0D01*
G01*
X179250000Y-95900000D02*
G75*
G02*
X178750000Y-95400000I0J500000D01*
G01*
D10*
X91025000Y-92650000D02*
G75*
G02*
X89975000Y-92650000I-525000J0D01*
G01*
X89975000Y-92650000D02*
G75*
G02*
X91025000Y-92650000I525000J0D01*
G01*
D11*
X87250000Y-31900000D02*
G75*
G02*
X87750000Y-31400000I500000J0D01*
G01*
X179250000Y-95900000D02*
X190250000Y-95900000D01*
X190750000Y-44400000D02*
G75*
G02*
X191250000Y-44900000I0J-500000D01*
G01*
X87250000Y-5900000D02*
G75*
G02*
X87750000Y-5400000I500000J0D01*
G01*
X87250000Y-31900000D02*
X87250000Y-42900000D01*
X179250000Y8100000D02*
X190250000Y8100000D01*
X126750000Y7600000D02*
G75*
G02*
X127250000Y8100000I500000J0D01*
G01*
X191250000Y-3900000D02*
G75*
G02*
X190750000Y-4400000I-500000J0D01*
G01*
X191250000Y-70900000D02*
X191250000Y-81900000D01*
X140250000Y8100000D02*
X151250000Y8100000D01*
X191250000Y-42900000D02*
G75*
G02*
X190750000Y-43400000I-500000J0D01*
G01*
X190750000Y-18400000D02*
G75*
G02*
X191250000Y-18900000I0J-500000D01*
G01*
D12*
X91000000Y-43900000D02*
G75*
G02*
X90000000Y-43900000I-500000J0D01*
G01*
X90000000Y-43900000D02*
G75*
G02*
X91000000Y-43900000I500000J0D01*
G01*
D11*
X87250000Y7100000D02*
X87250000Y-3900000D01*
X191250000Y-5900000D02*
X191250000Y-16900000D01*
X151250000Y8100000D02*
G75*
G02*
X151750000Y7600000I0J-500000D01*
G01*
D12*
X139750000Y4850000D02*
G75*
G02*
X138750000Y4850000I-500000J0D01*
G01*
X138750000Y4850000D02*
G75*
G02*
X139750000Y4850000I500000J0D01*
G01*
D11*
X152750000Y7600000D02*
G75*
G02*
X153250000Y8100000I500000J0D01*
G01*
X101250000Y8100000D02*
X112250000Y8100000D01*
X87250000Y-18900000D02*
G75*
G02*
X87750000Y-18400000I500000J0D01*
G01*
X114250000Y-95900000D02*
X125250000Y-95900000D01*
X190750000Y-31400000D02*
G75*
G02*
X191250000Y-31900000I0J-500000D01*
G01*
D10*
X188525000Y4850000D02*
G75*
G02*
X187475000Y4850000I-525000J0D01*
G01*
X187475000Y4850000D02*
G75*
G02*
X188525000Y4850000I525000J0D01*
G01*
D11*
X140250000Y-95900000D02*
G75*
G02*
X139750000Y-95400000I0J500000D01*
G01*
X190250000Y8100000D02*
G75*
G02*
X191250000Y7100000I0J-1000000D01*
G01*
X87750000Y-69400000D02*
G75*
G02*
X87250000Y-68900000I0J500000D01*
G01*
X88250000Y-95900000D02*
X99250000Y-95900000D01*
X138750000Y-95400000D02*
G75*
G02*
X138250000Y-95900000I-500000J0D01*
G01*
X114250000Y-95900000D02*
G75*
G02*
X113750000Y-95400000I0J500000D01*
G01*
X190750000Y-83400000D02*
G75*
G02*
X191250000Y-83900000I0J-500000D01*
G01*
X100750000Y7600000D02*
G75*
G02*
X101250000Y8100000I500000J0D01*
G01*
X87250000Y-5900000D02*
X87250000Y-16900000D01*
X127250000Y8100000D02*
X138250000Y8100000D01*
X87250000Y-83900000D02*
X87250000Y-94900000D01*
D12*
X164125000Y4850000D02*
G75*
G02*
X163125000Y4850000I-500000J0D01*
G01*
X163125000Y4850000D02*
G75*
G02*
X164125000Y4850000I500000J0D01*
G01*
D11*
X87750000Y-56400000D02*
G75*
G02*
X87250000Y-55900000I0J500000D01*
G01*
X87750000Y-82400000D02*
G75*
G02*
X87250000Y-81900000I0J500000D01*
G01*
D12*
X188500000Y-43900000D02*
G75*
G02*
X187500000Y-43900000I-500000J0D01*
G01*
X187500000Y-43900000D02*
G75*
G02*
X188500000Y-43900000I500000J0D01*
G01*
D11*
X191250000Y-44900000D02*
X191250000Y-55900000D01*
D12*
X91000000Y-68275000D02*
G75*
G02*
X90000000Y-68275000I-500000J0D01*
G01*
X90000000Y-68275000D02*
G75*
G02*
X91000000Y-68275000I500000J0D01*
G01*
D11*
X101250000Y-95900000D02*
G75*
G02*
X100750000Y-95400000I0J500000D01*
G01*
X139750000Y7600000D02*
G75*
G02*
X140250000Y8100000I500000J0D01*
G01*
X164750000Y-95400000D02*
G75*
G02*
X164250000Y-95900000I-500000J0D01*
G01*
X191250000Y-83900000D02*
X191250000Y-94900000D01*
X87250000Y-44900000D02*
G75*
G02*
X87750000Y-44400000I500000J0D01*
G01*
X191250000Y-55900000D02*
G75*
G02*
X190750000Y-56400000I-500000J0D01*
G01*
X127250000Y-95900000D02*
G75*
G02*
X126750000Y-95400000I0J500000D01*
G01*
X178750000Y7600000D02*
G75*
G02*
X179250000Y8100000I500000J0D01*
G01*
X87750000Y-4400000D02*
G75*
G02*
X87250000Y-3900000I0J500000D01*
G01*
D12*
X115375000Y4850000D02*
G75*
G02*
X114375000Y4850000I-500000J0D01*
G01*
X114375000Y4850000D02*
G75*
G02*
X115375000Y4850000I500000J0D01*
G01*
X188500000Y-19525000D02*
G75*
G02*
X187500000Y-19525000I-500000J0D01*
G01*
X187500000Y-19525000D02*
G75*
G02*
X188500000Y-19525000I500000J0D01*
G01*
D11*
X153250000Y-95900000D02*
G75*
G02*
X152750000Y-95400000I0J500000D01*
G01*
X164250000Y8100000D02*
G75*
G02*
X164750000Y7600000I0J-500000D01*
G01*
X87750000Y-30400000D02*
G75*
G02*
X87250000Y-29900000I0J500000D01*
G01*
X140250000Y-95900000D02*
X151250000Y-95900000D01*
X191250000Y7100000D02*
X191250000Y-3900000D01*
X87750000Y-17400000D02*
G75*
G02*
X87250000Y-16900000I0J500000D01*
G01*
X151750000Y-95400000D02*
G75*
G02*
X151250000Y-95900000I-500000J0D01*
G01*
X88250000Y8100000D02*
X99250000Y8100000D01*
D12*
X115375000Y-92650000D02*
G75*
G02*
X114375000Y-92650000I-500000J0D01*
G01*
X114375000Y-92650000D02*
G75*
G02*
X115375000Y-92650000I500000J0D01*
G01*
D11*
X166250000Y-95900000D02*
G75*
G02*
X165750000Y-95400000I0J500000D01*
G01*
X112250000Y8100000D02*
G75*
G02*
X112750000Y7600000I0J-500000D01*
G01*
X191250000Y-57900000D02*
X191250000Y-68900000D01*
X127250000Y-95900000D02*
X138250000Y-95900000D01*
D10*
X188525000Y-92650000D02*
G75*
G02*
X187475000Y-92650000I-525000J0D01*
G01*
X187475000Y-92650000D02*
G75*
G02*
X188525000Y-92650000I525000J0D01*
G01*
D12*
X91000000Y-19525000D02*
G75*
G02*
X90000000Y-19525000I-500000J0D01*
G01*
X90000000Y-19525000D02*
G75*
G02*
X91000000Y-19525000I500000J0D01*
G01*
D11*
X190750000Y-57400000D02*
G75*
G02*
X191250000Y-57900000I0J-500000D01*
G01*
X153250000Y8100000D02*
X164250000Y8100000D01*
X165750000Y7600000D02*
G75*
G02*
X166250000Y8100000I500000J0D01*
G01*
X99750000Y-95400000D02*
G75*
G02*
X99250000Y-95900000I-500000J0D01*
G01*
X114250000Y8100000D02*
X125250000Y8100000D01*
X87250000Y-57900000D02*
G75*
G02*
X87750000Y-57400000I500000J0D01*
G01*
X190750000Y-5400000D02*
G75*
G02*
X191250000Y-5900000I0J-500000D01*
G01*
X101250000Y-95900000D02*
X112250000Y-95900000D01*
D13*
G04 #@! TO.C,C12*
X149499999Y-26200000D03*
X147600001Y-26200000D03*
G04 #@! TD*
D14*
G04 #@! TO.C,D7*
X140790000Y-55800000D03*
X141630000Y-55800000D03*
G04 #@! TD*
D13*
G04 #@! TO.C,C11*
X149499999Y-31900000D03*
X147600001Y-31900000D03*
G04 #@! TD*
G04 #@! TO.C,C13*
X148949999Y-63200000D03*
X147050001Y-63200000D03*
G04 #@! TD*
D15*
G04 #@! TO.C,D6*
X149050000Y-58500000D03*
X146950000Y-58500000D03*
G04 #@! TD*
D16*
G04 #@! TO.C,R10*
X144170001Y-57087500D03*
X144170001Y-58912500D03*
G04 #@! TD*
D17*
G04 #@! TO.C,D4*
X145010001Y-55800000D03*
X144170001Y-55800000D03*
G04 #@! TD*
D18*
G04 #@! TO.C,D1*
X142150000Y-33300000D03*
X139250000Y-33300000D03*
G04 #@! TD*
D16*
G04 #@! TO.C,R11*
X141630000Y-57087500D03*
X141630000Y-58912500D03*
G04 #@! TD*
M02*
