%TF.GenerationSoftware,KiCad,Pcbnew,9.0.7*%
%TF.CreationDate,2026-03-14T23:06:25-05:00*%
%TF.ProjectId,esphome-fan-controller,65737068-6f6d-4652-9d66-616e2d636f6e,-*%
%TF.SameCoordinates,Original*%
%TF.FileFunction,Copper,L2,Bot*%
%TF.FilePolarity,Positive*%
%FSLAX46Y46*%
G04 Gerber Fmt 4.6, Leading zero omitted, Abs format (unit mm)*
G04 Created by KiCad (PCBNEW 9.0.7) date 2026-03-14 23:06:25*
%MOMM*%
%LPD*%
G01*
G04 APERTURE LIST*
%TA.AperFunction,ComponentPad*%
%ADD10R,1.000000X1.000000*%
%TD*%
%TA.AperFunction,ComponentPad*%
%ADD11C,4.400000*%
%TD*%
%TA.AperFunction,ComponentPad*%
%ADD12R,1.730000X2.030000*%
%TD*%
%TA.AperFunction,ComponentPad*%
%ADD13O,1.730000X2.030000*%
%TD*%
%TA.AperFunction,ComponentPad*%
%ADD14O,2.000000X0.900000*%
%TD*%
%TA.AperFunction,ComponentPad*%
%ADD15O,1.700000X0.900000*%
%TD*%
%TA.AperFunction,HeatsinkPad*%
%ADD16C,0.500000*%
%TD*%
%TA.AperFunction,HeatsinkPad*%
%ADD17R,4.100000X2.900000*%
%TD*%
%TA.AperFunction,ComponentPad*%
%ADD18R,1.800000X1.800000*%
%TD*%
%TA.AperFunction,ComponentPad*%
%ADD19C,1.800000*%
%TD*%
%TA.AperFunction,ViaPad*%
%ADD20C,0.500000*%
%TD*%
%TA.AperFunction,ViaPad*%
%ADD21C,0.700000*%
%TD*%
%TA.AperFunction,Conductor*%
%ADD22C,1.730000*%
%TD*%
%TA.AperFunction,Conductor*%
%ADD23C,0.300000*%
%TD*%
%TA.AperFunction,Conductor*%
%ADD24C,0.400000*%
%TD*%
%TA.AperFunction,Conductor*%
%ADD25C,0.200000*%
%TD*%
%TA.AperFunction,Conductor*%
%ADD26C,0.100000*%
%TD*%
%TA.AperFunction,Conductor*%
%ADD27C,0.150000*%
%TD*%
%TA.AperFunction,Conductor*%
%ADD28C,0.152400*%
%TD*%
%TA.AperFunction,Conductor*%
%ADD29C,2.000000*%
%TD*%
G04 APERTURE END LIST*
D10*
%TO.P,TP1,1,1*%
%TO.N,Net-(U3-IO4)*%
X144550000Y-50250000D03*
%TD*%
D11*
%TO.P,MH2,1,1*%
%TO.N,GND*%
X129250000Y-62650000D03*
%TD*%
D12*
%TO.P,M1,1,-*%
%TO.N,GND*%
X149250000Y-60850000D03*
D13*
%TO.P,M1,2,+*%
%TO.N,VFAN*%
X146710000Y-60850000D03*
%TO.P,M1,3,Tacho*%
%TO.N,Net-(M1-Tacho)*%
X144170001Y-60850000D03*
%TO.P,M1,4,PWM*%
%TO.N,Net-(M1-PWM)*%
X141630000Y-60850000D03*
%TD*%
D11*
%TO.P,MH1,1,1*%
%TO.N,GND*%
X129250000Y-25150000D03*
%TD*%
D14*
%TO.P,J2,S1,SHIELD*%
%TO.N,GND*%
X132020000Y-28325000D03*
D15*
X127850000Y-28325000D03*
D14*
X132020000Y-36975000D03*
D15*
X127850000Y-36975000D03*
%TD*%
D10*
%TO.P,TP2,1,1*%
%TO.N,Net-(U3-IO10)*%
X144550000Y-51850000D03*
%TD*%
D16*
%TO.P,U6,17,RTN_1*%
%TO.N,RTN*%
X149350000Y-27837500D03*
X148150000Y-27837500D03*
X146950000Y-27837500D03*
X145750000Y-27837500D03*
X149350000Y-29037500D03*
X148150000Y-29037500D03*
D17*
X147550000Y-29037500D03*
D16*
X146950000Y-29037500D03*
X145750000Y-29037500D03*
X149350000Y-30237500D03*
X148150000Y-30237500D03*
X146950000Y-30237500D03*
X145750000Y-30237500D03*
%TD*%
D18*
%TO.P,J1,1,Pin_1*%
%TO.N,VIN*%
X141105000Y-26385000D03*
D19*
%TO.P,J1,2,Pin_2*%
%TO.N,GND*%
X137605000Y-26385000D03*
%TD*%
D20*
%TO.N,GND*%
X136550000Y-37600000D03*
X133150000Y-41450000D03*
X129900000Y-30250000D03*
X140300000Y-46900000D03*
X137450000Y-28650000D03*
X133950000Y-23850000D03*
X150250000Y-57850000D03*
X145550000Y-55000000D03*
X139050000Y-26100000D03*
X142150000Y-29150000D03*
X143450000Y-33950000D03*
X134100000Y-48700000D03*
X132300000Y-23600000D03*
X151250000Y-46050000D03*
X134250000Y-51300000D03*
X127350000Y-39100000D03*
X143650000Y-42950000D03*
X127350000Y-41000000D03*
X140550000Y-35050000D03*
X137850000Y-30050000D03*
X134200000Y-57000000D03*
X140550000Y-34050000D03*
X143750000Y-40250000D03*
X145550000Y-51200000D03*
X151150000Y-58050000D03*
X140650000Y-43250000D03*
X128900000Y-33700000D03*
X143650000Y-44850000D03*
X149250000Y-58550000D03*
X151150000Y-50750000D03*
X138430000Y-35280000D03*
X128150000Y-30150000D03*
X138550000Y-57000000D03*
X142850000Y-57900000D03*
X146550000Y-51200000D03*
X148450000Y-33850000D03*
X150150000Y-50750000D03*
X151150000Y-49850000D03*
X129450000Y-42050000D03*
X144200000Y-48700000D03*
X139050000Y-60150000D03*
X143650000Y-43750000D03*
X127800000Y-35000000D03*
X135300000Y-23750000D03*
X140350000Y-33150000D03*
X151150000Y-44950000D03*
X141300000Y-49050000D03*
X141300000Y-30050000D03*
X141500000Y-50250000D03*
X139300000Y-30100000D03*
X134250000Y-55100000D03*
X151250000Y-56950000D03*
X134400000Y-37550000D03*
X132600000Y-42800000D03*
X148450000Y-35850000D03*
X136850000Y-42300000D03*
X135300000Y-26050000D03*
X131250000Y-59090000D03*
X136650000Y-60750000D03*
X151150000Y-51550000D03*
X137500000Y-23500000D03*
X135150000Y-41350000D03*
X128050000Y-32300000D03*
X134400000Y-47100000D03*
X150150000Y-53850000D03*
X142450000Y-42150000D03*
X135600000Y-54350000D03*
X148350000Y-57550000D03*
X143500000Y-56050000D03*
X137350000Y-61350000D03*
X146700000Y-53300000D03*
X135120000Y-27690000D03*
X147500000Y-39400000D03*
X139050000Y-61250000D03*
X150150000Y-49850000D03*
X139950000Y-38850000D03*
X150150000Y-46050000D03*
X133000000Y-25200000D03*
X143500000Y-52750000D03*
X139750000Y-59950000D03*
X132400000Y-57750000D03*
X150050000Y-56950000D03*
X151250000Y-55950000D03*
X143950000Y-33150000D03*
X129850000Y-32300000D03*
X140350000Y-31950000D03*
X151050000Y-53850000D03*
X141050000Y-51500000D03*
X139750000Y-60650000D03*
X150050000Y-55950000D03*
X146750000Y-47200000D03*
X134650000Y-38750000D03*
X141700000Y-46000000D03*
X146250000Y-33750000D03*
X144650000Y-33550000D03*
X136600000Y-46750000D03*
X139950000Y-40250000D03*
X136600000Y-45450000D03*
X137700000Y-53950000D03*
X139850000Y-35350000D03*
X134500000Y-45800000D03*
X136150000Y-36450000D03*
X145450000Y-45350000D03*
X147500000Y-38600000D03*
X139900000Y-58050000D03*
X134100000Y-53900000D03*
X129850000Y-34700000D03*
X141100000Y-54550000D03*
X143550000Y-49450000D03*
X150650000Y-45450000D03*
X147350000Y-44450000D03*
X142450000Y-38675000D03*
X135100000Y-42950000D03*
%TO.N,+5V*%
X129100000Y-39700000D03*
D21*
X134150000Y-60800000D03*
D20*
X138050000Y-39950000D03*
D21*
X135150000Y-63950000D03*
D20*
%TO.N,+3.3V*%
X145350000Y-36950000D03*
X145350000Y-43150000D03*
%TO.N,LED*%
X130950000Y-42050000D03*
X136950000Y-43500000D03*
%TO.N,FAN_TACH*%
X139750000Y-62750000D03*
X143500000Y-53550000D03*
X142650000Y-63750000D03*
%TO.N,FAN_PWM*%
X133950000Y-61750000D03*
X141450000Y-52650000D03*
%TO.N,/D-*%
X136619341Y-38593141D03*
X137069341Y-35430659D03*
X138073800Y-45850000D03*
X136769341Y-40980659D03*
%TO.N,/D+*%
X137080659Y-39054459D03*
X138726200Y-45850000D03*
X137530659Y-34969341D03*
X137230659Y-40519341D03*
%TO.N,Net-(U3-IO2)*%
X134350000Y-59800000D03*
X136950000Y-55350000D03*
D21*
%TO.N,/VBUS*%
X131300000Y-34350000D03*
X131300000Y-31000000D03*
X138160000Y-33270000D03*
%TO.N,VFAN*%
X149150000Y-49430000D03*
D20*
X149150000Y-32950000D03*
D21*
X149150000Y-51440000D03*
D20*
X149850000Y-34750000D03*
X149850000Y-32950000D03*
X149150000Y-34750000D03*
X148880000Y-24280000D03*
D21*
X149150000Y-50440000D03*
D20*
%TO.N,~{FAN_SHDN}*%
X141850000Y-36150000D03*
X141700000Y-47850000D03*
X145950000Y-25050000D03*
%TO.N,VIN*%
X149825000Y-25150000D03*
X149510000Y-24550000D03*
X149175000Y-25150000D03*
%TO.N,RTN*%
X144150000Y-30450000D03*
X144950000Y-29550000D03*
X144950000Y-30450000D03*
X144150000Y-29550000D03*
X144950000Y-28750000D03*
%TD*%
D22*
%TO.N,GND*%
X149250000Y-58550000D02*
X149250000Y-58450000D01*
X149250000Y-60850000D02*
X149250000Y-59050000D01*
X149250000Y-59050000D02*
X149250000Y-58550000D01*
D23*
%TO.N,+5V*%
X137350000Y-39700000D02*
X137800000Y-39700000D01*
X133349000Y-61501057D02*
X133349000Y-62149000D01*
X136900000Y-57870768D02*
X136900000Y-58050000D01*
X139450000Y-40850000D02*
X138550000Y-39950000D01*
X133349000Y-62149000D02*
X135150000Y-63950000D01*
X138550000Y-39950000D02*
X138050000Y-39950000D01*
X129100000Y-39700000D02*
X137350000Y-39700000D01*
X136900000Y-58050000D02*
X134150000Y-60800000D01*
X134050057Y-60800000D02*
X133349000Y-61501057D01*
X139450000Y-55320768D02*
X136900000Y-57870768D01*
X139450000Y-40850000D02*
X139450000Y-55320768D01*
X137800000Y-39700000D02*
X138050000Y-39950000D01*
D24*
X134150000Y-60800000D02*
X134050057Y-60800000D01*
D25*
%TO.N,+3.3V*%
X145350000Y-43150000D02*
X145350000Y-36950000D01*
D26*
%TO.N,LED*%
X136950000Y-43500000D02*
X135500000Y-42050000D01*
X135500000Y-42050000D02*
X130950000Y-42050000D01*
D27*
%TO.N,FAN_TACH*%
X139750000Y-62750000D02*
X138450000Y-61450000D01*
X142650000Y-63750000D02*
X140750000Y-63750000D01*
X140750000Y-63750000D02*
X139750000Y-62750000D01*
X138450000Y-61450000D02*
X138450000Y-58600000D01*
X138450000Y-58600000D02*
X143500000Y-53550000D01*
%TO.N,FAN_PWM*%
X141450000Y-52650000D02*
X141576000Y-52776000D01*
X136700834Y-59126000D02*
X134076834Y-61750000D01*
X137374000Y-59126000D02*
X136700834Y-59126000D01*
X134076834Y-61750000D02*
X133950000Y-61750000D01*
X141576000Y-54924000D02*
X137374000Y-59126000D01*
X141576000Y-52776000D02*
X141576000Y-54924000D01*
D28*
%TO.N,/D-*%
X138247599Y-45676201D02*
X138073800Y-45850000D01*
X138247599Y-42213126D02*
X138247599Y-45676201D01*
X137225859Y-35587177D02*
X137225859Y-38232414D01*
X137069341Y-35430659D02*
X137225859Y-35587177D01*
X137015132Y-40980659D02*
X138247599Y-42213126D01*
X137225859Y-38232414D02*
X136865132Y-38593141D01*
X136769341Y-40980659D02*
X137015132Y-40980659D01*
X136865132Y-38593141D02*
X136619341Y-38593141D01*
%TO.N,/D+*%
X137530659Y-35644204D02*
X137530659Y-38358668D01*
X137530659Y-35217114D02*
X137546541Y-35232996D01*
X137080659Y-38808668D02*
X137080659Y-39054459D01*
X137546541Y-35232996D02*
X137546541Y-35628322D01*
X138552401Y-45676201D02*
X138726200Y-45850000D01*
X137230659Y-40519341D02*
X137230659Y-40765132D01*
X137230659Y-40765132D02*
X138552401Y-42086874D01*
X137546541Y-35628322D02*
X137530659Y-35644204D01*
X137530659Y-34969341D02*
X137530659Y-35217114D01*
X138552401Y-42086874D02*
X138552401Y-45676201D01*
X137530659Y-38358668D02*
X137080659Y-38808668D01*
D27*
%TO.N,Net-(U3-IO2)*%
X134350000Y-59800000D02*
X134350000Y-57950000D01*
X134350000Y-57950000D02*
X136950000Y-55350000D01*
D25*
%TO.N,VFAN*%
X151450000Y-27550000D02*
X151450000Y-30550000D01*
X148550000Y-24850000D02*
X148550000Y-24750000D01*
D29*
X148500000Y-54250000D02*
X148500000Y-45499000D01*
D25*
X148702001Y-26050000D02*
X148702001Y-27102001D01*
D29*
X146710000Y-60850000D02*
X146710000Y-56040000D01*
X150549000Y-43450000D02*
X150549000Y-35350000D01*
X148500000Y-45499000D02*
X150549000Y-43450000D01*
X146710000Y-56040000D02*
X148500000Y-54250000D01*
D25*
X151150000Y-27250000D02*
X151450000Y-27550000D01*
X151450000Y-30550000D02*
X151450000Y-31650000D01*
X148702001Y-26050000D02*
X148702001Y-25385522D01*
X148550000Y-25233521D02*
X148550000Y-24850000D01*
X148702001Y-25385522D02*
X148550000Y-25233521D01*
X148550000Y-24850000D02*
X148550000Y-24610000D01*
X148702001Y-25447999D02*
X148702001Y-26050000D01*
X148850000Y-27250000D02*
X151150000Y-27250000D01*
X148550000Y-24610000D02*
X148880000Y-24280000D01*
X151450000Y-31650000D02*
X151450000Y-32950000D01*
X148702001Y-27102001D02*
X148850000Y-27250000D01*
%TO.N,~{FAN_SHDN}*%
X141850000Y-36150000D02*
X141200000Y-36150000D01*
D27*
X145450000Y-27250000D02*
X141200000Y-31500000D01*
X141200000Y-47350000D02*
X141700000Y-47850000D01*
X148350000Y-25544905D02*
X148350000Y-27050000D01*
X148350000Y-27050000D02*
X148150000Y-27250000D01*
X141200000Y-36150000D02*
X141200000Y-47350000D01*
X148150000Y-27250000D02*
X145450000Y-27250000D01*
X147855095Y-25050000D02*
X148350000Y-25544905D01*
X141200000Y-31500000D02*
X141200000Y-36150000D01*
X145950000Y-25050000D02*
X147855095Y-25050000D01*
%TD*%
%TA.AperFunction,Conductor*%
%TO.N,GND*%
G36*
X148110148Y-25623958D02*
G01*
X148124500Y-25658606D01*
X148124500Y-26936299D01*
X148118825Y-26950000D01*
X146700000Y-26950000D01*
X146700000Y-25350000D01*
X147836190Y-25350000D01*
X148110148Y-25623958D01*
G37*
%TD.AperFunction*%
%TD*%
%TA.AperFunction,Conductor*%
%TO.N,RTN*%
G36*
X148516969Y-27271231D02*
G01*
X148708100Y-27462362D01*
X148708101Y-27462362D01*
X148708103Y-27462364D01*
X148800172Y-27500500D01*
X148899828Y-27500500D01*
X151025943Y-27500500D01*
X151060591Y-27514852D01*
X151185148Y-27639409D01*
X151199500Y-27674057D01*
X151199500Y-32445500D01*
X151185148Y-32480148D01*
X151150500Y-32494500D01*
X148998996Y-32494500D01*
X148976085Y-32499058D01*
X148966525Y-32500000D01*
X141474500Y-32500000D01*
X141439852Y-32485648D01*
X141425500Y-32451000D01*
X141425500Y-31613701D01*
X141439852Y-31579053D01*
X145529053Y-27489852D01*
X145563701Y-27475500D01*
X148099436Y-27475500D01*
X148099444Y-27475501D01*
X148105145Y-27475501D01*
X148194853Y-27475501D01*
X148194855Y-27475501D01*
X148253460Y-27451225D01*
X148270164Y-27444306D01*
X148277732Y-27441172D01*
X148277733Y-27441171D01*
X148277736Y-27441170D01*
X148341170Y-27377736D01*
X148341170Y-27377735D01*
X148348059Y-27370846D01*
X148348061Y-27370843D01*
X148447673Y-27271231D01*
X148482321Y-27256879D01*
X148516969Y-27271231D01*
G37*
%TD.AperFunction*%
%TD*%
%TA.AperFunction,Conductor*%
%TO.N,GND*%
G36*
X148450000Y-32750000D02*
G01*
X146800000Y-32750000D01*
X146800000Y-32655500D01*
X148450000Y-32655500D01*
X148450000Y-32750000D01*
G37*
%TD.AperFunction*%
%TD*%
%TA.AperFunction,Conductor*%
%TO.N,/VBUS*%
G36*
X134227301Y-29119685D02*
G01*
X134232332Y-29123094D01*
X135824699Y-30260499D01*
X138698074Y-32312910D01*
X138741184Y-32367894D01*
X138750000Y-32413813D01*
X138750000Y-33185259D01*
X138730315Y-33252298D01*
X138696879Y-33287005D01*
X134331945Y-36327746D01*
X134265685Y-36349914D01*
X134261066Y-36350000D01*
X133550649Y-36350000D01*
X133483610Y-36330315D01*
X133444640Y-36285342D01*
X133442830Y-36286388D01*
X133434666Y-36272248D01*
X133377751Y-36215333D01*
X133335779Y-36204087D01*
X133300000Y-36194500D01*
X131860148Y-36194500D01*
X131793109Y-36174815D01*
X131747354Y-36122011D01*
X131737410Y-36052853D01*
X131766435Y-35989297D01*
X131798147Y-35963113D01*
X131837314Y-35940500D01*
X131930500Y-35847314D01*
X131996392Y-35733186D01*
X132030500Y-35605892D01*
X132030500Y-35474108D01*
X131996392Y-35346814D01*
X131930500Y-35232686D01*
X131837314Y-35139500D01*
X131780250Y-35106554D01*
X131723187Y-35073608D01*
X131659539Y-35056554D01*
X131595892Y-35039500D01*
X131464108Y-35039500D01*
X131336812Y-35073608D01*
X131222686Y-35139500D01*
X131222683Y-35139502D01*
X131161681Y-35200505D01*
X131100358Y-35233990D01*
X131030666Y-35229006D01*
X130974733Y-35187134D01*
X130950316Y-35121670D01*
X130950000Y-35112824D01*
X130950000Y-30187176D01*
X130969685Y-30120137D01*
X131022489Y-30074382D01*
X131091647Y-30064438D01*
X131155203Y-30093463D01*
X131161681Y-30099495D01*
X131222686Y-30160500D01*
X131336814Y-30226392D01*
X131464108Y-30260500D01*
X131464110Y-30260500D01*
X131595890Y-30260500D01*
X131595892Y-30260500D01*
X131723186Y-30226392D01*
X131837314Y-30160500D01*
X131930500Y-30067314D01*
X131996392Y-29953186D01*
X132030500Y-29825892D01*
X132030500Y-29694108D01*
X131996392Y-29566814D01*
X131930500Y-29452686D01*
X131837314Y-29359500D01*
X131798146Y-29336886D01*
X131749932Y-29286319D01*
X131736710Y-29217712D01*
X131762678Y-29152847D01*
X131819593Y-29112320D01*
X131860148Y-29105500D01*
X133299997Y-29105500D01*
X133300000Y-29105500D01*
X133304764Y-29104223D01*
X133336851Y-29100000D01*
X134160262Y-29100000D01*
X134227301Y-29119685D01*
G37*
%TD.AperFunction*%
%TD*%
%TA.AperFunction,Conductor*%
%TO.N,VFAN*%
G36*
X151535148Y-32664352D02*
G01*
X151549500Y-32699000D01*
X151549500Y-36301000D01*
X151535148Y-36335648D01*
X151500500Y-36350000D01*
X148999000Y-36350000D01*
X148964352Y-36335648D01*
X148950000Y-36301000D01*
X148950000Y-32699000D01*
X148964352Y-32664352D01*
X148999000Y-32650000D01*
X151500500Y-32650000D01*
X151535148Y-32664352D01*
G37*
%TD.AperFunction*%
%TD*%
%TA.AperFunction,Conductor*%
%TO.N,GND*%
G36*
X133300000Y-37600000D02*
G01*
X126951351Y-37600000D01*
X126951268Y-36350000D01*
X133300000Y-36350000D01*
X133300000Y-37600000D01*
G37*
%TD.AperFunction*%
%TD*%
%TA.AperFunction,Conductor*%
%TO.N,GND*%
G36*
X139580148Y-22864852D02*
G01*
X139594500Y-22899500D01*
X139594500Y-28001005D01*
X139606334Y-28060499D01*
X139606336Y-28060506D01*
X139620689Y-28095157D01*
X139640983Y-28130307D01*
X139640984Y-28130308D01*
X139640985Y-28130309D01*
X139704844Y-28179311D01*
X139739492Y-28193663D01*
X139739495Y-28193663D01*
X139739500Y-28193665D01*
X139798994Y-28205499D01*
X139799000Y-28205500D01*
X142220757Y-28205500D01*
X142220764Y-28205500D01*
X142243269Y-28203863D01*
X142257305Y-28201810D01*
X142258416Y-28201639D01*
X142259510Y-28201471D01*
X142259511Y-28201470D01*
X142259515Y-28201470D01*
X142332966Y-28168545D01*
X142362051Y-28144870D01*
X142400728Y-28098124D01*
X144028894Y-25081227D01*
X144057979Y-25057553D01*
X144072015Y-25055500D01*
X145500500Y-25055500D01*
X145535148Y-25069852D01*
X145547532Y-25099749D01*
X145549081Y-25099546D01*
X145549500Y-25102730D01*
X145576792Y-25204585D01*
X145576793Y-25204589D01*
X145617976Y-25275918D01*
X145629520Y-25295913D01*
X145704087Y-25370480D01*
X145737513Y-25389778D01*
X145795410Y-25423206D01*
X145795412Y-25423206D01*
X145795413Y-25423207D01*
X145875747Y-25444732D01*
X145897269Y-25450499D01*
X145897270Y-25450500D01*
X145897273Y-25450500D01*
X146002730Y-25450500D01*
X146002730Y-25450499D01*
X146104587Y-25423207D01*
X146195913Y-25370480D01*
X146270480Y-25295913D01*
X146270482Y-25295908D01*
X146271438Y-25294665D01*
X146272123Y-25294269D01*
X146272751Y-25293642D01*
X146272919Y-25293810D01*
X146303919Y-25275918D01*
X146310308Y-25275500D01*
X147741394Y-25275500D01*
X147776042Y-25289852D01*
X147836190Y-25350000D01*
X146700000Y-25350000D01*
X146700000Y-26950000D01*
X148118825Y-26950000D01*
X148110148Y-26970947D01*
X148070947Y-27010148D01*
X148036299Y-27024500D01*
X145500564Y-27024500D01*
X145500556Y-27024499D01*
X145494855Y-27024499D01*
X145405146Y-27024499D01*
X145405144Y-27024499D01*
X145373431Y-27037636D01*
X145322262Y-27058831D01*
X145322261Y-27058831D01*
X145258830Y-27122264D01*
X141008830Y-31372263D01*
X141008830Y-31372265D01*
X140974499Y-31455143D01*
X140974499Y-31550555D01*
X140974500Y-31550564D01*
X140974500Y-36030069D01*
X140970770Y-36048820D01*
X140949501Y-36100168D01*
X140949500Y-36100174D01*
X140949500Y-36199829D01*
X140970770Y-36251178D01*
X140974500Y-36269930D01*
X140974500Y-47301188D01*
X140974499Y-47301202D01*
X140974499Y-47394856D01*
X140997134Y-47449500D01*
X141008830Y-47477737D01*
X141008831Y-47477738D01*
X141079155Y-47548061D01*
X141079157Y-47548062D01*
X141285771Y-47754676D01*
X141300123Y-47789324D01*
X141299705Y-47795712D01*
X141299500Y-47797271D01*
X141299500Y-47902730D01*
X141326792Y-48004585D01*
X141326793Y-48004589D01*
X141379520Y-48095913D01*
X141454087Y-48170480D01*
X141487513Y-48189778D01*
X141545410Y-48223206D01*
X141545412Y-48223206D01*
X141545413Y-48223207D01*
X141625747Y-48244732D01*
X141647269Y-48250499D01*
X141647270Y-48250500D01*
X141647273Y-48250500D01*
X141752730Y-48250500D01*
X141752730Y-48250499D01*
X141854587Y-48223207D01*
X141945913Y-48170480D01*
X142020480Y-48095913D01*
X142073207Y-48004587D01*
X142100499Y-47902730D01*
X142100500Y-47902730D01*
X142100500Y-47797270D01*
X142100499Y-47797269D01*
X142073207Y-47695414D01*
X142073206Y-47695410D01*
X142020479Y-47604086D01*
X141945913Y-47529520D01*
X141854589Y-47476793D01*
X141854585Y-47476792D01*
X141752730Y-47449500D01*
X141752727Y-47449500D01*
X141647273Y-47449500D01*
X141647271Y-47449500D01*
X141645712Y-47449705D01*
X141644947Y-47449500D01*
X141644062Y-47449500D01*
X141644062Y-47449262D01*
X141609488Y-47439993D01*
X141604676Y-47435771D01*
X141439852Y-47270947D01*
X141425500Y-47236299D01*
X141425500Y-46170938D01*
X145574500Y-46170938D01*
X145574500Y-46329059D01*
X145615422Y-46481781D01*
X145615423Y-46481785D01*
X145694475Y-46618708D01*
X145694478Y-46618712D01*
X145694480Y-46618715D01*
X145806284Y-46730519D01*
X145806287Y-46730520D01*
X145806290Y-46730523D01*
X145943213Y-46809575D01*
X145943215Y-46809575D01*
X145943216Y-46809576D01*
X146063665Y-46841850D01*
X146095939Y-46850498D01*
X146095940Y-46850499D01*
X146095943Y-46850499D01*
X146254060Y-46850499D01*
X146254060Y-46850498D01*
X146406784Y-46809576D01*
X146543716Y-46730519D01*
X146655520Y-46618715D01*
X146734577Y-46481783D01*
X146775499Y-46329059D01*
X146775500Y-46329059D01*
X146775500Y-46170939D01*
X146775499Y-46170938D01*
X146734577Y-46018216D01*
X146734576Y-46018212D01*
X146655524Y-45881289D01*
X146655521Y-45881286D01*
X146655520Y-45881283D01*
X146543716Y-45769479D01*
X146543713Y-45769477D01*
X146543709Y-45769474D01*
X146406786Y-45690422D01*
X146406782Y-45690421D01*
X146254060Y-45649499D01*
X146254057Y-45649499D01*
X146095943Y-45649499D01*
X146095940Y-45649499D01*
X145943217Y-45690421D01*
X145943213Y-45690422D01*
X145806290Y-45769474D01*
X145806281Y-45769481D01*
X145694482Y-45881280D01*
X145694475Y-45881289D01*
X145615423Y-46018212D01*
X145615422Y-46018216D01*
X145574500Y-46170938D01*
X141425500Y-46170938D01*
X141425500Y-36897269D01*
X144949500Y-36897269D01*
X144949500Y-37002730D01*
X144976792Y-37104585D01*
X144976793Y-37104589D01*
X145029520Y-37195913D01*
X145085148Y-37251541D01*
X145099500Y-37286189D01*
X145099500Y-42813811D01*
X145085148Y-42848459D01*
X145029521Y-42904086D01*
X145029520Y-42904086D01*
X144976793Y-42995410D01*
X144976792Y-42995414D01*
X144949500Y-43097269D01*
X144949500Y-43202730D01*
X144976792Y-43304585D01*
X144976793Y-43304589D01*
X145029520Y-43395913D01*
X145104087Y-43470480D01*
X145137513Y-43489778D01*
X145195410Y-43523206D01*
X145195412Y-43523206D01*
X145195413Y-43523207D01*
X145275747Y-43544732D01*
X145297269Y-43550499D01*
X145297270Y-43550500D01*
X145297273Y-43550500D01*
X145402730Y-43550500D01*
X145402730Y-43550499D01*
X145504587Y-43523207D01*
X145595913Y-43470480D01*
X145670480Y-43395913D01*
X145723207Y-43304587D01*
X145750499Y-43202730D01*
X145750500Y-43202730D01*
X145750500Y-43097270D01*
X145750499Y-43097269D01*
X145723207Y-42995414D01*
X145723206Y-42995410D01*
X145670479Y-42904086D01*
X145614852Y-42848459D01*
X145600500Y-42813811D01*
X145600500Y-37286189D01*
X145614852Y-37251541D01*
X145670479Y-37195914D01*
X145670480Y-37195913D01*
X145723207Y-37104587D01*
X145750499Y-37002730D01*
X145750500Y-37002730D01*
X145750500Y-36897270D01*
X145750499Y-36897269D01*
X145723207Y-36795414D01*
X145723206Y-36795410D01*
X145670479Y-36704086D01*
X145595913Y-36629520D01*
X145504589Y-36576793D01*
X145504585Y-36576792D01*
X145402730Y-36549500D01*
X145402727Y-36549500D01*
X145297273Y-36549500D01*
X145297270Y-36549500D01*
X145195414Y-36576792D01*
X145195410Y-36576793D01*
X145104086Y-36629520D01*
X145104086Y-36629521D01*
X145029521Y-36704086D01*
X145029520Y-36704086D01*
X144976793Y-36795410D01*
X144976792Y-36795414D01*
X144949500Y-36897269D01*
X141425500Y-36897269D01*
X141425500Y-36449500D01*
X141439852Y-36414852D01*
X141474500Y-36400500D01*
X141513811Y-36400500D01*
X141548459Y-36414852D01*
X141604087Y-36470480D01*
X141619381Y-36479310D01*
X141695410Y-36523206D01*
X141695412Y-36523206D01*
X141695413Y-36523207D01*
X141739023Y-36534892D01*
X141797269Y-36550499D01*
X141797270Y-36550500D01*
X141797273Y-36550500D01*
X141902730Y-36550500D01*
X141902730Y-36550499D01*
X142004587Y-36523207D01*
X142095913Y-36470480D01*
X142170480Y-36395913D01*
X142223207Y-36304587D01*
X142250499Y-36202730D01*
X142250500Y-36202730D01*
X142250500Y-36097270D01*
X142250499Y-36097269D01*
X142235288Y-36040499D01*
X142223207Y-35995413D01*
X142223206Y-35995412D01*
X142223206Y-35995410D01*
X142170479Y-35904086D01*
X142095913Y-35829520D01*
X142004589Y-35776793D01*
X142004585Y-35776792D01*
X141902730Y-35749500D01*
X141902727Y-35749500D01*
X141797273Y-35749500D01*
X141797270Y-35749500D01*
X141695414Y-35776792D01*
X141695410Y-35776793D01*
X141604086Y-35829520D01*
X141604086Y-35829521D01*
X141548459Y-35885148D01*
X141513811Y-35899500D01*
X141474500Y-35899500D01*
X141439852Y-35885148D01*
X141425500Y-35850500D01*
X141425500Y-32704500D01*
X141439852Y-32669852D01*
X141474500Y-32655500D01*
X146800000Y-32655500D01*
X146800000Y-32750000D01*
X148450000Y-32750000D01*
X148450000Y-32655500D01*
X148745500Y-32655500D01*
X148780148Y-32669852D01*
X148794500Y-32704500D01*
X148794500Y-32751614D01*
X148787936Y-32776113D01*
X148776793Y-32795413D01*
X148776791Y-32795417D01*
X148749500Y-32897269D01*
X148749500Y-33002730D01*
X148776792Y-33104585D01*
X148776793Y-33104587D01*
X148787935Y-33123886D01*
X148794500Y-33148385D01*
X148794500Y-34551614D01*
X148787936Y-34576113D01*
X148776793Y-34595413D01*
X148776791Y-34595417D01*
X148749500Y-34697269D01*
X148749500Y-34802730D01*
X148776792Y-34904585D01*
X148776793Y-34904587D01*
X148787935Y-34923886D01*
X148794500Y-34948385D01*
X148794500Y-36301005D01*
X148806334Y-36360499D01*
X148806336Y-36360506D01*
X148820689Y-36395157D01*
X148840983Y-36430307D01*
X148840984Y-36430308D01*
X148840985Y-36430309D01*
X148904844Y-36479311D01*
X148939492Y-36493663D01*
X148939495Y-36493663D01*
X148939500Y-36493665D01*
X148998994Y-36505499D01*
X148999000Y-36505500D01*
X149349500Y-36505500D01*
X149384148Y-36519852D01*
X149398500Y-36554500D01*
X149398500Y-42953150D01*
X149384148Y-42987798D01*
X147750499Y-44621447D01*
X147622451Y-44749493D01*
X147622448Y-44749497D01*
X147516004Y-44896006D01*
X147433788Y-45057362D01*
X147377829Y-45229590D01*
X147377828Y-45229593D01*
X147349499Y-45408454D01*
X147349499Y-45591557D01*
X147349500Y-45591582D01*
X147349500Y-53753150D01*
X147335148Y-53787798D01*
X146834148Y-54288798D01*
X146799500Y-54303150D01*
X146764852Y-54288798D01*
X146750500Y-54254150D01*
X146750500Y-54170941D01*
X146750499Y-54170940D01*
X146709577Y-54018218D01*
X146709576Y-54018214D01*
X146630524Y-53881291D01*
X146630521Y-53881288D01*
X146630520Y-53881285D01*
X146518716Y-53769481D01*
X146518713Y-53769479D01*
X146518709Y-53769476D01*
X146381786Y-53690424D01*
X146381782Y-53690423D01*
X146229060Y-53649501D01*
X146229057Y-53649501D01*
X146070943Y-53649501D01*
X146070940Y-53649501D01*
X145918217Y-53690423D01*
X145918213Y-53690424D01*
X145781290Y-53769476D01*
X145781281Y-53769483D01*
X145669482Y-53881282D01*
X145669475Y-53881291D01*
X145590423Y-54018214D01*
X145590422Y-54018218D01*
X145549500Y-54170940D01*
X145549500Y-54329061D01*
X145590422Y-54481783D01*
X145590423Y-54481785D01*
X145669475Y-54618710D01*
X145669478Y-54618714D01*
X145669480Y-54618717D01*
X145781284Y-54730521D01*
X145781287Y-54730522D01*
X145781290Y-54730525D01*
X145918213Y-54809577D01*
X145918215Y-54809577D01*
X145918216Y-54809578D01*
X146038665Y-54841852D01*
X146070939Y-54850500D01*
X146070940Y-54850501D01*
X146154149Y-54850501D01*
X146188797Y-54864853D01*
X146203149Y-54899501D01*
X146188797Y-54934149D01*
X145960499Y-55162447D01*
X145832451Y-55290493D01*
X145832448Y-55290497D01*
X145755692Y-55396144D01*
X145726004Y-55437006D01*
X145643788Y-55598362D01*
X145587829Y-55770590D01*
X145587828Y-55770593D01*
X145559499Y-55949454D01*
X145559499Y-56132557D01*
X145559500Y-56132582D01*
X145559500Y-60940545D01*
X145587828Y-61119406D01*
X145587829Y-61119409D01*
X145643789Y-61291639D01*
X145726004Y-61452994D01*
X145832447Y-61599501D01*
X145832448Y-61599502D01*
X145832452Y-61599507D01*
X145960492Y-61727547D01*
X145960495Y-61727549D01*
X145960499Y-61727553D01*
X146107006Y-61833996D01*
X146202589Y-61882697D01*
X146207549Y-61885605D01*
X146217924Y-61892537D01*
X146228980Y-61899925D01*
X146228981Y-61899925D01*
X146228982Y-61899926D01*
X146240235Y-61904587D01*
X146413789Y-61976475D01*
X146609982Y-62015500D01*
X146609985Y-62015500D01*
X146810015Y-62015500D01*
X146810018Y-62015500D01*
X147006211Y-61976475D01*
X147191020Y-61899925D01*
X147212450Y-61885604D01*
X147217402Y-61882701D01*
X147312994Y-61833996D01*
X147459501Y-61727553D01*
X147459507Y-61727547D01*
X147587548Y-61599507D01*
X147587549Y-61599504D01*
X147587553Y-61599501D01*
X147693996Y-61452994D01*
X147776211Y-61291639D01*
X147832171Y-61119409D01*
X147860500Y-60940546D01*
X147860500Y-59825154D01*
X148285000Y-59825154D01*
X148285000Y-60750000D01*
X148748804Y-60750000D01*
X148740000Y-60782857D01*
X148740000Y-60917143D01*
X148748804Y-60950000D01*
X148285001Y-60950000D01*
X148285001Y-61874845D01*
X148290802Y-61904018D01*
X148290804Y-61904022D01*
X148312904Y-61937097D01*
X148345980Y-61959197D01*
X148375154Y-61964999D01*
X149149999Y-61964999D01*
X149150000Y-61964998D01*
X149150000Y-61351196D01*
X149182857Y-61360000D01*
X149317143Y-61360000D01*
X149350000Y-61351196D01*
X149350000Y-61964999D01*
X150124845Y-61964999D01*
X150124845Y-61964998D01*
X150154018Y-61959197D01*
X150154022Y-61959195D01*
X150187097Y-61937095D01*
X150209197Y-61904019D01*
X150215000Y-61874845D01*
X150215000Y-60950000D01*
X149751196Y-60950000D01*
X149760000Y-60917143D01*
X149760000Y-60782857D01*
X149751196Y-60750000D01*
X150214999Y-60750000D01*
X150214999Y-59825155D01*
X150214998Y-59825154D01*
X150209197Y-59795981D01*
X150209195Y-59795977D01*
X150187095Y-59762902D01*
X150154019Y-59740802D01*
X150124846Y-59735000D01*
X149350000Y-59735000D01*
X149350000Y-60348803D01*
X149317143Y-60340000D01*
X149182857Y-60340000D01*
X149150000Y-60348803D01*
X149150000Y-59735000D01*
X148375155Y-59735000D01*
X148375154Y-59735001D01*
X148345981Y-59740802D01*
X148345977Y-59740804D01*
X148312902Y-59762904D01*
X148290802Y-59795980D01*
X148285000Y-59825154D01*
X147860500Y-59825154D01*
X147860500Y-56536848D01*
X147874851Y-56502201D01*
X149246707Y-55130344D01*
X149246714Y-55130339D01*
X149249499Y-55127553D01*
X149249501Y-55127553D01*
X149377553Y-54999501D01*
X149483996Y-54852994D01*
X149566211Y-54691639D01*
X149622171Y-54519409D01*
X149628130Y-54481785D01*
X149650501Y-54340547D01*
X149650501Y-54159454D01*
X149650501Y-54157715D01*
X149650500Y-54157700D01*
X149650500Y-45995847D01*
X149664851Y-45961200D01*
X151296524Y-44329526D01*
X151296552Y-44329502D01*
X151426548Y-44199507D01*
X151426549Y-44199504D01*
X151426553Y-44199501D01*
X151460858Y-44152284D01*
X151492835Y-44132688D01*
X151529301Y-44141443D01*
X151548897Y-44173420D01*
X151549500Y-44181085D01*
X151549500Y-63148396D01*
X151549395Y-63151601D01*
X151534314Y-63381681D01*
X151533478Y-63388032D01*
X151488810Y-63612595D01*
X151487154Y-63618778D01*
X151413552Y-63835600D01*
X151411099Y-63841521D01*
X151309833Y-64046870D01*
X151306628Y-64052421D01*
X151179422Y-64242796D01*
X151175520Y-64247881D01*
X151024556Y-64420024D01*
X151020024Y-64424556D01*
X150847881Y-64575520D01*
X150842796Y-64579422D01*
X150652421Y-64706628D01*
X150646870Y-64709833D01*
X150441521Y-64811099D01*
X150435600Y-64813552D01*
X150218778Y-64887154D01*
X150212595Y-64888810D01*
X149988032Y-64933478D01*
X149981681Y-64934314D01*
X149751602Y-64949395D01*
X149748397Y-64949500D01*
X129251488Y-64949500D01*
X129248529Y-64949411D01*
X128975776Y-64932912D01*
X128969903Y-64932198D01*
X128702611Y-64883215D01*
X128696865Y-64881799D01*
X128437415Y-64800951D01*
X128431883Y-64798853D01*
X128184073Y-64687323D01*
X128178833Y-64684573D01*
X127946270Y-64543983D01*
X127941401Y-64540622D01*
X127727481Y-64373027D01*
X127723052Y-64369103D01*
X127530896Y-64176947D01*
X127526972Y-64172518D01*
X127503993Y-64143188D01*
X127388611Y-63995913D01*
X127359377Y-63958598D01*
X127356016Y-63953729D01*
X127326310Y-63904589D01*
X127215422Y-63721160D01*
X127212680Y-63715933D01*
X127101145Y-63468114D01*
X127099048Y-63462584D01*
X127088745Y-63429520D01*
X127018199Y-63203130D01*
X127016784Y-63197388D01*
X126967800Y-62930088D01*
X126967087Y-62924222D01*
X126965899Y-62904589D01*
X126950589Y-62651470D01*
X126950500Y-62648512D01*
X126950500Y-58232263D01*
X126964852Y-58197615D01*
X126990515Y-58184094D01*
X127087578Y-58165989D01*
X131943166Y-57260280D01*
X131943381Y-57260241D01*
X131948882Y-57259257D01*
X131949980Y-57259476D01*
X131970662Y-57255363D01*
X131971102Y-57255285D01*
X131971238Y-57255314D01*
X131989101Y-57251722D01*
X131989102Y-57251723D01*
X131989621Y-57251618D01*
X131990124Y-57251521D01*
X132025971Y-57244835D01*
X132025972Y-57244834D01*
X132027431Y-57244562D01*
X132032952Y-57242917D01*
X132041425Y-57241217D01*
X132138318Y-57196453D01*
X132222025Y-57130230D01*
X132287882Y-57046235D01*
X132332224Y-56949147D01*
X132352580Y-56844372D01*
X132350545Y-56796802D01*
X132350500Y-56794708D01*
X132350500Y-43621135D01*
X132350501Y-43620878D01*
X132350747Y-43573906D01*
X132327534Y-43472906D01*
X132327534Y-43472905D01*
X132326346Y-43470480D01*
X132281951Y-43379830D01*
X132216388Y-43299567D01*
X132134285Y-43236325D01*
X132039947Y-43193420D01*
X132039945Y-43193419D01*
X132032449Y-43191933D01*
X132026705Y-43190793D01*
X132025664Y-43190117D01*
X131987775Y-43183073D01*
X131987441Y-43183007D01*
X131987439Y-43183006D01*
X131987367Y-43182992D01*
X131948624Y-43175246D01*
X131942731Y-43174700D01*
X126991697Y-42254371D01*
X126960255Y-42233929D01*
X126951652Y-42206199D01*
X126951652Y-42204585D01*
X126951638Y-41997269D01*
X130549500Y-41997269D01*
X130549500Y-42102730D01*
X130576792Y-42204585D01*
X130576793Y-42204589D01*
X130611587Y-42264852D01*
X130629520Y-42295913D01*
X130704087Y-42370480D01*
X130737513Y-42389778D01*
X130795410Y-42423206D01*
X130795412Y-42423206D01*
X130795413Y-42423207D01*
X130875747Y-42444732D01*
X130897269Y-42450499D01*
X130897270Y-42450500D01*
X130897273Y-42450500D01*
X131002730Y-42450500D01*
X131002730Y-42450499D01*
X131104587Y-42423207D01*
X131195913Y-42370480D01*
X131270480Y-42295913D01*
X131282553Y-42275000D01*
X131312306Y-42252170D01*
X131324989Y-42250500D01*
X135396654Y-42250500D01*
X135431302Y-42264852D01*
X136543066Y-43376616D01*
X136557418Y-43411264D01*
X136555749Y-43423943D01*
X136549500Y-43447270D01*
X136549500Y-43552730D01*
X136576792Y-43654585D01*
X136576793Y-43654589D01*
X136629520Y-43745913D01*
X136704087Y-43820480D01*
X136737513Y-43839778D01*
X136795410Y-43873206D01*
X136795412Y-43873206D01*
X136795413Y-43873207D01*
X136875747Y-43894732D01*
X136897269Y-43900499D01*
X136897270Y-43900500D01*
X136897273Y-43900500D01*
X137002730Y-43900500D01*
X137002730Y-43900499D01*
X137104587Y-43873207D01*
X137195913Y-43820480D01*
X137270480Y-43745913D01*
X137323207Y-43654587D01*
X137350499Y-43552730D01*
X137350500Y-43552730D01*
X137350500Y-43447270D01*
X137350499Y-43447269D01*
X137344249Y-43423943D01*
X137323207Y-43345413D01*
X137323206Y-43345412D01*
X137323206Y-43345410D01*
X137270479Y-43254086D01*
X137195913Y-43179520D01*
X137104589Y-43126793D01*
X137104585Y-43126792D01*
X137002730Y-43099500D01*
X137002727Y-43099500D01*
X136897273Y-43099500D01*
X136897271Y-43099500D01*
X136873943Y-43105749D01*
X136836761Y-43100852D01*
X136826616Y-43093066D01*
X135613576Y-41880025D01*
X135539883Y-41849500D01*
X135539882Y-41849500D01*
X131324989Y-41849500D01*
X131290341Y-41835148D01*
X131282553Y-41824999D01*
X131270482Y-41804090D01*
X131270477Y-41804084D01*
X131195913Y-41729520D01*
X131104589Y-41676793D01*
X131104585Y-41676792D01*
X131002730Y-41649500D01*
X131002727Y-41649500D01*
X130897273Y-41649500D01*
X130897270Y-41649500D01*
X130795414Y-41676792D01*
X130795410Y-41676793D01*
X130704086Y-41729520D01*
X130704086Y-41729521D01*
X130629521Y-41804086D01*
X130629520Y-41804086D01*
X130576793Y-41895410D01*
X130576792Y-41895414D01*
X130549500Y-41997269D01*
X126951638Y-41997269D01*
X126951484Y-39647269D01*
X128699500Y-39647269D01*
X128699500Y-39752730D01*
X128726792Y-39854585D01*
X128726793Y-39854589D01*
X128779520Y-39945913D01*
X128854087Y-40020480D01*
X128882385Y-40036818D01*
X128945410Y-40073206D01*
X128945412Y-40073206D01*
X128945413Y-40073207D01*
X129025747Y-40094732D01*
X129047269Y-40100499D01*
X129047270Y-40100500D01*
X129047273Y-40100500D01*
X129152730Y-40100500D01*
X129152730Y-40100499D01*
X129254587Y-40073207D01*
X129345913Y-40020480D01*
X129351541Y-40014852D01*
X129386189Y-40000500D01*
X137310438Y-40000500D01*
X137611304Y-40000500D01*
X137645952Y-40014852D01*
X137658634Y-40036818D01*
X137676792Y-40104585D01*
X137676793Y-40104589D01*
X137700780Y-40146134D01*
X137729520Y-40195913D01*
X137804087Y-40270480D01*
X137837513Y-40289778D01*
X137895410Y-40323206D01*
X137895412Y-40323206D01*
X137895413Y-40323207D01*
X137975747Y-40344732D01*
X137997269Y-40350499D01*
X137997270Y-40350500D01*
X137997273Y-40350500D01*
X138102730Y-40350500D01*
X138102730Y-40350499D01*
X138204587Y-40323207D01*
X138295913Y-40270480D01*
X138301541Y-40264852D01*
X138336189Y-40250500D01*
X138405233Y-40250500D01*
X138439881Y-40264852D01*
X139135148Y-40960119D01*
X139149500Y-40994767D01*
X139149500Y-45599306D01*
X139135148Y-45633954D01*
X139100500Y-45648306D01*
X139065852Y-45633954D01*
X139058065Y-45623807D01*
X139046680Y-45604087D01*
X138972113Y-45529520D01*
X138880789Y-45476793D01*
X138880785Y-45476792D01*
X138815419Y-45459277D01*
X138785666Y-45436447D01*
X138779101Y-45411947D01*
X138779101Y-42041783D01*
X138779100Y-42041779D01*
X138760665Y-41997273D01*
X138744588Y-41958459D01*
X138744586Y-41958457D01*
X138744586Y-41958456D01*
X138680816Y-41894687D01*
X137577814Y-40791684D01*
X137563462Y-40757036D01*
X137570025Y-40732540D01*
X137603866Y-40673928D01*
X137631158Y-40572071D01*
X137631159Y-40572071D01*
X137631159Y-40466611D01*
X137631158Y-40466610D01*
X137603866Y-40364755D01*
X137603865Y-40364751D01*
X137551138Y-40273427D01*
X137476572Y-40198861D01*
X137385248Y-40146134D01*
X137385244Y-40146133D01*
X137283389Y-40118841D01*
X137283386Y-40118841D01*
X137177932Y-40118841D01*
X137177929Y-40118841D01*
X137076073Y-40146133D01*
X137076069Y-40146134D01*
X136984745Y-40198861D01*
X136984745Y-40198862D01*
X136910180Y-40273427D01*
X136910179Y-40273427D01*
X136857452Y-40364751D01*
X136857451Y-40364755D01*
X136830159Y-40466610D01*
X136830159Y-40531159D01*
X136815807Y-40565807D01*
X136781159Y-40580159D01*
X136716611Y-40580159D01*
X136614755Y-40607451D01*
X136614751Y-40607452D01*
X136523427Y-40660179D01*
X136523427Y-40660180D01*
X136448862Y-40734745D01*
X136448861Y-40734745D01*
X136396134Y-40826069D01*
X136396133Y-40826073D01*
X136368841Y-40927928D01*
X136368841Y-41033389D01*
X136396133Y-41135244D01*
X136396134Y-41135248D01*
X136448861Y-41226572D01*
X136523428Y-41301139D01*
X136547663Y-41315131D01*
X136614751Y-41353865D01*
X136614753Y-41353865D01*
X136614754Y-41353866D01*
X136695088Y-41375391D01*
X136716610Y-41381158D01*
X136716611Y-41381159D01*
X136716614Y-41381159D01*
X136822071Y-41381159D01*
X136822071Y-41381158D01*
X136923928Y-41353866D01*
X136982538Y-41320026D01*
X137019717Y-41315131D01*
X137041684Y-41327814D01*
X138006547Y-42292676D01*
X138020899Y-42327324D01*
X138020899Y-45411947D01*
X138006547Y-45446595D01*
X137984581Y-45459277D01*
X137919214Y-45476792D01*
X137919210Y-45476793D01*
X137827886Y-45529520D01*
X137827886Y-45529521D01*
X137753321Y-45604086D01*
X137753320Y-45604086D01*
X137700593Y-45695410D01*
X137700592Y-45695414D01*
X137673300Y-45797269D01*
X137673300Y-45902730D01*
X137700592Y-46004585D01*
X137700593Y-46004589D01*
X137748758Y-46088011D01*
X137753320Y-46095913D01*
X137827887Y-46170480D01*
X137861313Y-46189778D01*
X137919210Y-46223206D01*
X137919212Y-46223206D01*
X137919213Y-46223207D01*
X137999547Y-46244732D01*
X138021069Y-46250499D01*
X138021070Y-46250500D01*
X138021073Y-46250500D01*
X138126530Y-46250500D01*
X138126530Y-46250499D01*
X138228387Y-46223207D01*
X138319713Y-46170480D01*
X138365352Y-46124841D01*
X138400000Y-46110489D01*
X138434648Y-46124841D01*
X138480287Y-46170480D01*
X138513713Y-46189778D01*
X138571610Y-46223206D01*
X138571612Y-46223206D01*
X138571613Y-46223207D01*
X138651947Y-46244732D01*
X138673469Y-46250499D01*
X138673470Y-46250500D01*
X138673473Y-46250500D01*
X138778930Y-46250500D01*
X138778930Y-46250499D01*
X138880787Y-46223207D01*
X138972113Y-46170480D01*
X139046680Y-46095913D01*
X139058065Y-46076192D01*
X139087818Y-46053363D01*
X139125000Y-46058258D01*
X139147830Y-46088011D01*
X139149500Y-46100693D01*
X139149500Y-55176001D01*
X139135148Y-55210649D01*
X136659541Y-57686256D01*
X136659540Y-57686256D01*
X136619979Y-57754776D01*
X136619979Y-57754778D01*
X136599500Y-57831204D01*
X136599500Y-57905233D01*
X136585148Y-57939881D01*
X134816272Y-59708756D01*
X134781624Y-59723108D01*
X134746976Y-59708756D01*
X134734294Y-59686790D01*
X134723207Y-59645413D01*
X134723206Y-59645410D01*
X134670479Y-59554086D01*
X134595912Y-59479519D01*
X134594665Y-59478562D01*
X134594269Y-59477876D01*
X134593642Y-59477249D01*
X134593810Y-59477080D01*
X134575918Y-59446081D01*
X134575500Y-59439692D01*
X134575500Y-58063700D01*
X134589851Y-58029053D01*
X136854676Y-55764227D01*
X136889323Y-55749876D01*
X136895721Y-55750296D01*
X136897270Y-55750500D01*
X136897273Y-55750500D01*
X137002730Y-55750500D01*
X137002730Y-55750499D01*
X137104587Y-55723207D01*
X137195913Y-55670480D01*
X137270480Y-55595913D01*
X137322807Y-55505280D01*
X137323206Y-55504589D01*
X137323206Y-55504588D01*
X137323207Y-55504587D01*
X137350499Y-55402730D01*
X137350500Y-55402730D01*
X137350500Y-55297270D01*
X137350499Y-55297269D01*
X137323207Y-55195414D01*
X137323206Y-55195410D01*
X137289778Y-55137513D01*
X137270480Y-55104087D01*
X137195913Y-55029520D01*
X137104589Y-54976793D01*
X137104585Y-54976792D01*
X137002730Y-54949500D01*
X137002727Y-54949500D01*
X136897273Y-54949500D01*
X136897270Y-54949500D01*
X136795414Y-54976792D01*
X136795410Y-54976793D01*
X136704086Y-55029520D01*
X136704086Y-55029521D01*
X136629521Y-55104086D01*
X136629520Y-55104086D01*
X136576793Y-55195410D01*
X136576792Y-55195414D01*
X136549500Y-55297269D01*
X136549500Y-55402732D01*
X136549704Y-55404283D01*
X136549500Y-55405044D01*
X136549500Y-55405938D01*
X136549260Y-55405938D01*
X136539994Y-55440507D01*
X136535771Y-55445322D01*
X134222265Y-57758829D01*
X134158830Y-57822263D01*
X134155126Y-57831206D01*
X134148774Y-57846539D01*
X134148774Y-57846540D01*
X134148773Y-57846539D01*
X134124500Y-57905140D01*
X134124499Y-57905147D01*
X134124499Y-58000555D01*
X134124500Y-58000564D01*
X134124500Y-59439692D01*
X134110148Y-59474340D01*
X134105335Y-59478562D01*
X134104087Y-59479519D01*
X134029521Y-59554086D01*
X134029520Y-59554086D01*
X133976793Y-59645410D01*
X133976792Y-59645414D01*
X133949500Y-59747269D01*
X133949500Y-59852730D01*
X133976792Y-59954585D01*
X133976793Y-59954589D01*
X134029520Y-60045913D01*
X134104087Y-60120480D01*
X134137513Y-60139778D01*
X134195410Y-60173206D01*
X134195413Y-60173207D01*
X134236790Y-60184294D01*
X134246937Y-60192080D01*
X134258756Y-60196976D01*
X134261289Y-60203093D01*
X134266543Y-60207124D01*
X134268212Y-60219805D01*
X134273108Y-60231624D01*
X134270573Y-60237741D01*
X134271438Y-60244306D01*
X134258756Y-60266272D01*
X134239880Y-60285148D01*
X134205232Y-60299500D01*
X134084105Y-60299500D01*
X133956815Y-60333607D01*
X133956811Y-60333608D01*
X133842685Y-60399500D01*
X133842685Y-60399501D01*
X133749501Y-60492685D01*
X133749500Y-60492685D01*
X133683608Y-60606811D01*
X133683607Y-60606815D01*
X133649500Y-60734104D01*
X133649500Y-60755290D01*
X133635148Y-60789938D01*
X133108541Y-61316545D01*
X133108540Y-61316545D01*
X133068979Y-61385065D01*
X133068979Y-61385067D01*
X133048500Y-61461493D01*
X133048500Y-61461495D01*
X133048500Y-62188562D01*
X133068979Y-62264989D01*
X133082462Y-62288342D01*
X133082463Y-62288343D01*
X133108537Y-62333507D01*
X133108542Y-62333513D01*
X134635148Y-63860119D01*
X134649500Y-63894767D01*
X134649500Y-64015895D01*
X134683607Y-64143184D01*
X134683608Y-64143188D01*
X134744054Y-64247881D01*
X134749500Y-64257314D01*
X134842686Y-64350500D01*
X134874907Y-64369103D01*
X134956811Y-64416391D01*
X134956813Y-64416391D01*
X134956814Y-64416392D01*
X134987283Y-64424556D01*
X135084104Y-64450499D01*
X135084105Y-64450500D01*
X135084108Y-64450500D01*
X135215895Y-64450500D01*
X135215895Y-64450499D01*
X135343186Y-64416392D01*
X135457314Y-64350500D01*
X135550500Y-64257314D01*
X135616392Y-64143186D01*
X135650499Y-64015895D01*
X135650500Y-64015895D01*
X135650500Y-63884105D01*
X135650499Y-63884104D01*
X135637502Y-63835600D01*
X135616392Y-63756814D01*
X135616391Y-63756813D01*
X135616391Y-63756811D01*
X135550499Y-63642685D01*
X135457314Y-63549500D01*
X135343188Y-63483608D01*
X135343184Y-63483607D01*
X135215895Y-63449500D01*
X135215892Y-63449500D01*
X135094767Y-63449500D01*
X135060119Y-63435148D01*
X133859074Y-62234103D01*
X133844722Y-62199455D01*
X133859074Y-62164807D01*
X133893722Y-62150455D01*
X133894403Y-62150500D01*
X133897273Y-62150500D01*
X134002730Y-62150500D01*
X134002730Y-62150499D01*
X134104587Y-62123207D01*
X134195913Y-62070480D01*
X134270480Y-61995913D01*
X134323207Y-61904587D01*
X134349843Y-61805179D01*
X134362523Y-61783215D01*
X136779888Y-59365852D01*
X136814536Y-59351500D01*
X137323436Y-59351500D01*
X137323444Y-59351501D01*
X137329145Y-59351501D01*
X137418853Y-59351501D01*
X137418855Y-59351501D01*
X137477460Y-59327225D01*
X137494164Y-59320306D01*
X137501732Y-59317172D01*
X137501733Y-59317171D01*
X137501736Y-59317170D01*
X137565170Y-59253736D01*
X137565170Y-59253735D01*
X137572059Y-59246846D01*
X137572060Y-59246843D01*
X138140853Y-58678051D01*
X138175500Y-58663700D01*
X138210148Y-58678052D01*
X138224500Y-58712700D01*
X138224500Y-61401188D01*
X138224499Y-61401202D01*
X138224499Y-61405145D01*
X138224499Y-61494855D01*
X138243456Y-61540619D01*
X138258830Y-61577736D01*
X138258831Y-61577737D01*
X138258831Y-61577738D01*
X138329155Y-61648061D01*
X138329157Y-61648062D01*
X139335771Y-62654676D01*
X139350123Y-62689324D01*
X139349705Y-62695712D01*
X139349500Y-62697271D01*
X139349500Y-62802730D01*
X139376792Y-62904585D01*
X139376793Y-62904589D01*
X139429520Y-62995913D01*
X139504087Y-63070480D01*
X139527368Y-63083921D01*
X139595410Y-63123206D01*
X139595412Y-63123206D01*
X139595413Y-63123207D01*
X139674504Y-63144399D01*
X139697269Y-63150499D01*
X139697270Y-63150500D01*
X139697273Y-63150500D01*
X139802726Y-63150500D01*
X139802727Y-63150500D01*
X139802727Y-63150499D01*
X139804274Y-63150296D01*
X139805036Y-63150500D01*
X139805939Y-63150500D01*
X139805939Y-63150741D01*
X139840500Y-63159999D01*
X139845323Y-63164228D01*
X140556034Y-63874939D01*
X140556037Y-63874943D01*
X140622261Y-63941168D01*
X140622263Y-63941169D01*
X140622264Y-63941170D01*
X140656595Y-63955390D01*
X140705146Y-63975501D01*
X140705148Y-63975501D01*
X140800556Y-63975501D01*
X140800564Y-63975500D01*
X142289692Y-63975500D01*
X142324340Y-63989852D01*
X142328562Y-63994665D01*
X142329519Y-63995912D01*
X142329520Y-63995913D01*
X142404087Y-64070480D01*
X142437513Y-64089778D01*
X142495410Y-64123206D01*
X142495412Y-64123206D01*
X142495413Y-64123207D01*
X142569984Y-64143188D01*
X142597269Y-64150499D01*
X142597270Y-64150500D01*
X142597273Y-64150500D01*
X142702730Y-64150500D01*
X142702730Y-64150499D01*
X142804587Y-64123207D01*
X142895913Y-64070480D01*
X142970480Y-63995913D01*
X143023207Y-63904587D01*
X143050499Y-63802730D01*
X143050500Y-63802730D01*
X143050500Y-63697270D01*
X143050499Y-63697269D01*
X143035873Y-63642685D01*
X143023207Y-63595413D01*
X143023206Y-63595412D01*
X143023206Y-63595410D01*
X142971791Y-63506358D01*
X142970480Y-63504087D01*
X142895913Y-63429520D01*
X142804589Y-63376793D01*
X142804585Y-63376792D01*
X142702730Y-63349500D01*
X142702727Y-63349500D01*
X142597273Y-63349500D01*
X142597270Y-63349500D01*
X142495414Y-63376792D01*
X142495410Y-63376793D01*
X142404086Y-63429520D01*
X142404086Y-63429521D01*
X142329519Y-63504087D01*
X142328562Y-63505335D01*
X142327876Y-63505730D01*
X142327249Y-63506358D01*
X142327080Y-63506189D01*
X142296081Y-63524082D01*
X142289692Y-63524500D01*
X140863701Y-63524500D01*
X140829053Y-63510148D01*
X140254983Y-62936078D01*
X143419500Y-62936078D01*
X143419500Y-63083921D01*
X143448340Y-63228906D01*
X143448342Y-63228915D01*
X143504914Y-63365491D01*
X143504916Y-63365495D01*
X143517870Y-63384882D01*
X143583835Y-63483607D01*
X143587049Y-63488416D01*
X143691584Y-63592951D01*
X143814505Y-63675084D01*
X143868067Y-63697270D01*
X143951084Y-63731657D01*
X143951085Y-63731657D01*
X143951087Y-63731658D01*
X144096082Y-63760500D01*
X144243918Y-63760500D01*
X144388913Y-63731658D01*
X144525495Y-63675084D01*
X144648416Y-63592951D01*
X144752951Y-63488416D01*
X144835084Y-63365495D01*
X144891658Y-63228913D01*
X144920500Y-63083918D01*
X144920500Y-62936082D01*
X144891658Y-62791087D01*
X144835084Y-62654505D01*
X144752951Y-62531584D01*
X144648416Y-62427049D01*
X144525495Y-62344916D01*
X144525492Y-62344914D01*
X144525491Y-62344914D01*
X144388915Y-62288342D01*
X144388906Y-62288340D01*
X144243921Y-62259500D01*
X144243918Y-62259500D01*
X144096082Y-62259500D01*
X144096078Y-62259500D01*
X143951093Y-62288340D01*
X143951084Y-62288342D01*
X143814508Y-62344914D01*
X143691584Y-62427048D01*
X143587048Y-62531584D01*
X143504914Y-62654508D01*
X143448342Y-62791084D01*
X143448340Y-62791093D01*
X143419500Y-62936078D01*
X140254983Y-62936078D01*
X140164228Y-62845323D01*
X140149876Y-62810675D01*
X140150296Y-62804274D01*
X140150500Y-62802725D01*
X140150500Y-62697270D01*
X140150499Y-62697269D01*
X140123207Y-62595414D01*
X140123206Y-62595410D01*
X140070479Y-62504086D01*
X139995913Y-62429520D01*
X139904589Y-62376793D01*
X139904585Y-62376792D01*
X139802730Y-62349500D01*
X139802727Y-62349500D01*
X139697273Y-62349500D01*
X139697271Y-62349500D01*
X139695712Y-62349705D01*
X139694947Y-62349500D01*
X139694062Y-62349500D01*
X139694062Y-62349262D01*
X139659488Y-62339993D01*
X139654676Y-62335771D01*
X138689852Y-61370947D01*
X138675500Y-61336299D01*
X138675500Y-60599982D01*
X140614500Y-60599982D01*
X140614500Y-61100018D01*
X140645945Y-61258102D01*
X140653525Y-61296211D01*
X140653525Y-61296212D01*
X140730073Y-61481016D01*
X140730075Y-61481020D01*
X140794699Y-61577737D01*
X140837083Y-61641170D01*
X140841209Y-61647344D01*
X140982656Y-61788791D01*
X141148980Y-61899925D01*
X141333789Y-61976475D01*
X141529982Y-62015500D01*
X141529985Y-62015500D01*
X141730015Y-62015500D01*
X141730018Y-62015500D01*
X141926211Y-61976475D01*
X142111020Y-61899925D01*
X142277344Y-61788791D01*
X142418791Y-61647344D01*
X142529925Y-61481020D01*
X142606475Y-61296211D01*
X142645500Y-61100018D01*
X142645500Y-60599982D01*
X143154501Y-60599982D01*
X143154501Y-61100018D01*
X143185946Y-61258102D01*
X143193526Y-61296211D01*
X143193526Y-61296212D01*
X143270074Y-61481016D01*
X143270076Y-61481020D01*
X143334700Y-61577737D01*
X143377084Y-61641170D01*
X143381210Y-61647344D01*
X143522657Y-61788791D01*
X143688981Y-61899925D01*
X143873790Y-61976475D01*
X144069983Y-62015500D01*
X144069986Y-62015500D01*
X144270016Y-62015500D01*
X144270019Y-62015500D01*
X144466212Y-61976475D01*
X144651021Y-61899925D01*
X144817345Y-61788791D01*
X144958792Y-61647344D01*
X145069926Y-61481020D01*
X145146476Y-61296211D01*
X145185501Y-61100018D01*
X145185501Y-60599982D01*
X145146476Y-60403789D01*
X145069926Y-60218980D01*
X144958792Y-60052656D01*
X144817345Y-59911209D01*
X144651021Y-59800075D01*
X144651018Y-59800073D01*
X144651017Y-59800073D01*
X144466212Y-59723525D01*
X144464116Y-59723108D01*
X144270019Y-59684500D01*
X144069983Y-59684500D01*
X143922838Y-59713768D01*
X143873789Y-59723525D01*
X143873788Y-59723525D01*
X143688984Y-59800073D01*
X143522657Y-59911208D01*
X143381209Y-60052656D01*
X143270074Y-60218983D01*
X143193526Y-60403787D01*
X143193526Y-60403788D01*
X143193526Y-60403789D01*
X143154501Y-60599982D01*
X142645500Y-60599982D01*
X142606475Y-60403789D01*
X142529925Y-60218980D01*
X142418791Y-60052656D01*
X142277344Y-59911209D01*
X142111020Y-59800075D01*
X142111017Y-59800073D01*
X142111016Y-59800073D01*
X141926211Y-59723525D01*
X141924115Y-59723108D01*
X141730018Y-59684500D01*
X141529982Y-59684500D01*
X141382837Y-59713768D01*
X141333788Y-59723525D01*
X141333787Y-59723525D01*
X141148983Y-59800073D01*
X140982656Y-59911208D01*
X140841208Y-60052656D01*
X140730073Y-60218983D01*
X140653525Y-60403787D01*
X140653525Y-60403788D01*
X140653525Y-60403789D01*
X140614500Y-60599982D01*
X138675500Y-60599982D01*
X138675500Y-58713701D01*
X138689852Y-58679053D01*
X140866705Y-56502200D01*
X143404677Y-53964227D01*
X143439324Y-53949876D01*
X143445723Y-53950296D01*
X143447272Y-53950500D01*
X143447273Y-53950500D01*
X143552730Y-53950500D01*
X143552730Y-53950499D01*
X143654587Y-53923207D01*
X143745913Y-53870480D01*
X143820480Y-53795913D01*
X143873207Y-53704587D01*
X143900499Y-53602730D01*
X143900500Y-53602730D01*
X143900500Y-53497270D01*
X143900499Y-53497269D01*
X143873207Y-53395414D01*
X143873206Y-53395410D01*
X143820479Y-53304086D01*
X143745913Y-53229520D01*
X143654589Y-53176793D01*
X143654585Y-53176792D01*
X143552730Y-53149500D01*
X143552727Y-53149500D01*
X143447273Y-53149500D01*
X143447270Y-53149500D01*
X143345414Y-53176792D01*
X143345410Y-53176793D01*
X143254086Y-53229520D01*
X143254086Y-53229521D01*
X143179521Y-53304086D01*
X143179520Y-53304086D01*
X143126793Y-53395410D01*
X143126792Y-53395414D01*
X143099500Y-53497269D01*
X143099500Y-53602729D01*
X143099704Y-53604280D01*
X143099500Y-53605041D01*
X143099500Y-53605939D01*
X143099259Y-53605939D01*
X143089996Y-53640504D01*
X143085771Y-53645321D01*
X141885148Y-54845945D01*
X141850500Y-54860297D01*
X141815852Y-54845945D01*
X141801500Y-54811297D01*
X141801500Y-52855313D01*
X141808064Y-52830814D01*
X141823207Y-52804587D01*
X141850499Y-52702730D01*
X141850500Y-52702730D01*
X141850500Y-52597270D01*
X141850499Y-52597269D01*
X141823207Y-52495414D01*
X141823206Y-52495410D01*
X141770479Y-52404086D01*
X141695913Y-52329520D01*
X141604589Y-52276793D01*
X141604585Y-52276792D01*
X141502730Y-52249500D01*
X141502727Y-52249500D01*
X141397273Y-52249500D01*
X141397270Y-52249500D01*
X141295414Y-52276792D01*
X141295410Y-52276793D01*
X141204086Y-52329520D01*
X141204086Y-52329521D01*
X141129521Y-52404086D01*
X141129520Y-52404086D01*
X141076793Y-52495410D01*
X141076792Y-52495414D01*
X141049500Y-52597269D01*
X141049500Y-52702730D01*
X141076792Y-52804585D01*
X141076793Y-52804589D01*
X141129520Y-52895913D01*
X141204087Y-52970480D01*
X141256811Y-53000920D01*
X141295409Y-53023205D01*
X141295410Y-53023205D01*
X141295413Y-53023207D01*
X141314182Y-53028236D01*
X141343935Y-53051065D01*
X141350500Y-53075566D01*
X141350500Y-54810298D01*
X141336148Y-54844946D01*
X137294947Y-58886148D01*
X137260299Y-58900500D01*
X136745688Y-58900500D01*
X136655979Y-58900500D01*
X136655977Y-58900500D01*
X136655975Y-58900501D01*
X136573713Y-58934575D01*
X136536210Y-58934575D01*
X136509692Y-58908056D01*
X136509692Y-58870553D01*
X136520314Y-58854657D01*
X137140457Y-58234514D01*
X137140457Y-58234513D01*
X137140460Y-58234511D01*
X137143403Y-58229413D01*
X137180021Y-58165989D01*
X137200500Y-58089562D01*
X137200500Y-58015535D01*
X137214852Y-57980887D01*
X139690459Y-55505280D01*
X139690460Y-55505279D01*
X139730022Y-55436756D01*
X139750499Y-55360333D01*
X139750500Y-55360333D01*
X139750500Y-51335176D01*
X143899500Y-51335176D01*
X143899500Y-52364823D01*
X143908232Y-52408721D01*
X143941495Y-52458504D01*
X143991278Y-52491767D01*
X144035180Y-52500500D01*
X145064820Y-52500500D01*
X145108722Y-52491767D01*
X145158504Y-52458504D01*
X145191767Y-52408722D01*
X145200500Y-52364820D01*
X145200500Y-51335180D01*
X145191767Y-51291278D01*
X145158504Y-51241495D01*
X145108721Y-51208232D01*
X145064823Y-51199500D01*
X145064820Y-51199500D01*
X144035180Y-51199500D01*
X144035176Y-51199500D01*
X143991278Y-51208232D01*
X143941495Y-51241495D01*
X143908232Y-51291278D01*
X143899500Y-51335176D01*
X139750500Y-51335176D01*
X139750500Y-49735176D01*
X143899500Y-49735176D01*
X143899500Y-50764823D01*
X143908232Y-50808721D01*
X143941495Y-50858504D01*
X143991278Y-50891767D01*
X144035180Y-50900500D01*
X145064820Y-50900500D01*
X145108722Y-50891767D01*
X145158504Y-50858504D01*
X145191767Y-50808722D01*
X145200500Y-50764820D01*
X145200500Y-49735180D01*
X145191767Y-49691278D01*
X145158504Y-49641495D01*
X145108721Y-49608232D01*
X145064823Y-49599500D01*
X145064820Y-49599500D01*
X144035180Y-49599500D01*
X144035176Y-49599500D01*
X143991278Y-49608232D01*
X143941495Y-49641495D01*
X143908232Y-49691278D01*
X143899500Y-49735176D01*
X139750500Y-49735176D01*
X139750500Y-40810436D01*
X139738351Y-40765098D01*
X139730021Y-40734011D01*
X139730020Y-40734009D01*
X139730020Y-40734008D01*
X139690459Y-40665488D01*
X138734513Y-39709542D01*
X138734511Y-39709540D01*
X138734508Y-39709538D01*
X138734504Y-39709535D01*
X138725068Y-39704088D01*
X138725066Y-39704087D01*
X138665990Y-39669979D01*
X138589564Y-39649500D01*
X138589562Y-39649500D01*
X138336189Y-39649500D01*
X138301541Y-39635148D01*
X138295913Y-39629520D01*
X138204589Y-39576793D01*
X138204585Y-39576792D01*
X138102730Y-39549500D01*
X138102727Y-39549500D01*
X138094767Y-39549500D01*
X138060119Y-39535148D01*
X137984513Y-39459542D01*
X137984507Y-39459537D01*
X137950261Y-39439766D01*
X137929303Y-39427666D01*
X137915989Y-39419979D01*
X137915988Y-39419978D01*
X137915987Y-39419978D01*
X137839564Y-39399500D01*
X137839562Y-39399500D01*
X137420307Y-39399500D01*
X137385659Y-39385148D01*
X137371307Y-39350500D01*
X137385659Y-39315852D01*
X137401138Y-39300373D01*
X137401139Y-39300372D01*
X137453866Y-39209046D01*
X137481158Y-39107189D01*
X137481159Y-39107189D01*
X137481159Y-39001729D01*
X137481158Y-39001728D01*
X137453866Y-38899873D01*
X137453865Y-38899870D01*
X137420027Y-38841262D01*
X137415131Y-38804080D01*
X137427812Y-38782116D01*
X137722846Y-38487084D01*
X137757359Y-38403762D01*
X137757359Y-38313574D01*
X137757359Y-35721504D01*
X137761089Y-35702752D01*
X137771933Y-35676572D01*
X137773241Y-35673415D01*
X137773241Y-35583228D01*
X137773241Y-35313448D01*
X137787593Y-35278800D01*
X137851138Y-35215255D01*
X137851139Y-35215254D01*
X137896801Y-35136164D01*
X137903865Y-35123930D01*
X137903865Y-35123929D01*
X137903866Y-35123928D01*
X137931158Y-35022071D01*
X137931159Y-35022071D01*
X137931159Y-34916611D01*
X137931158Y-34916610D01*
X137903866Y-34814755D01*
X137903865Y-34814751D01*
X137851138Y-34723427D01*
X137776572Y-34648861D01*
X137685248Y-34596134D01*
X137685244Y-34596133D01*
X137583389Y-34568841D01*
X137583386Y-34568841D01*
X137477932Y-34568841D01*
X137477929Y-34568841D01*
X137376073Y-34596133D01*
X137376069Y-34596134D01*
X137284745Y-34648861D01*
X137284745Y-34648862D01*
X137210180Y-34723427D01*
X137210179Y-34723427D01*
X137157452Y-34814751D01*
X137157451Y-34814755D01*
X137130159Y-34916610D01*
X137130159Y-34981159D01*
X137115807Y-35015807D01*
X137081159Y-35030159D01*
X137016611Y-35030159D01*
X136914755Y-35057451D01*
X136914751Y-35057452D01*
X136823427Y-35110179D01*
X136823427Y-35110180D01*
X136748862Y-35184745D01*
X136748861Y-35184745D01*
X136696134Y-35276069D01*
X136696133Y-35276073D01*
X136668841Y-35377928D01*
X136668841Y-35483389D01*
X136696133Y-35585244D01*
X136696134Y-35585248D01*
X136747037Y-35673412D01*
X136748861Y-35676572D01*
X136823428Y-35751139D01*
X136914754Y-35803866D01*
X136962841Y-35816750D01*
X136992594Y-35839579D01*
X136999159Y-35864080D01*
X136999159Y-38118214D01*
X136984807Y-38152862D01*
X136891684Y-38245984D01*
X136857036Y-38260336D01*
X136832536Y-38253771D01*
X136773930Y-38219934D01*
X136773926Y-38219933D01*
X136672071Y-38192641D01*
X136672068Y-38192641D01*
X136566614Y-38192641D01*
X136566611Y-38192641D01*
X136464755Y-38219933D01*
X136464751Y-38219934D01*
X136373427Y-38272661D01*
X136373427Y-38272662D01*
X136298862Y-38347227D01*
X136298861Y-38347227D01*
X136246134Y-38438551D01*
X136246133Y-38438555D01*
X136218841Y-38540410D01*
X136218841Y-38645871D01*
X136246133Y-38747726D01*
X136246134Y-38747730D01*
X136298861Y-38839054D01*
X136373428Y-38913621D01*
X136406854Y-38932919D01*
X136464751Y-38966347D01*
X136464753Y-38966347D01*
X136464754Y-38966348D01*
X136545088Y-38987873D01*
X136566610Y-38993640D01*
X136566611Y-38993641D01*
X136631159Y-38993641D01*
X136665807Y-39007993D01*
X136680159Y-39042641D01*
X136680159Y-39107189D01*
X136707451Y-39209044D01*
X136707452Y-39209048D01*
X136760179Y-39300372D01*
X136775659Y-39315852D01*
X136790011Y-39350500D01*
X136775659Y-39385148D01*
X136741011Y-39399500D01*
X129386189Y-39399500D01*
X129351541Y-39385148D01*
X129345913Y-39379520D01*
X129254589Y-39326793D01*
X129254585Y-39326792D01*
X129152730Y-39299500D01*
X129152727Y-39299500D01*
X129047273Y-39299500D01*
X129047270Y-39299500D01*
X128945414Y-39326792D01*
X128945410Y-39326793D01*
X128854086Y-39379520D01*
X128854086Y-39379521D01*
X128779521Y-39454086D01*
X128779520Y-39454086D01*
X128726793Y-39545410D01*
X128726792Y-39545414D01*
X128699500Y-39647269D01*
X126951484Y-39647269D01*
X126951349Y-37600000D01*
X133300000Y-37600000D01*
X133300000Y-36361510D01*
X133306860Y-36364352D01*
X133311471Y-36368963D01*
X133312970Y-36372583D01*
X133313832Y-36371837D01*
X133354706Y-36419007D01*
X133366092Y-36432147D01*
X133371069Y-36437621D01*
X133439799Y-36479516D01*
X133506838Y-36499201D01*
X133550649Y-36505500D01*
X133550653Y-36505500D01*
X134261057Y-36505500D01*
X134261066Y-36505500D01*
X134263961Y-36505473D01*
X134264004Y-36505472D01*
X134264025Y-36505472D01*
X134266122Y-36505432D01*
X134268580Y-36505387D01*
X134315021Y-36497380D01*
X134381281Y-36475212D01*
X134420830Y-36455338D01*
X138298448Y-33754074D01*
X138313768Y-33746953D01*
X138353186Y-33736392D01*
X138467314Y-33670500D01*
X138560500Y-33577314D01*
X138560627Y-33577093D01*
X138560886Y-33576810D01*
X138562454Y-33574768D01*
X138562635Y-33574906D01*
X138575056Y-33561380D01*
X138785764Y-33414597D01*
X138785763Y-33414597D01*
X138785767Y-33414595D01*
X138785767Y-33414594D01*
X138808866Y-33394890D01*
X138842302Y-33360183D01*
X138879516Y-33296109D01*
X138899201Y-33229070D01*
X138905500Y-33185259D01*
X138905500Y-32413813D01*
X138902711Y-32384494D01*
X138893895Y-32338575D01*
X138863556Y-32271949D01*
X138820446Y-32216965D01*
X138788457Y-32186374D01*
X137898310Y-31550555D01*
X135928247Y-30143367D01*
X134322715Y-28996558D01*
X134322688Y-28996539D01*
X134319539Y-28994348D01*
X134314533Y-28990956D01*
X134314528Y-28990953D01*
X134271110Y-28970483D01*
X134204071Y-28950798D01*
X134160266Y-28944500D01*
X134160262Y-28944500D01*
X133336851Y-28944500D01*
X133336842Y-28944500D01*
X133316575Y-28945827D01*
X133316545Y-28945830D01*
X133300000Y-28948008D01*
X133300000Y-27700000D01*
X126950699Y-27700000D01*
X126950606Y-26286512D01*
X136605000Y-26286512D01*
X136605000Y-26483487D01*
X136643429Y-26676689D01*
X136643429Y-26676690D01*
X136718809Y-26858674D01*
X136827393Y-27021183D01*
X136827394Y-27021183D01*
X137114005Y-26734571D01*
X137124881Y-26753408D01*
X137236592Y-26865119D01*
X137255426Y-26875993D01*
X136968814Y-27162604D01*
X137131325Y-27271190D01*
X137313310Y-27346570D01*
X137506512Y-27385000D01*
X137703488Y-27385000D01*
X137896689Y-27346570D01*
X137896690Y-27346570D01*
X138078677Y-27271189D01*
X138241184Y-27162604D01*
X137954573Y-26875993D01*
X137973408Y-26865119D01*
X138085119Y-26753408D01*
X138095993Y-26734573D01*
X138382604Y-27021184D01*
X138491189Y-26858677D01*
X138566570Y-26676690D01*
X138566570Y-26676689D01*
X138605000Y-26483487D01*
X138605000Y-26286512D01*
X138566570Y-26093310D01*
X138566570Y-26093309D01*
X138491190Y-25911325D01*
X138382604Y-25748814D01*
X138095992Y-26035425D01*
X138085119Y-26016592D01*
X137973408Y-25904881D01*
X137954571Y-25894005D01*
X138241183Y-25607394D01*
X138241183Y-25607393D01*
X138078674Y-25498809D01*
X137896689Y-25423429D01*
X137703488Y-25385000D01*
X137506512Y-25385000D01*
X137313310Y-25423429D01*
X137313309Y-25423429D01*
X137131325Y-25498809D01*
X136968815Y-25607393D01*
X136968815Y-25607394D01*
X137255427Y-25894006D01*
X137236592Y-25904881D01*
X137124881Y-26016592D01*
X137114006Y-26035427D01*
X136827394Y-25748815D01*
X136827393Y-25748815D01*
X136718809Y-25911325D01*
X136643429Y-26093309D01*
X136643429Y-26093310D01*
X136605000Y-26286512D01*
X126950606Y-26286512D01*
X126950532Y-25150946D01*
X126950621Y-25147988D01*
X126953551Y-25099546D01*
X126967088Y-24875766D01*
X126967799Y-24869913D01*
X127016785Y-24602603D01*
X127018197Y-24596873D01*
X127099050Y-24337408D01*
X127101143Y-24331890D01*
X127212683Y-24084059D01*
X127215418Y-24078846D01*
X127356020Y-23846263D01*
X127359372Y-23841407D01*
X127526980Y-23627471D01*
X127530888Y-23623060D01*
X127723060Y-23430888D01*
X127727471Y-23426980D01*
X127941407Y-23259372D01*
X127946263Y-23256020D01*
X128178846Y-23115418D01*
X128184059Y-23112683D01*
X128431890Y-23001143D01*
X128437408Y-22999050D01*
X128696873Y-22918197D01*
X128702603Y-22916785D01*
X128969913Y-22867799D01*
X128975768Y-22867087D01*
X129210266Y-22852903D01*
X129248530Y-22850589D01*
X129251488Y-22850500D01*
X129289882Y-22850500D01*
X139545500Y-22850500D01*
X139580148Y-22864852D01*
G37*
%TD.AperFunction*%
%TA.AperFunction,Conductor*%
G36*
X131784842Y-28958648D02*
G01*
X131768945Y-28969270D01*
X131729399Y-28985649D01*
X131672477Y-29026181D01*
X131666554Y-29030615D01*
X131666550Y-29030619D01*
X131618317Y-29095053D01*
X131592352Y-29159911D01*
X131589763Y-29166851D01*
X131589762Y-29166851D01*
X131586391Y-29213996D01*
X131569604Y-29247532D01*
X131537516Y-29259500D01*
X131464105Y-29259500D01*
X131336815Y-29293607D01*
X131336811Y-29293608D01*
X131222685Y-29359500D01*
X131222685Y-29359501D01*
X131129501Y-29452685D01*
X131129500Y-29452685D01*
X131063608Y-29566811D01*
X131063607Y-29566815D01*
X131029500Y-29694104D01*
X131029500Y-29825895D01*
X131038540Y-29859633D01*
X131033645Y-29896815D01*
X131003892Y-29919645D01*
X130999334Y-29920637D01*
X130993061Y-29921691D01*
X130920661Y-29956861D01*
X130920657Y-29956863D01*
X130867868Y-30002605D01*
X130867854Y-30002618D01*
X130862379Y-30007596D01*
X130820484Y-30076326D01*
X130820483Y-30076328D01*
X130820483Y-30076329D01*
X130800798Y-30143365D01*
X130800798Y-30143367D01*
X130794500Y-30187171D01*
X130794500Y-35112831D01*
X130794598Y-35118350D01*
X130794915Y-35127226D01*
X130794916Y-35127232D01*
X130804619Y-35176007D01*
X130804623Y-35176023D01*
X130829029Y-35241458D01*
X130831787Y-35248344D01*
X130831788Y-35248347D01*
X130881541Y-35311614D01*
X130881546Y-35311619D01*
X130937471Y-35353485D01*
X130937477Y-35353489D01*
X130943508Y-35357784D01*
X131007613Y-35379970D01*
X131035662Y-35404864D01*
X131038918Y-35438956D01*
X131029500Y-35474107D01*
X131029500Y-35605895D01*
X131063607Y-35733184D01*
X131063608Y-35733188D01*
X131119227Y-35829521D01*
X131129500Y-35847314D01*
X131222686Y-35940500D01*
X131264457Y-35964617D01*
X131336811Y-36006391D01*
X131336813Y-36006391D01*
X131336814Y-36006392D01*
X131425179Y-36030069D01*
X131464104Y-36040499D01*
X131464105Y-36040500D01*
X131464108Y-36040500D01*
X131536077Y-36040500D01*
X131570725Y-36054852D01*
X131584577Y-36082524D01*
X131586698Y-36097273D01*
X131593438Y-36144150D01*
X131594663Y-36151437D01*
X131594663Y-36151438D01*
X131594664Y-36151440D01*
X131629835Y-36223842D01*
X131675590Y-36276646D01*
X131680568Y-36282121D01*
X131749298Y-36324016D01*
X131766221Y-36328985D01*
X131792299Y-36350000D01*
X126951267Y-36350000D01*
X126950781Y-28950000D01*
X131788424Y-28950000D01*
X131784842Y-28958648D01*
G37*
%TD.AperFunction*%
%TD*%
%TA.AperFunction,Conductor*%
%TO.N,GND*%
G36*
X133300000Y-28950000D02*
G01*
X126950783Y-28950000D01*
X126950700Y-27700000D01*
X133300000Y-27700000D01*
X133300000Y-28950000D01*
G37*
%TD.AperFunction*%
%TD*%
%TA.AperFunction,Conductor*%
%TO.N,VIN*%
G36*
X149751601Y-22850604D02*
G01*
X149981683Y-22865685D01*
X149988017Y-22866518D01*
X150212609Y-22911192D01*
X150218769Y-22912842D01*
X150435605Y-22986449D01*
X150441517Y-22988898D01*
X150646878Y-23090171D01*
X150652413Y-23093366D01*
X150831014Y-23212704D01*
X150842796Y-23220577D01*
X150847881Y-23224479D01*
X151020024Y-23375443D01*
X151024556Y-23379975D01*
X151175520Y-23552118D01*
X151179422Y-23557203D01*
X151306628Y-23747578D01*
X151309833Y-23753129D01*
X151411099Y-23958478D01*
X151413552Y-23964399D01*
X151487154Y-24181221D01*
X151488809Y-24187400D01*
X151519281Y-24340591D01*
X151533478Y-24411964D01*
X151534314Y-24418318D01*
X151549395Y-24648398D01*
X151549500Y-24651603D01*
X151549500Y-26901000D01*
X151535148Y-26935648D01*
X151500500Y-26950000D01*
X149001501Y-26950000D01*
X148966853Y-26935648D01*
X148952501Y-26901000D01*
X148952501Y-25335696D01*
X148952500Y-25335692D01*
X148936023Y-25295913D01*
X148914365Y-25243625D01*
X148914363Y-25243623D01*
X148914363Y-25243622D01*
X148864352Y-25193611D01*
X148850000Y-25158963D01*
X148850000Y-24900000D01*
X148849500Y-24900000D01*
X148814852Y-24885648D01*
X148800500Y-24851000D01*
X148800500Y-24734057D01*
X148814852Y-24699409D01*
X148819409Y-24694852D01*
X148854057Y-24680500D01*
X148932730Y-24680500D01*
X148932730Y-24680499D01*
X149034587Y-24653207D01*
X149042917Y-24648398D01*
X149046823Y-24646142D01*
X149125913Y-24600480D01*
X149200480Y-24525913D01*
X149253207Y-24434587D01*
X149280499Y-24332730D01*
X149280500Y-24332730D01*
X149280500Y-24227270D01*
X149280499Y-24227269D01*
X149268973Y-24184255D01*
X149253207Y-24125413D01*
X149253206Y-24125412D01*
X149253206Y-24125410D01*
X149200479Y-24034086D01*
X149125913Y-23959520D01*
X149034589Y-23906793D01*
X149034585Y-23906792D01*
X148932730Y-23879500D01*
X148932727Y-23879500D01*
X148827273Y-23879500D01*
X148827270Y-23879500D01*
X148725414Y-23906792D01*
X148725410Y-23906793D01*
X148634086Y-23959520D01*
X148634086Y-23959521D01*
X148559521Y-24034086D01*
X148559520Y-24034086D01*
X148506793Y-24125410D01*
X148506792Y-24125414D01*
X148479500Y-24227269D01*
X148479500Y-24305943D01*
X148465148Y-24340591D01*
X148408103Y-24397636D01*
X148337637Y-24468100D01*
X148337637Y-24468101D01*
X148299500Y-24560170D01*
X148299500Y-24851000D01*
X148285148Y-24885648D01*
X148250500Y-24900000D01*
X148044297Y-24900000D01*
X148009649Y-24885648D01*
X147982831Y-24858830D01*
X147982830Y-24858829D01*
X147958555Y-24848774D01*
X147899951Y-24824499D01*
X147899950Y-24824499D01*
X147810240Y-24824499D01*
X147804539Y-24824499D01*
X147804531Y-24824500D01*
X146310308Y-24824500D01*
X146275660Y-24810148D01*
X146271438Y-24805335D01*
X146270480Y-24804087D01*
X146195913Y-24729520D01*
X146104589Y-24676793D01*
X146104585Y-24676792D01*
X146002730Y-24649500D01*
X146002727Y-24649500D01*
X145897273Y-24649500D01*
X145897270Y-24649500D01*
X145795414Y-24676792D01*
X145795410Y-24676793D01*
X145704086Y-24729520D01*
X145704086Y-24729521D01*
X145629521Y-24804086D01*
X145629520Y-24804086D01*
X145588290Y-24875500D01*
X145558537Y-24898330D01*
X145545855Y-24900000D01*
X143950000Y-24900000D01*
X142263885Y-28024272D01*
X142234800Y-28047947D01*
X142220764Y-28050000D01*
X139799000Y-28050000D01*
X139764352Y-28035648D01*
X139750000Y-28001000D01*
X139750000Y-22899500D01*
X139764352Y-22864852D01*
X139799000Y-22850500D01*
X149710118Y-22850500D01*
X149748397Y-22850500D01*
X149751601Y-22850604D01*
G37*
%TD.AperFunction*%
%TD*%
M02*
