M48
; DRILL file {KiCad 9.0.7} date 2026-03-14T23:06:27-0500
; FORMAT={-:-/ absolute / inch / decimal}
; #@! TF.CreationDate,2026-03-14T23:06:27-05:00
; #@! TF.GenerationSoftware,Kicad,Pcbnew,9.0.7
; #@! TF.FileFunction,Plated,1,2,PTH
FMAT,2
INCH
; #@! TA.AperFunction,Plated,PTH,ComponentDrill
T1C0.0079
; #@! TA.AperFunction,Plated,PTH,ViaDrill
T2C0.0118
; #@! TA.AperFunction,Plated,PTH,ViaDrill
T3C0.0197
; #@! TA.AperFunction,Plated,PTH,ComponentDrill
T4C0.0197
; #@! TA.AperFunction,Plated,PTH,ComponentDrill
T5C0.0236
; #@! TA.AperFunction,Plated,PTH,ComponentDrill
T6C0.0402
; #@! TA.AperFunction,Plated,PTH,ComponentDrill
T7C0.0472
; #@! TA.AperFunction,Plated,PTH,ComponentDrill
T8C0.0866
%
G90
G05
T1
X5.7382Y-1.096
X5.7382Y-1.1432
X5.7382Y-1.1905
X5.7854Y-1.096
X5.7854Y-1.1432
X5.7854Y-1.1905
X5.8327Y-1.096
X5.8327Y-1.1432
X5.8327Y-1.1905
X5.8799Y-1.096
X5.8799Y-1.1432
X5.8799Y-1.1905
T2
X5.0138Y-1.5394
X5.0138Y-1.6142
X5.0315Y-1.378
X5.0413Y-1.2717
X5.0453Y-1.187
X5.0748Y-1.3268
X5.0827Y-1.563
X5.0965Y-1.6555
X5.1122Y-1.2717
X5.1122Y-1.3661
X5.1142Y-1.1909
X5.1555Y-1.6555
X5.1673Y-2.3264
X5.2087Y-0.9291
X5.2126Y-2.2736
X5.2205Y-1.685
X5.2362Y-0.9921
X5.2421Y-1.6319
X5.2736Y-0.939
X5.2736Y-2.4311
X5.2795Y-1.9173
X5.2795Y-2.122
X5.2835Y-2.2441
X5.2854Y-2.0197
X5.2854Y-2.1693
X5.2894Y-2.3543
X5.2913Y-1.4783
X5.2913Y-1.8543
X5.2953Y-1.8031
X5.3012Y-1.5256
X5.3189Y-1.6909
X5.3197Y-1.0902
X5.3209Y-1.628
X5.3268Y-0.935
X5.3268Y-1.0256
X5.3386Y-2.1398
X5.3602Y-1.435
X5.376Y-1.4803
X5.378Y-1.7894
X5.378Y-1.8406
X5.3787Y-1.5194
X5.3799Y-2.3917
X5.3846Y-1.6134
X5.3878Y-1.6654
X5.3917Y-1.7126
X5.3917Y-2.1791
X5.3964Y-1.3949
X5.3969Y-1.5376
X5.4028Y-1.5952
X5.4075Y-2.4154
X5.4114Y-1.128
X5.4134Y-0.9252
X5.4146Y-1.3767
X5.4213Y-2.124
X5.4272Y-1.1831
X5.435Y-1.5728
X5.436Y-1.8051
X5.45Y-1.389
X5.4547Y-2.2441
X5.4617Y-1.8051
X5.4744Y-1.0276
X5.4744Y-2.3681
X5.4744Y-2.4114
X5.4843Y-1.185
X5.502Y-2.3602
X5.502Y-2.3878
X5.502Y-2.4705
X5.5059Y-1.3917
X5.5079Y-2.2854
X5.5098Y-1.5295
X5.5098Y-1.5846
X5.5236Y-1.8465
X5.5256Y-1.2579
X5.5256Y-1.3051
X5.5335Y-1.3406
X5.5335Y-1.3799
X5.5374Y-1.7028
X5.5531Y-2.0276
X5.5551Y-2.1476
X5.563Y-1.1831
X5.563Y-1.9311
X5.5689Y-2.0728
X5.5709Y-1.9783
X5.5787Y-1.811
X5.5787Y-1.8839
X5.5846Y-1.4232
X5.5965Y-1.1476
X5.6083Y-1.5226
X5.6083Y-1.6594
X5.6161Y-2.5098
X5.624Y-2.2795
X5.6476Y-1.3366
X5.6496Y-2.0768
X5.6496Y-2.1083
X5.6496Y-2.2067
X5.6516Y-1.9469
X5.6555Y-1.6909
X5.6555Y-1.7224
X5.6555Y-1.7657
X5.6594Y-1.5846
X5.6673Y-1.3051
X5.6752Y-1.1634
X5.6752Y-1.1988
X5.6772Y-1.9173
X5.6949Y-1.3209
X5.7067Y-1.1319
X5.7067Y-1.1634
X5.7067Y-1.1988
X5.7224Y-1.4547
X5.7224Y-1.6988
X5.7264Y-1.7854
X5.7303Y-2.0157
X5.7303Y-2.1654
X5.7461Y-0.9862
X5.7579Y-1.3287
X5.7697Y-2.0157
X5.7756Y-2.0984
X5.7776Y-1.8583
X5.8012Y-1.75
X5.8071Y-1.5197
X5.8071Y-1.5512
X5.8406Y-2.2657
X5.8445Y-1.3327
X5.8445Y-1.4114
X5.8614Y-0.9559
X5.872Y-1.2972
X5.872Y-1.3681
X5.873Y-0.9902
X5.876Y-2.3051
X5.8862Y-0.9665
X5.8986Y-0.9902
X5.8996Y-1.2972
X5.8996Y-1.3681
X5.9075Y-2.2028
X5.9075Y-2.2421
X5.9114Y-1.813
X5.9114Y-1.9626
X5.9114Y-1.998
X5.9114Y-2.1201
X5.9154Y-2.2776
X5.9311Y-1.7894
X5.9469Y-2.1201
X5.9508Y-1.7697
X5.9508Y-1.9626
X5.9508Y-1.998
X5.9508Y-2.0295
X5.9508Y-2.2854
X5.9547Y-1.813
X5.9547Y-2.2028
X5.9547Y-2.2421
T3
X5.1693Y-1.2205
X5.1693Y-1.3524
X5.2815Y-2.3937
X5.3209Y-2.5177
X5.4394Y-1.3098
X5.872Y-1.9461
X5.872Y-1.9858
X5.872Y-2.0252
T4
X5.6909Y-1.9783
X5.6909Y-2.0413
T6
X5.576Y-2.3957
X5.676Y-2.3957
X5.776Y-2.3957
X5.876Y-2.3957
T7
X5.4175Y-1.0388
X5.5553Y-1.0388
T8
X5.0886Y-0.9902
X5.0886Y-2.4665
T5
G00X5.0492Y-1.1152
M15
G01X5.0177Y-1.1152
M16
G05
G00X5.0492Y-1.4557
M15
G01X5.0177Y-1.4557
M16
G05
G00X5.2193Y-1.1152
M15
G01X5.176Y-1.1152
M16
G05
G00X5.2193Y-1.4557
M15
G01X5.176Y-1.4557
M16
G05
M30
