%TF.GenerationSoftware,KiCad,Pcbnew,9.0.7*%
%TF.CreationDate,2026-03-04T21:31:56-06:00*%
%TF.ProjectId,esphome-fan-controller,65737068-6f6d-4652-9d66-616e2d636f6e,-*%
%TF.SameCoordinates,Original*%
%TF.FileFunction,Paste,Top*%
%TF.FilePolarity,Positive*%
%FSLAX46Y46*%
G04 Gerber Fmt 4.6, Leading zero omitted, Abs format (unit mm)*
G04 Created by KiCad (PCBNEW 9.0.7) date 2026-03-04 21:31:56*
%MOMM*%
%LPD*%
G01*
G04 APERTURE LIST*
G04 Aperture macros list*
%AMRoundRect*
0 Rectangle with rounded corners*
0 $1 Rounding radius*
0 $2 $3 $4 $5 $6 $7 $8 $9 X,Y pos of 4 corners*
0 Add a 4 corners polygon primitive as box body*
4,1,4,$2,$3,$4,$5,$6,$7,$8,$9,$2,$3,0*
0 Add four circle primitives for the rounded corners*
1,1,$1+$1,$2,$3*
1,1,$1+$1,$4,$5*
1,1,$1+$1,$6,$7*
1,1,$1+$1,$8,$9*
0 Add four rect primitives between the rounded corners*
20,1,$1+$1,$2,$3,$4,$5,0*
20,1,$1+$1,$4,$5,$6,$7,0*
20,1,$1+$1,$6,$7,$8,$9,0*
20,1,$1+$1,$8,$9,$2,$3,0*%
G04 Aperture macros list end*
%ADD10C,0.010000*%
%ADD11R,0.800000X0.750000*%
%ADD12R,0.800000X0.600000*%
%ADD13R,0.800000X0.400000*%
%ADD14R,0.800000X0.800000*%
%ADD15RoundRect,0.135000X0.185000X-0.135000X0.185000X0.135000X-0.185000X0.135000X-0.185000X-0.135000X0*%
%ADD16RoundRect,0.135000X-0.135000X-0.185000X0.135000X-0.185000X0.135000X0.185000X-0.135000X0.185000X0*%
%ADD17RoundRect,0.225000X-0.225000X-0.250000X0.225000X-0.250000X0.225000X0.250000X-0.225000X0.250000X0*%
%ADD18RoundRect,0.135000X-0.185000X0.135000X-0.185000X-0.135000X0.185000X-0.135000X0.185000X0.135000X0*%
%ADD19RoundRect,0.250000X0.250000X0.475000X-0.250000X0.475000X-0.250000X-0.475000X0.250000X-0.475000X0*%
%ADD20RoundRect,0.150000X0.150000X-0.512500X0.150000X0.512500X-0.150000X0.512500X-0.150000X-0.512500X0*%
%ADD21RoundRect,0.135000X0.135000X0.185000X-0.135000X0.185000X-0.135000X-0.185000X0.135000X-0.185000X0*%
%ADD22R,1.140000X0.600000*%
%ADD23R,1.140000X0.300000*%
%ADD24RoundRect,0.150000X-0.512500X-0.150000X0.512500X-0.150000X0.512500X0.150000X-0.512500X0.150000X0*%
%ADD25RoundRect,0.140000X0.170000X-0.140000X0.170000X0.140000X-0.170000X0.140000X-0.170000X-0.140000X0*%
%ADD26RoundRect,0.250000X-0.250000X-0.475000X0.250000X-0.475000X0.250000X0.475000X-0.250000X0.475000X0*%
%ADD27RoundRect,0.247500X-0.247500X0.822500X-0.247500X-0.822500X0.247500X-0.822500X0.247500X0.822500X0*%
%ADD28RoundRect,0.100000X-0.100000X0.687500X-0.100000X-0.687500X0.100000X-0.687500X0.100000X0.687500X0*%
%ADD29R,0.400000X0.800000*%
%ADD30R,1.450000X1.450000*%
%ADD31R,0.700000X0.700000*%
%ADD32R,0.900000X1.700000*%
%ADD33RoundRect,0.250000X0.475000X-0.250000X0.475000X0.250000X-0.475000X0.250000X-0.475000X-0.250000X0*%
%ADD34RoundRect,0.140000X-0.140000X-0.170000X0.140000X-0.170000X0.140000X0.170000X-0.140000X0.170000X0*%
%ADD35R,0.800000X0.250000*%
%ADD36R,1.100000X0.250000*%
%ADD37R,0.500000X0.250000*%
%ADD38R,0.200000X0.800000*%
%ADD39R,0.200000X1.100000*%
%ADD40R,0.600000X1.950000*%
%ADD41RoundRect,0.218750X0.381250X-0.218750X0.381250X0.218750X-0.381250X0.218750X-0.381250X-0.218750X0*%
%ADD42RoundRect,0.150000X0.150000X-0.587500X0.150000X0.587500X-0.150000X0.587500X-0.150000X-0.587500X0*%
G04 APERTURE END LIST*
D10*
%TO.C,U3*%
X136475000Y-51500000D02*
X136475000Y-52950000D01*
X135625000Y-52950000D01*
X135025000Y-52350000D01*
X135025000Y-51499999D01*
X136475000Y-51500000D01*
G36*
X136475000Y-51500000D02*
G01*
X136475000Y-52950000D01*
X135625000Y-52950000D01*
X135025000Y-52350000D01*
X135025000Y-51499999D01*
X136475000Y-51500000D01*
G37*
%TD*%
D11*
%TO.C,D5*%
X128200000Y-38545000D03*
D12*
X128200000Y-39670000D03*
D13*
X128200000Y-40550000D03*
D14*
X128200000Y-41530000D03*
%TD*%
D15*
%TO.C,R1*%
X146350000Y-36355000D03*
X146350000Y-35335002D03*
%TD*%
D16*
%TO.C,R5*%
X134335000Y-59100000D03*
X135355000Y-59100000D03*
%TD*%
%TO.C,R9*%
X146049999Y-49500000D03*
X147069999Y-49500000D03*
%TD*%
D17*
%TO.C,C7*%
X136475000Y-57850000D03*
X138025000Y-57850000D03*
%TD*%
D18*
%TO.C,R3*%
X144665000Y-38340001D03*
X144665000Y-39359999D03*
%TD*%
D19*
%TO.C,C5*%
X141299999Y-35750000D03*
X139400001Y-35750000D03*
%TD*%
D20*
%TO.C,U4*%
X130000001Y-40887500D03*
X130950000Y-40887500D03*
X131899999Y-40887500D03*
X131899999Y-38612500D03*
X130000001Y-38612500D03*
%TD*%
D21*
%TO.C,R4*%
X147069998Y-48450000D03*
X146050000Y-48450000D03*
%TD*%
D22*
%TO.C,J2*%
X132600000Y-29450000D03*
X132600000Y-30250000D03*
D23*
X132600000Y-31400000D03*
X132600000Y-32400000D03*
X132600000Y-32900000D03*
X132600000Y-33900000D03*
D22*
X132600000Y-35850000D03*
X132600000Y-35050000D03*
D23*
X132600000Y-34400000D03*
X132600000Y-33400000D03*
X132600000Y-31900000D03*
X132600000Y-30900000D03*
%TD*%
D24*
%TO.C,D3*%
X134712500Y-31700000D03*
X134712500Y-32650000D03*
X134712500Y-33600000D03*
X136987500Y-33600000D03*
X136987500Y-32650000D03*
X136987500Y-31700000D03*
%TD*%
%TO.C,U5*%
X135650000Y-60650000D03*
X135650000Y-61600000D03*
X135650000Y-62550000D03*
X137925000Y-62550000D03*
X137925000Y-60650000D03*
%TD*%
D25*
%TO.C,C9*%
X133150000Y-40660000D03*
X133150000Y-39700000D03*
%TD*%
D18*
%TO.C,R2*%
X144665000Y-36465001D03*
X144665000Y-37484999D03*
%TD*%
D26*
%TO.C,C2*%
X147500000Y-35900000D03*
X149400000Y-35900000D03*
%TD*%
D25*
%TO.C,C1*%
X143665000Y-37455000D03*
X143665000Y-36495000D03*
%TD*%
D27*
%TO.C,U6*%
X148165000Y-29037500D03*
X146935000Y-29037500D03*
D28*
X149825000Y-26175000D03*
X149175000Y-26175000D03*
X148525000Y-26175000D03*
X147875000Y-26175000D03*
X147225000Y-26175000D03*
X146575000Y-26175000D03*
X145925000Y-26175000D03*
X145275000Y-26175000D03*
X145275000Y-31900000D03*
X145925000Y-31900000D03*
X146575000Y-31900000D03*
X147225000Y-31900000D03*
X147875000Y-31900000D03*
X148525000Y-31900000D03*
X149175000Y-31900000D03*
X149825000Y-31900000D03*
%TD*%
D29*
%TO.C,U3*%
X133725000Y-56150000D03*
X134525001Y-56150000D03*
X135325000Y-56150000D03*
X136124999Y-56150000D03*
X136925000Y-56150000D03*
X137725000Y-56150000D03*
X138525000Y-56150000D03*
X139325000Y-56150000D03*
X140125001Y-56150000D03*
X140925000Y-56150000D03*
X141724999Y-56150000D03*
D13*
X142625000Y-55050000D03*
X142625000Y-54250001D03*
X142625000Y-53450000D03*
X142625000Y-52650000D03*
X142625000Y-51850000D03*
X142625000Y-51050000D03*
X142625001Y-50250000D03*
X142625000Y-49450000D03*
X142625000Y-48650000D03*
X142625000Y-47850000D03*
X142625000Y-47050000D03*
X142625000Y-46249999D03*
X142625000Y-45450000D03*
D29*
X141724999Y-44350000D03*
X140925000Y-44350000D03*
X140125001Y-44350000D03*
X139325000Y-44350000D03*
X138525000Y-44350000D03*
X137725000Y-44350000D03*
X136925000Y-44350000D03*
X136124999Y-44350000D03*
X135325000Y-44350000D03*
X134525001Y-44350000D03*
X133725000Y-44350000D03*
D13*
X132825001Y-45450000D03*
X132825000Y-46250000D03*
X132825000Y-47050000D03*
X132825000Y-47850000D03*
X132825000Y-48650000D03*
X132825001Y-49450000D03*
X132825000Y-50250000D03*
X132825001Y-51050000D03*
X132825000Y-51850000D03*
X132825000Y-52650000D03*
X132825000Y-53450000D03*
X132825000Y-54250000D03*
X132825001Y-55050000D03*
D30*
X137725000Y-52225000D03*
X139700000Y-52225000D03*
X135749999Y-50250000D03*
X137725000Y-50250000D03*
X139700000Y-50250000D03*
X135750000Y-48275001D03*
X137725000Y-48275000D03*
X139700000Y-48275000D03*
D31*
X132775000Y-44300000D03*
X142675000Y-44300000D03*
X142675000Y-56200000D03*
X132775000Y-56200000D03*
%TD*%
D32*
%TO.C,SW2*%
X147850001Y-54250001D03*
X144449999Y-54250001D03*
%TD*%
D33*
%TO.C,C3*%
X150450000Y-40499999D03*
X150450000Y-38600001D03*
%TD*%
D32*
%TO.C,SW1*%
X147875001Y-46249999D03*
X144474999Y-46249999D03*
%TD*%
D19*
%TO.C,C4*%
X141300000Y-41575000D03*
X139400002Y-41575000D03*
%TD*%
D18*
%TO.C,R7*%
X133950000Y-34730002D03*
X133950000Y-35750000D03*
%TD*%
D34*
%TO.C,C8*%
X146079999Y-51850000D03*
X147039999Y-51850000D03*
%TD*%
D25*
%TO.C,C10*%
X139400000Y-62050000D03*
X139400000Y-61090000D03*
%TD*%
D35*
%TO.C,U1*%
X146100000Y-38200000D03*
D36*
X146250000Y-38850000D03*
X146250000Y-39500000D03*
D37*
X145950000Y-40150000D03*
X145950000Y-41000000D03*
X145950000Y-41850000D03*
X149050000Y-41850000D03*
X149050000Y-41000000D03*
X149050000Y-40150000D03*
D36*
X148750000Y-39500000D03*
X148750000Y-38850000D03*
D35*
X148900000Y-38200000D03*
D38*
X148700000Y-37350000D03*
D39*
X148100000Y-37500000D03*
X147500000Y-37500000D03*
X146900000Y-37500000D03*
D38*
X146300000Y-37350000D03*
D40*
X146500000Y-41000000D03*
X148500000Y-41000000D03*
%TD*%
D21*
%TO.C,R13*%
X146759999Y-24750000D03*
X145740001Y-24750000D03*
%TD*%
%TO.C,R6*%
X147069998Y-50550000D03*
X146050000Y-50550000D03*
%TD*%
D15*
%TO.C,R8*%
X133850000Y-30369998D03*
X133850000Y-29350000D03*
%TD*%
D21*
%TO.C,R12*%
X148719998Y-24750000D03*
X147700000Y-24750000D03*
%TD*%
D41*
%TO.C,L1*%
X142800001Y-41575000D03*
X142800001Y-39450000D03*
%TD*%
D15*
%TO.C,R14*%
X144100000Y-32409999D03*
X144100000Y-31390001D03*
%TD*%
D42*
%TO.C,U2*%
X139400001Y-39450000D03*
X141300001Y-39450000D03*
X140350001Y-37574999D03*
%TD*%
D34*
%TO.C,C6*%
X134365000Y-57850000D03*
X135325000Y-57850000D03*
%TD*%
M02*
