M48
; DRILL file {KiCad 9.0.7} date 2026-03-04T21:31:58-0600
; FORMAT={-:-/ absolute / inch / decimal}
; #@! TF.CreationDate,2026-03-04T21:31:58-06:00
; #@! TF.GenerationSoftware,Kicad,Pcbnew,9.0.7
; #@! TF.FileFunction,Plated,1,2,PTH
FMAT,2
INCH
; #@! TA.AperFunction,Plated,PTH,ComponentDrill
T1C0.0079
; #@! TA.AperFunction,Plated,PTH,ViaDrill
T2C0.0118
; #@! TA.AperFunction,Plated,PTH,ViaDrill
T3C0.0197
; #@! TA.AperFunction,Plated,PTH,ComponentDrill
T4C0.0197
; #@! TA.AperFunction,Plated,PTH,ComponentDrill
T5C0.0236
; #@! TA.AperFunction,Plated,PTH,ComponentDrill
T6C0.0402
; #@! TA.AperFunction,Plated,PTH,ComponentDrill
T7C0.0472
; #@! TA.AperFunction,Plated,PTH,ComponentDrill
T8C0.0866
%
G90
G05
T1
X5.7382Y-1.096
X5.7382Y-1.1432
X5.7382Y-1.1905
X5.7854Y-1.096
X5.7854Y-1.1432
X5.7854Y-1.1905
X5.8327Y-1.096
X5.8327Y-1.1432
X5.8327Y-1.1905
X5.8799Y-1.096
X5.8799Y-1.1432
X5.8799Y-1.1905
T2
X5.0138Y-1.5394
X5.0138Y-1.6142
X5.0315Y-1.378
X5.0413Y-1.2717
X5.0453Y-1.187
X5.0748Y-1.3268
X5.0827Y-1.563
X5.0965Y-1.6555
X5.1122Y-1.2717
X5.1122Y-1.3661
X5.1142Y-1.1909
X5.1555Y-1.6555
X5.1614Y-2.3051
X5.2087Y-0.9291
X5.2126Y-2.2736
X5.2205Y-1.685
X5.2205Y-2.376
X5.2264Y-2.5197
X5.2362Y-0.9921
X5.2421Y-1.6319
X5.2697Y-2.439
X5.2736Y-0.939
X5.2795Y-1.9173
X5.2795Y-2.122
X5.2835Y-2.2441
X5.2854Y-2.0197
X5.2854Y-2.1693
X5.2894Y-2.3543
X5.2913Y-1.4783
X5.2913Y-1.8543
X5.2953Y-1.8031
X5.3012Y-1.5256
X5.3189Y-1.6909
X5.3209Y-1.628
X5.3268Y-0.935
X5.3268Y-1.0256
X5.3307Y-1.1201
X5.3386Y-2.1398
X5.3406Y-2.5177
X5.3602Y-1.435
X5.376Y-1.4803
X5.378Y-1.7894
X5.378Y-1.8406
X5.3787Y-1.5194
X5.3819Y-2.4252
X5.3846Y-1.6134
X5.3878Y-1.6654
X5.3917Y-1.7126
X5.3917Y-2.1791
X5.3964Y-1.3949
X5.3969Y-1.5376
X5.4028Y-1.5952
X5.4114Y-1.128
X5.4134Y-0.9252
X5.4146Y-1.3767
X5.4213Y-2.124
X5.4311Y-2.4941
X5.435Y-1.4409
X5.436Y-1.8051
X5.4449Y-1.4803
X5.4488Y-1.5886
X5.4528Y-2.3583
X5.4528Y-2.4272
X5.4547Y-2.2441
X5.4617Y-1.8051
X5.4646Y-2.5098
X5.4744Y-1.0276
X5.4843Y-1.185
X5.4902Y-1.4803
X5.4941Y-2.4803
X5.5039Y-2.5335
X5.5079Y-2.2854
X5.5236Y-1.5335
X5.5236Y-1.5925
X5.5236Y-1.8465
X5.5276Y-1.6969
X5.5315Y-1.3563
X5.5335Y-1.3012
X5.5531Y-2.0276
X5.5551Y-2.1476
X5.563Y-1.1831
X5.563Y-1.9311
X5.565Y-1.2382
X5.5689Y-2.0728
X5.5709Y-1.9783
X5.5787Y-1.811
X5.5787Y-1.8839
X5.5827Y-1.3583
X5.5846Y-1.7008
X5.6161Y-1.439
X5.6161Y-1.4823
X5.624Y-2.2795
X5.6398Y-1.2441
X5.6496Y-2.0768
X5.6496Y-2.1083
X5.6496Y-2.2067
X5.6516Y-1.9469
X5.6555Y-1.7657
X5.6614Y-1.5059
X5.6732Y-1.4016
X5.6772Y-1.9173
X5.6791Y-1.6201
X5.6791Y-1.6791
X5.6949Y-1.3858
X5.6969Y-1.2559
X5.7047Y-1.3228
X5.7165Y-1.4016
X5.7224Y-1.4547
X5.7224Y-1.6988
X5.7264Y-1.7854
X5.7303Y-2.0157
X5.7303Y-2.1654
X5.7382Y-1.3858
X5.7559Y-1.3228
X5.7697Y-2.0157
X5.7756Y-2.0984
X5.7776Y-1.8583
X5.8031Y-1.311
X5.8071Y-1.5197
X5.8071Y-1.5512
X5.8465Y-1.3031
X5.874Y-1.2972
X5.874Y-1.3248
X5.8819Y-0.9744
X5.8976Y-1.3071
X5.8976Y-1.3346
X5.9075Y-0.9843
X5.9213Y-0.9626
X5.9213Y-1.0177
X5.9272Y-1.0512
X5.9331Y-0.9921
T3
X5.1693Y-1.2205
X5.1693Y-1.3524
X5.3898Y-2.3878
X5.4409Y-1.2854
X5.622Y-1.6693
X5.7717Y-1.7283
T4
X5.6909Y-1.9783
X5.6909Y-2.0413
T6
X5.576Y-2.3957
X5.676Y-2.3957
X5.776Y-2.3957
X5.876Y-2.3957
T7
X5.4105Y-1.0295
X5.5605Y-1.0295
T8
X5.0886Y-0.9902
X5.0886Y-2.4665
T5
G00X5.0492Y-1.1152
M15
G01X5.0177Y-1.1152
M16
G05
G00X5.0492Y-1.4557
M15
G01X5.0177Y-1.4557
M16
G05
G00X5.2193Y-1.1152
M15
G01X5.176Y-1.1152
M16
G05
G00X5.2193Y-1.4557
M15
G01X5.176Y-1.4557
M16
G05
M30
