%TF.GenerationSoftware,KiCad,Pcbnew,9.0.7*%
%TF.CreationDate,2026-03-14T23:06:25-05:00*%
%TF.ProjectId,esphome-fan-controller,65737068-6f6d-4652-9d66-616e2d636f6e,-*%
%TF.SameCoordinates,Original*%
%TF.FileFunction,Legend,Top*%
%TF.FilePolarity,Positive*%
%FSLAX46Y46*%
G04 Gerber Fmt 4.6, Leading zero omitted, Abs format (unit mm)*
G04 Created by KiCad (PCBNEW 9.0.7) date 2026-03-14 23:06:25*
%MOMM*%
%LPD*%
G01*
G04 APERTURE LIST*
%ADD10C,0.200000*%
%ADD11C,0.250000*%
%ADD12C,0.150000*%
%ADD13C,0.120000*%
%ADD14C,0.127000*%
%ADD15C,0.100000*%
G04 APERTURE END LIST*
D10*
X143650000Y-28330000D02*
X143650000Y-29030000D01*
X143250000Y-28680000D02*
X144050000Y-28680000D01*
X134670000Y-28690000D02*
X135470000Y-28690000D01*
D11*
G36*
X148839985Y-47008849D02*
G01*
X148909959Y-47032555D01*
X148971812Y-47071091D01*
X149017729Y-47115255D01*
X149052729Y-47164788D01*
X149077997Y-47220274D01*
X149094467Y-47184691D01*
X149116820Y-47153697D01*
X149145713Y-47126852D01*
X149194750Y-47099709D01*
X149246280Y-47090801D01*
X149296287Y-47097525D01*
X149339519Y-47116964D01*
X149377529Y-47149238D01*
X149411187Y-47196051D01*
X149440575Y-47260501D01*
X149465697Y-47349890D01*
X149482339Y-47462968D01*
X149488447Y-47604737D01*
X149482808Y-47791332D01*
X149465000Y-47999018D01*
X148944884Y-48022759D01*
X148413778Y-48059688D01*
X148396833Y-47893654D01*
X148390331Y-47665407D01*
X148396625Y-47505599D01*
X148785027Y-47505599D01*
X148988237Y-47517836D01*
X148987311Y-47497392D01*
X149132829Y-47497392D01*
X149134173Y-47526042D01*
X149300868Y-47530951D01*
X149298236Y-47461300D01*
X149286798Y-47414966D01*
X149268894Y-47385164D01*
X149244600Y-47367595D01*
X149211720Y-47361325D01*
X149178421Y-47369149D01*
X149154963Y-47391422D01*
X149139142Y-47431300D01*
X149132829Y-47497392D01*
X148987311Y-47497392D01*
X148984836Y-47442789D01*
X148971936Y-47392662D01*
X148951968Y-47360257D01*
X148924918Y-47341072D01*
X148888342Y-47334214D01*
X148855944Y-47340029D01*
X148829913Y-47356712D01*
X148808658Y-47385065D01*
X148795475Y-47417053D01*
X148787345Y-47456616D01*
X148785027Y-47505599D01*
X148396625Y-47505599D01*
X148396800Y-47501163D01*
X148414505Y-47368887D01*
X148441300Y-47263381D01*
X148475659Y-47180085D01*
X148516775Y-47115206D01*
X148564634Y-47065892D01*
X148620024Y-47030425D01*
X148684462Y-47008366D01*
X148760054Y-47000602D01*
X148839985Y-47008849D01*
G37*
G36*
X149014606Y-45853133D02*
G01*
X149102920Y-45871761D01*
X149183619Y-45901886D01*
X149257648Y-45943218D01*
X149325781Y-45995885D01*
X149390333Y-46064251D01*
X149438660Y-46137527D01*
X149472621Y-46216424D01*
X149493147Y-46302240D01*
X149500170Y-46396761D01*
X149493011Y-46494434D01*
X149472169Y-46582369D01*
X149437838Y-46662477D01*
X149389190Y-46736152D01*
X149324438Y-46804158D01*
X149256949Y-46855834D01*
X149183394Y-46896463D01*
X149102980Y-46926128D01*
X149014746Y-46944500D01*
X148917590Y-46950850D01*
X148812798Y-46943597D01*
X148721692Y-46923000D01*
X148642359Y-46890362D01*
X148573166Y-46846368D01*
X148512819Y-46791042D01*
X148463230Y-46727199D01*
X148425047Y-46656950D01*
X148397531Y-46579394D01*
X148380573Y-46493214D01*
X148374699Y-46396761D01*
X148374803Y-46395076D01*
X148847554Y-46395076D01*
X148852427Y-46439070D01*
X148866205Y-46474024D01*
X148889075Y-46502173D01*
X148923064Y-46524257D01*
X148971704Y-46539369D01*
X149039651Y-46545138D01*
X149090129Y-46540699D01*
X149137747Y-46527582D01*
X149183082Y-46505791D01*
X149227693Y-46470780D01*
X149250684Y-46434971D01*
X149257882Y-46396761D01*
X149250729Y-46359435D01*
X149227466Y-46322835D01*
X149181739Y-46285240D01*
X149134454Y-46260426D01*
X149086840Y-46245829D01*
X149038307Y-46240983D01*
X148971265Y-46246823D01*
X148923099Y-46262156D01*
X148889268Y-46284655D01*
X148866362Y-46313497D01*
X148852481Y-46349524D01*
X148847554Y-46395076D01*
X148374803Y-46395076D01*
X148380556Y-46302146D01*
X148397506Y-46217229D01*
X148425088Y-46140422D01*
X148463480Y-46070467D01*
X148513490Y-46006510D01*
X148574127Y-45951103D01*
X148643436Y-45907092D01*
X148722678Y-45874484D01*
X148813442Y-45853931D01*
X148917590Y-45846702D01*
X149014606Y-45853133D01*
G37*
G36*
X149014606Y-44691318D02*
G01*
X149102920Y-44709946D01*
X149183619Y-44740072D01*
X149257648Y-44781403D01*
X149325781Y-44834071D01*
X149390333Y-44902437D01*
X149438660Y-44975712D01*
X149472621Y-45054609D01*
X149493147Y-45140426D01*
X149500170Y-45234946D01*
X149493011Y-45332619D01*
X149472169Y-45420554D01*
X149437838Y-45500663D01*
X149389190Y-45574337D01*
X149324438Y-45642344D01*
X149256949Y-45694020D01*
X149183394Y-45734648D01*
X149102980Y-45764313D01*
X149014746Y-45782685D01*
X148917590Y-45789036D01*
X148812798Y-45781783D01*
X148721692Y-45761185D01*
X148642359Y-45728548D01*
X148573166Y-45684553D01*
X148512819Y-45629228D01*
X148463230Y-45565384D01*
X148425047Y-45495136D01*
X148397531Y-45417579D01*
X148380573Y-45331400D01*
X148374699Y-45234946D01*
X148374803Y-45233261D01*
X148847554Y-45233261D01*
X148852427Y-45277256D01*
X148866205Y-45312210D01*
X148889075Y-45340359D01*
X148923064Y-45362442D01*
X148971704Y-45377555D01*
X149039651Y-45383324D01*
X149090129Y-45378885D01*
X149137747Y-45365768D01*
X149183082Y-45343976D01*
X149227693Y-45308966D01*
X149250684Y-45273157D01*
X149257882Y-45234946D01*
X149250729Y-45197621D01*
X149227466Y-45161020D01*
X149181739Y-45123425D01*
X149134454Y-45098612D01*
X149086840Y-45084015D01*
X149038307Y-45079168D01*
X148971265Y-45085008D01*
X148923099Y-45100342D01*
X148889268Y-45122840D01*
X148866362Y-45151682D01*
X148852481Y-45187710D01*
X148847554Y-45233261D01*
X148374803Y-45233261D01*
X148380556Y-45140331D01*
X148397506Y-45055415D01*
X148425088Y-44978608D01*
X148463480Y-44908653D01*
X148513490Y-44844695D01*
X148574127Y-44789288D01*
X148643436Y-44745278D01*
X148722678Y-44712669D01*
X148813442Y-44692116D01*
X148917590Y-44684887D01*
X149014606Y-44691318D01*
G37*
G36*
X148413778Y-43621405D02*
G01*
X148843646Y-43645219D01*
X148832472Y-43747654D01*
X148828014Y-43888631D01*
X149023653Y-43905850D01*
X149465000Y-43935379D01*
X149465000Y-44332152D01*
X149029148Y-44356698D01*
X148828014Y-44373917D01*
X148832472Y-44503464D01*
X148843646Y-44620700D01*
X148413778Y-44641217D01*
X148413778Y-43621405D01*
G37*
G36*
X147927034Y-63713778D02*
G01*
X147893475Y-64143646D01*
X147764735Y-64131006D01*
X147625370Y-64128014D01*
X147611448Y-64350764D01*
X147707337Y-64349347D01*
X147872153Y-64340566D01*
X147846727Y-64441439D01*
X147827090Y-64541639D01*
X147721358Y-64529366D01*
X147600018Y-64526618D01*
X147593423Y-64765000D01*
X147133563Y-64765000D01*
X147108137Y-64228459D01*
X147096935Y-64025383D01*
X147071281Y-63713778D01*
X147927034Y-63713778D01*
G37*
G36*
X148834006Y-64215087D02*
G01*
X148990590Y-64765000D01*
X148542160Y-64765000D01*
X148511898Y-64677072D01*
X148417596Y-64717616D01*
X148368706Y-64745711D01*
X148310178Y-64784783D01*
X148263503Y-64702962D01*
X148223350Y-64634696D01*
X148179020Y-64765000D01*
X147941323Y-64765000D01*
X147997126Y-64573574D01*
X148247896Y-64573574D01*
X148359418Y-64564842D01*
X148412676Y-64556185D01*
X148473357Y-64542250D01*
X148424191Y-64424220D01*
X148359418Y-64299289D01*
X148300360Y-64430570D01*
X148247896Y-64573574D01*
X147997126Y-64573574D01*
X148103622Y-64208248D01*
X148166199Y-63950525D01*
X148215949Y-63713778D01*
X148708636Y-63713778D01*
X148834006Y-64215087D01*
G37*
G36*
X150028353Y-63713778D02*
G01*
X149996406Y-64197135D01*
X149975890Y-64780631D01*
X149648800Y-64569056D01*
X149365161Y-64401566D01*
X149357027Y-64765000D01*
X149093025Y-64765000D01*
X149062690Y-64240732D01*
X149020925Y-63713778D01*
X149432425Y-63713778D01*
X149737387Y-63956067D01*
X149734090Y-63825275D01*
X149724271Y-63713778D01*
X150028353Y-63713778D01*
G37*
G36*
X148869792Y-56174057D02*
G01*
X148927143Y-56189992D01*
X148980611Y-56216232D01*
X149030858Y-56253101D01*
X149082621Y-56307620D01*
X149122934Y-56369630D01*
X149152735Y-56440020D01*
X149282306Y-56322784D01*
X149329943Y-56268944D01*
X149400519Y-56180121D01*
X149459260Y-56349821D01*
X149527526Y-56522745D01*
X149402107Y-56628551D01*
X149226618Y-56739193D01*
X149226618Y-56740805D01*
X149465000Y-56749012D01*
X149465000Y-57210558D01*
X148972911Y-57235983D01*
X148751530Y-57246888D01*
X148413778Y-57269542D01*
X148398873Y-57048602D01*
X148394239Y-56858042D01*
X148399677Y-56727690D01*
X148843646Y-56727690D01*
X149078119Y-56732599D01*
X149071621Y-56667509D01*
X149052779Y-56611332D01*
X149026759Y-56571641D01*
X148994747Y-56548754D01*
X148954715Y-56540844D01*
X148914603Y-56548464D01*
X148884346Y-56569961D01*
X148861475Y-56606423D01*
X148847077Y-56658618D01*
X148843646Y-56727690D01*
X148399677Y-56727690D01*
X148401234Y-56690368D01*
X148420433Y-56554675D01*
X148449622Y-56445759D01*
X148487290Y-56359093D01*
X148532731Y-56290971D01*
X148586108Y-56238694D01*
X148648441Y-56200765D01*
X148721518Y-56177013D01*
X148807742Y-56168618D01*
X148869792Y-56174057D01*
G37*
G36*
X148413778Y-55259082D02*
G01*
X148843646Y-55294326D01*
X148830396Y-55425484D01*
X148824106Y-55576353D01*
X148956974Y-55588663D01*
X148953555Y-55294326D01*
X149048016Y-55323049D01*
X149144553Y-55343565D01*
X149130509Y-55462414D01*
X149128921Y-55593572D01*
X149281329Y-55601779D01*
X149273086Y-55375512D01*
X149257882Y-55273004D01*
X149359731Y-55303338D01*
X149465000Y-55331255D01*
X149465000Y-56064937D01*
X148928459Y-56088677D01*
X148725966Y-56098842D01*
X148413778Y-56120624D01*
X148413778Y-55259082D01*
G37*
G36*
X148843646Y-54408237D02*
G01*
X148834362Y-54465491D01*
X148831922Y-54500048D01*
X148837304Y-54536623D01*
X148853843Y-54570537D01*
X148873514Y-54592027D01*
X148896231Y-54604710D01*
X148923025Y-54609078D01*
X148944749Y-54604127D01*
X148984005Y-54583977D01*
X149049787Y-54538590D01*
X149114306Y-54497479D01*
X149171295Y-54475020D01*
X149222405Y-54468028D01*
X149277716Y-54474711D01*
X149326585Y-54494106D01*
X149370396Y-54526182D01*
X149410045Y-54572149D01*
X149440569Y-54623926D01*
X149462478Y-54681284D01*
X149475959Y-54745271D01*
X149480631Y-54817246D01*
X149475896Y-54942879D01*
X149464694Y-55015669D01*
X149360952Y-55041095D01*
X149257882Y-55073042D01*
X149273757Y-54989748D01*
X149277421Y-54951702D01*
X149271463Y-54893256D01*
X149256336Y-54857386D01*
X149233420Y-54836885D01*
X149200240Y-54829556D01*
X149164511Y-54834932D01*
X149131382Y-54851010D01*
X149099918Y-54878722D01*
X148981765Y-55039410D01*
X148932497Y-55097176D01*
X148881199Y-55140473D01*
X148827419Y-55170811D01*
X148770449Y-55189017D01*
X148709373Y-55195188D01*
X148644372Y-55188803D01*
X148588334Y-55170593D01*
X148539665Y-55141290D01*
X148497179Y-55100678D01*
X148460184Y-55047616D01*
X148429450Y-54982060D01*
X148406401Y-54904572D01*
X148391671Y-54813027D01*
X148386423Y-54704919D01*
X148393300Y-54580629D01*
X148415793Y-54432784D01*
X148843646Y-54408237D01*
G37*
G36*
X148413778Y-53482948D02*
G01*
X148843646Y-53518192D01*
X148830396Y-53649350D01*
X148824106Y-53800219D01*
X148956974Y-53812529D01*
X148953555Y-53518192D01*
X149048016Y-53546915D01*
X149144553Y-53567431D01*
X149130509Y-53686280D01*
X149128921Y-53817438D01*
X149281329Y-53825645D01*
X149273086Y-53599378D01*
X149257882Y-53496870D01*
X149359731Y-53527205D01*
X149465000Y-53555121D01*
X149465000Y-54288803D01*
X148928459Y-54312543D01*
X148725966Y-54322708D01*
X148413778Y-54344490D01*
X148413778Y-53482948D01*
G37*
G36*
X148413778Y-52411552D02*
G01*
X148843646Y-52435366D01*
X148832472Y-52537801D01*
X148828014Y-52678778D01*
X149023653Y-52695997D01*
X149465000Y-52725526D01*
X149465000Y-53122299D01*
X149029148Y-53146845D01*
X148828014Y-53164064D01*
X148832472Y-53293611D01*
X148843646Y-53410847D01*
X148413778Y-53431364D01*
X148413778Y-52411552D01*
G37*
D12*
X130274819Y-42742856D02*
X129274819Y-42742856D01*
X129274819Y-42742856D02*
X129274819Y-42599999D01*
X129274819Y-42599999D02*
X129322438Y-42514285D01*
X129322438Y-42514285D02*
X129417676Y-42457142D01*
X129417676Y-42457142D02*
X129512914Y-42428571D01*
X129512914Y-42428571D02*
X129703390Y-42399999D01*
X129703390Y-42399999D02*
X129846247Y-42399999D01*
X129846247Y-42399999D02*
X130036723Y-42428571D01*
X130036723Y-42428571D02*
X130131961Y-42457142D01*
X130131961Y-42457142D02*
X130227200Y-42514285D01*
X130227200Y-42514285D02*
X130274819Y-42599999D01*
X130274819Y-42599999D02*
X130274819Y-42742856D01*
X129274819Y-41857142D02*
X129274819Y-42142856D01*
X129274819Y-42142856D02*
X129751009Y-42171428D01*
X129751009Y-42171428D02*
X129703390Y-42142856D01*
X129703390Y-42142856D02*
X129655771Y-42085714D01*
X129655771Y-42085714D02*
X129655771Y-41942856D01*
X129655771Y-41942856D02*
X129703390Y-41885714D01*
X129703390Y-41885714D02*
X129751009Y-41857142D01*
X129751009Y-41857142D02*
X129846247Y-41828571D01*
X129846247Y-41828571D02*
X130084342Y-41828571D01*
X130084342Y-41828571D02*
X130179580Y-41857142D01*
X130179580Y-41857142D02*
X130227200Y-41885714D01*
X130227200Y-41885714D02*
X130274819Y-41942856D01*
X130274819Y-41942856D02*
X130274819Y-42085714D01*
X130274819Y-42085714D02*
X130227200Y-42142856D01*
X130227200Y-42142856D02*
X130179580Y-42171428D01*
X140034819Y-59595713D02*
X139034819Y-59595713D01*
X139034819Y-59595713D02*
X139749104Y-59395713D01*
X139749104Y-59395713D02*
X139034819Y-59195713D01*
X139034819Y-59195713D02*
X140034819Y-59195713D01*
X140034819Y-58595714D02*
X140034819Y-58938571D01*
X140034819Y-58767142D02*
X139034819Y-58767142D01*
X139034819Y-58767142D02*
X139177676Y-58824285D01*
X139177676Y-58824285D02*
X139272914Y-58881428D01*
X139272914Y-58881428D02*
X139320533Y-58938571D01*
X146804819Y-34460602D02*
X146328628Y-34660602D01*
X146804819Y-34803459D02*
X145804819Y-34803459D01*
X145804819Y-34803459D02*
X145804819Y-34574888D01*
X145804819Y-34574888D02*
X145852438Y-34517745D01*
X145852438Y-34517745D02*
X145900057Y-34489174D01*
X145900057Y-34489174D02*
X145995295Y-34460602D01*
X145995295Y-34460602D02*
X146138152Y-34460602D01*
X146138152Y-34460602D02*
X146233390Y-34489174D01*
X146233390Y-34489174D02*
X146281009Y-34517745D01*
X146281009Y-34517745D02*
X146328628Y-34574888D01*
X146328628Y-34574888D02*
X146328628Y-34803459D01*
X146804819Y-33889174D02*
X146804819Y-34232031D01*
X146804819Y-34060602D02*
X145804819Y-34060602D01*
X145804819Y-34060602D02*
X145947676Y-34117745D01*
X145947676Y-34117745D02*
X146042914Y-34174888D01*
X146042914Y-34174888D02*
X146090533Y-34232031D01*
X133804819Y-59049999D02*
X133328628Y-59249999D01*
X133804819Y-59392856D02*
X132804819Y-59392856D01*
X132804819Y-59392856D02*
X132804819Y-59164285D01*
X132804819Y-59164285D02*
X132852438Y-59107142D01*
X132852438Y-59107142D02*
X132900057Y-59078571D01*
X132900057Y-59078571D02*
X132995295Y-59049999D01*
X132995295Y-59049999D02*
X133138152Y-59049999D01*
X133138152Y-59049999D02*
X133233390Y-59078571D01*
X133233390Y-59078571D02*
X133281009Y-59107142D01*
X133281009Y-59107142D02*
X133328628Y-59164285D01*
X133328628Y-59164285D02*
X133328628Y-59392856D01*
X132804819Y-58507142D02*
X132804819Y-58792856D01*
X132804819Y-58792856D02*
X133281009Y-58821428D01*
X133281009Y-58821428D02*
X133233390Y-58792856D01*
X133233390Y-58792856D02*
X133185771Y-58735714D01*
X133185771Y-58735714D02*
X133185771Y-58592856D01*
X133185771Y-58592856D02*
X133233390Y-58535714D01*
X133233390Y-58535714D02*
X133281009Y-58507142D01*
X133281009Y-58507142D02*
X133376247Y-58478571D01*
X133376247Y-58478571D02*
X133614342Y-58478571D01*
X133614342Y-58478571D02*
X133709580Y-58507142D01*
X133709580Y-58507142D02*
X133757200Y-58535714D01*
X133757200Y-58535714D02*
X133804819Y-58592856D01*
X133804819Y-58592856D02*
X133804819Y-58735714D01*
X133804819Y-58735714D02*
X133757200Y-58792856D01*
X133757200Y-58792856D02*
X133709580Y-58821428D01*
X148504819Y-49349999D02*
X148028628Y-49549999D01*
X148504819Y-49692856D02*
X147504819Y-49692856D01*
X147504819Y-49692856D02*
X147504819Y-49464285D01*
X147504819Y-49464285D02*
X147552438Y-49407142D01*
X147552438Y-49407142D02*
X147600057Y-49378571D01*
X147600057Y-49378571D02*
X147695295Y-49349999D01*
X147695295Y-49349999D02*
X147838152Y-49349999D01*
X147838152Y-49349999D02*
X147933390Y-49378571D01*
X147933390Y-49378571D02*
X147981009Y-49407142D01*
X147981009Y-49407142D02*
X148028628Y-49464285D01*
X148028628Y-49464285D02*
X148028628Y-49692856D01*
X148504819Y-49064285D02*
X148504819Y-48949999D01*
X148504819Y-48949999D02*
X148457200Y-48892856D01*
X148457200Y-48892856D02*
X148409580Y-48864285D01*
X148409580Y-48864285D02*
X148266723Y-48807142D01*
X148266723Y-48807142D02*
X148076247Y-48778571D01*
X148076247Y-48778571D02*
X147695295Y-48778571D01*
X147695295Y-48778571D02*
X147600057Y-48807142D01*
X147600057Y-48807142D02*
X147552438Y-48835714D01*
X147552438Y-48835714D02*
X147504819Y-48892856D01*
X147504819Y-48892856D02*
X147504819Y-49007142D01*
X147504819Y-49007142D02*
X147552438Y-49064285D01*
X147552438Y-49064285D02*
X147600057Y-49092856D01*
X147600057Y-49092856D02*
X147695295Y-49121428D01*
X147695295Y-49121428D02*
X147933390Y-49121428D01*
X147933390Y-49121428D02*
X148028628Y-49092856D01*
X148028628Y-49092856D02*
X148076247Y-49064285D01*
X148076247Y-49064285D02*
X148123866Y-49007142D01*
X148123866Y-49007142D02*
X148123866Y-48892856D01*
X148123866Y-48892856D02*
X148076247Y-48835714D01*
X148076247Y-48835714D02*
X148028628Y-48807142D01*
X148028628Y-48807142D02*
X147933390Y-48778571D01*
X139559580Y-57949999D02*
X139607200Y-57978571D01*
X139607200Y-57978571D02*
X139654819Y-58064285D01*
X139654819Y-58064285D02*
X139654819Y-58121428D01*
X139654819Y-58121428D02*
X139607200Y-58207142D01*
X139607200Y-58207142D02*
X139511961Y-58264285D01*
X139511961Y-58264285D02*
X139416723Y-58292856D01*
X139416723Y-58292856D02*
X139226247Y-58321428D01*
X139226247Y-58321428D02*
X139083390Y-58321428D01*
X139083390Y-58321428D02*
X138892914Y-58292856D01*
X138892914Y-58292856D02*
X138797676Y-58264285D01*
X138797676Y-58264285D02*
X138702438Y-58207142D01*
X138702438Y-58207142D02*
X138654819Y-58121428D01*
X138654819Y-58121428D02*
X138654819Y-58064285D01*
X138654819Y-58064285D02*
X138702438Y-57978571D01*
X138702438Y-57978571D02*
X138750057Y-57949999D01*
X138654819Y-57749999D02*
X138654819Y-57349999D01*
X138654819Y-57349999D02*
X139654819Y-57607142D01*
X149364285Y-23909580D02*
X149335713Y-23957200D01*
X149335713Y-23957200D02*
X149249999Y-24004819D01*
X149249999Y-24004819D02*
X149192856Y-24004819D01*
X149192856Y-24004819D02*
X149107142Y-23957200D01*
X149107142Y-23957200D02*
X149049999Y-23861961D01*
X149049999Y-23861961D02*
X149021428Y-23766723D01*
X149021428Y-23766723D02*
X148992856Y-23576247D01*
X148992856Y-23576247D02*
X148992856Y-23433390D01*
X148992856Y-23433390D02*
X149021428Y-23242914D01*
X149021428Y-23242914D02*
X149049999Y-23147676D01*
X149049999Y-23147676D02*
X149107142Y-23052438D01*
X149107142Y-23052438D02*
X149192856Y-23004819D01*
X149192856Y-23004819D02*
X149249999Y-23004819D01*
X149249999Y-23004819D02*
X149335713Y-23052438D01*
X149335713Y-23052438D02*
X149364285Y-23100057D01*
X149935713Y-24004819D02*
X149592856Y-24004819D01*
X149764285Y-24004819D02*
X149764285Y-23004819D01*
X149764285Y-23004819D02*
X149707142Y-23147676D01*
X149707142Y-23147676D02*
X149649999Y-23242914D01*
X149649999Y-23242914D02*
X149592856Y-23290533D01*
X150164285Y-23100057D02*
X150192857Y-23052438D01*
X150192857Y-23052438D02*
X150250000Y-23004819D01*
X150250000Y-23004819D02*
X150392857Y-23004819D01*
X150392857Y-23004819D02*
X150450000Y-23052438D01*
X150450000Y-23052438D02*
X150478571Y-23100057D01*
X150478571Y-23100057D02*
X150507142Y-23195295D01*
X150507142Y-23195295D02*
X150507142Y-23290533D01*
X150507142Y-23290533D02*
X150478571Y-23433390D01*
X150478571Y-23433390D02*
X150135714Y-24004819D01*
X150135714Y-24004819D02*
X150507142Y-24004819D01*
X145119819Y-40459398D02*
X144643628Y-40659398D01*
X145119819Y-40802255D02*
X144119819Y-40802255D01*
X144119819Y-40802255D02*
X144119819Y-40573684D01*
X144119819Y-40573684D02*
X144167438Y-40516541D01*
X144167438Y-40516541D02*
X144215057Y-40487970D01*
X144215057Y-40487970D02*
X144310295Y-40459398D01*
X144310295Y-40459398D02*
X144453152Y-40459398D01*
X144453152Y-40459398D02*
X144548390Y-40487970D01*
X144548390Y-40487970D02*
X144596009Y-40516541D01*
X144596009Y-40516541D02*
X144643628Y-40573684D01*
X144643628Y-40573684D02*
X144643628Y-40802255D01*
X144119819Y-40259398D02*
X144119819Y-39887970D01*
X144119819Y-39887970D02*
X144500771Y-40087970D01*
X144500771Y-40087970D02*
X144500771Y-40002255D01*
X144500771Y-40002255D02*
X144548390Y-39945113D01*
X144548390Y-39945113D02*
X144596009Y-39916541D01*
X144596009Y-39916541D02*
X144691247Y-39887970D01*
X144691247Y-39887970D02*
X144929342Y-39887970D01*
X144929342Y-39887970D02*
X145024580Y-39916541D01*
X145024580Y-39916541D02*
X145072200Y-39945113D01*
X145072200Y-39945113D02*
X145119819Y-40002255D01*
X145119819Y-40002255D02*
X145119819Y-40173684D01*
X145119819Y-40173684D02*
X145072200Y-40230827D01*
X145072200Y-40230827D02*
X145024580Y-40259398D01*
X137909580Y-41949999D02*
X137957200Y-41978571D01*
X137957200Y-41978571D02*
X138004819Y-42064285D01*
X138004819Y-42064285D02*
X138004819Y-42121428D01*
X138004819Y-42121428D02*
X137957200Y-42207142D01*
X137957200Y-42207142D02*
X137861961Y-42264285D01*
X137861961Y-42264285D02*
X137766723Y-42292856D01*
X137766723Y-42292856D02*
X137576247Y-42321428D01*
X137576247Y-42321428D02*
X137433390Y-42321428D01*
X137433390Y-42321428D02*
X137242914Y-42292856D01*
X137242914Y-42292856D02*
X137147676Y-42264285D01*
X137147676Y-42264285D02*
X137052438Y-42207142D01*
X137052438Y-42207142D02*
X137004819Y-42121428D01*
X137004819Y-42121428D02*
X137004819Y-42064285D01*
X137004819Y-42064285D02*
X137052438Y-41978571D01*
X137052438Y-41978571D02*
X137100057Y-41949999D01*
X137004819Y-41407142D02*
X137004819Y-41692856D01*
X137004819Y-41692856D02*
X137481009Y-41721428D01*
X137481009Y-41721428D02*
X137433390Y-41692856D01*
X137433390Y-41692856D02*
X137385771Y-41635714D01*
X137385771Y-41635714D02*
X137385771Y-41492856D01*
X137385771Y-41492856D02*
X137433390Y-41435714D01*
X137433390Y-41435714D02*
X137481009Y-41407142D01*
X137481009Y-41407142D02*
X137576247Y-41378571D01*
X137576247Y-41378571D02*
X137814342Y-41378571D01*
X137814342Y-41378571D02*
X137909580Y-41407142D01*
X137909580Y-41407142D02*
X137957200Y-41435714D01*
X137957200Y-41435714D02*
X138004819Y-41492856D01*
X138004819Y-41492856D02*
X138004819Y-41635714D01*
X138004819Y-41635714D02*
X137957200Y-41692856D01*
X137957200Y-41692856D02*
X137909580Y-41721428D01*
X132604819Y-38607142D02*
X133414342Y-38607142D01*
X133414342Y-38607142D02*
X133509580Y-38578571D01*
X133509580Y-38578571D02*
X133557200Y-38550000D01*
X133557200Y-38550000D02*
X133604819Y-38492857D01*
X133604819Y-38492857D02*
X133604819Y-38378571D01*
X133604819Y-38378571D02*
X133557200Y-38321428D01*
X133557200Y-38321428D02*
X133509580Y-38292857D01*
X133509580Y-38292857D02*
X133414342Y-38264285D01*
X133414342Y-38264285D02*
X132604819Y-38264285D01*
X132938152Y-37721429D02*
X133604819Y-37721429D01*
X132557200Y-37864286D02*
X133271485Y-38007143D01*
X133271485Y-38007143D02*
X133271485Y-37635714D01*
X145604819Y-48549999D02*
X145128628Y-48749999D01*
X145604819Y-48892856D02*
X144604819Y-48892856D01*
X144604819Y-48892856D02*
X144604819Y-48664285D01*
X144604819Y-48664285D02*
X144652438Y-48607142D01*
X144652438Y-48607142D02*
X144700057Y-48578571D01*
X144700057Y-48578571D02*
X144795295Y-48549999D01*
X144795295Y-48549999D02*
X144938152Y-48549999D01*
X144938152Y-48549999D02*
X145033390Y-48578571D01*
X145033390Y-48578571D02*
X145081009Y-48607142D01*
X145081009Y-48607142D02*
X145128628Y-48664285D01*
X145128628Y-48664285D02*
X145128628Y-48892856D01*
X144938152Y-48035714D02*
X145604819Y-48035714D01*
X144557200Y-48178571D02*
X145271485Y-48321428D01*
X145271485Y-48321428D02*
X145271485Y-47949999D01*
X131704819Y-27350000D02*
X132419104Y-27350000D01*
X132419104Y-27350000D02*
X132561961Y-27378571D01*
X132561961Y-27378571D02*
X132657200Y-27435714D01*
X132657200Y-27435714D02*
X132704819Y-27521428D01*
X132704819Y-27521428D02*
X132704819Y-27578571D01*
X131800057Y-27092857D02*
X131752438Y-27064285D01*
X131752438Y-27064285D02*
X131704819Y-27007143D01*
X131704819Y-27007143D02*
X131704819Y-26864285D01*
X131704819Y-26864285D02*
X131752438Y-26807143D01*
X131752438Y-26807143D02*
X131800057Y-26778571D01*
X131800057Y-26778571D02*
X131895295Y-26750000D01*
X131895295Y-26750000D02*
X131990533Y-26750000D01*
X131990533Y-26750000D02*
X132133390Y-26778571D01*
X132133390Y-26778571D02*
X132704819Y-27121428D01*
X132704819Y-27121428D02*
X132704819Y-26750000D01*
X138774286Y-36604819D02*
X138574286Y-36128628D01*
X138431429Y-36604819D02*
X138431429Y-35604819D01*
X138431429Y-35604819D02*
X138660000Y-35604819D01*
X138660000Y-35604819D02*
X138717143Y-35652438D01*
X138717143Y-35652438D02*
X138745714Y-35700057D01*
X138745714Y-35700057D02*
X138774286Y-35795295D01*
X138774286Y-35795295D02*
X138774286Y-35938152D01*
X138774286Y-35938152D02*
X138745714Y-36033390D01*
X138745714Y-36033390D02*
X138717143Y-36081009D01*
X138717143Y-36081009D02*
X138660000Y-36128628D01*
X138660000Y-36128628D02*
X138431429Y-36128628D01*
X139345714Y-36604819D02*
X139002857Y-36604819D01*
X139174286Y-36604819D02*
X139174286Y-35604819D01*
X139174286Y-35604819D02*
X139117143Y-35747676D01*
X139117143Y-35747676D02*
X139060000Y-35842914D01*
X139060000Y-35842914D02*
X139002857Y-35890533D01*
X139888572Y-35604819D02*
X139602858Y-35604819D01*
X139602858Y-35604819D02*
X139574286Y-36081009D01*
X139574286Y-36081009D02*
X139602858Y-36033390D01*
X139602858Y-36033390D02*
X139660001Y-35985771D01*
X139660001Y-35985771D02*
X139802858Y-35985771D01*
X139802858Y-35985771D02*
X139860001Y-36033390D01*
X139860001Y-36033390D02*
X139888572Y-36081009D01*
X139888572Y-36081009D02*
X139917143Y-36176247D01*
X139917143Y-36176247D02*
X139917143Y-36414342D01*
X139917143Y-36414342D02*
X139888572Y-36509580D01*
X139888572Y-36509580D02*
X139860001Y-36557200D01*
X139860001Y-36557200D02*
X139802858Y-36604819D01*
X139802858Y-36604819D02*
X139660001Y-36604819D01*
X139660001Y-36604819D02*
X139602858Y-36557200D01*
X139602858Y-36557200D02*
X139574286Y-36509580D01*
X151109580Y-34235714D02*
X151157200Y-34264286D01*
X151157200Y-34264286D02*
X151204819Y-34350000D01*
X151204819Y-34350000D02*
X151204819Y-34407143D01*
X151204819Y-34407143D02*
X151157200Y-34492857D01*
X151157200Y-34492857D02*
X151061961Y-34550000D01*
X151061961Y-34550000D02*
X150966723Y-34578571D01*
X150966723Y-34578571D02*
X150776247Y-34607143D01*
X150776247Y-34607143D02*
X150633390Y-34607143D01*
X150633390Y-34607143D02*
X150442914Y-34578571D01*
X150442914Y-34578571D02*
X150347676Y-34550000D01*
X150347676Y-34550000D02*
X150252438Y-34492857D01*
X150252438Y-34492857D02*
X150204819Y-34407143D01*
X150204819Y-34407143D02*
X150204819Y-34350000D01*
X150204819Y-34350000D02*
X150252438Y-34264286D01*
X150252438Y-34264286D02*
X150300057Y-34235714D01*
X151204819Y-33664286D02*
X151204819Y-34007143D01*
X151204819Y-33835714D02*
X150204819Y-33835714D01*
X150204819Y-33835714D02*
X150347676Y-33892857D01*
X150347676Y-33892857D02*
X150442914Y-33950000D01*
X150442914Y-33950000D02*
X150490533Y-34007143D01*
X151204819Y-33092857D02*
X151204819Y-33435714D01*
X151204819Y-33264285D02*
X150204819Y-33264285D01*
X150204819Y-33264285D02*
X150347676Y-33321428D01*
X150347676Y-33321428D02*
X150442914Y-33378571D01*
X150442914Y-33378571D02*
X150490533Y-33435714D01*
X136404819Y-35392856D02*
X135404819Y-35392856D01*
X135404819Y-35392856D02*
X135404819Y-35249999D01*
X135404819Y-35249999D02*
X135452438Y-35164285D01*
X135452438Y-35164285D02*
X135547676Y-35107142D01*
X135547676Y-35107142D02*
X135642914Y-35078571D01*
X135642914Y-35078571D02*
X135833390Y-35049999D01*
X135833390Y-35049999D02*
X135976247Y-35049999D01*
X135976247Y-35049999D02*
X136166723Y-35078571D01*
X136166723Y-35078571D02*
X136261961Y-35107142D01*
X136261961Y-35107142D02*
X136357200Y-35164285D01*
X136357200Y-35164285D02*
X136404819Y-35249999D01*
X136404819Y-35249999D02*
X136404819Y-35392856D01*
X135404819Y-34849999D02*
X135404819Y-34478571D01*
X135404819Y-34478571D02*
X135785771Y-34678571D01*
X135785771Y-34678571D02*
X135785771Y-34592856D01*
X135785771Y-34592856D02*
X135833390Y-34535714D01*
X135833390Y-34535714D02*
X135881009Y-34507142D01*
X135881009Y-34507142D02*
X135976247Y-34478571D01*
X135976247Y-34478571D02*
X136214342Y-34478571D01*
X136214342Y-34478571D02*
X136309580Y-34507142D01*
X136309580Y-34507142D02*
X136357200Y-34535714D01*
X136357200Y-34535714D02*
X136404819Y-34592856D01*
X136404819Y-34592856D02*
X136404819Y-34764285D01*
X136404819Y-34764285D02*
X136357200Y-34821428D01*
X136357200Y-34821428D02*
X136309580Y-34849999D01*
X151009580Y-45735714D02*
X151057200Y-45764286D01*
X151057200Y-45764286D02*
X151104819Y-45850000D01*
X151104819Y-45850000D02*
X151104819Y-45907143D01*
X151104819Y-45907143D02*
X151057200Y-45992857D01*
X151057200Y-45992857D02*
X150961961Y-46050000D01*
X150961961Y-46050000D02*
X150866723Y-46078571D01*
X150866723Y-46078571D02*
X150676247Y-46107143D01*
X150676247Y-46107143D02*
X150533390Y-46107143D01*
X150533390Y-46107143D02*
X150342914Y-46078571D01*
X150342914Y-46078571D02*
X150247676Y-46050000D01*
X150247676Y-46050000D02*
X150152438Y-45992857D01*
X150152438Y-45992857D02*
X150104819Y-45907143D01*
X150104819Y-45907143D02*
X150104819Y-45850000D01*
X150104819Y-45850000D02*
X150152438Y-45764286D01*
X150152438Y-45764286D02*
X150200057Y-45735714D01*
X151104819Y-45164286D02*
X151104819Y-45507143D01*
X151104819Y-45335714D02*
X150104819Y-45335714D01*
X150104819Y-45335714D02*
X150247676Y-45392857D01*
X150247676Y-45392857D02*
X150342914Y-45450000D01*
X150342914Y-45450000D02*
X150390533Y-45507143D01*
X150104819Y-44964285D02*
X150104819Y-44592857D01*
X150104819Y-44592857D02*
X150485771Y-44792857D01*
X150485771Y-44792857D02*
X150485771Y-44707142D01*
X150485771Y-44707142D02*
X150533390Y-44650000D01*
X150533390Y-44650000D02*
X150581009Y-44621428D01*
X150581009Y-44621428D02*
X150676247Y-44592857D01*
X150676247Y-44592857D02*
X150914342Y-44592857D01*
X150914342Y-44592857D02*
X151009580Y-44621428D01*
X151009580Y-44621428D02*
X151057200Y-44650000D01*
X151057200Y-44650000D02*
X151104819Y-44707142D01*
X151104819Y-44707142D02*
X151104819Y-44878571D01*
X151104819Y-44878571D02*
X151057200Y-44935714D01*
X151057200Y-44935714D02*
X151009580Y-44964285D01*
X130904819Y-60607142D02*
X131714342Y-60607142D01*
X131714342Y-60607142D02*
X131809580Y-60578571D01*
X131809580Y-60578571D02*
X131857200Y-60550000D01*
X131857200Y-60550000D02*
X131904819Y-60492857D01*
X131904819Y-60492857D02*
X131904819Y-60378571D01*
X131904819Y-60378571D02*
X131857200Y-60321428D01*
X131857200Y-60321428D02*
X131809580Y-60292857D01*
X131809580Y-60292857D02*
X131714342Y-60264285D01*
X131714342Y-60264285D02*
X130904819Y-60264285D01*
X130904819Y-59692857D02*
X130904819Y-59978571D01*
X130904819Y-59978571D02*
X131381009Y-60007143D01*
X131381009Y-60007143D02*
X131333390Y-59978571D01*
X131333390Y-59978571D02*
X131285771Y-59921429D01*
X131285771Y-59921429D02*
X131285771Y-59778571D01*
X131285771Y-59778571D02*
X131333390Y-59721429D01*
X131333390Y-59721429D02*
X131381009Y-59692857D01*
X131381009Y-59692857D02*
X131476247Y-59664286D01*
X131476247Y-59664286D02*
X131714342Y-59664286D01*
X131714342Y-59664286D02*
X131809580Y-59692857D01*
X131809580Y-59692857D02*
X131857200Y-59721429D01*
X131857200Y-59721429D02*
X131904819Y-59778571D01*
X131904819Y-59778571D02*
X131904819Y-59921429D01*
X131904819Y-59921429D02*
X131857200Y-59978571D01*
X131857200Y-59978571D02*
X131809580Y-60007143D01*
X134659580Y-40249999D02*
X134707200Y-40278571D01*
X134707200Y-40278571D02*
X134754819Y-40364285D01*
X134754819Y-40364285D02*
X134754819Y-40421428D01*
X134754819Y-40421428D02*
X134707200Y-40507142D01*
X134707200Y-40507142D02*
X134611961Y-40564285D01*
X134611961Y-40564285D02*
X134516723Y-40592856D01*
X134516723Y-40592856D02*
X134326247Y-40621428D01*
X134326247Y-40621428D02*
X134183390Y-40621428D01*
X134183390Y-40621428D02*
X133992914Y-40592856D01*
X133992914Y-40592856D02*
X133897676Y-40564285D01*
X133897676Y-40564285D02*
X133802438Y-40507142D01*
X133802438Y-40507142D02*
X133754819Y-40421428D01*
X133754819Y-40421428D02*
X133754819Y-40364285D01*
X133754819Y-40364285D02*
X133802438Y-40278571D01*
X133802438Y-40278571D02*
X133850057Y-40249999D01*
X134754819Y-39964285D02*
X134754819Y-39849999D01*
X134754819Y-39849999D02*
X134707200Y-39792856D01*
X134707200Y-39792856D02*
X134659580Y-39764285D01*
X134659580Y-39764285D02*
X134516723Y-39707142D01*
X134516723Y-39707142D02*
X134326247Y-39678571D01*
X134326247Y-39678571D02*
X133945295Y-39678571D01*
X133945295Y-39678571D02*
X133850057Y-39707142D01*
X133850057Y-39707142D02*
X133802438Y-39735714D01*
X133802438Y-39735714D02*
X133754819Y-39792856D01*
X133754819Y-39792856D02*
X133754819Y-39907142D01*
X133754819Y-39907142D02*
X133802438Y-39964285D01*
X133802438Y-39964285D02*
X133850057Y-39992856D01*
X133850057Y-39992856D02*
X133945295Y-40021428D01*
X133945295Y-40021428D02*
X134183390Y-40021428D01*
X134183390Y-40021428D02*
X134278628Y-39992856D01*
X134278628Y-39992856D02*
X134326247Y-39964285D01*
X134326247Y-39964285D02*
X134373866Y-39907142D01*
X134373866Y-39907142D02*
X134373866Y-39792856D01*
X134373866Y-39792856D02*
X134326247Y-39735714D01*
X134326247Y-39735714D02*
X134278628Y-39707142D01*
X134278628Y-39707142D02*
X134183390Y-39678571D01*
X151104819Y-56492857D02*
X150104819Y-56492857D01*
X150104819Y-56492857D02*
X150104819Y-56350000D01*
X150104819Y-56350000D02*
X150152438Y-56264286D01*
X150152438Y-56264286D02*
X150247676Y-56207143D01*
X150247676Y-56207143D02*
X150342914Y-56178572D01*
X150342914Y-56178572D02*
X150533390Y-56150000D01*
X150533390Y-56150000D02*
X150676247Y-56150000D01*
X150676247Y-56150000D02*
X150866723Y-56178572D01*
X150866723Y-56178572D02*
X150961961Y-56207143D01*
X150961961Y-56207143D02*
X151057200Y-56264286D01*
X151057200Y-56264286D02*
X151104819Y-56350000D01*
X151104819Y-56350000D02*
X151104819Y-56492857D01*
X150104819Y-55635715D02*
X150104819Y-55750000D01*
X150104819Y-55750000D02*
X150152438Y-55807143D01*
X150152438Y-55807143D02*
X150200057Y-55835715D01*
X150200057Y-55835715D02*
X150342914Y-55892857D01*
X150342914Y-55892857D02*
X150533390Y-55921429D01*
X150533390Y-55921429D02*
X150914342Y-55921429D01*
X150914342Y-55921429D02*
X151009580Y-55892857D01*
X151009580Y-55892857D02*
X151057200Y-55864286D01*
X151057200Y-55864286D02*
X151104819Y-55807143D01*
X151104819Y-55807143D02*
X151104819Y-55692857D01*
X151104819Y-55692857D02*
X151057200Y-55635715D01*
X151057200Y-55635715D02*
X151009580Y-55607143D01*
X151009580Y-55607143D02*
X150914342Y-55578572D01*
X150914342Y-55578572D02*
X150676247Y-55578572D01*
X150676247Y-55578572D02*
X150581009Y-55607143D01*
X150581009Y-55607143D02*
X150533390Y-55635715D01*
X150533390Y-55635715D02*
X150485771Y-55692857D01*
X150485771Y-55692857D02*
X150485771Y-55807143D01*
X150485771Y-55807143D02*
X150533390Y-55864286D01*
X150533390Y-55864286D02*
X150581009Y-55892857D01*
X150581009Y-55892857D02*
X150676247Y-55921429D01*
X145404819Y-35465601D02*
X144928628Y-35665601D01*
X145404819Y-35808458D02*
X144404819Y-35808458D01*
X144404819Y-35808458D02*
X144404819Y-35579887D01*
X144404819Y-35579887D02*
X144452438Y-35522744D01*
X144452438Y-35522744D02*
X144500057Y-35494173D01*
X144500057Y-35494173D02*
X144595295Y-35465601D01*
X144595295Y-35465601D02*
X144738152Y-35465601D01*
X144738152Y-35465601D02*
X144833390Y-35494173D01*
X144833390Y-35494173D02*
X144881009Y-35522744D01*
X144881009Y-35522744D02*
X144928628Y-35579887D01*
X144928628Y-35579887D02*
X144928628Y-35808458D01*
X144500057Y-35237030D02*
X144452438Y-35208458D01*
X144452438Y-35208458D02*
X144404819Y-35151316D01*
X144404819Y-35151316D02*
X144404819Y-35008458D01*
X144404819Y-35008458D02*
X144452438Y-34951316D01*
X144452438Y-34951316D02*
X144500057Y-34922744D01*
X144500057Y-34922744D02*
X144595295Y-34894173D01*
X144595295Y-34894173D02*
X144690533Y-34894173D01*
X144690533Y-34894173D02*
X144833390Y-34922744D01*
X144833390Y-34922744D02*
X145404819Y-35265601D01*
X145404819Y-35265601D02*
X145404819Y-34894173D01*
X151009580Y-35999999D02*
X151057200Y-36028571D01*
X151057200Y-36028571D02*
X151104819Y-36114285D01*
X151104819Y-36114285D02*
X151104819Y-36171428D01*
X151104819Y-36171428D02*
X151057200Y-36257142D01*
X151057200Y-36257142D02*
X150961961Y-36314285D01*
X150961961Y-36314285D02*
X150866723Y-36342856D01*
X150866723Y-36342856D02*
X150676247Y-36371428D01*
X150676247Y-36371428D02*
X150533390Y-36371428D01*
X150533390Y-36371428D02*
X150342914Y-36342856D01*
X150342914Y-36342856D02*
X150247676Y-36314285D01*
X150247676Y-36314285D02*
X150152438Y-36257142D01*
X150152438Y-36257142D02*
X150104819Y-36171428D01*
X150104819Y-36171428D02*
X150104819Y-36114285D01*
X150104819Y-36114285D02*
X150152438Y-36028571D01*
X150152438Y-36028571D02*
X150200057Y-35999999D01*
X150200057Y-35771428D02*
X150152438Y-35742856D01*
X150152438Y-35742856D02*
X150104819Y-35685714D01*
X150104819Y-35685714D02*
X150104819Y-35542856D01*
X150104819Y-35542856D02*
X150152438Y-35485714D01*
X150152438Y-35485714D02*
X150200057Y-35457142D01*
X150200057Y-35457142D02*
X150295295Y-35428571D01*
X150295295Y-35428571D02*
X150390533Y-35428571D01*
X150390533Y-35428571D02*
X150533390Y-35457142D01*
X150533390Y-35457142D02*
X151104819Y-35799999D01*
X151104819Y-35799999D02*
X151104819Y-35428571D01*
X145274284Y-64904819D02*
X145074284Y-64428628D01*
X144931427Y-64904819D02*
X144931427Y-63904819D01*
X144931427Y-63904819D02*
X145159998Y-63904819D01*
X145159998Y-63904819D02*
X145217141Y-63952438D01*
X145217141Y-63952438D02*
X145245712Y-64000057D01*
X145245712Y-64000057D02*
X145274284Y-64095295D01*
X145274284Y-64095295D02*
X145274284Y-64238152D01*
X145274284Y-64238152D02*
X145245712Y-64333390D01*
X145245712Y-64333390D02*
X145217141Y-64381009D01*
X145217141Y-64381009D02*
X145159998Y-64428628D01*
X145159998Y-64428628D02*
X144931427Y-64428628D01*
X145845712Y-64904819D02*
X145502855Y-64904819D01*
X145674284Y-64904819D02*
X145674284Y-63904819D01*
X145674284Y-63904819D02*
X145617141Y-64047676D01*
X145617141Y-64047676D02*
X145559998Y-64142914D01*
X145559998Y-64142914D02*
X145502855Y-64190533D01*
X146217141Y-63904819D02*
X146274284Y-63904819D01*
X146274284Y-63904819D02*
X146331427Y-63952438D01*
X146331427Y-63952438D02*
X146359999Y-64000057D01*
X146359999Y-64000057D02*
X146388570Y-64095295D01*
X146388570Y-64095295D02*
X146417141Y-64285771D01*
X146417141Y-64285771D02*
X146417141Y-64523866D01*
X146417141Y-64523866D02*
X146388570Y-64714342D01*
X146388570Y-64714342D02*
X146359999Y-64809580D01*
X146359999Y-64809580D02*
X146331427Y-64857200D01*
X146331427Y-64857200D02*
X146274284Y-64904819D01*
X146274284Y-64904819D02*
X146217141Y-64904819D01*
X146217141Y-64904819D02*
X146159999Y-64857200D01*
X146159999Y-64857200D02*
X146131427Y-64809580D01*
X146131427Y-64809580D02*
X146102856Y-64714342D01*
X146102856Y-64714342D02*
X146074284Y-64523866D01*
X146074284Y-64523866D02*
X146074284Y-64285771D01*
X146074284Y-64285771D02*
X146102856Y-64095295D01*
X146102856Y-64095295D02*
X146131427Y-64000057D01*
X146131427Y-64000057D02*
X146159999Y-63952438D01*
X146159999Y-63952438D02*
X146217141Y-63904819D01*
X143994819Y-33792856D02*
X142994819Y-33792856D01*
X142994819Y-33792856D02*
X142994819Y-33649999D01*
X142994819Y-33649999D02*
X143042438Y-33564285D01*
X143042438Y-33564285D02*
X143137676Y-33507142D01*
X143137676Y-33507142D02*
X143232914Y-33478571D01*
X143232914Y-33478571D02*
X143423390Y-33449999D01*
X143423390Y-33449999D02*
X143566247Y-33449999D01*
X143566247Y-33449999D02*
X143756723Y-33478571D01*
X143756723Y-33478571D02*
X143851961Y-33507142D01*
X143851961Y-33507142D02*
X143947200Y-33564285D01*
X143947200Y-33564285D02*
X143994819Y-33649999D01*
X143994819Y-33649999D02*
X143994819Y-33792856D01*
X143328152Y-32935714D02*
X143994819Y-32935714D01*
X142947200Y-33078571D02*
X143661485Y-33221428D01*
X143661485Y-33221428D02*
X143661485Y-32849999D01*
X143109580Y-36249999D02*
X143157200Y-36278571D01*
X143157200Y-36278571D02*
X143204819Y-36364285D01*
X143204819Y-36364285D02*
X143204819Y-36421428D01*
X143204819Y-36421428D02*
X143157200Y-36507142D01*
X143157200Y-36507142D02*
X143061961Y-36564285D01*
X143061961Y-36564285D02*
X142966723Y-36592856D01*
X142966723Y-36592856D02*
X142776247Y-36621428D01*
X142776247Y-36621428D02*
X142633390Y-36621428D01*
X142633390Y-36621428D02*
X142442914Y-36592856D01*
X142442914Y-36592856D02*
X142347676Y-36564285D01*
X142347676Y-36564285D02*
X142252438Y-36507142D01*
X142252438Y-36507142D02*
X142204819Y-36421428D01*
X142204819Y-36421428D02*
X142204819Y-36364285D01*
X142204819Y-36364285D02*
X142252438Y-36278571D01*
X142252438Y-36278571D02*
X142300057Y-36249999D01*
X143204819Y-35678571D02*
X143204819Y-36021428D01*
X143204819Y-35849999D02*
X142204819Y-35849999D01*
X142204819Y-35849999D02*
X142347676Y-35907142D01*
X142347676Y-35907142D02*
X142442914Y-35964285D01*
X142442914Y-35964285D02*
X142490533Y-36021428D01*
X137674819Y-60332856D02*
X136674819Y-60332856D01*
X136674819Y-60332856D02*
X136674819Y-60189999D01*
X136674819Y-60189999D02*
X136722438Y-60104285D01*
X136722438Y-60104285D02*
X136817676Y-60047142D01*
X136817676Y-60047142D02*
X136912914Y-60018571D01*
X136912914Y-60018571D02*
X137103390Y-59989999D01*
X137103390Y-59989999D02*
X137246247Y-59989999D01*
X137246247Y-59989999D02*
X137436723Y-60018571D01*
X137436723Y-60018571D02*
X137531961Y-60047142D01*
X137531961Y-60047142D02*
X137627200Y-60104285D01*
X137627200Y-60104285D02*
X137674819Y-60189999D01*
X137674819Y-60189999D02*
X137674819Y-60332856D01*
X136770057Y-59761428D02*
X136722438Y-59732856D01*
X136722438Y-59732856D02*
X136674819Y-59675714D01*
X136674819Y-59675714D02*
X136674819Y-59532856D01*
X136674819Y-59532856D02*
X136722438Y-59475714D01*
X136722438Y-59475714D02*
X136770057Y-59447142D01*
X136770057Y-59447142D02*
X136865295Y-59418571D01*
X136865295Y-59418571D02*
X136960533Y-59418571D01*
X136960533Y-59418571D02*
X137103390Y-59447142D01*
X137103390Y-59447142D02*
X137674819Y-59789999D01*
X137674819Y-59789999D02*
X137674819Y-59418571D01*
X150454818Y-29494642D02*
X151264341Y-29494642D01*
X151264341Y-29494642D02*
X151359579Y-29466071D01*
X151359579Y-29466071D02*
X151407199Y-29437500D01*
X151407199Y-29437500D02*
X151454818Y-29380357D01*
X151454818Y-29380357D02*
X151454818Y-29266071D01*
X151454818Y-29266071D02*
X151407199Y-29208928D01*
X151407199Y-29208928D02*
X151359579Y-29180357D01*
X151359579Y-29180357D02*
X151264341Y-29151785D01*
X151264341Y-29151785D02*
X150454818Y-29151785D01*
X150454818Y-28608929D02*
X150454818Y-28723214D01*
X150454818Y-28723214D02*
X150502437Y-28780357D01*
X150502437Y-28780357D02*
X150550056Y-28808929D01*
X150550056Y-28808929D02*
X150692913Y-28866071D01*
X150692913Y-28866071D02*
X150883389Y-28894643D01*
X150883389Y-28894643D02*
X151264341Y-28894643D01*
X151264341Y-28894643D02*
X151359579Y-28866071D01*
X151359579Y-28866071D02*
X151407199Y-28837500D01*
X151407199Y-28837500D02*
X151454818Y-28780357D01*
X151454818Y-28780357D02*
X151454818Y-28666071D01*
X151454818Y-28666071D02*
X151407199Y-28608929D01*
X151407199Y-28608929D02*
X151359579Y-28580357D01*
X151359579Y-28580357D02*
X151264341Y-28551786D01*
X151264341Y-28551786D02*
X151026246Y-28551786D01*
X151026246Y-28551786D02*
X150931008Y-28580357D01*
X150931008Y-28580357D02*
X150883389Y-28608929D01*
X150883389Y-28608929D02*
X150835770Y-28666071D01*
X150835770Y-28666071D02*
X150835770Y-28780357D01*
X150835770Y-28780357D02*
X150883389Y-28837500D01*
X150883389Y-28837500D02*
X150931008Y-28866071D01*
X150931008Y-28866071D02*
X151026246Y-28894643D01*
X130744819Y-58627142D02*
X131554342Y-58627142D01*
X131554342Y-58627142D02*
X131649580Y-58598571D01*
X131649580Y-58598571D02*
X131697200Y-58570000D01*
X131697200Y-58570000D02*
X131744819Y-58512857D01*
X131744819Y-58512857D02*
X131744819Y-58398571D01*
X131744819Y-58398571D02*
X131697200Y-58341428D01*
X131697200Y-58341428D02*
X131649580Y-58312857D01*
X131649580Y-58312857D02*
X131554342Y-58284285D01*
X131554342Y-58284285D02*
X130744819Y-58284285D01*
X130744819Y-58055714D02*
X130744819Y-57684286D01*
X130744819Y-57684286D02*
X131125771Y-57884286D01*
X131125771Y-57884286D02*
X131125771Y-57798571D01*
X131125771Y-57798571D02*
X131173390Y-57741429D01*
X131173390Y-57741429D02*
X131221009Y-57712857D01*
X131221009Y-57712857D02*
X131316247Y-57684286D01*
X131316247Y-57684286D02*
X131554342Y-57684286D01*
X131554342Y-57684286D02*
X131649580Y-57712857D01*
X131649580Y-57712857D02*
X131697200Y-57741429D01*
X131697200Y-57741429D02*
X131744819Y-57798571D01*
X131744819Y-57798571D02*
X131744819Y-57970000D01*
X131744819Y-57970000D02*
X131697200Y-58027143D01*
X131697200Y-58027143D02*
X131649580Y-58055714D01*
X150809580Y-41909397D02*
X150857200Y-41937969D01*
X150857200Y-41937969D02*
X150904819Y-42023683D01*
X150904819Y-42023683D02*
X150904819Y-42080826D01*
X150904819Y-42080826D02*
X150857200Y-42166540D01*
X150857200Y-42166540D02*
X150761961Y-42223683D01*
X150761961Y-42223683D02*
X150666723Y-42252254D01*
X150666723Y-42252254D02*
X150476247Y-42280826D01*
X150476247Y-42280826D02*
X150333390Y-42280826D01*
X150333390Y-42280826D02*
X150142914Y-42252254D01*
X150142914Y-42252254D02*
X150047676Y-42223683D01*
X150047676Y-42223683D02*
X149952438Y-42166540D01*
X149952438Y-42166540D02*
X149904819Y-42080826D01*
X149904819Y-42080826D02*
X149904819Y-42023683D01*
X149904819Y-42023683D02*
X149952438Y-41937969D01*
X149952438Y-41937969D02*
X150000057Y-41909397D01*
X149904819Y-41709397D02*
X149904819Y-41337969D01*
X149904819Y-41337969D02*
X150285771Y-41537969D01*
X150285771Y-41537969D02*
X150285771Y-41452254D01*
X150285771Y-41452254D02*
X150333390Y-41395112D01*
X150333390Y-41395112D02*
X150381009Y-41366540D01*
X150381009Y-41366540D02*
X150476247Y-41337969D01*
X150476247Y-41337969D02*
X150714342Y-41337969D01*
X150714342Y-41337969D02*
X150809580Y-41366540D01*
X150809580Y-41366540D02*
X150857200Y-41395112D01*
X150857200Y-41395112D02*
X150904819Y-41452254D01*
X150904819Y-41452254D02*
X150904819Y-41623683D01*
X150904819Y-41623683D02*
X150857200Y-41680826D01*
X150857200Y-41680826D02*
X150809580Y-41709397D01*
X144409580Y-42249999D02*
X144457200Y-42278571D01*
X144457200Y-42278571D02*
X144504819Y-42364285D01*
X144504819Y-42364285D02*
X144504819Y-42421428D01*
X144504819Y-42421428D02*
X144457200Y-42507142D01*
X144457200Y-42507142D02*
X144361961Y-42564285D01*
X144361961Y-42564285D02*
X144266723Y-42592856D01*
X144266723Y-42592856D02*
X144076247Y-42621428D01*
X144076247Y-42621428D02*
X143933390Y-42621428D01*
X143933390Y-42621428D02*
X143742914Y-42592856D01*
X143742914Y-42592856D02*
X143647676Y-42564285D01*
X143647676Y-42564285D02*
X143552438Y-42507142D01*
X143552438Y-42507142D02*
X143504819Y-42421428D01*
X143504819Y-42421428D02*
X143504819Y-42364285D01*
X143504819Y-42364285D02*
X143552438Y-42278571D01*
X143552438Y-42278571D02*
X143600057Y-42249999D01*
X143838152Y-41735714D02*
X144504819Y-41735714D01*
X143457200Y-41878571D02*
X144171485Y-42021428D01*
X144171485Y-42021428D02*
X144171485Y-41649999D01*
X143994819Y-35092856D02*
X142994819Y-35092856D01*
X142994819Y-35092856D02*
X142994819Y-34949999D01*
X142994819Y-34949999D02*
X143042438Y-34864285D01*
X143042438Y-34864285D02*
X143137676Y-34807142D01*
X143137676Y-34807142D02*
X143232914Y-34778571D01*
X143232914Y-34778571D02*
X143423390Y-34749999D01*
X143423390Y-34749999D02*
X143566247Y-34749999D01*
X143566247Y-34749999D02*
X143756723Y-34778571D01*
X143756723Y-34778571D02*
X143851961Y-34807142D01*
X143851961Y-34807142D02*
X143947200Y-34864285D01*
X143947200Y-34864285D02*
X143994819Y-34949999D01*
X143994819Y-34949999D02*
X143994819Y-35092856D01*
X143994819Y-34178571D02*
X143994819Y-34521428D01*
X143994819Y-34349999D02*
X142994819Y-34349999D01*
X142994819Y-34349999D02*
X143137676Y-34407142D01*
X143137676Y-34407142D02*
X143232914Y-34464285D01*
X143232914Y-34464285D02*
X143280533Y-34521428D01*
X148409580Y-51949999D02*
X148457200Y-51978571D01*
X148457200Y-51978571D02*
X148504819Y-52064285D01*
X148504819Y-52064285D02*
X148504819Y-52121428D01*
X148504819Y-52121428D02*
X148457200Y-52207142D01*
X148457200Y-52207142D02*
X148361961Y-52264285D01*
X148361961Y-52264285D02*
X148266723Y-52292856D01*
X148266723Y-52292856D02*
X148076247Y-52321428D01*
X148076247Y-52321428D02*
X147933390Y-52321428D01*
X147933390Y-52321428D02*
X147742914Y-52292856D01*
X147742914Y-52292856D02*
X147647676Y-52264285D01*
X147647676Y-52264285D02*
X147552438Y-52207142D01*
X147552438Y-52207142D02*
X147504819Y-52121428D01*
X147504819Y-52121428D02*
X147504819Y-52064285D01*
X147504819Y-52064285D02*
X147552438Y-51978571D01*
X147552438Y-51978571D02*
X147600057Y-51949999D01*
X147933390Y-51607142D02*
X147885771Y-51664285D01*
X147885771Y-51664285D02*
X147838152Y-51692856D01*
X147838152Y-51692856D02*
X147742914Y-51721428D01*
X147742914Y-51721428D02*
X147695295Y-51721428D01*
X147695295Y-51721428D02*
X147600057Y-51692856D01*
X147600057Y-51692856D02*
X147552438Y-51664285D01*
X147552438Y-51664285D02*
X147504819Y-51607142D01*
X147504819Y-51607142D02*
X147504819Y-51492856D01*
X147504819Y-51492856D02*
X147552438Y-51435714D01*
X147552438Y-51435714D02*
X147600057Y-51407142D01*
X147600057Y-51407142D02*
X147695295Y-51378571D01*
X147695295Y-51378571D02*
X147742914Y-51378571D01*
X147742914Y-51378571D02*
X147838152Y-51407142D01*
X147838152Y-51407142D02*
X147885771Y-51435714D01*
X147885771Y-51435714D02*
X147933390Y-51492856D01*
X147933390Y-51492856D02*
X147933390Y-51607142D01*
X147933390Y-51607142D02*
X147981009Y-51664285D01*
X147981009Y-51664285D02*
X148028628Y-51692856D01*
X148028628Y-51692856D02*
X148123866Y-51721428D01*
X148123866Y-51721428D02*
X148314342Y-51721428D01*
X148314342Y-51721428D02*
X148409580Y-51692856D01*
X148409580Y-51692856D02*
X148457200Y-51664285D01*
X148457200Y-51664285D02*
X148504819Y-51607142D01*
X148504819Y-51607142D02*
X148504819Y-51492856D01*
X148504819Y-51492856D02*
X148457200Y-51435714D01*
X148457200Y-51435714D02*
X148409580Y-51407142D01*
X148409580Y-51407142D02*
X148314342Y-51378571D01*
X148314342Y-51378571D02*
X148123866Y-51378571D01*
X148123866Y-51378571D02*
X148028628Y-51407142D01*
X148028628Y-51407142D02*
X147981009Y-51435714D01*
X147981009Y-51435714D02*
X147933390Y-51492856D01*
X135494398Y-64319580D02*
X135465826Y-64367200D01*
X135465826Y-64367200D02*
X135380112Y-64414819D01*
X135380112Y-64414819D02*
X135322969Y-64414819D01*
X135322969Y-64414819D02*
X135237255Y-64367200D01*
X135237255Y-64367200D02*
X135180112Y-64271961D01*
X135180112Y-64271961D02*
X135151541Y-64176723D01*
X135151541Y-64176723D02*
X135122969Y-63986247D01*
X135122969Y-63986247D02*
X135122969Y-63843390D01*
X135122969Y-63843390D02*
X135151541Y-63652914D01*
X135151541Y-63652914D02*
X135180112Y-63557676D01*
X135180112Y-63557676D02*
X135237255Y-63462438D01*
X135237255Y-63462438D02*
X135322969Y-63414819D01*
X135322969Y-63414819D02*
X135380112Y-63414819D01*
X135380112Y-63414819D02*
X135465826Y-63462438D01*
X135465826Y-63462438D02*
X135494398Y-63510057D01*
X136065826Y-64414819D02*
X135722969Y-64414819D01*
X135894398Y-64414819D02*
X135894398Y-63414819D01*
X135894398Y-63414819D02*
X135837255Y-63557676D01*
X135837255Y-63557676D02*
X135780112Y-63652914D01*
X135780112Y-63652914D02*
X135722969Y-63700533D01*
X136437255Y-63414819D02*
X136494398Y-63414819D01*
X136494398Y-63414819D02*
X136551541Y-63462438D01*
X136551541Y-63462438D02*
X136580113Y-63510057D01*
X136580113Y-63510057D02*
X136608684Y-63605295D01*
X136608684Y-63605295D02*
X136637255Y-63795771D01*
X136637255Y-63795771D02*
X136637255Y-64033866D01*
X136637255Y-64033866D02*
X136608684Y-64224342D01*
X136608684Y-64224342D02*
X136580113Y-64319580D01*
X136580113Y-64319580D02*
X136551541Y-64367200D01*
X136551541Y-64367200D02*
X136494398Y-64414819D01*
X136494398Y-64414819D02*
X136437255Y-64414819D01*
X136437255Y-64414819D02*
X136380113Y-64367200D01*
X136380113Y-64367200D02*
X136351541Y-64319580D01*
X136351541Y-64319580D02*
X136322970Y-64224342D01*
X136322970Y-64224342D02*
X136294398Y-64033866D01*
X136294398Y-64033866D02*
X136294398Y-63795771D01*
X136294398Y-63795771D02*
X136322970Y-63605295D01*
X136322970Y-63605295D02*
X136351541Y-63510057D01*
X136351541Y-63510057D02*
X136380113Y-63462438D01*
X136380113Y-63462438D02*
X136437255Y-63414819D01*
X146954819Y-43507142D02*
X147764342Y-43507142D01*
X147764342Y-43507142D02*
X147859580Y-43478571D01*
X147859580Y-43478571D02*
X147907200Y-43450000D01*
X147907200Y-43450000D02*
X147954819Y-43392857D01*
X147954819Y-43392857D02*
X147954819Y-43278571D01*
X147954819Y-43278571D02*
X147907200Y-43221428D01*
X147907200Y-43221428D02*
X147859580Y-43192857D01*
X147859580Y-43192857D02*
X147764342Y-43164285D01*
X147764342Y-43164285D02*
X146954819Y-43164285D01*
X147954819Y-42564286D02*
X147954819Y-42907143D01*
X147954819Y-42735714D02*
X146954819Y-42735714D01*
X146954819Y-42735714D02*
X147097676Y-42792857D01*
X147097676Y-42792857D02*
X147192914Y-42850000D01*
X147192914Y-42850000D02*
X147240533Y-42907143D01*
X145539285Y-23904819D02*
X145339285Y-23428628D01*
X145196428Y-23904819D02*
X145196428Y-22904819D01*
X145196428Y-22904819D02*
X145424999Y-22904819D01*
X145424999Y-22904819D02*
X145482142Y-22952438D01*
X145482142Y-22952438D02*
X145510713Y-23000057D01*
X145510713Y-23000057D02*
X145539285Y-23095295D01*
X145539285Y-23095295D02*
X145539285Y-23238152D01*
X145539285Y-23238152D02*
X145510713Y-23333390D01*
X145510713Y-23333390D02*
X145482142Y-23381009D01*
X145482142Y-23381009D02*
X145424999Y-23428628D01*
X145424999Y-23428628D02*
X145196428Y-23428628D01*
X146110713Y-23904819D02*
X145767856Y-23904819D01*
X145939285Y-23904819D02*
X145939285Y-22904819D01*
X145939285Y-22904819D02*
X145882142Y-23047676D01*
X145882142Y-23047676D02*
X145824999Y-23142914D01*
X145824999Y-23142914D02*
X145767856Y-23190533D01*
X146310714Y-22904819D02*
X146682142Y-22904819D01*
X146682142Y-22904819D02*
X146482142Y-23285771D01*
X146482142Y-23285771D02*
X146567857Y-23285771D01*
X146567857Y-23285771D02*
X146625000Y-23333390D01*
X146625000Y-23333390D02*
X146653571Y-23381009D01*
X146653571Y-23381009D02*
X146682142Y-23476247D01*
X146682142Y-23476247D02*
X146682142Y-23714342D01*
X146682142Y-23714342D02*
X146653571Y-23809580D01*
X146653571Y-23809580D02*
X146625000Y-23857200D01*
X146625000Y-23857200D02*
X146567857Y-23904819D01*
X146567857Y-23904819D02*
X146396428Y-23904819D01*
X146396428Y-23904819D02*
X146339285Y-23857200D01*
X146339285Y-23857200D02*
X146310714Y-23809580D01*
X134494819Y-25030000D02*
X135209104Y-25030000D01*
X135209104Y-25030000D02*
X135351961Y-25058571D01*
X135351961Y-25058571D02*
X135447200Y-25115714D01*
X135447200Y-25115714D02*
X135494819Y-25201428D01*
X135494819Y-25201428D02*
X135494819Y-25258571D01*
X135494819Y-24430000D02*
X135494819Y-24772857D01*
X135494819Y-24601428D02*
X134494819Y-24601428D01*
X134494819Y-24601428D02*
X134637676Y-24658571D01*
X134637676Y-24658571D02*
X134732914Y-24715714D01*
X134732914Y-24715714D02*
X134780533Y-24772857D01*
X148504819Y-50649999D02*
X148028628Y-50849999D01*
X148504819Y-50992856D02*
X147504819Y-50992856D01*
X147504819Y-50992856D02*
X147504819Y-50764285D01*
X147504819Y-50764285D02*
X147552438Y-50707142D01*
X147552438Y-50707142D02*
X147600057Y-50678571D01*
X147600057Y-50678571D02*
X147695295Y-50649999D01*
X147695295Y-50649999D02*
X147838152Y-50649999D01*
X147838152Y-50649999D02*
X147933390Y-50678571D01*
X147933390Y-50678571D02*
X147981009Y-50707142D01*
X147981009Y-50707142D02*
X148028628Y-50764285D01*
X148028628Y-50764285D02*
X148028628Y-50992856D01*
X147504819Y-50135714D02*
X147504819Y-50249999D01*
X147504819Y-50249999D02*
X147552438Y-50307142D01*
X147552438Y-50307142D02*
X147600057Y-50335714D01*
X147600057Y-50335714D02*
X147742914Y-50392856D01*
X147742914Y-50392856D02*
X147933390Y-50421428D01*
X147933390Y-50421428D02*
X148314342Y-50421428D01*
X148314342Y-50421428D02*
X148409580Y-50392856D01*
X148409580Y-50392856D02*
X148457200Y-50364285D01*
X148457200Y-50364285D02*
X148504819Y-50307142D01*
X148504819Y-50307142D02*
X148504819Y-50192856D01*
X148504819Y-50192856D02*
X148457200Y-50135714D01*
X148457200Y-50135714D02*
X148409580Y-50107142D01*
X148409580Y-50107142D02*
X148314342Y-50078571D01*
X148314342Y-50078571D02*
X148076247Y-50078571D01*
X148076247Y-50078571D02*
X147981009Y-50107142D01*
X147981009Y-50107142D02*
X147933390Y-50135714D01*
X147933390Y-50135714D02*
X147885771Y-50192856D01*
X147885771Y-50192856D02*
X147885771Y-50307142D01*
X147885771Y-50307142D02*
X147933390Y-50364285D01*
X147933390Y-50364285D02*
X147981009Y-50392856D01*
X147981009Y-50392856D02*
X148076247Y-50421428D01*
X147454286Y-23904819D02*
X147254286Y-23428628D01*
X147111429Y-23904819D02*
X147111429Y-22904819D01*
X147111429Y-22904819D02*
X147340000Y-22904819D01*
X147340000Y-22904819D02*
X147397143Y-22952438D01*
X147397143Y-22952438D02*
X147425714Y-23000057D01*
X147425714Y-23000057D02*
X147454286Y-23095295D01*
X147454286Y-23095295D02*
X147454286Y-23238152D01*
X147454286Y-23238152D02*
X147425714Y-23333390D01*
X147425714Y-23333390D02*
X147397143Y-23381009D01*
X147397143Y-23381009D02*
X147340000Y-23428628D01*
X147340000Y-23428628D02*
X147111429Y-23428628D01*
X148025714Y-23904819D02*
X147682857Y-23904819D01*
X147854286Y-23904819D02*
X147854286Y-22904819D01*
X147854286Y-22904819D02*
X147797143Y-23047676D01*
X147797143Y-23047676D02*
X147740000Y-23142914D01*
X147740000Y-23142914D02*
X147682857Y-23190533D01*
X148254286Y-23000057D02*
X148282858Y-22952438D01*
X148282858Y-22952438D02*
X148340001Y-22904819D01*
X148340001Y-22904819D02*
X148482858Y-22904819D01*
X148482858Y-22904819D02*
X148540001Y-22952438D01*
X148540001Y-22952438D02*
X148568572Y-23000057D01*
X148568572Y-23000057D02*
X148597143Y-23095295D01*
X148597143Y-23095295D02*
X148597143Y-23190533D01*
X148597143Y-23190533D02*
X148568572Y-23333390D01*
X148568572Y-23333390D02*
X148225715Y-23904819D01*
X148225715Y-23904819D02*
X148597143Y-23904819D01*
X144104819Y-38749999D02*
X144104819Y-39035713D01*
X144104819Y-39035713D02*
X143104819Y-39035713D01*
X144104819Y-38235714D02*
X144104819Y-38578571D01*
X144104819Y-38407142D02*
X143104819Y-38407142D01*
X143104819Y-38407142D02*
X143247676Y-38464285D01*
X143247676Y-38464285D02*
X143342914Y-38521428D01*
X143342914Y-38521428D02*
X143390533Y-38578571D01*
X138664285Y-64904819D02*
X138464285Y-64428628D01*
X138321428Y-64904819D02*
X138321428Y-63904819D01*
X138321428Y-63904819D02*
X138549999Y-63904819D01*
X138549999Y-63904819D02*
X138607142Y-63952438D01*
X138607142Y-63952438D02*
X138635713Y-64000057D01*
X138635713Y-64000057D02*
X138664285Y-64095295D01*
X138664285Y-64095295D02*
X138664285Y-64238152D01*
X138664285Y-64238152D02*
X138635713Y-64333390D01*
X138635713Y-64333390D02*
X138607142Y-64381009D01*
X138607142Y-64381009D02*
X138549999Y-64428628D01*
X138549999Y-64428628D02*
X138321428Y-64428628D01*
X139235713Y-64904819D02*
X138892856Y-64904819D01*
X139064285Y-64904819D02*
X139064285Y-63904819D01*
X139064285Y-63904819D02*
X139007142Y-64047676D01*
X139007142Y-64047676D02*
X138949999Y-64142914D01*
X138949999Y-64142914D02*
X138892856Y-64190533D01*
X139807142Y-64904819D02*
X139464285Y-64904819D01*
X139635714Y-64904819D02*
X139635714Y-63904819D01*
X139635714Y-63904819D02*
X139578571Y-64047676D01*
X139578571Y-64047676D02*
X139521428Y-64142914D01*
X139521428Y-64142914D02*
X139464285Y-64190533D01*
X145404819Y-34105827D02*
X144928628Y-34305827D01*
X145404819Y-34448684D02*
X144404819Y-34448684D01*
X144404819Y-34448684D02*
X144404819Y-34220113D01*
X144404819Y-34220113D02*
X144452438Y-34162970D01*
X144452438Y-34162970D02*
X144500057Y-34134399D01*
X144500057Y-34134399D02*
X144595295Y-34105827D01*
X144595295Y-34105827D02*
X144738152Y-34105827D01*
X144738152Y-34105827D02*
X144833390Y-34134399D01*
X144833390Y-34134399D02*
X144881009Y-34162970D01*
X144881009Y-34162970D02*
X144928628Y-34220113D01*
X144928628Y-34220113D02*
X144928628Y-34448684D01*
X145404819Y-33534399D02*
X145404819Y-33877256D01*
X145404819Y-33705827D02*
X144404819Y-33705827D01*
X144404819Y-33705827D02*
X144547676Y-33762970D01*
X144547676Y-33762970D02*
X144642914Y-33820113D01*
X144642914Y-33820113D02*
X144690533Y-33877256D01*
X144738152Y-33020113D02*
X145404819Y-33020113D01*
X144357200Y-33162970D02*
X145071485Y-33305827D01*
X145071485Y-33305827D02*
X145071485Y-32934398D01*
X137004819Y-38607142D02*
X137814342Y-38607142D01*
X137814342Y-38607142D02*
X137909580Y-38578571D01*
X137909580Y-38578571D02*
X137957200Y-38550000D01*
X137957200Y-38550000D02*
X138004819Y-38492857D01*
X138004819Y-38492857D02*
X138004819Y-38378571D01*
X138004819Y-38378571D02*
X137957200Y-38321428D01*
X137957200Y-38321428D02*
X137909580Y-38292857D01*
X137909580Y-38292857D02*
X137814342Y-38264285D01*
X137814342Y-38264285D02*
X137004819Y-38264285D01*
X137100057Y-38007143D02*
X137052438Y-37978571D01*
X137052438Y-37978571D02*
X137004819Y-37921429D01*
X137004819Y-37921429D02*
X137004819Y-37778571D01*
X137004819Y-37778571D02*
X137052438Y-37721429D01*
X137052438Y-37721429D02*
X137100057Y-37692857D01*
X137100057Y-37692857D02*
X137195295Y-37664286D01*
X137195295Y-37664286D02*
X137290533Y-37664286D01*
X137290533Y-37664286D02*
X137433390Y-37692857D01*
X137433390Y-37692857D02*
X138004819Y-38035714D01*
X138004819Y-38035714D02*
X138004819Y-37664286D01*
X133759580Y-57749999D02*
X133807200Y-57778571D01*
X133807200Y-57778571D02*
X133854819Y-57864285D01*
X133854819Y-57864285D02*
X133854819Y-57921428D01*
X133854819Y-57921428D02*
X133807200Y-58007142D01*
X133807200Y-58007142D02*
X133711961Y-58064285D01*
X133711961Y-58064285D02*
X133616723Y-58092856D01*
X133616723Y-58092856D02*
X133426247Y-58121428D01*
X133426247Y-58121428D02*
X133283390Y-58121428D01*
X133283390Y-58121428D02*
X133092914Y-58092856D01*
X133092914Y-58092856D02*
X132997676Y-58064285D01*
X132997676Y-58064285D02*
X132902438Y-58007142D01*
X132902438Y-58007142D02*
X132854819Y-57921428D01*
X132854819Y-57921428D02*
X132854819Y-57864285D01*
X132854819Y-57864285D02*
X132902438Y-57778571D01*
X132902438Y-57778571D02*
X132950057Y-57749999D01*
X132854819Y-57235714D02*
X132854819Y-57349999D01*
X132854819Y-57349999D02*
X132902438Y-57407142D01*
X132902438Y-57407142D02*
X132950057Y-57435714D01*
X132950057Y-57435714D02*
X133092914Y-57492856D01*
X133092914Y-57492856D02*
X133283390Y-57521428D01*
X133283390Y-57521428D02*
X133664342Y-57521428D01*
X133664342Y-57521428D02*
X133759580Y-57492856D01*
X133759580Y-57492856D02*
X133807200Y-57464285D01*
X133807200Y-57464285D02*
X133854819Y-57407142D01*
X133854819Y-57407142D02*
X133854819Y-57292856D01*
X133854819Y-57292856D02*
X133807200Y-57235714D01*
X133807200Y-57235714D02*
X133759580Y-57207142D01*
X133759580Y-57207142D02*
X133664342Y-57178571D01*
X133664342Y-57178571D02*
X133426247Y-57178571D01*
X133426247Y-57178571D02*
X133331009Y-57207142D01*
X133331009Y-57207142D02*
X133283390Y-57235714D01*
X133283390Y-57235714D02*
X133235771Y-57292856D01*
X133235771Y-57292856D02*
X133235771Y-57407142D01*
X133235771Y-57407142D02*
X133283390Y-57464285D01*
X133283390Y-57464285D02*
X133331009Y-57492856D01*
X133331009Y-57492856D02*
X133426247Y-57521428D01*
D13*
%TO.C,D5*%
X128810000Y-38085000D02*
X128810000Y-42085000D01*
X128810000Y-38085000D02*
X126810000Y-38085000D01*
X127510000Y-42085000D02*
X128810000Y-42085000D01*
X127510000Y-42085000D02*
X126810000Y-41385000D01*
X126810000Y-38085000D02*
X126810000Y-41385000D01*
%TO.C,TP1*%
X143850000Y-49550000D02*
X145250000Y-49550000D01*
X143850000Y-50950000D02*
X143850000Y-49550000D01*
X145250000Y-49550000D02*
X145250000Y-50950000D01*
X145250000Y-50950000D02*
X143850000Y-50950000D01*
%TO.C,M1*%
X140300000Y-57450000D02*
X150600000Y-57450000D01*
X140300000Y-63400000D02*
X140300000Y-57450000D01*
X143500000Y-63400000D02*
X140300000Y-63400000D01*
X144170000Y-58560000D02*
X144170000Y-57550000D01*
X149250000Y-57550001D02*
X149250000Y-58559999D01*
X149250000Y-58559999D02*
X144170000Y-58560000D01*
X150600000Y-57450000D02*
X150600000Y-63450000D01*
X150600000Y-63450000D02*
X144850000Y-63450000D01*
%TO.C,R1*%
X145970000Y-35998642D02*
X145970000Y-35691360D01*
X146730000Y-35998642D02*
X146730000Y-35691360D01*
%TO.C,R5*%
X134691359Y-58470000D02*
X134998641Y-58470000D01*
X134691359Y-59230000D02*
X134998641Y-59230000D01*
%TO.C,R9*%
X146406358Y-49120000D02*
X146713640Y-49120000D01*
X146406358Y-49880000D02*
X146713640Y-49880000D01*
%TO.C,C7*%
X137109419Y-57340000D02*
X137390581Y-57340000D01*
X137109419Y-58360000D02*
X137390581Y-58360000D01*
%TO.C,C12*%
X150342164Y-24190000D02*
X150557836Y-24190000D01*
X150342164Y-24910000D02*
X150557836Y-24910000D01*
%TO.C,R3*%
X144285000Y-38696359D02*
X144285000Y-39003641D01*
X145045000Y-38696359D02*
X145045000Y-39003641D01*
%TO.C,C5*%
X139488746Y-41052500D02*
X140011252Y-41052500D01*
X139488746Y-42522500D02*
X140011252Y-42522500D01*
%TO.C,U4*%
X129389999Y-39750000D02*
X129390000Y-38950000D01*
X129389999Y-39750000D02*
X129390000Y-40550000D01*
X132510001Y-39750000D02*
X132510000Y-38950000D01*
X132510001Y-39750000D02*
X132510000Y-40550000D01*
X129440000Y-41050000D02*
X129110000Y-41290000D01*
X129110000Y-40810000D01*
X129440000Y-41050000D01*
G36*
X129440000Y-41050000D02*
G01*
X129110000Y-41290000D01*
X129110000Y-40810000D01*
X129440000Y-41050000D01*
G37*
%TO.C,R4*%
X146713640Y-48070000D02*
X146406358Y-48070000D01*
X146713640Y-48830000D02*
X146406358Y-48830000D01*
D14*
%TO.C,J2*%
X130700000Y-28180000D02*
X129020000Y-28180000D01*
X130700000Y-37120000D02*
X129020000Y-37120000D01*
D13*
%TO.C,R15*%
X140696359Y-35770000D02*
X141003641Y-35770000D01*
X140696359Y-36530000D02*
X141003641Y-36530000D01*
%TO.C,C11*%
X148811253Y-33115000D02*
X148288747Y-33115000D01*
X148811253Y-34585000D02*
X148288747Y-34585000D01*
%TO.C,D3*%
X134940000Y-31090000D02*
X136760000Y-31090000D01*
X134940000Y-31140000D02*
X134940000Y-31090000D01*
X134940000Y-34210000D02*
X134940000Y-34160000D01*
X136760000Y-31090000D02*
X136760000Y-31140000D01*
X136760000Y-34160000D02*
X136760000Y-34210000D01*
X136760000Y-34210000D02*
X134940000Y-34210000D01*
X134400000Y-31140000D02*
X134160000Y-30810000D01*
X134640000Y-30810000D01*
X134400000Y-31140000D01*
G36*
X134400000Y-31140000D02*
G01*
X134160000Y-30810000D01*
X134640000Y-30810000D01*
X134400000Y-31140000D01*
G37*
%TO.C,C13*%
X149915000Y-47638748D02*
X149915000Y-48161254D01*
X151385000Y-47638748D02*
X151385000Y-48161254D01*
%TO.C,U5*%
X133127500Y-60190000D02*
X134947500Y-60190000D01*
X133127500Y-60240000D02*
X133127500Y-60190000D01*
X133127500Y-63310000D02*
X133127500Y-63260000D01*
X134947500Y-60190000D02*
X134947500Y-60240000D01*
X134947500Y-61360000D02*
X134947500Y-62140000D01*
X134947500Y-63260000D02*
X134947500Y-63310000D01*
X134947500Y-63310000D02*
X133127500Y-63310000D01*
X132587500Y-60240000D02*
X132347500Y-59910000D01*
X132827500Y-59910000D01*
X132587500Y-60240000D01*
G36*
X132587500Y-60240000D02*
G01*
X132347500Y-59910000D01*
X132827500Y-59910000D01*
X132587500Y-60240000D01*
G37*
%TO.C,C9*%
X132790000Y-40287836D02*
X132790000Y-40072164D01*
X133510000Y-40287836D02*
X133510000Y-40072164D01*
%TO.C,D6*%
X149800000Y-55360000D02*
X149800000Y-52700000D01*
X149800000Y-55360000D02*
X151500000Y-55360000D01*
X151500000Y-55360000D02*
X151500000Y-52700000D01*
%TO.C,R2*%
X144285000Y-36821359D02*
X144285000Y-37128641D01*
X145045000Y-36821359D02*
X145045000Y-37128641D01*
%TO.C,TP2*%
X143850000Y-51150000D02*
X145250000Y-51150000D01*
X143850000Y-52550000D02*
X143850000Y-51150000D01*
X145250000Y-51150000D02*
X145250000Y-52550000D01*
X145250000Y-52550000D02*
X143850000Y-52550000D01*
%TO.C,C2*%
X148188748Y-35165000D02*
X148711252Y-35165000D01*
X148188748Y-36635000D02*
X148711252Y-36635000D01*
%TO.C,R10*%
X143196359Y-64070000D02*
X143503641Y-64070000D01*
X143196359Y-64830000D02*
X143503641Y-64830000D01*
%TO.C,D4*%
X142710000Y-31030000D02*
X138950000Y-31030000D01*
X142710000Y-33050000D02*
X138950000Y-33050000D01*
X142710000Y-33050000D02*
X142710000Y-31030000D01*
%TO.C,C1*%
X143305000Y-37082836D02*
X143305000Y-36867164D01*
X144025000Y-37082836D02*
X144025000Y-36867164D01*
%TO.C,D2*%
X136590000Y-61002500D02*
X137590000Y-61002500D01*
X136590000Y-62522500D02*
X136590000Y-61002500D01*
X136640000Y-62522500D02*
X136590000Y-62522500D01*
X138540000Y-62522500D02*
X137760000Y-62522500D01*
X138710000Y-61002500D02*
X139710000Y-61002500D01*
X139710000Y-61002500D02*
X139710000Y-62522500D01*
X139710000Y-62522500D02*
X139660000Y-62522500D01*
X138100000Y-63302500D02*
X137770000Y-63062500D01*
X138100000Y-62822500D01*
X138100000Y-63302500D01*
G36*
X138100000Y-63302500D02*
G01*
X137770000Y-63062500D01*
X138100000Y-62822500D01*
X138100000Y-63302500D01*
G37*
%TO.C,U6*%
X144815000Y-27077500D02*
X144815000Y-26727500D01*
X144815000Y-31347500D02*
X144815000Y-30997500D01*
X150285000Y-26727500D02*
X150285000Y-27077500D01*
X150285000Y-30997500D02*
X150285000Y-31347500D01*
X150855000Y-26442500D02*
X150525000Y-26202500D01*
X150855000Y-25962500D01*
X150855000Y-26442500D01*
G36*
X150855000Y-26442500D02*
G01*
X150525000Y-26202500D01*
X150855000Y-25962500D01*
X150855000Y-26442500D01*
G37*
D14*
%TO.C,U3*%
X126725000Y-43650000D02*
X132105000Y-43650000D01*
X126725000Y-56850000D02*
X126725000Y-43650000D01*
X132105000Y-56850000D02*
X126725000Y-56850000D01*
D13*
%TO.C,SW2*%
X144500000Y-52850001D02*
X144500000Y-53150001D01*
X144500000Y-55650001D02*
X144500000Y-55350001D01*
X147800000Y-52850001D02*
X144500000Y-52850001D01*
X147800000Y-53150001D02*
X147800000Y-52850001D01*
X147800000Y-55350001D02*
X147800000Y-55650001D01*
X147800000Y-55650001D02*
X144500000Y-55650001D01*
%TO.C,C3*%
X149715000Y-39811253D02*
X149715000Y-39288747D01*
X151185000Y-39811253D02*
X151185000Y-39288747D01*
%TO.C,SW1*%
X144525000Y-44849999D02*
X144525000Y-45149999D01*
X144525000Y-47649999D02*
X144525000Y-47349999D01*
X147825000Y-44849999D02*
X144525000Y-44849999D01*
X147825000Y-45149999D02*
X147825000Y-44849999D01*
X147825000Y-47349999D02*
X147825000Y-47649999D01*
X147825000Y-47649999D02*
X144525000Y-47649999D01*
%TO.C,C4*%
X141715000Y-41888747D02*
X141715000Y-42411253D01*
X143185000Y-41888747D02*
X143185000Y-42411253D01*
%TO.C,D1*%
X142710000Y-33030000D02*
X138950000Y-33030000D01*
X142710000Y-35050000D02*
X138950000Y-35050000D01*
X142710000Y-35050000D02*
X142710000Y-33030000D01*
%TO.C,R7*%
X133570000Y-35086360D02*
X133570000Y-35393642D01*
X134330000Y-35086360D02*
X134330000Y-35393642D01*
%TO.C,C8*%
X146452163Y-51490000D02*
X146667835Y-51490000D01*
X146452163Y-52210000D02*
X146667835Y-52210000D01*
%TO.C,C10*%
X133842164Y-63590000D02*
X134057836Y-63590000D01*
X133842164Y-64310000D02*
X134057836Y-64310000D01*
D15*
%TO.C,U1*%
X145500000Y-38150000D02*
X145500000Y-38150000D01*
X145500000Y-38250000D02*
X145500000Y-38250000D01*
X146000000Y-37950000D02*
X146000000Y-37250000D01*
X146000000Y-42150000D02*
X146000000Y-42250000D01*
X146000000Y-42250000D02*
X149000000Y-42250000D01*
X149000000Y-37950000D02*
X149000000Y-37250000D01*
X149000000Y-42250000D02*
X149000000Y-42150000D01*
X145500000Y-38150000D02*
G75*
G02*
X145500000Y-38250000I0J-50000D01*
G01*
X145500000Y-38250000D02*
G75*
G02*
X145500000Y-38150000I0J50000D01*
G01*
D13*
%TO.C,R13*%
X146078641Y-24070000D02*
X145771359Y-24070000D01*
X146078641Y-24830000D02*
X145771359Y-24830000D01*
D10*
%TO.C,J1*%
X135854999Y-21385000D02*
X135855000Y-30535001D01*
X135855000Y-30535001D02*
X142855000Y-30535000D01*
X142855000Y-23925000D02*
X143405000Y-23925000D01*
X142855000Y-30535000D02*
X142855000Y-23925000D01*
X143405000Y-23925000D02*
X143405001Y-21385000D01*
X143405001Y-21385000D02*
X135854999Y-21385000D01*
D15*
X143405001Y-26385000D02*
X143405001Y-26385000D01*
X143505000Y-26385000D02*
X143505000Y-26385000D01*
X143405001Y-26385000D02*
G75*
G02*
X143505001Y-26385000I50000J-1D01*
G01*
X143505000Y-26385000D02*
G75*
G02*
X143405000Y-26385000I-50000J0D01*
G01*
D13*
%TO.C,R6*%
X146713640Y-50170000D02*
X146406358Y-50170000D01*
X146713640Y-50930000D02*
X146406358Y-50930000D01*
%TO.C,R8*%
X133470000Y-30013640D02*
X133470000Y-29706358D01*
X134230000Y-30013640D02*
X134230000Y-29706358D01*
%TO.C,R12*%
X148003641Y-24070000D02*
X147696359Y-24070000D01*
X148003641Y-24830000D02*
X147696359Y-24830000D01*
%TO.C,L1*%
X141890000Y-39074622D02*
X141890000Y-38275378D01*
X143010000Y-39074622D02*
X143010000Y-38275378D01*
%TO.C,R11*%
X140996359Y-64070000D02*
X141303641Y-64070000D01*
X140996359Y-64830000D02*
X141303641Y-64830000D01*
%TO.C,R14*%
X143720000Y-32053641D02*
X143720000Y-31746359D01*
X144480000Y-32053641D02*
X144480000Y-31746359D01*
%TO.C,U2*%
X138290000Y-37840000D02*
X138340000Y-37840000D01*
X138290000Y-39660000D02*
X138290000Y-37840000D01*
X138340000Y-39660000D02*
X138290000Y-39660000D01*
X140240000Y-39660000D02*
X139460000Y-39660000D01*
X141360000Y-37840000D02*
X141410000Y-37840000D01*
X141410000Y-37840000D02*
X141410000Y-39660000D01*
X141410000Y-39660000D02*
X141360000Y-39660000D01*
X141690000Y-37540000D02*
X141360000Y-37300000D01*
X141690000Y-37060000D01*
X141690000Y-37540000D01*
G36*
X141690000Y-37540000D02*
G01*
X141360000Y-37300000D01*
X141690000Y-37060000D01*
X141690000Y-37540000D01*
G37*
%TO.C,C6*%
X134737164Y-57490000D02*
X134952836Y-57490000D01*
X134737164Y-58210000D02*
X134952836Y-58210000D01*
%TD*%
M02*
