%TF.GenerationSoftware,KiCad,Pcbnew,9.0.7*%
%TF.CreationDate,2026-03-04T21:31:56-06:00*%
%TF.ProjectId,esphome-fan-controller,65737068-6f6d-4652-9d66-616e2d636f6e,-*%
%TF.SameCoordinates,Original*%
%TF.FileFunction,Copper,L2,Bot*%
%TF.FilePolarity,Positive*%
%FSLAX46Y46*%
G04 Gerber Fmt 4.6, Leading zero omitted, Abs format (unit mm)*
G04 Created by KiCad (PCBNEW 9.0.7) date 2026-03-04 21:31:56*
%MOMM*%
%LPD*%
G01*
G04 APERTURE LIST*
G04 Aperture macros list*
%AMRoundRect*
0 Rectangle with rounded corners*
0 $1 Rounding radius*
0 $2 $3 $4 $5 $6 $7 $8 $9 X,Y pos of 4 corners*
0 Add a 4 corners polygon primitive as box body*
4,1,4,$2,$3,$4,$5,$6,$7,$8,$9,$2,$3,0*
0 Add four circle primitives for the rounded corners*
1,1,$1+$1,$2,$3*
1,1,$1+$1,$4,$5*
1,1,$1+$1,$6,$7*
1,1,$1+$1,$8,$9*
0 Add four rect primitives between the rounded corners*
20,1,$1+$1,$2,$3,$4,$5,0*
20,1,$1+$1,$4,$5,$6,$7,0*
20,1,$1+$1,$6,$7,$8,$9,0*
20,1,$1+$1,$8,$9,$2,$3,0*%
G04 Aperture macros list end*
%TA.AperFunction,ComponentPad*%
%ADD10R,1.000000X1.000000*%
%TD*%
%TA.AperFunction,ComponentPad*%
%ADD11C,4.400000*%
%TD*%
%TA.AperFunction,ComponentPad*%
%ADD12R,1.730000X2.030000*%
%TD*%
%TA.AperFunction,ComponentPad*%
%ADD13O,1.730000X2.030000*%
%TD*%
%TA.AperFunction,ComponentPad*%
%ADD14O,2.000000X0.900000*%
%TD*%
%TA.AperFunction,ComponentPad*%
%ADD15O,1.700000X0.900000*%
%TD*%
%TA.AperFunction,HeatsinkPad*%
%ADD16C,0.500000*%
%TD*%
%TA.AperFunction,HeatsinkPad*%
%ADD17R,4.100000X2.900000*%
%TD*%
%TA.AperFunction,ComponentPad*%
%ADD18RoundRect,0.250000X0.650000X1.550000X-0.650000X1.550000X-0.650000X-1.550000X0.650000X-1.550000X0*%
%TD*%
%TA.AperFunction,ComponentPad*%
%ADD19O,1.800000X3.600000*%
%TD*%
%TA.AperFunction,SMDPad,CuDef*%
%ADD20RoundRect,0.250000X0.250000X0.475000X-0.250000X0.475000X-0.250000X-0.475000X0.250000X-0.475000X0*%
%TD*%
%TA.AperFunction,SMDPad,CuDef*%
%ADD21RoundRect,0.062500X0.117500X0.062500X-0.117500X0.062500X-0.117500X-0.062500X0.117500X-0.062500X0*%
%TD*%
%TA.AperFunction,SMDPad,CuDef*%
%ADD22RoundRect,0.112500X0.187500X0.112500X-0.187500X0.112500X-0.187500X-0.112500X0.187500X-0.112500X0*%
%TD*%
%TA.AperFunction,SMDPad,CuDef*%
%ADD23RoundRect,0.250000X-0.450000X0.262500X-0.450000X-0.262500X0.450000X-0.262500X0.450000X0.262500X0*%
%TD*%
%TA.AperFunction,SMDPad,CuDef*%
%ADD24RoundRect,0.062500X-0.117500X-0.062500X0.117500X-0.062500X0.117500X0.062500X-0.117500X0.062500X0*%
%TD*%
%TA.AperFunction,SMDPad,CuDef*%
%ADD25RoundRect,0.250000X0.400000X0.450000X-0.400000X0.450000X-0.400000X-0.450000X0.400000X-0.450000X0*%
%TD*%
%TA.AperFunction,ViaPad*%
%ADD26C,0.500000*%
%TD*%
%TA.AperFunction,ViaPad*%
%ADD27C,0.700000*%
%TD*%
%TA.AperFunction,Conductor*%
%ADD28C,1.730000*%
%TD*%
%TA.AperFunction,Conductor*%
%ADD29C,0.300000*%
%TD*%
%TA.AperFunction,Conductor*%
%ADD30C,0.500000*%
%TD*%
%TA.AperFunction,Conductor*%
%ADD31C,0.200000*%
%TD*%
%TA.AperFunction,Conductor*%
%ADD32C,0.100000*%
%TD*%
%TA.AperFunction,Conductor*%
%ADD33C,0.150000*%
%TD*%
%TA.AperFunction,Conductor*%
%ADD34C,0.400000*%
%TD*%
%TA.AperFunction,Conductor*%
%ADD35C,0.152400*%
%TD*%
%TA.AperFunction,Conductor*%
%ADD36C,2.000000*%
%TD*%
%TA.AperFunction,Conductor*%
%ADD37C,1.000000*%
%TD*%
%TA.AperFunction,Conductor*%
%ADD38C,0.750000*%
%TD*%
G04 APERTURE END LIST*
D10*
%TO.P,TP1,1,1*%
%TO.N,Net-(U3-IO4)*%
X144550000Y-50250000D03*
%TD*%
D11*
%TO.P,MH2,1,1*%
%TO.N,GND*%
X129250000Y-62650000D03*
%TD*%
D12*
%TO.P,M1,1,-*%
%TO.N,GND*%
X149250000Y-60850000D03*
D13*
%TO.P,M1,2,+*%
%TO.N,VINT*%
X146710000Y-60850000D03*
%TO.P,M1,3,Tacho*%
%TO.N,Net-(M1-Tacho)*%
X144170001Y-60850000D03*
%TO.P,M1,4,PWM*%
%TO.N,Net-(M1-PWM)*%
X141630000Y-60850000D03*
%TD*%
D11*
%TO.P,MH1,1,1*%
%TO.N,GND*%
X129250000Y-25150000D03*
%TD*%
D14*
%TO.P,J2,S1,SHIELD*%
%TO.N,GND*%
X132020000Y-28325000D03*
D15*
X127850000Y-28325000D03*
D14*
X132020000Y-36975000D03*
D15*
X127850000Y-36975000D03*
%TD*%
D10*
%TO.P,TP2,1,1*%
%TO.N,Net-(U3-IO10)*%
X144550000Y-51850000D03*
%TD*%
D16*
%TO.P,U6,17,RTN_1*%
%TO.N,RTN*%
X149350000Y-27837500D03*
X148150000Y-27837500D03*
X146950000Y-27837500D03*
X145750000Y-27837500D03*
X149350000Y-29037500D03*
X148150000Y-29037500D03*
D17*
X147550000Y-29037500D03*
D16*
X146950000Y-29037500D03*
X145750000Y-29037500D03*
X149350000Y-30237500D03*
X148150000Y-30237500D03*
X146950000Y-30237500D03*
X145750000Y-30237500D03*
%TD*%
D18*
%TO.P,J1,1,Pin_1*%
%TO.N,VIN*%
X141237500Y-26150000D03*
D19*
%TO.P,J1,2,Pin_2*%
%TO.N,GND*%
X137427500Y-26150000D03*
%TD*%
D20*
%TO.P,C12,1*%
%TO.N,VIN*%
X149499999Y-26200000D03*
%TO.P,C12,2*%
%TO.N,GND*%
X147600001Y-26200000D03*
%TD*%
D21*
%TO.P,D7,1,A1*%
%TO.N,GND*%
X140790000Y-55800000D03*
%TO.P,D7,2,A2*%
%TO.N,Net-(D7-A2)*%
X141630000Y-55800000D03*
%TD*%
D20*
%TO.P,C11,1*%
%TO.N,VINT*%
X149499999Y-31900000D03*
%TO.P,C11,2*%
%TO.N,GND*%
X147600001Y-31900000D03*
%TD*%
%TO.P,C13,1*%
%TO.N,GND*%
X148949999Y-63200000D03*
%TO.P,C13,2*%
%TO.N,VINT*%
X147050001Y-63200000D03*
%TD*%
D22*
%TO.P,D6,1,A1*%
%TO.N,GND*%
X149050000Y-58500000D03*
%TO.P,D6,2,A2*%
%TO.N,VINT*%
X146950000Y-58500000D03*
%TD*%
D23*
%TO.P,R10,1*%
%TO.N,FAN_TACH*%
X144170001Y-57087500D03*
%TO.P,R10,2*%
%TO.N,Net-(M1-Tacho)*%
X144170001Y-58912500D03*
%TD*%
D24*
%TO.P,D4,1,A1*%
%TO.N,GND*%
X145010001Y-55800000D03*
%TO.P,D4,2,A2*%
%TO.N,FAN_TACH*%
X144170001Y-55800000D03*
%TD*%
D25*
%TO.P,D1,1,K*%
%TO.N,VINT*%
X142150000Y-33300000D03*
%TO.P,D1,2,A*%
%TO.N,/VBUS*%
X139250000Y-33300000D03*
%TD*%
D23*
%TO.P,R11,1*%
%TO.N,Net-(D7-A2)*%
X141630000Y-57087500D03*
%TO.P,R11,2*%
%TO.N,Net-(M1-PWM)*%
X141630000Y-58912500D03*
%TD*%
D26*
%TO.N,GND*%
X136550000Y-37600000D03*
X144900000Y-33600000D03*
X133150000Y-41450000D03*
X129900000Y-30250000D03*
X140300000Y-46900000D03*
X137450000Y-28650000D03*
X133950000Y-23850000D03*
X141850000Y-43200000D03*
X141350000Y-31450000D03*
X145550000Y-55000000D03*
X139050000Y-26100000D03*
X138400000Y-40350000D03*
X135650000Y-63950000D03*
X134100000Y-48700000D03*
X144700000Y-31900000D03*
X132300000Y-23600000D03*
X134250000Y-51300000D03*
X142650000Y-36550000D03*
X127350000Y-39100000D03*
X127350000Y-41000000D03*
X134200000Y-57000000D03*
X140550000Y-33050000D03*
X144250000Y-42650000D03*
X145550000Y-51200000D03*
X128900000Y-33700000D03*
X143650000Y-44850000D03*
X128150000Y-30150000D03*
X138550000Y-57000000D03*
X142850000Y-57900000D03*
X142650000Y-37650000D03*
X146550000Y-51200000D03*
X129450000Y-42050000D03*
X140300000Y-38950000D03*
X144200000Y-48700000D03*
X133850000Y-61950000D03*
X127800000Y-35000000D03*
X135300000Y-23750000D03*
X141300000Y-49050000D03*
X141300000Y-30050000D03*
X141500000Y-50250000D03*
X139300000Y-30100000D03*
X134250000Y-55100000D03*
X134400000Y-37550000D03*
X132600000Y-42800000D03*
X138300000Y-37600000D03*
X140400000Y-43100000D03*
X136850000Y-42300000D03*
X135300000Y-26050000D03*
X131100000Y-58550000D03*
X143800000Y-38250000D03*
X144250000Y-41150000D03*
X137500000Y-23500000D03*
X135150000Y-41350000D03*
X128050000Y-32300000D03*
X138050000Y-36600000D03*
X134400000Y-47100000D03*
X141800000Y-34500000D03*
X138500000Y-59900000D03*
X135600000Y-54350000D03*
X143500000Y-56050000D03*
X139800000Y-64350000D03*
X146700000Y-53300000D03*
X135400000Y-28450000D03*
X147500000Y-39400000D03*
X147400000Y-33300000D03*
X133000000Y-25200000D03*
X139550000Y-63000000D03*
X143500000Y-52750000D03*
X132400000Y-57750000D03*
X129850000Y-32300000D03*
X141050000Y-51500000D03*
X146750000Y-47200000D03*
X134650000Y-38750000D03*
X141700000Y-46000000D03*
X132750000Y-64000000D03*
X140300000Y-40450000D03*
X140500000Y-34450000D03*
X136600000Y-46750000D03*
X136600000Y-45450000D03*
X137700000Y-53950000D03*
X138500000Y-61650000D03*
X143250000Y-31600000D03*
X132600000Y-60350000D03*
X146200000Y-33600000D03*
X134500000Y-45800000D03*
X136150000Y-36450000D03*
X145450000Y-45350000D03*
X147500000Y-38600000D03*
X138800000Y-63750000D03*
X139900000Y-58050000D03*
X134100000Y-53900000D03*
X129850000Y-34700000D03*
X141100000Y-54550000D03*
X143550000Y-49450000D03*
X135100000Y-42950000D03*
%TO.N,+5V*%
X129100000Y-39700000D03*
D27*
X136900000Y-60650000D03*
D26*
X139450000Y-37600000D03*
%TO.N,+3.3V*%
X145350000Y-36950000D03*
X145350000Y-43150000D03*
D27*
X146600000Y-43900000D03*
X142800000Y-42400000D03*
D26*
%TO.N,LED*%
X130950000Y-42050000D03*
X136950000Y-43500000D03*
%TO.N,FAN_TACH*%
X143500000Y-53550000D03*
%TO.N,FAN_PWM*%
X136700000Y-61600000D03*
X141450000Y-52650000D03*
%TO.N,/D-*%
X136619341Y-38593141D03*
X137069341Y-35430659D03*
X138073800Y-45850000D03*
X136769341Y-40980659D03*
%TO.N,/D+*%
X137080659Y-39054459D03*
X138726200Y-45850000D03*
X137530659Y-34969341D03*
X137230659Y-40519341D03*
%TO.N,Net-(U3-IO2)*%
X134350000Y-59800000D03*
X136950000Y-55350000D03*
%TO.N,Net-(D7-A2)*%
X137950000Y-63350000D03*
D27*
%TO.N,/VBUS*%
X131300000Y-34350000D03*
X131300000Y-31000000D03*
X138200000Y-32650000D03*
D26*
%TO.N,FAULT*%
X148500000Y-33100000D03*
X141700000Y-47850000D03*
%TO.N,VIN*%
X150700000Y-25200000D03*
X150400000Y-25850000D03*
X150400000Y-24450000D03*
X150050000Y-25000000D03*
X150550000Y-26700000D03*
%TO.N,VINT*%
X149200000Y-32950000D03*
X145200000Y-35600000D03*
X144100000Y-35600000D03*
X149800000Y-33900000D03*
X149200000Y-33650000D03*
X144650000Y-35200000D03*
X145750000Y-35200000D03*
X149800000Y-33200000D03*
X149400000Y-24750000D03*
%TD*%
D28*
%TO.N,GND*%
X149250000Y-60850000D02*
X149250000Y-58450000D01*
D29*
%TO.N,+5V*%
X136900000Y-56450000D02*
X139450000Y-53900000D01*
X136900000Y-60650000D02*
X136900000Y-56450000D01*
X129100000Y-39700000D02*
X137350000Y-39700000D01*
X137350000Y-39700000D02*
X139450000Y-37600000D01*
X139450000Y-53900000D02*
X139450000Y-37600000D01*
D30*
%TO.N,+3.3V*%
X143850000Y-43900000D02*
X142800000Y-42850000D01*
D31*
X145350000Y-43150000D02*
X145350000Y-36950000D01*
D30*
X146600000Y-43900000D02*
X143850000Y-43900000D01*
X142800000Y-42850000D02*
X142800000Y-42400000D01*
D32*
%TO.N,LED*%
X136950000Y-43500000D02*
X135500000Y-42050000D01*
X135500000Y-42050000D02*
X130950000Y-42050000D01*
D33*
%TO.N,FAN_TACH*%
X143500000Y-53550000D02*
X143500000Y-55129999D01*
D34*
X144170001Y-57087500D02*
X144170001Y-55800000D01*
D33*
X143500000Y-55129999D02*
X144170001Y-55800000D01*
D34*
%TO.N,Net-(M1-PWM)*%
X141630000Y-60850000D02*
X141630000Y-58912500D01*
D33*
%TO.N,FAN_PWM*%
X137600000Y-60764588D02*
X136764588Y-61600000D01*
X141450000Y-52650000D02*
X137600000Y-56500000D01*
X136764588Y-61600000D02*
X136700000Y-61600000D01*
X137600000Y-56500000D02*
X137600000Y-60764588D01*
D35*
%TO.N,/D-*%
X138247599Y-45676201D02*
X138073800Y-45850000D01*
X138247599Y-42213126D02*
X138247599Y-45676201D01*
X137225859Y-35587177D02*
X137225859Y-38232414D01*
X137069341Y-35430659D02*
X137225859Y-35587177D01*
X137015132Y-40980659D02*
X138247599Y-42213126D01*
X137225859Y-38232414D02*
X136865132Y-38593141D01*
X136769341Y-40980659D02*
X137015132Y-40980659D01*
X136865132Y-38593141D02*
X136619341Y-38593141D01*
%TO.N,/D+*%
X137530659Y-35644204D02*
X137530659Y-38358668D01*
X137530659Y-35217114D02*
X137546541Y-35232996D01*
X137080659Y-38808668D02*
X137080659Y-39054459D01*
X137546541Y-35232996D02*
X137546541Y-35628322D01*
X138552401Y-45676201D02*
X138726200Y-45850000D01*
X137230659Y-40519341D02*
X137230659Y-40765132D01*
X137230659Y-40765132D02*
X138552401Y-42086874D01*
X137546541Y-35628322D02*
X137530659Y-35644204D01*
X137530659Y-34969341D02*
X137530659Y-35217114D01*
X138552401Y-42086874D02*
X138552401Y-45676201D01*
X137530659Y-38358668D02*
X137080659Y-38808668D01*
D33*
%TO.N,Net-(U3-IO2)*%
X134350000Y-59800000D02*
X134350000Y-57950000D01*
X134350000Y-57950000D02*
X136950000Y-55350000D01*
%TO.N,Net-(D7-A2)*%
X137950000Y-63350000D02*
X137950000Y-59100000D01*
D34*
X141630000Y-57087500D02*
X141630000Y-55800000D01*
D33*
X139962500Y-57087500D02*
X141630000Y-57087500D01*
X137950000Y-59100000D02*
X139962500Y-57087500D01*
D34*
%TO.N,Net-(M1-Tacho)*%
X144170001Y-60850000D02*
X144170001Y-58912500D01*
D33*
%TO.N,FAULT*%
X144000720Y-34124000D02*
X143026000Y-33149280D01*
X148500000Y-33100000D02*
X147476000Y-34124000D01*
X141200000Y-32719906D02*
X141200000Y-47350000D01*
X143026000Y-32645906D02*
X142754094Y-32374000D01*
X141200000Y-47350000D02*
X141700000Y-47850000D01*
X141545906Y-32374000D02*
X141200000Y-32719906D01*
X142754094Y-32374000D02*
X141545906Y-32374000D01*
X143026000Y-33149280D02*
X143026000Y-32645906D01*
X147476000Y-34124000D02*
X144000720Y-34124000D01*
D31*
%TO.N,VINT*%
X145026000Y-30924000D02*
X148523999Y-30924000D01*
X148448999Y-25701001D02*
X148448999Y-26791450D01*
D36*
X148500000Y-54250000D02*
X148500000Y-45499000D01*
X146710000Y-60850000D02*
X146710000Y-56040000D01*
X150549000Y-35350000D02*
X144200000Y-35350000D01*
D37*
X142150000Y-33300000D02*
X144200000Y-35350000D01*
D31*
X148448999Y-26791450D02*
X148064449Y-27176000D01*
X144900000Y-27300000D02*
X144900000Y-30798000D01*
D36*
X150549000Y-43450000D02*
X150549000Y-35350000D01*
D38*
X146710000Y-62540000D02*
X146710000Y-60850000D01*
D36*
X148500000Y-45499000D02*
X150549000Y-43450000D01*
X146710000Y-56040000D02*
X148500000Y-54250000D01*
D31*
X149400000Y-24750000D02*
X148448999Y-25701001D01*
D38*
X147050001Y-62900001D02*
X146700000Y-62550000D01*
D31*
X148064449Y-27176000D02*
X145024000Y-27176000D01*
X148523999Y-30924000D02*
X149499999Y-31900000D01*
X144900000Y-30798000D02*
X145026000Y-30924000D01*
D38*
X147050001Y-63200000D02*
X147050001Y-62900001D01*
X146700000Y-62550000D02*
X146710000Y-62540000D01*
D31*
X145024000Y-27176000D02*
X144900000Y-27300000D01*
%TD*%
%TA.AperFunction,Conductor*%
%TO.N,GND*%
G36*
X148350000Y-25445737D02*
G01*
X148300210Y-25495528D01*
X148236636Y-25559102D01*
X148198499Y-25651171D01*
X148198499Y-26667393D01*
X148184147Y-26702041D01*
X147975040Y-26911148D01*
X147940392Y-26925500D01*
X146700000Y-26925500D01*
X146700000Y-25350000D01*
X148350000Y-25350000D01*
X148350000Y-25445737D01*
G37*
%TD.AperFunction*%
%TD*%
%TA.AperFunction,Conductor*%
%TO.N,RTN*%
G36*
X150496653Y-27100419D02*
G01*
X150497269Y-27100500D01*
X150497273Y-27100500D01*
X150602731Y-27100500D01*
X150603347Y-27100419D01*
X150609739Y-27100000D01*
X151500500Y-27100000D01*
X151535148Y-27114352D01*
X151549500Y-27149000D01*
X151549500Y-30945500D01*
X151535148Y-30980148D01*
X151500500Y-30994500D01*
X149048996Y-30994500D01*
X149026085Y-30999058D01*
X149016525Y-31000000D01*
X148974556Y-31000000D01*
X148939908Y-30985648D01*
X148665898Y-30711637D01*
X148573828Y-30673500D01*
X148573827Y-30673500D01*
X145199500Y-30673500D01*
X145164852Y-30659148D01*
X145150500Y-30624500D01*
X145150500Y-27475500D01*
X145164852Y-27440852D01*
X145199500Y-27426500D01*
X148114275Y-27426500D01*
X148114277Y-27426500D01*
X148206346Y-27388364D01*
X148480357Y-27114352D01*
X148515005Y-27100000D01*
X150490261Y-27100000D01*
X150496653Y-27100419D01*
G37*
%TD.AperFunction*%
%TD*%
%TA.AperFunction,Conductor*%
%TO.N,GND*%
G36*
X148434590Y-31188852D02*
G01*
X148450000Y-31204262D01*
X148450000Y-32699500D01*
X148447270Y-32699500D01*
X148345414Y-32726792D01*
X148345410Y-32726793D01*
X148305215Y-32750000D01*
X146800000Y-32750000D01*
X146800000Y-31174500D01*
X148399942Y-31174500D01*
X148434590Y-31188852D01*
G37*
%TD.AperFunction*%
%TD*%
%TA.AperFunction,Conductor*%
%TO.N,/VBUS*%
G36*
X134221788Y-29108525D02*
G01*
X139871187Y-31319160D01*
X139926442Y-31361919D01*
X139949810Y-31427766D01*
X139950000Y-31434633D01*
X139950000Y-33867949D01*
X139930315Y-33934988D01*
X139877511Y-33980743D01*
X139874480Y-33982079D01*
X138006905Y-34775384D01*
X137937506Y-34783477D01*
X137874748Y-34752764D01*
X137856252Y-34729745D01*
X137856085Y-34729874D01*
X137851139Y-34723428D01*
X137776573Y-34648862D01*
X137776572Y-34648861D01*
X137685246Y-34596134D01*
X137583386Y-34568841D01*
X137477932Y-34568841D01*
X137376072Y-34596134D01*
X137376069Y-34596135D01*
X137284744Y-34648862D01*
X137210180Y-34723426D01*
X137157453Y-34814751D01*
X137157452Y-34814754D01*
X137130158Y-34916617D01*
X137129367Y-34922625D01*
X137101095Y-34986519D01*
X137042767Y-35024985D01*
X137022625Y-35029367D01*
X137016617Y-35030158D01*
X136914754Y-35057452D01*
X136914751Y-35057453D01*
X136823426Y-35110180D01*
X136748862Y-35184744D01*
X136696135Y-35276069D01*
X136696132Y-35276076D01*
X136694817Y-35280985D01*
X136658449Y-35340644D01*
X136623524Y-35363015D01*
X134323236Y-36340130D01*
X134274756Y-36350000D01*
X133550649Y-36350000D01*
X133483610Y-36330315D01*
X133444640Y-36285342D01*
X133442830Y-36286388D01*
X133434666Y-36272248D01*
X133377751Y-36215333D01*
X133318660Y-36199500D01*
X133300000Y-36194500D01*
X131860148Y-36194500D01*
X131793109Y-36174815D01*
X131747354Y-36122011D01*
X131737410Y-36052853D01*
X131766435Y-35989297D01*
X131798147Y-35963113D01*
X131837314Y-35940500D01*
X131930500Y-35847314D01*
X131996392Y-35733186D01*
X132030500Y-35605892D01*
X132030500Y-35474108D01*
X131996392Y-35346814D01*
X131930500Y-35232686D01*
X131837314Y-35139500D01*
X131780250Y-35106554D01*
X131723187Y-35073608D01*
X131659539Y-35056554D01*
X131595892Y-35039500D01*
X131464108Y-35039500D01*
X131336812Y-35073608D01*
X131222686Y-35139500D01*
X131222683Y-35139502D01*
X131161681Y-35200505D01*
X131100358Y-35233990D01*
X131030666Y-35229006D01*
X130974733Y-35187134D01*
X130950316Y-35121670D01*
X130950000Y-35112824D01*
X130950000Y-30187176D01*
X130969685Y-30120137D01*
X131022489Y-30074382D01*
X131091647Y-30064438D01*
X131155203Y-30093463D01*
X131161681Y-30099495D01*
X131222686Y-30160500D01*
X131336814Y-30226392D01*
X131464108Y-30260500D01*
X131464110Y-30260500D01*
X131595890Y-30260500D01*
X131595892Y-30260500D01*
X131723186Y-30226392D01*
X131837314Y-30160500D01*
X131930500Y-30067314D01*
X131996392Y-29953186D01*
X132030500Y-29825892D01*
X132030500Y-29694108D01*
X131996392Y-29566814D01*
X131930500Y-29452686D01*
X131837314Y-29359500D01*
X131798146Y-29336886D01*
X131749932Y-29286319D01*
X131736710Y-29217712D01*
X131762678Y-29152847D01*
X131819593Y-29112320D01*
X131860148Y-29105500D01*
X133299997Y-29105500D01*
X133300000Y-29105500D01*
X133304764Y-29104223D01*
X133336851Y-29100000D01*
X134176603Y-29100000D01*
X134221788Y-29108525D01*
G37*
%TD.AperFunction*%
%TD*%
%TA.AperFunction,Conductor*%
%TO.N,VINT*%
G36*
X151535148Y-31164352D02*
G01*
X151549500Y-31199000D01*
X151549500Y-36301000D01*
X151535148Y-36335648D01*
X151500500Y-36350000D01*
X147549000Y-36350000D01*
X147514352Y-36335648D01*
X147500000Y-36301000D01*
X147500000Y-34390880D01*
X147503729Y-34381876D01*
X147503729Y-34372130D01*
X147510622Y-34365236D01*
X147514352Y-34356232D01*
X147530247Y-34345611D01*
X147530247Y-34345610D01*
X147579460Y-34325225D01*
X147596164Y-34318306D01*
X147603732Y-34315172D01*
X147603733Y-34315171D01*
X147603736Y-34315170D01*
X147667170Y-34251736D01*
X147667170Y-34251735D01*
X147674059Y-34244846D01*
X147674061Y-34244843D01*
X148404676Y-33514227D01*
X148439323Y-33499876D01*
X148445721Y-33500296D01*
X148447270Y-33500500D01*
X148447273Y-33500500D01*
X148552730Y-33500500D01*
X148552730Y-33500499D01*
X148654587Y-33473207D01*
X148745913Y-33420480D01*
X148820480Y-33345913D01*
X148873207Y-33254587D01*
X148900499Y-33152730D01*
X148900500Y-33152730D01*
X148900500Y-33047270D01*
X148900499Y-33047269D01*
X148873207Y-32945414D01*
X148873207Y-32945413D01*
X148869887Y-32939664D01*
X148864992Y-32902483D01*
X148876574Y-32881654D01*
X149000000Y-32750000D01*
X149000000Y-31199000D01*
X149014352Y-31164352D01*
X149049000Y-31150000D01*
X151500500Y-31150000D01*
X151535148Y-31164352D01*
G37*
%TD.AperFunction*%
%TD*%
%TA.AperFunction,Conductor*%
%TO.N,GND*%
G36*
X133300000Y-37600000D02*
G01*
X126951351Y-37600000D01*
X126951268Y-36350000D01*
X133300000Y-36350000D01*
X133300000Y-37600000D01*
G37*
%TD.AperFunction*%
%TD*%
%TA.AperFunction,Conductor*%
%TO.N,GND*%
G36*
X139580148Y-22864852D02*
G01*
X139594500Y-22899500D01*
X139594500Y-28001005D01*
X139606334Y-28060499D01*
X139606336Y-28060506D01*
X139620689Y-28095157D01*
X139640983Y-28130307D01*
X139640984Y-28130308D01*
X139640985Y-28130309D01*
X139704844Y-28179311D01*
X139739492Y-28193663D01*
X139739495Y-28193663D01*
X139739500Y-28193665D01*
X139798994Y-28205499D01*
X139799000Y-28205500D01*
X142220757Y-28205500D01*
X142220764Y-28205500D01*
X142243269Y-28203863D01*
X142257305Y-28201810D01*
X142258416Y-28201639D01*
X142259510Y-28201471D01*
X142259511Y-28201470D01*
X142259515Y-28201470D01*
X142332966Y-28168545D01*
X142362051Y-28144870D01*
X142400728Y-28098124D01*
X143409080Y-26229707D01*
X143712906Y-25666736D01*
X144028894Y-25081228D01*
X144057979Y-25057553D01*
X144072015Y-25055500D01*
X148621943Y-25055500D01*
X148656591Y-25069852D01*
X148670943Y-25104500D01*
X148656591Y-25139148D01*
X148350000Y-25445738D01*
X148350000Y-25350000D01*
X146700000Y-25350000D01*
X146700000Y-26925500D01*
X144974170Y-26925500D01*
X144882101Y-26963637D01*
X144882100Y-26963637D01*
X144758103Y-27087636D01*
X144687637Y-27158100D01*
X144687637Y-27158101D01*
X144649500Y-27250170D01*
X144649500Y-27250172D01*
X144649500Y-30748172D01*
X144649500Y-30847828D01*
X144687636Y-30939897D01*
X144810846Y-31063106D01*
X144810853Y-31063114D01*
X144884100Y-31136362D01*
X144884101Y-31136362D01*
X144884103Y-31136364D01*
X144976172Y-31174500D01*
X145075828Y-31174500D01*
X146800000Y-31174500D01*
X146800000Y-32750000D01*
X148305215Y-32750000D01*
X148254086Y-32779520D01*
X148254086Y-32779521D01*
X148179521Y-32854086D01*
X148179520Y-32854086D01*
X148126793Y-32945410D01*
X148126792Y-32945414D01*
X148099500Y-33047269D01*
X148099500Y-33152732D01*
X148099704Y-33154283D01*
X148099500Y-33155044D01*
X148099500Y-33155938D01*
X148099260Y-33155938D01*
X148089994Y-33190507D01*
X148085771Y-33195322D01*
X147396947Y-33884148D01*
X147362299Y-33898500D01*
X144114421Y-33898500D01*
X144079773Y-33884148D01*
X143265852Y-33070227D01*
X143251500Y-33035579D01*
X143251500Y-32601053D01*
X143251500Y-32601051D01*
X143217170Y-32518170D01*
X143217169Y-32518169D01*
X143217168Y-32518167D01*
X143150946Y-32451946D01*
X143150939Y-32451940D01*
X142952156Y-32253157D01*
X142952156Y-32253156D01*
X142881831Y-32182830D01*
X142857554Y-32172774D01*
X142798950Y-32148499D01*
X142798949Y-32148499D01*
X142709239Y-32148499D01*
X142703538Y-32148499D01*
X142703530Y-32148500D01*
X141596470Y-32148500D01*
X141596462Y-32148499D01*
X141590761Y-32148499D01*
X141501051Y-32148499D01*
X141501049Y-32148499D01*
X141501046Y-32148500D01*
X141442445Y-32172773D01*
X141442445Y-32172774D01*
X141430307Y-32177802D01*
X141418169Y-32182830D01*
X141072264Y-32528736D01*
X141008831Y-32592167D01*
X141008831Y-32592168D01*
X141008830Y-32592169D01*
X141008830Y-32592170D01*
X141005151Y-32601053D01*
X141000758Y-32611658D01*
X140974499Y-32675049D01*
X140974499Y-32770461D01*
X140974500Y-32770470D01*
X140974500Y-47301188D01*
X140974499Y-47301202D01*
X140974499Y-47394856D01*
X140997134Y-47449500D01*
X141008830Y-47477737D01*
X141008831Y-47477738D01*
X141079155Y-47548061D01*
X141079157Y-47548062D01*
X141285771Y-47754676D01*
X141300123Y-47789324D01*
X141299705Y-47795712D01*
X141299500Y-47797271D01*
X141299500Y-47902730D01*
X141326792Y-48004585D01*
X141326793Y-48004589D01*
X141379520Y-48095913D01*
X141454087Y-48170480D01*
X141487513Y-48189778D01*
X141545410Y-48223206D01*
X141545412Y-48223206D01*
X141545413Y-48223207D01*
X141625747Y-48244732D01*
X141647269Y-48250499D01*
X141647270Y-48250500D01*
X141647273Y-48250500D01*
X141752730Y-48250500D01*
X141752730Y-48250499D01*
X141854587Y-48223207D01*
X141945913Y-48170480D01*
X142020480Y-48095913D01*
X142073207Y-48004587D01*
X142100499Y-47902730D01*
X142100500Y-47902730D01*
X142100500Y-47797270D01*
X142100499Y-47797269D01*
X142073207Y-47695414D01*
X142073206Y-47695410D01*
X142020479Y-47604086D01*
X141945913Y-47529520D01*
X141854589Y-47476793D01*
X141854585Y-47476792D01*
X141752730Y-47449500D01*
X141752727Y-47449500D01*
X141647273Y-47449500D01*
X141647271Y-47449500D01*
X141645712Y-47449705D01*
X141644947Y-47449500D01*
X141644062Y-47449500D01*
X141644062Y-47449262D01*
X141609488Y-47439993D01*
X141604676Y-47435771D01*
X141439852Y-47270947D01*
X141425500Y-47236299D01*
X141425500Y-46170938D01*
X145574500Y-46170938D01*
X145574500Y-46329059D01*
X145615422Y-46481781D01*
X145615423Y-46481785D01*
X145694475Y-46618708D01*
X145694478Y-46618712D01*
X145694480Y-46618715D01*
X145806284Y-46730519D01*
X145806287Y-46730520D01*
X145806290Y-46730523D01*
X145943213Y-46809575D01*
X145943215Y-46809575D01*
X145943216Y-46809576D01*
X146063665Y-46841850D01*
X146095939Y-46850498D01*
X146095940Y-46850499D01*
X146095943Y-46850499D01*
X146254060Y-46850499D01*
X146254060Y-46850498D01*
X146406784Y-46809576D01*
X146543716Y-46730519D01*
X146655520Y-46618715D01*
X146734577Y-46481783D01*
X146775499Y-46329059D01*
X146775500Y-46329059D01*
X146775500Y-46170939D01*
X146775499Y-46170938D01*
X146734577Y-46018216D01*
X146734576Y-46018212D01*
X146655524Y-45881289D01*
X146655521Y-45881286D01*
X146655520Y-45881283D01*
X146543716Y-45769479D01*
X146543713Y-45769477D01*
X146543709Y-45769474D01*
X146406786Y-45690422D01*
X146406782Y-45690421D01*
X146254060Y-45649499D01*
X146254057Y-45649499D01*
X146095943Y-45649499D01*
X146095940Y-45649499D01*
X145943217Y-45690421D01*
X145943213Y-45690422D01*
X145806290Y-45769474D01*
X145806281Y-45769481D01*
X145694482Y-45881280D01*
X145694475Y-45881289D01*
X145615423Y-46018212D01*
X145615422Y-46018216D01*
X145574500Y-46170938D01*
X141425500Y-46170938D01*
X141425500Y-34110188D01*
X141439852Y-34075540D01*
X141474500Y-34061188D01*
X141509148Y-34075540D01*
X141511657Y-34078049D01*
X141511664Y-34078054D01*
X141624691Y-34135644D01*
X141624692Y-34135644D01*
X141624696Y-34135646D01*
X141718481Y-34150500D01*
X142060257Y-34150499D01*
X142094905Y-34164851D01*
X143050988Y-35120934D01*
X143065340Y-35155582D01*
X143064737Y-35163247D01*
X143049500Y-35259454D01*
X143049500Y-35440545D01*
X143077828Y-35619406D01*
X143077829Y-35619409D01*
X143120629Y-35751138D01*
X143133789Y-35791639D01*
X143216004Y-35952994D01*
X143310114Y-36082526D01*
X143322448Y-36099502D01*
X143322452Y-36099507D01*
X143450493Y-36227548D01*
X143450497Y-36227551D01*
X143450499Y-36227553D01*
X143597006Y-36333996D01*
X143758361Y-36416211D01*
X143930591Y-36472171D01*
X144109454Y-36500500D01*
X145144686Y-36500500D01*
X145179334Y-36514852D01*
X145193686Y-36549500D01*
X145179334Y-36584148D01*
X145169186Y-36591935D01*
X145104086Y-36629520D01*
X145104086Y-36629521D01*
X145029521Y-36704086D01*
X145029520Y-36704086D01*
X144976793Y-36795410D01*
X144976792Y-36795414D01*
X144949500Y-36897269D01*
X144949500Y-37002730D01*
X144976792Y-37104585D01*
X144976793Y-37104589D01*
X145029520Y-37195913D01*
X145085148Y-37251541D01*
X145099500Y-37286189D01*
X145099500Y-42813811D01*
X145085148Y-42848459D01*
X145029521Y-42904086D01*
X145029520Y-42904086D01*
X144976793Y-42995410D01*
X144976792Y-42995414D01*
X144949500Y-43097269D01*
X144949500Y-43202730D01*
X144976792Y-43304585D01*
X144976793Y-43304589D01*
X145029520Y-43395913D01*
X145049459Y-43415852D01*
X145063811Y-43450500D01*
X145049459Y-43485148D01*
X145014811Y-43499500D01*
X144036189Y-43499500D01*
X144001541Y-43485148D01*
X143235580Y-42719187D01*
X143221228Y-42684539D01*
X143227791Y-42660042D01*
X143266392Y-42593186D01*
X143300499Y-42465895D01*
X143300500Y-42465895D01*
X143300500Y-42334105D01*
X143300499Y-42334104D01*
X143278545Y-42252170D01*
X143266392Y-42206814D01*
X143266391Y-42206813D01*
X143266391Y-42206811D01*
X143200499Y-42092685D01*
X143107314Y-41999500D01*
X142993188Y-41933608D01*
X142993184Y-41933607D01*
X142865895Y-41899500D01*
X142865892Y-41899500D01*
X142734108Y-41899500D01*
X142734105Y-41899500D01*
X142606815Y-41933607D01*
X142606811Y-41933608D01*
X142492685Y-41999500D01*
X142492685Y-41999501D01*
X142399501Y-42092685D01*
X142399500Y-42092685D01*
X142333608Y-42206811D01*
X142333607Y-42206815D01*
X142299500Y-42334104D01*
X142299500Y-42465895D01*
X142333607Y-42593184D01*
X142333608Y-42593188D01*
X142392935Y-42695943D01*
X142399500Y-42720443D01*
X142399500Y-42902730D01*
X142426792Y-43004587D01*
X142426793Y-43004589D01*
X142477876Y-43093066D01*
X142479520Y-43095913D01*
X143604087Y-44220480D01*
X143670938Y-44259077D01*
X143695410Y-44273206D01*
X143695412Y-44273207D01*
X143797269Y-44300499D01*
X143797270Y-44300500D01*
X143797273Y-44300500D01*
X146279557Y-44300500D01*
X146304057Y-44307065D01*
X146406811Y-44366391D01*
X146406813Y-44366391D01*
X146406814Y-44366392D01*
X146507207Y-44393292D01*
X146534104Y-44400499D01*
X146534105Y-44400500D01*
X146534108Y-44400500D01*
X146665895Y-44400500D01*
X146665895Y-44400499D01*
X146793186Y-44366392D01*
X146907314Y-44300500D01*
X147000500Y-44207314D01*
X147066392Y-44093186D01*
X147100499Y-43965895D01*
X147100500Y-43965895D01*
X147100500Y-43834105D01*
X147100499Y-43834104D01*
X147066392Y-43706815D01*
X147066391Y-43706811D01*
X147000499Y-43592685D01*
X146907314Y-43499500D01*
X146793188Y-43433608D01*
X146793184Y-43433607D01*
X146665895Y-43399500D01*
X146665892Y-43399500D01*
X146534108Y-43399500D01*
X146534105Y-43399500D01*
X146406815Y-43433607D01*
X146406811Y-43433608D01*
X146304057Y-43492935D01*
X146279557Y-43499500D01*
X145685189Y-43499500D01*
X145650541Y-43485148D01*
X145636189Y-43450500D01*
X145650541Y-43415852D01*
X145670479Y-43395914D01*
X145670480Y-43395913D01*
X145723207Y-43304587D01*
X145750499Y-43202730D01*
X145750500Y-43202730D01*
X145750500Y-43097270D01*
X145750499Y-43097269D01*
X145744732Y-43075747D01*
X145723207Y-42995413D01*
X145723206Y-42995412D01*
X145723206Y-42995410D01*
X145670479Y-42904086D01*
X145614852Y-42848459D01*
X145600500Y-42813811D01*
X145600500Y-37286189D01*
X145614852Y-37251541D01*
X145670479Y-37195914D01*
X145670480Y-37195913D01*
X145723207Y-37104587D01*
X145750499Y-37002730D01*
X145750500Y-37002730D01*
X145750500Y-36897270D01*
X145750499Y-36897269D01*
X145723207Y-36795414D01*
X145723206Y-36795410D01*
X145670479Y-36704086D01*
X145595913Y-36629520D01*
X145530814Y-36591935D01*
X145507984Y-36562182D01*
X145512879Y-36525000D01*
X145542632Y-36502170D01*
X145555314Y-36500500D01*
X147519039Y-36500500D01*
X147528599Y-36501442D01*
X147532259Y-36502170D01*
X147549000Y-36505500D01*
X149349500Y-36505500D01*
X149384148Y-36519852D01*
X149398500Y-36554500D01*
X149398500Y-42953150D01*
X149384148Y-42987798D01*
X147750499Y-44621447D01*
X147622451Y-44749493D01*
X147622448Y-44749497D01*
X147516004Y-44896006D01*
X147433788Y-45057362D01*
X147377829Y-45229590D01*
X147377828Y-45229593D01*
X147349499Y-45408454D01*
X147349499Y-45591557D01*
X147349500Y-45591582D01*
X147349500Y-53753150D01*
X147335148Y-53787798D01*
X146834148Y-54288798D01*
X146799500Y-54303150D01*
X146764852Y-54288798D01*
X146750500Y-54254150D01*
X146750500Y-54170941D01*
X146750499Y-54170940D01*
X146709577Y-54018218D01*
X146709576Y-54018214D01*
X146630524Y-53881291D01*
X146630521Y-53881288D01*
X146630520Y-53881285D01*
X146518716Y-53769481D01*
X146518713Y-53769479D01*
X146518709Y-53769476D01*
X146381786Y-53690424D01*
X146381782Y-53690423D01*
X146229060Y-53649501D01*
X146229057Y-53649501D01*
X146070943Y-53649501D01*
X146070940Y-53649501D01*
X145918217Y-53690423D01*
X145918213Y-53690424D01*
X145781290Y-53769476D01*
X145781281Y-53769483D01*
X145669482Y-53881282D01*
X145669475Y-53881291D01*
X145590423Y-54018214D01*
X145590422Y-54018218D01*
X145549500Y-54170940D01*
X145549500Y-54329061D01*
X145590422Y-54481783D01*
X145590423Y-54481785D01*
X145669475Y-54618710D01*
X145669478Y-54618714D01*
X145669480Y-54618717D01*
X145781284Y-54730521D01*
X145781287Y-54730522D01*
X145781290Y-54730525D01*
X145918213Y-54809577D01*
X145918215Y-54809577D01*
X145918216Y-54809578D01*
X146038665Y-54841852D01*
X146070939Y-54850500D01*
X146070940Y-54850501D01*
X146154149Y-54850501D01*
X146188797Y-54864853D01*
X146203149Y-54899501D01*
X146188797Y-54934149D01*
X145960499Y-55162447D01*
X145832451Y-55290493D01*
X145832448Y-55290497D01*
X145755692Y-55396144D01*
X145726004Y-55437006D01*
X145643788Y-55598362D01*
X145587829Y-55770590D01*
X145587828Y-55770593D01*
X145559499Y-55949454D01*
X145559499Y-56132557D01*
X145559500Y-56132582D01*
X145559500Y-60940545D01*
X145587828Y-61119406D01*
X145587829Y-61119409D01*
X145639851Y-61279521D01*
X145643789Y-61291639D01*
X145726004Y-61452994D01*
X145832447Y-61599501D01*
X145832448Y-61599502D01*
X145832452Y-61599507D01*
X145960492Y-61727547D01*
X145960495Y-61727549D01*
X145960499Y-61727553D01*
X146107006Y-61833996D01*
X146157747Y-61859850D01*
X146182102Y-61888364D01*
X146184500Y-61903507D01*
X146184500Y-62437043D01*
X146182830Y-62449726D01*
X146174499Y-62480815D01*
X146174499Y-62619184D01*
X146210311Y-62752833D01*
X146210312Y-62752837D01*
X146279496Y-62872665D01*
X146385149Y-62978318D01*
X146399501Y-63012966D01*
X146399501Y-63706517D01*
X146414354Y-63800303D01*
X146471946Y-63913335D01*
X146471951Y-63913342D01*
X146561658Y-64003049D01*
X146561665Y-64003054D01*
X146674692Y-64060644D01*
X146674693Y-64060644D01*
X146674697Y-64060646D01*
X146768482Y-64075500D01*
X147331519Y-64075499D01*
X147425305Y-64060646D01*
X147495268Y-64024998D01*
X147538336Y-64003054D01*
X147538338Y-64003052D01*
X147538343Y-64003050D01*
X147628051Y-63913342D01*
X147628055Y-63913335D01*
X147685645Y-63800309D01*
X147685645Y-63800307D01*
X147685647Y-63800304D01*
X147700231Y-63708221D01*
X148350000Y-63708221D01*
X148359910Y-63776248D01*
X148359910Y-63776249D01*
X148411211Y-63881186D01*
X148411214Y-63881190D01*
X148493808Y-63963784D01*
X148493812Y-63963786D01*
X148598750Y-64015087D01*
X148666778Y-64024999D01*
X148849998Y-64024999D01*
X149049999Y-64024999D01*
X149233220Y-64024999D01*
X149301247Y-64015088D01*
X149301248Y-64015088D01*
X149406185Y-63963787D01*
X149406189Y-63963784D01*
X149488783Y-63881190D01*
X149488785Y-63881186D01*
X149540086Y-63776249D01*
X149540086Y-63776248D01*
X149549999Y-63708220D01*
X149549999Y-63300000D01*
X149049999Y-63300000D01*
X149049999Y-64024999D01*
X148849998Y-64024999D01*
X148849999Y-64024998D01*
X148849999Y-63300000D01*
X148350000Y-63300000D01*
X148350000Y-63708221D01*
X147700231Y-63708221D01*
X147700501Y-63706519D01*
X147700500Y-63197388D01*
X147700500Y-62693482D01*
X147700230Y-62691779D01*
X148349999Y-62691779D01*
X148349999Y-63100000D01*
X148849999Y-63100000D01*
X149049999Y-63100000D01*
X149549998Y-63100000D01*
X149549998Y-62691778D01*
X149540087Y-62623751D01*
X149540087Y-62623750D01*
X149488786Y-62518813D01*
X149488783Y-62518809D01*
X149406189Y-62436215D01*
X149406185Y-62436213D01*
X149301247Y-62384912D01*
X149233220Y-62375000D01*
X149049999Y-62375000D01*
X149049999Y-63100000D01*
X148849999Y-63100000D01*
X148849999Y-62375000D01*
X148666777Y-62375000D01*
X148598750Y-62384911D01*
X148598749Y-62384911D01*
X148493812Y-62436212D01*
X148493808Y-62436215D01*
X148411214Y-62518809D01*
X148411212Y-62518813D01*
X148359911Y-62623750D01*
X148359911Y-62623751D01*
X148349999Y-62691779D01*
X147700230Y-62691779D01*
X147685647Y-62599696D01*
X147628055Y-62486664D01*
X147628050Y-62486657D01*
X147538343Y-62396950D01*
X147538336Y-62396945D01*
X147425309Y-62339355D01*
X147425306Y-62339354D01*
X147425305Y-62339354D01*
X147331520Y-62324500D01*
X147331518Y-62324500D01*
X147284500Y-62324500D01*
X147249852Y-62310148D01*
X147235500Y-62275500D01*
X147235500Y-61903507D01*
X147249852Y-61868859D01*
X147262247Y-61859852D01*
X147312994Y-61833996D01*
X147459501Y-61727553D01*
X147459507Y-61727547D01*
X147587548Y-61599507D01*
X147587549Y-61599504D01*
X147587553Y-61599501D01*
X147693996Y-61452994D01*
X147776211Y-61291639D01*
X147832171Y-61119409D01*
X147860500Y-60940546D01*
X147860500Y-59825154D01*
X148285000Y-59825154D01*
X148285000Y-60750000D01*
X148748804Y-60750000D01*
X148740000Y-60782857D01*
X148740000Y-60917143D01*
X148748804Y-60950000D01*
X148285001Y-60950000D01*
X148285001Y-61874845D01*
X148290802Y-61904018D01*
X148290804Y-61904022D01*
X148312904Y-61937097D01*
X148345980Y-61959197D01*
X148375154Y-61964999D01*
X149149999Y-61964999D01*
X149150000Y-61964998D01*
X149150000Y-61351196D01*
X149182857Y-61360000D01*
X149317143Y-61360000D01*
X149350000Y-61351196D01*
X149350000Y-61964999D01*
X150124845Y-61964999D01*
X150124845Y-61964998D01*
X150154018Y-61959197D01*
X150154022Y-61959195D01*
X150187097Y-61937095D01*
X150209197Y-61904019D01*
X150215000Y-61874845D01*
X150215000Y-60950000D01*
X149751196Y-60950000D01*
X149760000Y-60917143D01*
X149760000Y-60782857D01*
X149751196Y-60750000D01*
X150214999Y-60750000D01*
X150214999Y-59825155D01*
X150214998Y-59825154D01*
X150209197Y-59795981D01*
X150209195Y-59795977D01*
X150187095Y-59762902D01*
X150154019Y-59740802D01*
X150124846Y-59735000D01*
X149350000Y-59735000D01*
X149350000Y-60348803D01*
X149317143Y-60340000D01*
X149182857Y-60340000D01*
X149150000Y-60348803D01*
X149150000Y-59735000D01*
X148375155Y-59735000D01*
X148375154Y-59735001D01*
X148345981Y-59740802D01*
X148345977Y-59740804D01*
X148312902Y-59762904D01*
X148290802Y-59795980D01*
X148285000Y-59825154D01*
X147860500Y-59825154D01*
X147860500Y-58633426D01*
X148650001Y-58633426D01*
X148662329Y-58695413D01*
X148709295Y-58765704D01*
X148779586Y-58812670D01*
X148841573Y-58824999D01*
X148949999Y-58824999D01*
X149150000Y-58824999D01*
X149258426Y-58824999D01*
X149320413Y-58812670D01*
X149390704Y-58765704D01*
X149437670Y-58695413D01*
X149450000Y-58633425D01*
X149450000Y-58600000D01*
X149150000Y-58600000D01*
X149150000Y-58824999D01*
X148949999Y-58824999D01*
X148950000Y-58824998D01*
X148950000Y-58600000D01*
X148650001Y-58600000D01*
X148650001Y-58633426D01*
X147860500Y-58633426D01*
X147860500Y-58366574D01*
X148650000Y-58366574D01*
X148650000Y-58400000D01*
X148950000Y-58400000D01*
X149150000Y-58400000D01*
X149449999Y-58400000D01*
X149449999Y-58366573D01*
X149437670Y-58304586D01*
X149390704Y-58234295D01*
X149320413Y-58187329D01*
X149258426Y-58175000D01*
X149150000Y-58175000D01*
X149150000Y-58400000D01*
X148950000Y-58400000D01*
X148950000Y-58175000D01*
X148841573Y-58175000D01*
X148779586Y-58187329D01*
X148709295Y-58234295D01*
X148662329Y-58304586D01*
X148650000Y-58366574D01*
X147860500Y-58366574D01*
X147860500Y-56536848D01*
X147874851Y-56502201D01*
X149246707Y-55130344D01*
X149246714Y-55130339D01*
X149249499Y-55127553D01*
X149249501Y-55127553D01*
X149377553Y-54999501D01*
X149483996Y-54852994D01*
X149566211Y-54691639D01*
X149622171Y-54519409D01*
X149628130Y-54481785D01*
X149650501Y-54340547D01*
X149650501Y-54159454D01*
X149650501Y-54157715D01*
X149650500Y-54157700D01*
X149650500Y-45995847D01*
X149664851Y-45961200D01*
X151296524Y-44329526D01*
X151296552Y-44329502D01*
X151426548Y-44199507D01*
X151426549Y-44199504D01*
X151426553Y-44199501D01*
X151460858Y-44152284D01*
X151492835Y-44132688D01*
X151529301Y-44141443D01*
X151548897Y-44173420D01*
X151549500Y-44181085D01*
X151549500Y-63148396D01*
X151549395Y-63151601D01*
X151534314Y-63381681D01*
X151533478Y-63388032D01*
X151488810Y-63612595D01*
X151487154Y-63618778D01*
X151413552Y-63835600D01*
X151411099Y-63841521D01*
X151309833Y-64046870D01*
X151306628Y-64052421D01*
X151179422Y-64242796D01*
X151175520Y-64247881D01*
X151024556Y-64420024D01*
X151020024Y-64424556D01*
X150847881Y-64575520D01*
X150842796Y-64579422D01*
X150652421Y-64706628D01*
X150646870Y-64709833D01*
X150441521Y-64811099D01*
X150435600Y-64813552D01*
X150218778Y-64887154D01*
X150212595Y-64888810D01*
X149988032Y-64933478D01*
X149981681Y-64934314D01*
X149751602Y-64949395D01*
X149748397Y-64949500D01*
X129251488Y-64949500D01*
X129248529Y-64949411D01*
X128975776Y-64932912D01*
X128969903Y-64932198D01*
X128702611Y-64883215D01*
X128696865Y-64881799D01*
X128437415Y-64800951D01*
X128431883Y-64798853D01*
X128184073Y-64687323D01*
X128178833Y-64684573D01*
X127946270Y-64543983D01*
X127941401Y-64540622D01*
X127727481Y-64373027D01*
X127723052Y-64369103D01*
X127530896Y-64176947D01*
X127526972Y-64172518D01*
X127359377Y-63958598D01*
X127356016Y-63953729D01*
X127331597Y-63913335D01*
X127215422Y-63721160D01*
X127212680Y-63715933D01*
X127101145Y-63468114D01*
X127099048Y-63462584D01*
X127080396Y-63402727D01*
X127018199Y-63203130D01*
X127016784Y-63197388D01*
X126967800Y-62930088D01*
X126967087Y-62924222D01*
X126963968Y-62872665D01*
X126950589Y-62651470D01*
X126950500Y-62648512D01*
X126950500Y-58232263D01*
X126964852Y-58197615D01*
X126990515Y-58184094D01*
X127039269Y-58175000D01*
X131943166Y-57260280D01*
X131943381Y-57260241D01*
X131948882Y-57259257D01*
X131949980Y-57259476D01*
X131970662Y-57255363D01*
X131971102Y-57255285D01*
X131971238Y-57255314D01*
X131989101Y-57251722D01*
X131989102Y-57251723D01*
X131989621Y-57251618D01*
X131990124Y-57251521D01*
X132025971Y-57244835D01*
X132025972Y-57244834D01*
X132027431Y-57244562D01*
X132032952Y-57242917D01*
X132041425Y-57241217D01*
X132138318Y-57196453D01*
X132222025Y-57130230D01*
X132287882Y-57046235D01*
X132332224Y-56949147D01*
X132352580Y-56844372D01*
X132350545Y-56796802D01*
X132350500Y-56794708D01*
X132350500Y-43621135D01*
X132350501Y-43620878D01*
X132350747Y-43573906D01*
X132333646Y-43499500D01*
X132327534Y-43472904D01*
X132281951Y-43379830D01*
X132216388Y-43299567D01*
X132134285Y-43236325D01*
X132039947Y-43193420D01*
X132039945Y-43193419D01*
X132032449Y-43191933D01*
X132026705Y-43190793D01*
X132025664Y-43190117D01*
X131987775Y-43183073D01*
X131987441Y-43183007D01*
X131987439Y-43183006D01*
X131987367Y-43182992D01*
X131948624Y-43175246D01*
X131942731Y-43174700D01*
X126991697Y-42254371D01*
X126960255Y-42233929D01*
X126951652Y-42206199D01*
X126951652Y-42204585D01*
X126951638Y-41997269D01*
X130549500Y-41997269D01*
X130549500Y-42102730D01*
X130576792Y-42204585D01*
X130576793Y-42204589D01*
X130611587Y-42264852D01*
X130629520Y-42295913D01*
X130704087Y-42370480D01*
X130737513Y-42389778D01*
X130795410Y-42423206D01*
X130795412Y-42423206D01*
X130795413Y-42423207D01*
X130875747Y-42444732D01*
X130897269Y-42450499D01*
X130897270Y-42450500D01*
X130897273Y-42450500D01*
X131002730Y-42450500D01*
X131002730Y-42450499D01*
X131104587Y-42423207D01*
X131195913Y-42370480D01*
X131270480Y-42295913D01*
X131282553Y-42275000D01*
X131312306Y-42252170D01*
X131324989Y-42250500D01*
X135396654Y-42250500D01*
X135431302Y-42264852D01*
X136543066Y-43376616D01*
X136557418Y-43411264D01*
X136555749Y-43423943D01*
X136549500Y-43447270D01*
X136549500Y-43552730D01*
X136576792Y-43654585D01*
X136576793Y-43654589D01*
X136629520Y-43745913D01*
X136704087Y-43820480D01*
X136737513Y-43839778D01*
X136795410Y-43873206D01*
X136795412Y-43873206D01*
X136795413Y-43873207D01*
X136875747Y-43894732D01*
X136897269Y-43900499D01*
X136897270Y-43900500D01*
X136897273Y-43900500D01*
X137002730Y-43900500D01*
X137002730Y-43900499D01*
X137104587Y-43873207D01*
X137195913Y-43820480D01*
X137270480Y-43745913D01*
X137323207Y-43654587D01*
X137350499Y-43552730D01*
X137350500Y-43552730D01*
X137350500Y-43447270D01*
X137350499Y-43447269D01*
X137342081Y-43415852D01*
X137323207Y-43345413D01*
X137323206Y-43345412D01*
X137323206Y-43345410D01*
X137270479Y-43254086D01*
X137195913Y-43179520D01*
X137104589Y-43126793D01*
X137104585Y-43126792D01*
X137002730Y-43099500D01*
X137002727Y-43099500D01*
X136897273Y-43099500D01*
X136897271Y-43099500D01*
X136873943Y-43105749D01*
X136836761Y-43100852D01*
X136826616Y-43093066D01*
X135613576Y-41880025D01*
X135539883Y-41849500D01*
X135539882Y-41849500D01*
X131324989Y-41849500D01*
X131290341Y-41835148D01*
X131282553Y-41824999D01*
X131270482Y-41804090D01*
X131270477Y-41804084D01*
X131195913Y-41729520D01*
X131104589Y-41676793D01*
X131104585Y-41676792D01*
X131002730Y-41649500D01*
X131002727Y-41649500D01*
X130897273Y-41649500D01*
X130897270Y-41649500D01*
X130795414Y-41676792D01*
X130795410Y-41676793D01*
X130704086Y-41729520D01*
X130704086Y-41729521D01*
X130629521Y-41804086D01*
X130629520Y-41804086D01*
X130576793Y-41895410D01*
X130576792Y-41895414D01*
X130549500Y-41997269D01*
X126951638Y-41997269D01*
X126951349Y-37600000D01*
X133300000Y-37600000D01*
X133300000Y-36361510D01*
X133306860Y-36364352D01*
X133311471Y-36368963D01*
X133312970Y-36372583D01*
X133313832Y-36371837D01*
X133327122Y-36387174D01*
X133366092Y-36432147D01*
X133371069Y-36437621D01*
X133439799Y-36479516D01*
X133506838Y-36499201D01*
X133550649Y-36505500D01*
X133550653Y-36505500D01*
X134274745Y-36505500D01*
X134274756Y-36505500D01*
X134305778Y-36502374D01*
X134354258Y-36492504D01*
X134384032Y-36483253D01*
X136624003Y-35531758D01*
X136661502Y-35531422D01*
X136688258Y-35557702D01*
X136690488Y-35564176D01*
X136696134Y-35585246D01*
X136696134Y-35585248D01*
X136747037Y-35673412D01*
X136748861Y-35676572D01*
X136823428Y-35751139D01*
X136914754Y-35803866D01*
X136962841Y-35816750D01*
X136992594Y-35839579D01*
X136999159Y-35864080D01*
X136999159Y-38118214D01*
X136984807Y-38152862D01*
X136891684Y-38245984D01*
X136857036Y-38260336D01*
X136832536Y-38253771D01*
X136773930Y-38219934D01*
X136773926Y-38219933D01*
X136672071Y-38192641D01*
X136672068Y-38192641D01*
X136566614Y-38192641D01*
X136566611Y-38192641D01*
X136464755Y-38219933D01*
X136464751Y-38219934D01*
X136373427Y-38272661D01*
X136373427Y-38272662D01*
X136298862Y-38347227D01*
X136298861Y-38347227D01*
X136246134Y-38438551D01*
X136246133Y-38438555D01*
X136218841Y-38540410D01*
X136218841Y-38645871D01*
X136246133Y-38747726D01*
X136246134Y-38747730D01*
X136298861Y-38839054D01*
X136373428Y-38913621D01*
X136406854Y-38932919D01*
X136464751Y-38966347D01*
X136464753Y-38966347D01*
X136464754Y-38966348D01*
X136545088Y-38987873D01*
X136566610Y-38993640D01*
X136566611Y-38993641D01*
X136631159Y-38993641D01*
X136665807Y-39007993D01*
X136680159Y-39042641D01*
X136680159Y-39107189D01*
X136707451Y-39209044D01*
X136707452Y-39209048D01*
X136760179Y-39300372D01*
X136775659Y-39315852D01*
X136790011Y-39350500D01*
X136775659Y-39385148D01*
X136741011Y-39399500D01*
X129386189Y-39399500D01*
X129351541Y-39385148D01*
X129345913Y-39379520D01*
X129254589Y-39326793D01*
X129254585Y-39326792D01*
X129152730Y-39299500D01*
X129152727Y-39299500D01*
X129047273Y-39299500D01*
X129047270Y-39299500D01*
X128945414Y-39326792D01*
X128945410Y-39326793D01*
X128854086Y-39379520D01*
X128854086Y-39379521D01*
X128779521Y-39454086D01*
X128779520Y-39454086D01*
X128726793Y-39545410D01*
X128726792Y-39545414D01*
X128699500Y-39647269D01*
X128699500Y-39752730D01*
X128726792Y-39854585D01*
X128726793Y-39854589D01*
X128776371Y-39940459D01*
X128779520Y-39945913D01*
X128854087Y-40020480D01*
X128887513Y-40039778D01*
X128945410Y-40073206D01*
X128945412Y-40073206D01*
X128945413Y-40073207D01*
X129025747Y-40094732D01*
X129047269Y-40100499D01*
X129047270Y-40100500D01*
X129047273Y-40100500D01*
X129152730Y-40100500D01*
X129152730Y-40100499D01*
X129254587Y-40073207D01*
X129345913Y-40020480D01*
X129351541Y-40014852D01*
X129386189Y-40000500D01*
X137389564Y-40000500D01*
X137416230Y-39993354D01*
X137465989Y-39980021D01*
X137534511Y-39940460D01*
X137590460Y-39884511D01*
X139065852Y-38409119D01*
X139100500Y-38394767D01*
X139135148Y-38409119D01*
X139149500Y-38443767D01*
X139149500Y-45599306D01*
X139135148Y-45633954D01*
X139100500Y-45648306D01*
X139065852Y-45633954D01*
X139058065Y-45623807D01*
X139046680Y-45604087D01*
X138972113Y-45529520D01*
X138880789Y-45476793D01*
X138880785Y-45476792D01*
X138815419Y-45459277D01*
X138785666Y-45436447D01*
X138779101Y-45411947D01*
X138779101Y-42041783D01*
X138779100Y-42041779D01*
X138744588Y-41958459D01*
X138744586Y-41958457D01*
X138744586Y-41958456D01*
X138680816Y-41894687D01*
X137577814Y-40791684D01*
X137563462Y-40757036D01*
X137570025Y-40732540D01*
X137603866Y-40673928D01*
X137631158Y-40572071D01*
X137631159Y-40572071D01*
X137631159Y-40466611D01*
X137631158Y-40466610D01*
X137603866Y-40364755D01*
X137603865Y-40364751D01*
X137551138Y-40273427D01*
X137476572Y-40198861D01*
X137385248Y-40146134D01*
X137385244Y-40146133D01*
X137283389Y-40118841D01*
X137283386Y-40118841D01*
X137177932Y-40118841D01*
X137177929Y-40118841D01*
X137076073Y-40146133D01*
X137076069Y-40146134D01*
X136984745Y-40198861D01*
X136984745Y-40198862D01*
X136910180Y-40273427D01*
X136910179Y-40273427D01*
X136857452Y-40364751D01*
X136857451Y-40364755D01*
X136830159Y-40466610D01*
X136830159Y-40531159D01*
X136815807Y-40565807D01*
X136781159Y-40580159D01*
X136716611Y-40580159D01*
X136614755Y-40607451D01*
X136614751Y-40607452D01*
X136523427Y-40660179D01*
X136523427Y-40660180D01*
X136448862Y-40734745D01*
X136448861Y-40734745D01*
X136396134Y-40826069D01*
X136396133Y-40826073D01*
X136368841Y-40927928D01*
X136368841Y-41033389D01*
X136396133Y-41135244D01*
X136396134Y-41135248D01*
X136448861Y-41226572D01*
X136523428Y-41301139D01*
X136547663Y-41315131D01*
X136614751Y-41353865D01*
X136614753Y-41353865D01*
X136614754Y-41353866D01*
X136695088Y-41375391D01*
X136716610Y-41381158D01*
X136716611Y-41381159D01*
X136716614Y-41381159D01*
X136822071Y-41381159D01*
X136822071Y-41381158D01*
X136923928Y-41353866D01*
X136982538Y-41320026D01*
X137019717Y-41315131D01*
X137041684Y-41327814D01*
X138006547Y-42292676D01*
X138020899Y-42327324D01*
X138020899Y-45411947D01*
X138006547Y-45446595D01*
X137984581Y-45459277D01*
X137919214Y-45476792D01*
X137919210Y-45476793D01*
X137827886Y-45529520D01*
X137827886Y-45529521D01*
X137753321Y-45604086D01*
X137753320Y-45604086D01*
X137700593Y-45695410D01*
X137700592Y-45695414D01*
X137673300Y-45797269D01*
X137673300Y-45902730D01*
X137700592Y-46004585D01*
X137700593Y-46004589D01*
X137748758Y-46088011D01*
X137753320Y-46095913D01*
X137827887Y-46170480D01*
X137861313Y-46189778D01*
X137919210Y-46223206D01*
X137919212Y-46223206D01*
X137919213Y-46223207D01*
X137999547Y-46244732D01*
X138021069Y-46250499D01*
X138021070Y-46250500D01*
X138021073Y-46250500D01*
X138126530Y-46250500D01*
X138126530Y-46250499D01*
X138228387Y-46223207D01*
X138319713Y-46170480D01*
X138365352Y-46124841D01*
X138400000Y-46110489D01*
X138434648Y-46124841D01*
X138480287Y-46170480D01*
X138513713Y-46189778D01*
X138571610Y-46223206D01*
X138571612Y-46223206D01*
X138571613Y-46223207D01*
X138651947Y-46244732D01*
X138673469Y-46250499D01*
X138673470Y-46250500D01*
X138673473Y-46250500D01*
X138778930Y-46250500D01*
X138778930Y-46250499D01*
X138880787Y-46223207D01*
X138972113Y-46170480D01*
X139046680Y-46095913D01*
X139058065Y-46076192D01*
X139087818Y-46053363D01*
X139125000Y-46058258D01*
X139147830Y-46088011D01*
X139149500Y-46100693D01*
X139149500Y-53755233D01*
X139135148Y-53789881D01*
X137416924Y-55508104D01*
X137382276Y-55522456D01*
X137347628Y-55508104D01*
X137333276Y-55473456D01*
X137334945Y-55460778D01*
X137350500Y-55402727D01*
X137350500Y-55297273D01*
X137350500Y-55297270D01*
X137350499Y-55297269D01*
X137323207Y-55195414D01*
X137323206Y-55195410D01*
X137289778Y-55137513D01*
X137270480Y-55104087D01*
X137195913Y-55029520D01*
X137173012Y-55016298D01*
X137104589Y-54976793D01*
X137104585Y-54976792D01*
X137002730Y-54949500D01*
X137002727Y-54949500D01*
X136897273Y-54949500D01*
X136897270Y-54949500D01*
X136795414Y-54976792D01*
X136795410Y-54976793D01*
X136704086Y-55029520D01*
X136704086Y-55029521D01*
X136629521Y-55104086D01*
X136629520Y-55104086D01*
X136576793Y-55195410D01*
X136576792Y-55195414D01*
X136549500Y-55297269D01*
X136549500Y-55402732D01*
X136549704Y-55404283D01*
X136549500Y-55405044D01*
X136549500Y-55405938D01*
X136549260Y-55405938D01*
X136539994Y-55440507D01*
X136535771Y-55445322D01*
X134222265Y-57758829D01*
X134158830Y-57822263D01*
X134154903Y-57831743D01*
X134148774Y-57846539D01*
X134148774Y-57846540D01*
X134148773Y-57846539D01*
X134124500Y-57905140D01*
X134124499Y-57905147D01*
X134124499Y-58000555D01*
X134124500Y-58000564D01*
X134124500Y-59439692D01*
X134110148Y-59474340D01*
X134105335Y-59478562D01*
X134104087Y-59479519D01*
X134029521Y-59554086D01*
X134029520Y-59554086D01*
X133976793Y-59645410D01*
X133976792Y-59645414D01*
X133949500Y-59747269D01*
X133949500Y-59852730D01*
X133976792Y-59954585D01*
X133976793Y-59954589D01*
X134029520Y-60045913D01*
X134104087Y-60120480D01*
X134137513Y-60139778D01*
X134195410Y-60173206D01*
X134195412Y-60173206D01*
X134195413Y-60173207D01*
X134275747Y-60194732D01*
X134297269Y-60200499D01*
X134297270Y-60200500D01*
X134297273Y-60200500D01*
X134402730Y-60200500D01*
X134402730Y-60200499D01*
X134504587Y-60173207D01*
X134595913Y-60120480D01*
X134670480Y-60045913D01*
X134723207Y-59954587D01*
X134750499Y-59852730D01*
X134750500Y-59852730D01*
X134750500Y-59747270D01*
X134750499Y-59747269D01*
X134723207Y-59645414D01*
X134723206Y-59645410D01*
X134682842Y-59575499D01*
X134670480Y-59554087D01*
X134595913Y-59479520D01*
X134595912Y-59479519D01*
X134594665Y-59478562D01*
X134594269Y-59477876D01*
X134593642Y-59477249D01*
X134593810Y-59477080D01*
X134575918Y-59446081D01*
X134575500Y-59439692D01*
X134575500Y-58063700D01*
X134589851Y-58029053D01*
X136854676Y-55764227D01*
X136889323Y-55749876D01*
X136895721Y-55750296D01*
X136897270Y-55750500D01*
X136897273Y-55750500D01*
X137002729Y-55750500D01*
X137026103Y-55744236D01*
X137060774Y-55734946D01*
X137097955Y-55739840D01*
X137120786Y-55769593D01*
X137115892Y-55806775D01*
X137108104Y-55816924D01*
X136715489Y-56209540D01*
X136659541Y-56265488D01*
X136659540Y-56265488D01*
X136619979Y-56334008D01*
X136619979Y-56334010D01*
X136599500Y-56410436D01*
X136599500Y-60222390D01*
X136585148Y-60257038D01*
X136499501Y-60342685D01*
X136499500Y-60342685D01*
X136433608Y-60456811D01*
X136433607Y-60456815D01*
X136399500Y-60584104D01*
X136399500Y-60715895D01*
X136433607Y-60843184D01*
X136433608Y-60843188D01*
X136476307Y-60917143D01*
X136499500Y-60957314D01*
X136592686Y-61050500D01*
X136639086Y-61077289D01*
X136692391Y-61108065D01*
X136715221Y-61137818D01*
X136710326Y-61175000D01*
X136680573Y-61197830D01*
X136667891Y-61199500D01*
X136647270Y-61199500D01*
X136545414Y-61226792D01*
X136545410Y-61226793D01*
X136454086Y-61279520D01*
X136454086Y-61279521D01*
X136379521Y-61354086D01*
X136379520Y-61354086D01*
X136326793Y-61445410D01*
X136326792Y-61445414D01*
X136299500Y-61547269D01*
X136299500Y-61652730D01*
X136326792Y-61754585D01*
X136326793Y-61754589D01*
X136372638Y-61833993D01*
X136379520Y-61845913D01*
X136454087Y-61920480D01*
X136482865Y-61937095D01*
X136545410Y-61973206D01*
X136545412Y-61973206D01*
X136545413Y-61973207D01*
X136625747Y-61994732D01*
X136647269Y-62000499D01*
X136647270Y-62000500D01*
X136647273Y-62000500D01*
X136752730Y-62000500D01*
X136752730Y-62000499D01*
X136854587Y-61973207D01*
X136945913Y-61920480D01*
X137020480Y-61845913D01*
X137073207Y-61754587D01*
X137100499Y-61652730D01*
X137100500Y-61652730D01*
X137100500Y-61603289D01*
X137114852Y-61568641D01*
X137640852Y-61042641D01*
X137675500Y-61028289D01*
X137710148Y-61042641D01*
X137724500Y-61077289D01*
X137724500Y-62989692D01*
X137710148Y-63024340D01*
X137705335Y-63028562D01*
X137704087Y-63029519D01*
X137629521Y-63104086D01*
X137629520Y-63104086D01*
X137576793Y-63195410D01*
X137576792Y-63195414D01*
X137549500Y-63297269D01*
X137549500Y-63402730D01*
X137576792Y-63504585D01*
X137576793Y-63504589D01*
X137601497Y-63547376D01*
X137629520Y-63595913D01*
X137704087Y-63670480D01*
X137729349Y-63685065D01*
X137795410Y-63723206D01*
X137795412Y-63723206D01*
X137795413Y-63723207D01*
X137826957Y-63731659D01*
X137897269Y-63750499D01*
X137897270Y-63750500D01*
X137897273Y-63750500D01*
X138002730Y-63750500D01*
X138002730Y-63750499D01*
X138104587Y-63723207D01*
X138195913Y-63670480D01*
X138270480Y-63595913D01*
X138323207Y-63504587D01*
X138350499Y-63402730D01*
X138350500Y-63402730D01*
X138350500Y-63297270D01*
X138350499Y-63297269D01*
X138323207Y-63195414D01*
X138323206Y-63195410D01*
X138270479Y-63104086D01*
X138195912Y-63029519D01*
X138194665Y-63028562D01*
X138194269Y-63027876D01*
X138193642Y-63027249D01*
X138193810Y-63027080D01*
X138192974Y-63025633D01*
X138189852Y-63024340D01*
X138183811Y-63009757D01*
X138175918Y-62996081D01*
X138175500Y-62989692D01*
X138175500Y-62936078D01*
X143419500Y-62936078D01*
X143419500Y-63083921D01*
X143448340Y-63228906D01*
X143448342Y-63228915D01*
X143477787Y-63300000D01*
X143504916Y-63365495D01*
X143517870Y-63384882D01*
X143571679Y-63465414D01*
X143587049Y-63488416D01*
X143691584Y-63592951D01*
X143814505Y-63675084D01*
X143882796Y-63703371D01*
X143951084Y-63731657D01*
X143951085Y-63731657D01*
X143951087Y-63731658D01*
X144096082Y-63760500D01*
X144243918Y-63760500D01*
X144388913Y-63731658D01*
X144525495Y-63675084D01*
X144648416Y-63592951D01*
X144752951Y-63488416D01*
X144835084Y-63365495D01*
X144891658Y-63228913D01*
X144920500Y-63083918D01*
X144920500Y-62936082D01*
X144891658Y-62791087D01*
X144835084Y-62654505D01*
X144752951Y-62531584D01*
X144648416Y-62427049D01*
X144525495Y-62344916D01*
X144525492Y-62344914D01*
X144525491Y-62344914D01*
X144388915Y-62288342D01*
X144388906Y-62288340D01*
X144243921Y-62259500D01*
X144243918Y-62259500D01*
X144096082Y-62259500D01*
X144096078Y-62259500D01*
X143951093Y-62288340D01*
X143951084Y-62288342D01*
X143814508Y-62344914D01*
X143691584Y-62427048D01*
X143587048Y-62531584D01*
X143504914Y-62654508D01*
X143448342Y-62791084D01*
X143448340Y-62791093D01*
X143419500Y-62936078D01*
X138175500Y-62936078D01*
X138175500Y-60599982D01*
X140614500Y-60599982D01*
X140614500Y-61100018D01*
X140639717Y-61226792D01*
X140653525Y-61296211D01*
X140653525Y-61296212D01*
X140718466Y-61452993D01*
X140730075Y-61481020D01*
X140841209Y-61647344D01*
X140982656Y-61788791D01*
X141148980Y-61899925D01*
X141333789Y-61976475D01*
X141529982Y-62015500D01*
X141529985Y-62015500D01*
X141730015Y-62015500D01*
X141730018Y-62015500D01*
X141926211Y-61976475D01*
X142111020Y-61899925D01*
X142277344Y-61788791D01*
X142418791Y-61647344D01*
X142529925Y-61481020D01*
X142606475Y-61296211D01*
X142645500Y-61100018D01*
X142645500Y-60599982D01*
X143154501Y-60599982D01*
X143154501Y-61100018D01*
X143179718Y-61226792D01*
X143193526Y-61296211D01*
X143193526Y-61296212D01*
X143258467Y-61452993D01*
X143270076Y-61481020D01*
X143381210Y-61647344D01*
X143522657Y-61788791D01*
X143688981Y-61899925D01*
X143873790Y-61976475D01*
X144069983Y-62015500D01*
X144069986Y-62015500D01*
X144270016Y-62015500D01*
X144270019Y-62015500D01*
X144466212Y-61976475D01*
X144651021Y-61899925D01*
X144817345Y-61788791D01*
X144958792Y-61647344D01*
X145069926Y-61481020D01*
X145146476Y-61296211D01*
X145185501Y-61100018D01*
X145185501Y-60599982D01*
X145146476Y-60403789D01*
X145069926Y-60218980D01*
X144958792Y-60052656D01*
X144817345Y-59911209D01*
X144651021Y-59800075D01*
X144641137Y-59795981D01*
X144550749Y-59758541D01*
X144543856Y-59751648D01*
X144534853Y-59747919D01*
X144531123Y-59738914D01*
X144524231Y-59732022D01*
X144520501Y-59713271D01*
X144520501Y-59624499D01*
X144534853Y-59589851D01*
X144569501Y-59575499D01*
X144651518Y-59575499D01*
X144651519Y-59575499D01*
X144745305Y-59560646D01*
X144806388Y-59529522D01*
X144858336Y-59503054D01*
X144858338Y-59503052D01*
X144858343Y-59503050D01*
X144948051Y-59413342D01*
X144948055Y-59413335D01*
X145005645Y-59300309D01*
X145005645Y-59300307D01*
X145005647Y-59300304D01*
X145020501Y-59206519D01*
X145020500Y-58618482D01*
X145005647Y-58524696D01*
X145005644Y-58524690D01*
X144948055Y-58411664D01*
X144948050Y-58411657D01*
X144858343Y-58321950D01*
X144858336Y-58321945D01*
X144745309Y-58264355D01*
X144745306Y-58264354D01*
X144745305Y-58264354D01*
X144651520Y-58249500D01*
X144651518Y-58249500D01*
X143688483Y-58249500D01*
X143594697Y-58264353D01*
X143481665Y-58321945D01*
X143481658Y-58321950D01*
X143391951Y-58411657D01*
X143391946Y-58411664D01*
X143334356Y-58524690D01*
X143334356Y-58524692D01*
X143319501Y-58618482D01*
X143319501Y-59206517D01*
X143334354Y-59300303D01*
X143391946Y-59413335D01*
X143391951Y-59413342D01*
X143481658Y-59503049D01*
X143481665Y-59503054D01*
X143594692Y-59560644D01*
X143594693Y-59560644D01*
X143594697Y-59560646D01*
X143688482Y-59575500D01*
X143770501Y-59575499D01*
X143780648Y-59579702D01*
X143805149Y-59589850D01*
X143819377Y-59624198D01*
X143819501Y-59624499D01*
X143819501Y-59713271D01*
X143805149Y-59747919D01*
X143789253Y-59758541D01*
X143688982Y-59800074D01*
X143522657Y-59911208D01*
X143381209Y-60052656D01*
X143270074Y-60218983D01*
X143193526Y-60403787D01*
X143193526Y-60403788D01*
X143193526Y-60403789D01*
X143154501Y-60599982D01*
X142645500Y-60599982D01*
X142606475Y-60403789D01*
X142529925Y-60218980D01*
X142418791Y-60052656D01*
X142277344Y-59911209D01*
X142111020Y-59800075D01*
X142101136Y-59795981D01*
X142010748Y-59758541D01*
X142003855Y-59751648D01*
X141994852Y-59747919D01*
X141991122Y-59738914D01*
X141984230Y-59732022D01*
X141980500Y-59713271D01*
X141980500Y-59624499D01*
X141994852Y-59589851D01*
X142029500Y-59575499D01*
X142111517Y-59575499D01*
X142111518Y-59575499D01*
X142205304Y-59560646D01*
X142266387Y-59529522D01*
X142318335Y-59503054D01*
X142318337Y-59503052D01*
X142318342Y-59503050D01*
X142408050Y-59413342D01*
X142408054Y-59413335D01*
X142465644Y-59300309D01*
X142465644Y-59300307D01*
X142465646Y-59300304D01*
X142480500Y-59206519D01*
X142480499Y-58618482D01*
X142465646Y-58524696D01*
X142465643Y-58524690D01*
X142408054Y-58411664D01*
X142408049Y-58411657D01*
X142318342Y-58321950D01*
X142318335Y-58321945D01*
X142205308Y-58264355D01*
X142205305Y-58264354D01*
X142205304Y-58264354D01*
X142111519Y-58249500D01*
X142111517Y-58249500D01*
X141148482Y-58249500D01*
X141054696Y-58264353D01*
X140941664Y-58321945D01*
X140941657Y-58321950D01*
X140851950Y-58411657D01*
X140851945Y-58411664D01*
X140794355Y-58524690D01*
X140794355Y-58524692D01*
X140779500Y-58618482D01*
X140779500Y-59206517D01*
X140794353Y-59300303D01*
X140851945Y-59413335D01*
X140851950Y-59413342D01*
X140941657Y-59503049D01*
X140941664Y-59503054D01*
X141054691Y-59560644D01*
X141054692Y-59560644D01*
X141054696Y-59560646D01*
X141148481Y-59575500D01*
X141230500Y-59575499D01*
X141240647Y-59579702D01*
X141265148Y-59589850D01*
X141279376Y-59624198D01*
X141279500Y-59624499D01*
X141279500Y-59713271D01*
X141265148Y-59747919D01*
X141249252Y-59758541D01*
X141148981Y-59800074D01*
X140982656Y-59911208D01*
X140841208Y-60052656D01*
X140730073Y-60218983D01*
X140653525Y-60403787D01*
X140653525Y-60403788D01*
X140653525Y-60403789D01*
X140614500Y-60599982D01*
X138175500Y-60599982D01*
X138175500Y-59213701D01*
X138189852Y-59179053D01*
X140041553Y-57327352D01*
X140076201Y-57313000D01*
X140730501Y-57313000D01*
X140765149Y-57327352D01*
X140779501Y-57362000D01*
X140779501Y-57381517D01*
X140794353Y-57475303D01*
X140851945Y-57588335D01*
X140851950Y-57588342D01*
X140941657Y-57678049D01*
X140941664Y-57678054D01*
X141054691Y-57735644D01*
X141054692Y-57735644D01*
X141054696Y-57735646D01*
X141148481Y-57750500D01*
X142111518Y-57750499D01*
X142205304Y-57735646D01*
X142266387Y-57704522D01*
X142318335Y-57678054D01*
X142318337Y-57678052D01*
X142318342Y-57678050D01*
X142408050Y-57588342D01*
X142408054Y-57588335D01*
X142465644Y-57475309D01*
X142465644Y-57475307D01*
X142465646Y-57475304D01*
X142480500Y-57381519D01*
X142480499Y-56793482D01*
X142465646Y-56699696D01*
X142421829Y-56613700D01*
X142408054Y-56586664D01*
X142408049Y-56586657D01*
X142318342Y-56496950D01*
X142318335Y-56496945D01*
X142205308Y-56439355D01*
X142205305Y-56439354D01*
X142205304Y-56439354D01*
X142111519Y-56424500D01*
X142111517Y-56424500D01*
X142029500Y-56424500D01*
X141994852Y-56410148D01*
X141980500Y-56375500D01*
X141980500Y-55753853D01*
X141959128Y-55674094D01*
X141956614Y-55664712D01*
X141910469Y-55584788D01*
X141845212Y-55519531D01*
X141819329Y-55504587D01*
X141765289Y-55473386D01*
X141765286Y-55473385D01*
X141676147Y-55449500D01*
X141676144Y-55449500D01*
X141583856Y-55449500D01*
X141583853Y-55449500D01*
X141494713Y-55473385D01*
X141494710Y-55473386D01*
X141414794Y-55519527D01*
X141414784Y-55519534D01*
X141349534Y-55584784D01*
X141349527Y-55584794D01*
X141303386Y-55664710D01*
X141303385Y-55664713D01*
X141279500Y-55753853D01*
X141279500Y-56375500D01*
X141265148Y-56410148D01*
X141230501Y-56424500D01*
X141148482Y-56424500D01*
X141054696Y-56439353D01*
X140941664Y-56496945D01*
X140941657Y-56496950D01*
X140851950Y-56586657D01*
X140851945Y-56586664D01*
X140794355Y-56699690D01*
X140794355Y-56699692D01*
X140779500Y-56793482D01*
X140779500Y-56813000D01*
X140765148Y-56847648D01*
X140730500Y-56862000D01*
X140013064Y-56862000D01*
X140013056Y-56861999D01*
X140007355Y-56861999D01*
X139917646Y-56861999D01*
X139869094Y-56882108D01*
X139869095Y-56882109D01*
X139834762Y-56896330D01*
X139771330Y-56959764D01*
X137909148Y-58821946D01*
X137874500Y-58836298D01*
X137839852Y-58821946D01*
X137825500Y-58787298D01*
X137825500Y-56613700D01*
X137839851Y-56579053D01*
X138518904Y-55900000D01*
X140514277Y-55900000D01*
X140519428Y-55925905D01*
X140555343Y-55979656D01*
X140609094Y-56015571D01*
X140609093Y-56015571D01*
X140656495Y-56024999D01*
X140890000Y-56024999D01*
X140923504Y-56024999D01*
X140970905Y-56015571D01*
X141024656Y-55979656D01*
X141060571Y-55925905D01*
X141060572Y-55925902D01*
X141065725Y-55900000D01*
X140890000Y-55900000D01*
X140890000Y-56024999D01*
X140656495Y-56024999D01*
X140690000Y-56024998D01*
X140690000Y-55900000D01*
X140514277Y-55900000D01*
X138518904Y-55900000D01*
X138718905Y-55699999D01*
X140514274Y-55699999D01*
X140514274Y-55700000D01*
X140690000Y-55700000D01*
X140890000Y-55700000D01*
X141065723Y-55700000D01*
X141060571Y-55674094D01*
X141024656Y-55620343D01*
X140970905Y-55584428D01*
X140970906Y-55584428D01*
X140923504Y-55575000D01*
X140890000Y-55575000D01*
X140890000Y-55700000D01*
X140690000Y-55700000D01*
X140690000Y-55575000D01*
X140689999Y-55574999D01*
X140656496Y-55575000D01*
X140656495Y-55575001D01*
X140609094Y-55584428D01*
X140555343Y-55620343D01*
X140519428Y-55674094D01*
X140519427Y-55674097D01*
X140514274Y-55699999D01*
X138718905Y-55699999D01*
X140921634Y-53497269D01*
X143099500Y-53497269D01*
X143099500Y-53602730D01*
X143126792Y-53704585D01*
X143126793Y-53704589D01*
X143179520Y-53795913D01*
X143254086Y-53870479D01*
X143255328Y-53871432D01*
X143255722Y-53872115D01*
X143256358Y-53872751D01*
X143256187Y-53872921D01*
X143274081Y-53903910D01*
X143274500Y-53910307D01*
X143274500Y-55081187D01*
X143274499Y-55081201D01*
X143274499Y-55174855D01*
X143294138Y-55222265D01*
X143308830Y-55257735D01*
X143308831Y-55257736D01*
X143308831Y-55257737D01*
X143379155Y-55328060D01*
X143379157Y-55328061D01*
X143805149Y-55754053D01*
X143819501Y-55788701D01*
X143819501Y-56375500D01*
X143805149Y-56410148D01*
X143770502Y-56424500D01*
X143688483Y-56424500D01*
X143594697Y-56439353D01*
X143481665Y-56496945D01*
X143481658Y-56496950D01*
X143391951Y-56586657D01*
X143391946Y-56586664D01*
X143334356Y-56699690D01*
X143334356Y-56699692D01*
X143319501Y-56793482D01*
X143319501Y-57381517D01*
X143334354Y-57475303D01*
X143391946Y-57588335D01*
X143391951Y-57588342D01*
X143481658Y-57678049D01*
X143481665Y-57678054D01*
X143594692Y-57735644D01*
X143594693Y-57735644D01*
X143594697Y-57735646D01*
X143688482Y-57750500D01*
X144651519Y-57750499D01*
X144745305Y-57735646D01*
X144806388Y-57704522D01*
X144858336Y-57678054D01*
X144858338Y-57678052D01*
X144858343Y-57678050D01*
X144948051Y-57588342D01*
X144948055Y-57588335D01*
X145005645Y-57475309D01*
X145005645Y-57475307D01*
X145005647Y-57475304D01*
X145020501Y-57381519D01*
X145020500Y-56793482D01*
X145005647Y-56699696D01*
X144961830Y-56613700D01*
X144948055Y-56586664D01*
X144948050Y-56586657D01*
X144858343Y-56496950D01*
X144858336Y-56496945D01*
X144745309Y-56439355D01*
X144745306Y-56439354D01*
X144745305Y-56439354D01*
X144651520Y-56424500D01*
X144651518Y-56424500D01*
X144569501Y-56424500D01*
X144534853Y-56410148D01*
X144520501Y-56375500D01*
X144520501Y-55900000D01*
X144734278Y-55900000D01*
X144739429Y-55925905D01*
X144775344Y-55979656D01*
X144829095Y-56015571D01*
X144829094Y-56015571D01*
X144876496Y-56024999D01*
X145110001Y-56024999D01*
X145143505Y-56024999D01*
X145190906Y-56015571D01*
X145244657Y-55979656D01*
X145280572Y-55925905D01*
X145280573Y-55925902D01*
X145285726Y-55900000D01*
X145110001Y-55900000D01*
X145110001Y-56024999D01*
X144876496Y-56024999D01*
X144910001Y-56024998D01*
X144910001Y-55900000D01*
X144734278Y-55900000D01*
X144520501Y-55900000D01*
X144520501Y-55753853D01*
X144520500Y-55753852D01*
X144512998Y-55725852D01*
X144506070Y-55699999D01*
X144734275Y-55699999D01*
X144734275Y-55700000D01*
X144910001Y-55700000D01*
X145110001Y-55700000D01*
X145285724Y-55700000D01*
X145280572Y-55674094D01*
X145244657Y-55620343D01*
X145190906Y-55584428D01*
X145190907Y-55584428D01*
X145143505Y-55575000D01*
X145110001Y-55575000D01*
X145110001Y-55700000D01*
X144910001Y-55700000D01*
X144910001Y-55575000D01*
X144910000Y-55574999D01*
X144876497Y-55575000D01*
X144876496Y-55575001D01*
X144829095Y-55584428D01*
X144775344Y-55620343D01*
X144739429Y-55674094D01*
X144739428Y-55674097D01*
X144734275Y-55699999D01*
X144506070Y-55699999D01*
X144499129Y-55674094D01*
X144496615Y-55664712D01*
X144450470Y-55584788D01*
X144385213Y-55519531D01*
X144359330Y-55504587D01*
X144305290Y-55473386D01*
X144305287Y-55473385D01*
X144216148Y-55449500D01*
X144216145Y-55449500D01*
X144158702Y-55449500D01*
X144124054Y-55435148D01*
X143739852Y-55050946D01*
X143725500Y-55016298D01*
X143725500Y-53910307D01*
X143739852Y-53875659D01*
X143744672Y-53871432D01*
X143745907Y-53870483D01*
X143745913Y-53870480D01*
X143820480Y-53795913D01*
X143873207Y-53704587D01*
X143900499Y-53602730D01*
X143900500Y-53602730D01*
X143900500Y-53497270D01*
X143900499Y-53497269D01*
X143873207Y-53395414D01*
X143873206Y-53395410D01*
X143820479Y-53304086D01*
X143745913Y-53229520D01*
X143654589Y-53176793D01*
X143654585Y-53176792D01*
X143552730Y-53149500D01*
X143552727Y-53149500D01*
X143447273Y-53149500D01*
X143447270Y-53149500D01*
X143345414Y-53176792D01*
X143345410Y-53176793D01*
X143254086Y-53229520D01*
X143254086Y-53229521D01*
X143179521Y-53304086D01*
X143179520Y-53304086D01*
X143126793Y-53395410D01*
X143126792Y-53395414D01*
X143099500Y-53497269D01*
X140921634Y-53497269D01*
X141354676Y-53064227D01*
X141389323Y-53049876D01*
X141395721Y-53050296D01*
X141397270Y-53050500D01*
X141397273Y-53050500D01*
X141502730Y-53050500D01*
X141502730Y-53050499D01*
X141604587Y-53023207D01*
X141695913Y-52970480D01*
X141770480Y-52895913D01*
X141823207Y-52804587D01*
X141850499Y-52702730D01*
X141850500Y-52702730D01*
X141850500Y-52597270D01*
X141850499Y-52597269D01*
X141823207Y-52495414D01*
X141823206Y-52495410D01*
X141770479Y-52404086D01*
X141695913Y-52329520D01*
X141604589Y-52276793D01*
X141604585Y-52276792D01*
X141502730Y-52249500D01*
X141502727Y-52249500D01*
X141397273Y-52249500D01*
X141397270Y-52249500D01*
X141295414Y-52276792D01*
X141295410Y-52276793D01*
X141204086Y-52329520D01*
X141204086Y-52329521D01*
X141129521Y-52404086D01*
X141129520Y-52404086D01*
X141076793Y-52495410D01*
X141076792Y-52495414D01*
X141049500Y-52597269D01*
X141049500Y-52702732D01*
X141049704Y-52704283D01*
X141049500Y-52705044D01*
X141049500Y-52705938D01*
X141049260Y-52705938D01*
X141039994Y-52740507D01*
X141035771Y-52745322D01*
X139834148Y-53946946D01*
X139799500Y-53961298D01*
X139764852Y-53946946D01*
X139750500Y-53912298D01*
X139750500Y-51335176D01*
X143899500Y-51335176D01*
X143899500Y-52364823D01*
X143908232Y-52408721D01*
X143941495Y-52458504D01*
X143991278Y-52491767D01*
X144035180Y-52500500D01*
X145064820Y-52500500D01*
X145108722Y-52491767D01*
X145158504Y-52458504D01*
X145191767Y-52408722D01*
X145200500Y-52364820D01*
X145200500Y-51335180D01*
X145191767Y-51291278D01*
X145158504Y-51241495D01*
X145108721Y-51208232D01*
X145064823Y-51199500D01*
X145064820Y-51199500D01*
X144035180Y-51199500D01*
X144035176Y-51199500D01*
X143991278Y-51208232D01*
X143941495Y-51241495D01*
X143908232Y-51291278D01*
X143899500Y-51335176D01*
X139750500Y-51335176D01*
X139750500Y-49735176D01*
X143899500Y-49735176D01*
X143899500Y-50764823D01*
X143908232Y-50808721D01*
X143941495Y-50858504D01*
X143991278Y-50891767D01*
X144035180Y-50900500D01*
X145064820Y-50900500D01*
X145108722Y-50891767D01*
X145158504Y-50858504D01*
X145191767Y-50808722D01*
X145200500Y-50764820D01*
X145200500Y-49735180D01*
X145191767Y-49691278D01*
X145158504Y-49641495D01*
X145108721Y-49608232D01*
X145064823Y-49599500D01*
X145064820Y-49599500D01*
X144035180Y-49599500D01*
X144035176Y-49599500D01*
X143991278Y-49608232D01*
X143941495Y-49641495D01*
X143908232Y-49691278D01*
X143899500Y-49735176D01*
X139750500Y-49735176D01*
X139750500Y-37886189D01*
X139764852Y-37851541D01*
X139770479Y-37845914D01*
X139770480Y-37845913D01*
X139823207Y-37754587D01*
X139850499Y-37652730D01*
X139850500Y-37652730D01*
X139850500Y-37547270D01*
X139850499Y-37547269D01*
X139823207Y-37445414D01*
X139823206Y-37445410D01*
X139770479Y-37354086D01*
X139695913Y-37279520D01*
X139604589Y-37226793D01*
X139604585Y-37226792D01*
X139502730Y-37199500D01*
X139502727Y-37199500D01*
X139397273Y-37199500D01*
X139397270Y-37199500D01*
X139295414Y-37226792D01*
X139295410Y-37226793D01*
X139204086Y-37279520D01*
X139204086Y-37279521D01*
X139129521Y-37354086D01*
X139129520Y-37354086D01*
X139076793Y-37445410D01*
X139076792Y-37445414D01*
X139049500Y-37547269D01*
X139049500Y-37555232D01*
X139035148Y-37589880D01*
X137564807Y-39060221D01*
X137530159Y-39074573D01*
X137495511Y-39060221D01*
X137481159Y-39025573D01*
X137481159Y-39001729D01*
X137481158Y-39001728D01*
X137453866Y-38899873D01*
X137453865Y-38899870D01*
X137420027Y-38841262D01*
X137415131Y-38804080D01*
X137427812Y-38782116D01*
X137722846Y-38487084D01*
X137757359Y-38403762D01*
X137757359Y-38313574D01*
X137757359Y-35721504D01*
X137761089Y-35702752D01*
X137771933Y-35676572D01*
X137773241Y-35673415D01*
X137773241Y-35583228D01*
X137773241Y-35313448D01*
X137787593Y-35278800D01*
X137851138Y-35215255D01*
X137851139Y-35215254D01*
X137896801Y-35136164D01*
X137903865Y-35123930D01*
X137903865Y-35123929D01*
X137903866Y-35123928D01*
X137931158Y-35022071D01*
X137931159Y-35022071D01*
X137931159Y-34984388D01*
X137945511Y-34949740D01*
X137974481Y-34935718D01*
X138024917Y-34929837D01*
X138067700Y-34918507D01*
X139935275Y-34125202D01*
X139937199Y-34124370D01*
X139940230Y-34123034D01*
X139979342Y-34098262D01*
X140032146Y-34052507D01*
X140037621Y-34047529D01*
X140079516Y-33978799D01*
X140099201Y-33911760D01*
X140105500Y-33867949D01*
X140105500Y-31434633D01*
X140105441Y-31430332D01*
X140105251Y-31423465D01*
X140096355Y-31375759D01*
X140072987Y-31309912D01*
X140070348Y-31303000D01*
X140021608Y-31238941D01*
X139966353Y-31196182D01*
X139966351Y-31196181D01*
X139966346Y-31196177D01*
X139927856Y-31174354D01*
X139927853Y-31174353D01*
X139927851Y-31174352D01*
X134278452Y-28963717D01*
X134278450Y-28963716D01*
X134278444Y-28963714D01*
X134250623Y-28955722D01*
X134250624Y-28955722D01*
X134205421Y-28947194D01*
X134176609Y-28944500D01*
X134176603Y-28944500D01*
X133336851Y-28944500D01*
X133336842Y-28944500D01*
X133316575Y-28945827D01*
X133316545Y-28945830D01*
X133300000Y-28948008D01*
X133300000Y-27700000D01*
X126950699Y-27700000D01*
X126950532Y-25151512D01*
X136427500Y-25151512D01*
X136427500Y-26050000D01*
X136833129Y-26050000D01*
X136827500Y-26071009D01*
X136827500Y-26228991D01*
X136833129Y-26250000D01*
X136427500Y-26250000D01*
X136427500Y-27148487D01*
X136465929Y-27341689D01*
X136465929Y-27341690D01*
X136541309Y-27523674D01*
X136650746Y-27687460D01*
X136790039Y-27826753D01*
X136953825Y-27936190D01*
X137135810Y-28011570D01*
X137327500Y-28049698D01*
X137327500Y-26744370D01*
X137348509Y-26750000D01*
X137506491Y-26750000D01*
X137527500Y-26744370D01*
X137527500Y-28049698D01*
X137719189Y-28011570D01*
X137719190Y-28011570D01*
X137901174Y-27936190D01*
X138064960Y-27826753D01*
X138204253Y-27687460D01*
X138313690Y-27523674D01*
X138389070Y-27341690D01*
X138389070Y-27341689D01*
X138427500Y-27148487D01*
X138427500Y-26250000D01*
X138021871Y-26250000D01*
X138027500Y-26228991D01*
X138027500Y-26071009D01*
X138021871Y-26050000D01*
X138427500Y-26050000D01*
X138427500Y-25151512D01*
X138389070Y-24958310D01*
X138389070Y-24958309D01*
X138313690Y-24776325D01*
X138204253Y-24612539D01*
X138064960Y-24473246D01*
X137901174Y-24363809D01*
X137719190Y-24288429D01*
X137719179Y-24288426D01*
X137527500Y-24250299D01*
X137527500Y-25555629D01*
X137506491Y-25550000D01*
X137348509Y-25550000D01*
X137327500Y-25555629D01*
X137327500Y-24250299D01*
X137327499Y-24250299D01*
X137135820Y-24288426D01*
X137135809Y-24288429D01*
X136953825Y-24363809D01*
X136790039Y-24473246D01*
X136650746Y-24612539D01*
X136541309Y-24776325D01*
X136465929Y-24958309D01*
X136465929Y-24958310D01*
X136427500Y-25151512D01*
X126950532Y-25151512D01*
X126950532Y-25150946D01*
X126950622Y-25147978D01*
X126950734Y-25146133D01*
X126962095Y-24958309D01*
X126967088Y-24875766D01*
X126967799Y-24869913D01*
X127016785Y-24602603D01*
X127018197Y-24596873D01*
X127099050Y-24337408D01*
X127101143Y-24331890D01*
X127212683Y-24084059D01*
X127215418Y-24078846D01*
X127356020Y-23846263D01*
X127359372Y-23841407D01*
X127526980Y-23627471D01*
X127530888Y-23623060D01*
X127723060Y-23430888D01*
X127727471Y-23426980D01*
X127941407Y-23259372D01*
X127946263Y-23256020D01*
X128178846Y-23115418D01*
X128184059Y-23112683D01*
X128431890Y-23001143D01*
X128437408Y-22999050D01*
X128696873Y-22918197D01*
X128702603Y-22916785D01*
X128969913Y-22867799D01*
X128975768Y-22867087D01*
X129210266Y-22852903D01*
X129248530Y-22850589D01*
X129251488Y-22850500D01*
X129289882Y-22850500D01*
X139545500Y-22850500D01*
X139580148Y-22864852D01*
G37*
%TD.AperFunction*%
%TA.AperFunction,Conductor*%
G36*
X131784842Y-28958648D02*
G01*
X131768945Y-28969270D01*
X131729399Y-28985649D01*
X131672477Y-29026181D01*
X131666554Y-29030615D01*
X131666550Y-29030619D01*
X131618317Y-29095053D01*
X131592352Y-29159911D01*
X131589763Y-29166851D01*
X131589762Y-29166851D01*
X131586391Y-29213996D01*
X131569604Y-29247532D01*
X131537516Y-29259500D01*
X131464105Y-29259500D01*
X131336815Y-29293607D01*
X131336811Y-29293608D01*
X131222685Y-29359500D01*
X131222685Y-29359501D01*
X131129501Y-29452685D01*
X131129500Y-29452685D01*
X131063608Y-29566811D01*
X131063607Y-29566815D01*
X131029500Y-29694104D01*
X131029500Y-29825895D01*
X131038540Y-29859633D01*
X131033645Y-29896815D01*
X131003892Y-29919645D01*
X130999334Y-29920637D01*
X130993061Y-29921691D01*
X130920661Y-29956861D01*
X130920657Y-29956863D01*
X130867868Y-30002605D01*
X130867854Y-30002618D01*
X130862379Y-30007596D01*
X130820484Y-30076326D01*
X130820483Y-30076328D01*
X130820483Y-30076329D01*
X130800798Y-30143365D01*
X130800798Y-30143367D01*
X130794500Y-30187171D01*
X130794500Y-35112831D01*
X130794598Y-35118350D01*
X130794915Y-35127226D01*
X130794916Y-35127232D01*
X130804619Y-35176007D01*
X130804623Y-35176023D01*
X130829029Y-35241458D01*
X130831787Y-35248344D01*
X130831788Y-35248347D01*
X130881541Y-35311614D01*
X130881546Y-35311619D01*
X130937471Y-35353485D01*
X130937477Y-35353489D01*
X130943508Y-35357784D01*
X131007613Y-35379970D01*
X131035662Y-35404864D01*
X131038918Y-35438956D01*
X131029500Y-35474107D01*
X131029500Y-35605895D01*
X131063607Y-35733184D01*
X131063608Y-35733188D01*
X131104415Y-35803866D01*
X131129500Y-35847314D01*
X131222686Y-35940500D01*
X131264457Y-35964617D01*
X131336811Y-36006391D01*
X131336813Y-36006391D01*
X131336814Y-36006392D01*
X131437207Y-36033292D01*
X131464104Y-36040499D01*
X131464105Y-36040500D01*
X131464108Y-36040500D01*
X131536077Y-36040500D01*
X131570725Y-36054852D01*
X131584577Y-36082524D01*
X131587019Y-36099507D01*
X131593438Y-36144150D01*
X131594663Y-36151437D01*
X131594663Y-36151438D01*
X131594664Y-36151440D01*
X131629835Y-36223842D01*
X131675590Y-36276646D01*
X131680568Y-36282121D01*
X131749298Y-36324016D01*
X131766221Y-36328985D01*
X131792299Y-36350000D01*
X126951267Y-36350000D01*
X126950781Y-28950000D01*
X131788424Y-28950000D01*
X131784842Y-28958648D01*
G37*
%TD.AperFunction*%
%TA.AperFunction,Conductor*%
G36*
X148830148Y-31584410D02*
G01*
X148844500Y-31619058D01*
X148844500Y-32669130D01*
X148831247Y-32702643D01*
X148781102Y-32756131D01*
X148746935Y-32771593D01*
X148720855Y-32765053D01*
X148720349Y-32764761D01*
X148705402Y-32756131D01*
X148654589Y-32726793D01*
X148654585Y-32726792D01*
X148552730Y-32699500D01*
X148552727Y-32699500D01*
X148450000Y-32699500D01*
X148450000Y-31204262D01*
X148830148Y-31584410D01*
G37*
%TD.AperFunction*%
%TD*%
%TA.AperFunction,Conductor*%
%TO.N,GND*%
G36*
X133300000Y-28950000D02*
G01*
X126950783Y-28950000D01*
X126950700Y-27700000D01*
X133300000Y-27700000D01*
X133300000Y-28950000D01*
G37*
%TD.AperFunction*%
%TD*%
%TA.AperFunction,Conductor*%
%TO.N,VIN*%
G36*
X149751601Y-22850604D02*
G01*
X149981683Y-22865685D01*
X149988017Y-22866518D01*
X150212609Y-22911192D01*
X150218769Y-22912842D01*
X150435605Y-22986449D01*
X150441517Y-22988898D01*
X150646878Y-23090171D01*
X150652413Y-23093366D01*
X150831014Y-23212704D01*
X150842796Y-23220577D01*
X150847881Y-23224479D01*
X151020024Y-23375443D01*
X151024556Y-23379975D01*
X151175520Y-23552118D01*
X151179422Y-23557203D01*
X151306628Y-23747578D01*
X151309833Y-23753129D01*
X151411099Y-23958478D01*
X151413552Y-23964399D01*
X151487154Y-24181221D01*
X151488809Y-24187400D01*
X151521053Y-24349500D01*
X151533478Y-24411964D01*
X151534314Y-24418318D01*
X151549395Y-24648398D01*
X151549500Y-24651603D01*
X151549500Y-26895500D01*
X151535148Y-26930148D01*
X151500500Y-26944500D01*
X150609739Y-26944500D01*
X150608016Y-26944556D01*
X150599579Y-26944832D01*
X150599085Y-26944864D01*
X150598618Y-26944895D01*
X150595413Y-26945000D01*
X150504587Y-26945000D01*
X150501381Y-26944895D01*
X150500850Y-26944860D01*
X150500420Y-26944832D01*
X150492060Y-26944558D01*
X150490261Y-26944500D01*
X150490257Y-26944500D01*
X148899000Y-26944500D01*
X148864352Y-26930148D01*
X148850000Y-26895500D01*
X148850000Y-25674556D01*
X148864352Y-25639908D01*
X149339408Y-25164852D01*
X149374056Y-25150500D01*
X149452730Y-25150500D01*
X149452730Y-25150499D01*
X149554587Y-25123207D01*
X149645913Y-25070480D01*
X149720480Y-24995913D01*
X149773207Y-24904587D01*
X149800499Y-24802730D01*
X149800500Y-24802730D01*
X149800500Y-24697270D01*
X149800499Y-24697269D01*
X149773207Y-24595414D01*
X149773206Y-24595410D01*
X149720479Y-24504086D01*
X149645913Y-24429520D01*
X149554589Y-24376793D01*
X149554585Y-24376792D01*
X149452730Y-24349500D01*
X149452727Y-24349500D01*
X149347273Y-24349500D01*
X149347270Y-24349500D01*
X149245414Y-24376792D01*
X149245410Y-24376793D01*
X149154086Y-24429520D01*
X149154086Y-24429521D01*
X149079521Y-24504086D01*
X149079520Y-24504086D01*
X149026793Y-24595410D01*
X149026792Y-24595414D01*
X148999500Y-24697269D01*
X148999500Y-24775943D01*
X148985148Y-24810591D01*
X148907517Y-24888221D01*
X148872869Y-24902573D01*
X148866657Y-24900000D01*
X148850000Y-24900000D01*
X143950000Y-24900000D01*
X142873064Y-26895500D01*
X142263885Y-28024272D01*
X142234800Y-28047947D01*
X142220764Y-28050000D01*
X139799000Y-28050000D01*
X139764352Y-28035648D01*
X139750000Y-28001000D01*
X139750000Y-22899500D01*
X139764352Y-22864852D01*
X139799000Y-22850500D01*
X149710118Y-22850500D01*
X149748397Y-22850500D01*
X149751601Y-22850604D01*
G37*
%TD.AperFunction*%
%TD*%
M02*
