%TF.GenerationSoftware,KiCad,Pcbnew,9.0.7*%
%TF.CreationDate,2026-03-04T21:31:56-06:00*%
%TF.ProjectId,esphome-fan-controller,65737068-6f6d-4652-9d66-616e2d636f6e,-*%
%TF.SameCoordinates,Original*%
%TF.FileFunction,Legend,Top*%
%TF.FilePolarity,Positive*%
%FSLAX46Y46*%
G04 Gerber Fmt 4.6, Leading zero omitted, Abs format (unit mm)*
G04 Created by KiCad (PCBNEW 9.0.7) date 2026-03-04 21:31:56*
%MOMM*%
%LPD*%
G01*
G04 APERTURE LIST*
%ADD10C,0.200000*%
%ADD11C,0.250000*%
%ADD12C,0.150000*%
%ADD13C,0.120000*%
%ADD14C,0.127000*%
%ADD15C,0.100000*%
G04 APERTURE END LIST*
D10*
X141237500Y-28650000D02*
X141237500Y-29350000D01*
X140837500Y-29000000D02*
X141637500Y-29000000D01*
X137037500Y-29050000D02*
X137837500Y-29050000D01*
D11*
G36*
X149339985Y-47508849D02*
G01*
X149409959Y-47532555D01*
X149471812Y-47571091D01*
X149517729Y-47615255D01*
X149552729Y-47664788D01*
X149577997Y-47720274D01*
X149594467Y-47684691D01*
X149616820Y-47653697D01*
X149645713Y-47626852D01*
X149694750Y-47599709D01*
X149746280Y-47590801D01*
X149796287Y-47597525D01*
X149839519Y-47616964D01*
X149877529Y-47649238D01*
X149911187Y-47696051D01*
X149940575Y-47760501D01*
X149965697Y-47849890D01*
X149982339Y-47962968D01*
X149988447Y-48104737D01*
X149982808Y-48291332D01*
X149965000Y-48499018D01*
X149444884Y-48522759D01*
X148913778Y-48559688D01*
X148896833Y-48393654D01*
X148890331Y-48165407D01*
X148896625Y-48005599D01*
X149285027Y-48005599D01*
X149488237Y-48017836D01*
X149487311Y-47997392D01*
X149632829Y-47997392D01*
X149634173Y-48026042D01*
X149800868Y-48030951D01*
X149798236Y-47961300D01*
X149786798Y-47914966D01*
X149768894Y-47885164D01*
X149744600Y-47867595D01*
X149711720Y-47861325D01*
X149678421Y-47869149D01*
X149654963Y-47891422D01*
X149639142Y-47931300D01*
X149632829Y-47997392D01*
X149487311Y-47997392D01*
X149484836Y-47942789D01*
X149471936Y-47892662D01*
X149451968Y-47860257D01*
X149424918Y-47841072D01*
X149388342Y-47834214D01*
X149355944Y-47840029D01*
X149329913Y-47856712D01*
X149308658Y-47885065D01*
X149295475Y-47917053D01*
X149287345Y-47956616D01*
X149285027Y-48005599D01*
X148896625Y-48005599D01*
X148896800Y-48001163D01*
X148914505Y-47868887D01*
X148941300Y-47763381D01*
X148975659Y-47680085D01*
X149016775Y-47615206D01*
X149064634Y-47565892D01*
X149120024Y-47530425D01*
X149184462Y-47508366D01*
X149260054Y-47500602D01*
X149339985Y-47508849D01*
G37*
G36*
X149514606Y-46353133D02*
G01*
X149602920Y-46371761D01*
X149683619Y-46401886D01*
X149757648Y-46443218D01*
X149825781Y-46495885D01*
X149890333Y-46564251D01*
X149938660Y-46637527D01*
X149972621Y-46716424D01*
X149993147Y-46802240D01*
X150000170Y-46896761D01*
X149993011Y-46994434D01*
X149972169Y-47082369D01*
X149937838Y-47162477D01*
X149889190Y-47236152D01*
X149824438Y-47304158D01*
X149756949Y-47355834D01*
X149683394Y-47396463D01*
X149602980Y-47426128D01*
X149514746Y-47444500D01*
X149417590Y-47450850D01*
X149312798Y-47443597D01*
X149221692Y-47423000D01*
X149142359Y-47390362D01*
X149073166Y-47346368D01*
X149012819Y-47291042D01*
X148963230Y-47227199D01*
X148925047Y-47156950D01*
X148897531Y-47079394D01*
X148880573Y-46993214D01*
X148874699Y-46896761D01*
X148874803Y-46895076D01*
X149347554Y-46895076D01*
X149352427Y-46939070D01*
X149366205Y-46974024D01*
X149389075Y-47002173D01*
X149423064Y-47024257D01*
X149471704Y-47039369D01*
X149539651Y-47045138D01*
X149590129Y-47040699D01*
X149637747Y-47027582D01*
X149683082Y-47005791D01*
X149727693Y-46970780D01*
X149750684Y-46934971D01*
X149757882Y-46896761D01*
X149750729Y-46859435D01*
X149727466Y-46822835D01*
X149681739Y-46785240D01*
X149634454Y-46760426D01*
X149586840Y-46745829D01*
X149538307Y-46740983D01*
X149471265Y-46746823D01*
X149423099Y-46762156D01*
X149389268Y-46784655D01*
X149366362Y-46813497D01*
X149352481Y-46849524D01*
X149347554Y-46895076D01*
X148874803Y-46895076D01*
X148880556Y-46802146D01*
X148897506Y-46717229D01*
X148925088Y-46640422D01*
X148963480Y-46570467D01*
X149013490Y-46506510D01*
X149074127Y-46451103D01*
X149143436Y-46407092D01*
X149222678Y-46374484D01*
X149313442Y-46353931D01*
X149417590Y-46346702D01*
X149514606Y-46353133D01*
G37*
G36*
X149514606Y-45191318D02*
G01*
X149602920Y-45209946D01*
X149683619Y-45240072D01*
X149757648Y-45281403D01*
X149825781Y-45334071D01*
X149890333Y-45402437D01*
X149938660Y-45475712D01*
X149972621Y-45554609D01*
X149993147Y-45640426D01*
X150000170Y-45734946D01*
X149993011Y-45832619D01*
X149972169Y-45920554D01*
X149937838Y-46000663D01*
X149889190Y-46074337D01*
X149824438Y-46142344D01*
X149756949Y-46194020D01*
X149683394Y-46234648D01*
X149602980Y-46264313D01*
X149514746Y-46282685D01*
X149417590Y-46289036D01*
X149312798Y-46281783D01*
X149221692Y-46261185D01*
X149142359Y-46228548D01*
X149073166Y-46184553D01*
X149012819Y-46129228D01*
X148963230Y-46065384D01*
X148925047Y-45995136D01*
X148897531Y-45917579D01*
X148880573Y-45831400D01*
X148874699Y-45734946D01*
X148874803Y-45733261D01*
X149347554Y-45733261D01*
X149352427Y-45777256D01*
X149366205Y-45812210D01*
X149389075Y-45840359D01*
X149423064Y-45862442D01*
X149471704Y-45877555D01*
X149539651Y-45883324D01*
X149590129Y-45878885D01*
X149637747Y-45865768D01*
X149683082Y-45843976D01*
X149727693Y-45808966D01*
X149750684Y-45773157D01*
X149757882Y-45734946D01*
X149750729Y-45697621D01*
X149727466Y-45661020D01*
X149681739Y-45623425D01*
X149634454Y-45598612D01*
X149586840Y-45584015D01*
X149538307Y-45579168D01*
X149471265Y-45585008D01*
X149423099Y-45600342D01*
X149389268Y-45622840D01*
X149366362Y-45651682D01*
X149352481Y-45687710D01*
X149347554Y-45733261D01*
X148874803Y-45733261D01*
X148880556Y-45640331D01*
X148897506Y-45555415D01*
X148925088Y-45478608D01*
X148963480Y-45408653D01*
X149013490Y-45344695D01*
X149074127Y-45289288D01*
X149143436Y-45245278D01*
X149222678Y-45212669D01*
X149313442Y-45192116D01*
X149417590Y-45184887D01*
X149514606Y-45191318D01*
G37*
G36*
X148913778Y-44121405D02*
G01*
X149343646Y-44145219D01*
X149332472Y-44247654D01*
X149328014Y-44388631D01*
X149523653Y-44405850D01*
X149965000Y-44435379D01*
X149965000Y-44832152D01*
X149529148Y-44856698D01*
X149328014Y-44873917D01*
X149332472Y-45003464D01*
X149343646Y-45120700D01*
X148913778Y-45141217D01*
X148913778Y-44121405D01*
G37*
G36*
X147527034Y-63713778D02*
G01*
X147493475Y-64143646D01*
X147364735Y-64131006D01*
X147225370Y-64128014D01*
X147211448Y-64350764D01*
X147307337Y-64349347D01*
X147472153Y-64340566D01*
X147446727Y-64441439D01*
X147427090Y-64541639D01*
X147321358Y-64529366D01*
X147200018Y-64526618D01*
X147193423Y-64765000D01*
X146733563Y-64765000D01*
X146708137Y-64228459D01*
X146696935Y-64025383D01*
X146671281Y-63713778D01*
X147527034Y-63713778D01*
G37*
G36*
X148434006Y-64215087D02*
G01*
X148590590Y-64765000D01*
X148142160Y-64765000D01*
X148111898Y-64677072D01*
X148017596Y-64717616D01*
X147968706Y-64745711D01*
X147910178Y-64784783D01*
X147863503Y-64702962D01*
X147823350Y-64634696D01*
X147779020Y-64765000D01*
X147541323Y-64765000D01*
X147597126Y-64573574D01*
X147847896Y-64573574D01*
X147959418Y-64564842D01*
X148012676Y-64556185D01*
X148073357Y-64542250D01*
X148024191Y-64424220D01*
X147959418Y-64299289D01*
X147900360Y-64430570D01*
X147847896Y-64573574D01*
X147597126Y-64573574D01*
X147703622Y-64208248D01*
X147766199Y-63950525D01*
X147815949Y-63713778D01*
X148308636Y-63713778D01*
X148434006Y-64215087D01*
G37*
G36*
X149628353Y-63713778D02*
G01*
X149596406Y-64197135D01*
X149575890Y-64780631D01*
X149248800Y-64569056D01*
X148965161Y-64401566D01*
X148957027Y-64765000D01*
X148693025Y-64765000D01*
X148662690Y-64240732D01*
X148620925Y-63713778D01*
X149032425Y-63713778D01*
X149337387Y-63956067D01*
X149334090Y-63825275D01*
X149324271Y-63713778D01*
X149628353Y-63713778D01*
G37*
G36*
X149369792Y-55674057D02*
G01*
X149427143Y-55689992D01*
X149480611Y-55716232D01*
X149530858Y-55753101D01*
X149582621Y-55807620D01*
X149622934Y-55869630D01*
X149652735Y-55940020D01*
X149782306Y-55822784D01*
X149829943Y-55768944D01*
X149900519Y-55680121D01*
X149959260Y-55849821D01*
X150027526Y-56022745D01*
X149902107Y-56128551D01*
X149726618Y-56239193D01*
X149726618Y-56240805D01*
X149965000Y-56249012D01*
X149965000Y-56710558D01*
X149472911Y-56735983D01*
X149251530Y-56746888D01*
X148913778Y-56769542D01*
X148898873Y-56548602D01*
X148894239Y-56358042D01*
X148899677Y-56227690D01*
X149343646Y-56227690D01*
X149578119Y-56232599D01*
X149571621Y-56167509D01*
X149552779Y-56111332D01*
X149526759Y-56071641D01*
X149494747Y-56048754D01*
X149454715Y-56040844D01*
X149414603Y-56048464D01*
X149384346Y-56069961D01*
X149361475Y-56106423D01*
X149347077Y-56158618D01*
X149343646Y-56227690D01*
X148899677Y-56227690D01*
X148901234Y-56190368D01*
X148920433Y-56054675D01*
X148949622Y-55945759D01*
X148987290Y-55859093D01*
X149032731Y-55790971D01*
X149086108Y-55738694D01*
X149148441Y-55700765D01*
X149221518Y-55677013D01*
X149307742Y-55668618D01*
X149369792Y-55674057D01*
G37*
G36*
X148913778Y-54759082D02*
G01*
X149343646Y-54794326D01*
X149330396Y-54925484D01*
X149324106Y-55076353D01*
X149456974Y-55088663D01*
X149453555Y-54794326D01*
X149548016Y-54823049D01*
X149644553Y-54843565D01*
X149630509Y-54962414D01*
X149628921Y-55093572D01*
X149781329Y-55101779D01*
X149773086Y-54875512D01*
X149757882Y-54773004D01*
X149859731Y-54803338D01*
X149965000Y-54831255D01*
X149965000Y-55564937D01*
X149428459Y-55588677D01*
X149225966Y-55598842D01*
X148913778Y-55620624D01*
X148913778Y-54759082D01*
G37*
G36*
X149343646Y-53908237D02*
G01*
X149334362Y-53965491D01*
X149331922Y-54000048D01*
X149337304Y-54036623D01*
X149353843Y-54070537D01*
X149373514Y-54092027D01*
X149396231Y-54104710D01*
X149423025Y-54109078D01*
X149444749Y-54104127D01*
X149484005Y-54083977D01*
X149549787Y-54038590D01*
X149614306Y-53997479D01*
X149671295Y-53975020D01*
X149722405Y-53968028D01*
X149777716Y-53974711D01*
X149826585Y-53994106D01*
X149870396Y-54026182D01*
X149910045Y-54072149D01*
X149940569Y-54123926D01*
X149962478Y-54181284D01*
X149975959Y-54245271D01*
X149980631Y-54317246D01*
X149975896Y-54442879D01*
X149964694Y-54515669D01*
X149860952Y-54541095D01*
X149757882Y-54573042D01*
X149773757Y-54489748D01*
X149777421Y-54451702D01*
X149771463Y-54393256D01*
X149756336Y-54357386D01*
X149733420Y-54336885D01*
X149700240Y-54329556D01*
X149664511Y-54334932D01*
X149631382Y-54351010D01*
X149599918Y-54378722D01*
X149481765Y-54539410D01*
X149432497Y-54597176D01*
X149381199Y-54640473D01*
X149327419Y-54670811D01*
X149270449Y-54689017D01*
X149209373Y-54695188D01*
X149144372Y-54688803D01*
X149088334Y-54670593D01*
X149039665Y-54641290D01*
X148997179Y-54600678D01*
X148960184Y-54547616D01*
X148929450Y-54482060D01*
X148906401Y-54404572D01*
X148891671Y-54313027D01*
X148886423Y-54204919D01*
X148893300Y-54080629D01*
X148915793Y-53932784D01*
X149343646Y-53908237D01*
G37*
G36*
X148913778Y-52982948D02*
G01*
X149343646Y-53018192D01*
X149330396Y-53149350D01*
X149324106Y-53300219D01*
X149456974Y-53312529D01*
X149453555Y-53018192D01*
X149548016Y-53046915D01*
X149644553Y-53067431D01*
X149630509Y-53186280D01*
X149628921Y-53317438D01*
X149781329Y-53325645D01*
X149773086Y-53099378D01*
X149757882Y-52996870D01*
X149859731Y-53027205D01*
X149965000Y-53055121D01*
X149965000Y-53788803D01*
X149428459Y-53812543D01*
X149225966Y-53822708D01*
X148913778Y-53844490D01*
X148913778Y-52982948D01*
G37*
G36*
X148913778Y-51911552D02*
G01*
X149343646Y-51935366D01*
X149332472Y-52037801D01*
X149328014Y-52178778D01*
X149523653Y-52195997D01*
X149965000Y-52225526D01*
X149965000Y-52622299D01*
X149529148Y-52646845D01*
X149328014Y-52664064D01*
X149332472Y-52793611D01*
X149343646Y-52910847D01*
X148913778Y-52931364D01*
X148913778Y-51911552D01*
G37*
D12*
X145954819Y-57135713D02*
X144954819Y-57135713D01*
X144954819Y-57135713D02*
X145669104Y-56935713D01*
X145669104Y-56935713D02*
X144954819Y-56735713D01*
X144954819Y-56735713D02*
X145954819Y-56735713D01*
X145954819Y-56135714D02*
X145954819Y-56478571D01*
X145954819Y-56307142D02*
X144954819Y-56307142D01*
X144954819Y-56307142D02*
X145097676Y-56364285D01*
X145097676Y-56364285D02*
X145192914Y-56421428D01*
X145192914Y-56421428D02*
X145240533Y-56478571D01*
X133804819Y-59199999D02*
X133328628Y-59399999D01*
X133804819Y-59542856D02*
X132804819Y-59542856D01*
X132804819Y-59542856D02*
X132804819Y-59314285D01*
X132804819Y-59314285D02*
X132852438Y-59257142D01*
X132852438Y-59257142D02*
X132900057Y-59228571D01*
X132900057Y-59228571D02*
X132995295Y-59199999D01*
X132995295Y-59199999D02*
X133138152Y-59199999D01*
X133138152Y-59199999D02*
X133233390Y-59228571D01*
X133233390Y-59228571D02*
X133281009Y-59257142D01*
X133281009Y-59257142D02*
X133328628Y-59314285D01*
X133328628Y-59314285D02*
X133328628Y-59542856D01*
X132804819Y-58657142D02*
X132804819Y-58942856D01*
X132804819Y-58942856D02*
X133281009Y-58971428D01*
X133281009Y-58971428D02*
X133233390Y-58942856D01*
X133233390Y-58942856D02*
X133185771Y-58885714D01*
X133185771Y-58885714D02*
X133185771Y-58742856D01*
X133185771Y-58742856D02*
X133233390Y-58685714D01*
X133233390Y-58685714D02*
X133281009Y-58657142D01*
X133281009Y-58657142D02*
X133376247Y-58628571D01*
X133376247Y-58628571D02*
X133614342Y-58628571D01*
X133614342Y-58628571D02*
X133709580Y-58657142D01*
X133709580Y-58657142D02*
X133757200Y-58685714D01*
X133757200Y-58685714D02*
X133804819Y-58742856D01*
X133804819Y-58742856D02*
X133804819Y-58885714D01*
X133804819Y-58885714D02*
X133757200Y-58942856D01*
X133757200Y-58942856D02*
X133709580Y-58971428D01*
X149704820Y-49599999D02*
X149228629Y-49799999D01*
X149704820Y-49942856D02*
X148704820Y-49942856D01*
X148704820Y-49942856D02*
X148704820Y-49714285D01*
X148704820Y-49714285D02*
X148752439Y-49657142D01*
X148752439Y-49657142D02*
X148800058Y-49628571D01*
X148800058Y-49628571D02*
X148895296Y-49599999D01*
X148895296Y-49599999D02*
X149038153Y-49599999D01*
X149038153Y-49599999D02*
X149133391Y-49628571D01*
X149133391Y-49628571D02*
X149181010Y-49657142D01*
X149181010Y-49657142D02*
X149228629Y-49714285D01*
X149228629Y-49714285D02*
X149228629Y-49942856D01*
X149704820Y-49314285D02*
X149704820Y-49199999D01*
X149704820Y-49199999D02*
X149657201Y-49142856D01*
X149657201Y-49142856D02*
X149609581Y-49114285D01*
X149609581Y-49114285D02*
X149466724Y-49057142D01*
X149466724Y-49057142D02*
X149276248Y-49028571D01*
X149276248Y-49028571D02*
X148895296Y-49028571D01*
X148895296Y-49028571D02*
X148800058Y-49057142D01*
X148800058Y-49057142D02*
X148752439Y-49085714D01*
X148752439Y-49085714D02*
X148704820Y-49142856D01*
X148704820Y-49142856D02*
X148704820Y-49257142D01*
X148704820Y-49257142D02*
X148752439Y-49314285D01*
X148752439Y-49314285D02*
X148800058Y-49342856D01*
X148800058Y-49342856D02*
X148895296Y-49371428D01*
X148895296Y-49371428D02*
X149133391Y-49371428D01*
X149133391Y-49371428D02*
X149228629Y-49342856D01*
X149228629Y-49342856D02*
X149276248Y-49314285D01*
X149276248Y-49314285D02*
X149323867Y-49257142D01*
X149323867Y-49257142D02*
X149323867Y-49142856D01*
X149323867Y-49142856D02*
X149276248Y-49085714D01*
X149276248Y-49085714D02*
X149228629Y-49057142D01*
X149228629Y-49057142D02*
X149133391Y-49028571D01*
X139559580Y-57949999D02*
X139607200Y-57978571D01*
X139607200Y-57978571D02*
X139654819Y-58064285D01*
X139654819Y-58064285D02*
X139654819Y-58121428D01*
X139654819Y-58121428D02*
X139607200Y-58207142D01*
X139607200Y-58207142D02*
X139511961Y-58264285D01*
X139511961Y-58264285D02*
X139416723Y-58292856D01*
X139416723Y-58292856D02*
X139226247Y-58321428D01*
X139226247Y-58321428D02*
X139083390Y-58321428D01*
X139083390Y-58321428D02*
X138892914Y-58292856D01*
X138892914Y-58292856D02*
X138797676Y-58264285D01*
X138797676Y-58264285D02*
X138702438Y-58207142D01*
X138702438Y-58207142D02*
X138654819Y-58121428D01*
X138654819Y-58121428D02*
X138654819Y-58064285D01*
X138654819Y-58064285D02*
X138702438Y-57978571D01*
X138702438Y-57978571D02*
X138750057Y-57949999D01*
X138654819Y-57749999D02*
X138654819Y-57349999D01*
X138654819Y-57349999D02*
X139654819Y-57607142D01*
X145119819Y-40459398D02*
X144643628Y-40659398D01*
X145119819Y-40802255D02*
X144119819Y-40802255D01*
X144119819Y-40802255D02*
X144119819Y-40573684D01*
X144119819Y-40573684D02*
X144167438Y-40516541D01*
X144167438Y-40516541D02*
X144215057Y-40487970D01*
X144215057Y-40487970D02*
X144310295Y-40459398D01*
X144310295Y-40459398D02*
X144453152Y-40459398D01*
X144453152Y-40459398D02*
X144548390Y-40487970D01*
X144548390Y-40487970D02*
X144596009Y-40516541D01*
X144596009Y-40516541D02*
X144643628Y-40573684D01*
X144643628Y-40573684D02*
X144643628Y-40802255D01*
X144119819Y-40259398D02*
X144119819Y-39887970D01*
X144119819Y-39887970D02*
X144500771Y-40087970D01*
X144500771Y-40087970D02*
X144500771Y-40002255D01*
X144500771Y-40002255D02*
X144548390Y-39945113D01*
X144548390Y-39945113D02*
X144596009Y-39916541D01*
X144596009Y-39916541D02*
X144691247Y-39887970D01*
X144691247Y-39887970D02*
X144929342Y-39887970D01*
X144929342Y-39887970D02*
X145024580Y-39916541D01*
X145024580Y-39916541D02*
X145072200Y-39945113D01*
X145072200Y-39945113D02*
X145119819Y-40002255D01*
X145119819Y-40002255D02*
X145119819Y-40173684D01*
X145119819Y-40173684D02*
X145072200Y-40230827D01*
X145072200Y-40230827D02*
X145024580Y-40259398D01*
X138559580Y-35849999D02*
X138607200Y-35878571D01*
X138607200Y-35878571D02*
X138654819Y-35964285D01*
X138654819Y-35964285D02*
X138654819Y-36021428D01*
X138654819Y-36021428D02*
X138607200Y-36107142D01*
X138607200Y-36107142D02*
X138511961Y-36164285D01*
X138511961Y-36164285D02*
X138416723Y-36192856D01*
X138416723Y-36192856D02*
X138226247Y-36221428D01*
X138226247Y-36221428D02*
X138083390Y-36221428D01*
X138083390Y-36221428D02*
X137892914Y-36192856D01*
X137892914Y-36192856D02*
X137797676Y-36164285D01*
X137797676Y-36164285D02*
X137702438Y-36107142D01*
X137702438Y-36107142D02*
X137654819Y-36021428D01*
X137654819Y-36021428D02*
X137654819Y-35964285D01*
X137654819Y-35964285D02*
X137702438Y-35878571D01*
X137702438Y-35878571D02*
X137750057Y-35849999D01*
X137654819Y-35307142D02*
X137654819Y-35592856D01*
X137654819Y-35592856D02*
X138131009Y-35621428D01*
X138131009Y-35621428D02*
X138083390Y-35592856D01*
X138083390Y-35592856D02*
X138035771Y-35535714D01*
X138035771Y-35535714D02*
X138035771Y-35392856D01*
X138035771Y-35392856D02*
X138083390Y-35335714D01*
X138083390Y-35335714D02*
X138131009Y-35307142D01*
X138131009Y-35307142D02*
X138226247Y-35278571D01*
X138226247Y-35278571D02*
X138464342Y-35278571D01*
X138464342Y-35278571D02*
X138559580Y-35307142D01*
X138559580Y-35307142D02*
X138607200Y-35335714D01*
X138607200Y-35335714D02*
X138654819Y-35392856D01*
X138654819Y-35392856D02*
X138654819Y-35535714D01*
X138654819Y-35535714D02*
X138607200Y-35592856D01*
X138607200Y-35592856D02*
X138559580Y-35621428D01*
X132604819Y-38607142D02*
X133414342Y-38607142D01*
X133414342Y-38607142D02*
X133509580Y-38578571D01*
X133509580Y-38578571D02*
X133557200Y-38550000D01*
X133557200Y-38550000D02*
X133604819Y-38492857D01*
X133604819Y-38492857D02*
X133604819Y-38378571D01*
X133604819Y-38378571D02*
X133557200Y-38321428D01*
X133557200Y-38321428D02*
X133509580Y-38292857D01*
X133509580Y-38292857D02*
X133414342Y-38264285D01*
X133414342Y-38264285D02*
X132604819Y-38264285D01*
X132938152Y-37721429D02*
X133604819Y-37721429D01*
X132557200Y-37864286D02*
X133271485Y-38007143D01*
X133271485Y-38007143D02*
X133271485Y-37635714D01*
X148579820Y-48549999D02*
X148103629Y-48749999D01*
X148579820Y-48892856D02*
X147579820Y-48892856D01*
X147579820Y-48892856D02*
X147579820Y-48664285D01*
X147579820Y-48664285D02*
X147627439Y-48607142D01*
X147627439Y-48607142D02*
X147675058Y-48578571D01*
X147675058Y-48578571D02*
X147770296Y-48549999D01*
X147770296Y-48549999D02*
X147913153Y-48549999D01*
X147913153Y-48549999D02*
X148008391Y-48578571D01*
X148008391Y-48578571D02*
X148056010Y-48607142D01*
X148056010Y-48607142D02*
X148103629Y-48664285D01*
X148103629Y-48664285D02*
X148103629Y-48892856D01*
X147913153Y-48035714D02*
X148579820Y-48035714D01*
X147532201Y-48178571D02*
X148246486Y-48321428D01*
X148246486Y-48321428D02*
X148246486Y-47949999D01*
X131704819Y-27350000D02*
X132419104Y-27350000D01*
X132419104Y-27350000D02*
X132561961Y-27378571D01*
X132561961Y-27378571D02*
X132657200Y-27435714D01*
X132657200Y-27435714D02*
X132704819Y-27521428D01*
X132704819Y-27521428D02*
X132704819Y-27578571D01*
X131800057Y-27092857D02*
X131752438Y-27064285D01*
X131752438Y-27064285D02*
X131704819Y-27007143D01*
X131704819Y-27007143D02*
X131704819Y-26864285D01*
X131704819Y-26864285D02*
X131752438Y-26807143D01*
X131752438Y-26807143D02*
X131800057Y-26778571D01*
X131800057Y-26778571D02*
X131895295Y-26750000D01*
X131895295Y-26750000D02*
X131990533Y-26750000D01*
X131990533Y-26750000D02*
X132133390Y-26778571D01*
X132133390Y-26778571D02*
X132704819Y-27121428D01*
X132704819Y-27121428D02*
X132704819Y-26750000D01*
X136404819Y-35392856D02*
X135404819Y-35392856D01*
X135404819Y-35392856D02*
X135404819Y-35249999D01*
X135404819Y-35249999D02*
X135452438Y-35164285D01*
X135452438Y-35164285D02*
X135547676Y-35107142D01*
X135547676Y-35107142D02*
X135642914Y-35078571D01*
X135642914Y-35078571D02*
X135833390Y-35049999D01*
X135833390Y-35049999D02*
X135976247Y-35049999D01*
X135976247Y-35049999D02*
X136166723Y-35078571D01*
X136166723Y-35078571D02*
X136261961Y-35107142D01*
X136261961Y-35107142D02*
X136357200Y-35164285D01*
X136357200Y-35164285D02*
X136404819Y-35249999D01*
X136404819Y-35249999D02*
X136404819Y-35392856D01*
X135404819Y-34849999D02*
X135404819Y-34478571D01*
X135404819Y-34478571D02*
X135785771Y-34678571D01*
X135785771Y-34678571D02*
X135785771Y-34592856D01*
X135785771Y-34592856D02*
X135833390Y-34535714D01*
X135833390Y-34535714D02*
X135881009Y-34507142D01*
X135881009Y-34507142D02*
X135976247Y-34478571D01*
X135976247Y-34478571D02*
X136214342Y-34478571D01*
X136214342Y-34478571D02*
X136309580Y-34507142D01*
X136309580Y-34507142D02*
X136357200Y-34535714D01*
X136357200Y-34535714D02*
X136404819Y-34592856D01*
X136404819Y-34592856D02*
X136404819Y-34764285D01*
X136404819Y-34764285D02*
X136357200Y-34821428D01*
X136357200Y-34821428D02*
X136309580Y-34849999D01*
X136354819Y-59657142D02*
X137164342Y-59657142D01*
X137164342Y-59657142D02*
X137259580Y-59628571D01*
X137259580Y-59628571D02*
X137307200Y-59600000D01*
X137307200Y-59600000D02*
X137354819Y-59542857D01*
X137354819Y-59542857D02*
X137354819Y-59428571D01*
X137354819Y-59428571D02*
X137307200Y-59371428D01*
X137307200Y-59371428D02*
X137259580Y-59342857D01*
X137259580Y-59342857D02*
X137164342Y-59314285D01*
X137164342Y-59314285D02*
X136354819Y-59314285D01*
X136354819Y-58742857D02*
X136354819Y-59028571D01*
X136354819Y-59028571D02*
X136831009Y-59057143D01*
X136831009Y-59057143D02*
X136783390Y-59028571D01*
X136783390Y-59028571D02*
X136735771Y-58971429D01*
X136735771Y-58971429D02*
X136735771Y-58828571D01*
X136735771Y-58828571D02*
X136783390Y-58771429D01*
X136783390Y-58771429D02*
X136831009Y-58742857D01*
X136831009Y-58742857D02*
X136926247Y-58714286D01*
X136926247Y-58714286D02*
X137164342Y-58714286D01*
X137164342Y-58714286D02*
X137259580Y-58742857D01*
X137259580Y-58742857D02*
X137307200Y-58771429D01*
X137307200Y-58771429D02*
X137354819Y-58828571D01*
X137354819Y-58828571D02*
X137354819Y-58971429D01*
X137354819Y-58971429D02*
X137307200Y-59028571D01*
X137307200Y-59028571D02*
X137259580Y-59057143D01*
X134659580Y-40249999D02*
X134707200Y-40278571D01*
X134707200Y-40278571D02*
X134754819Y-40364285D01*
X134754819Y-40364285D02*
X134754819Y-40421428D01*
X134754819Y-40421428D02*
X134707200Y-40507142D01*
X134707200Y-40507142D02*
X134611961Y-40564285D01*
X134611961Y-40564285D02*
X134516723Y-40592856D01*
X134516723Y-40592856D02*
X134326247Y-40621428D01*
X134326247Y-40621428D02*
X134183390Y-40621428D01*
X134183390Y-40621428D02*
X133992914Y-40592856D01*
X133992914Y-40592856D02*
X133897676Y-40564285D01*
X133897676Y-40564285D02*
X133802438Y-40507142D01*
X133802438Y-40507142D02*
X133754819Y-40421428D01*
X133754819Y-40421428D02*
X133754819Y-40364285D01*
X133754819Y-40364285D02*
X133802438Y-40278571D01*
X133802438Y-40278571D02*
X133850057Y-40249999D01*
X134754819Y-39964285D02*
X134754819Y-39849999D01*
X134754819Y-39849999D02*
X134707200Y-39792856D01*
X134707200Y-39792856D02*
X134659580Y-39764285D01*
X134659580Y-39764285D02*
X134516723Y-39707142D01*
X134516723Y-39707142D02*
X134326247Y-39678571D01*
X134326247Y-39678571D02*
X133945295Y-39678571D01*
X133945295Y-39678571D02*
X133850057Y-39707142D01*
X133850057Y-39707142D02*
X133802438Y-39735714D01*
X133802438Y-39735714D02*
X133754819Y-39792856D01*
X133754819Y-39792856D02*
X133754819Y-39907142D01*
X133754819Y-39907142D02*
X133802438Y-39964285D01*
X133802438Y-39964285D02*
X133850057Y-39992856D01*
X133850057Y-39992856D02*
X133945295Y-40021428D01*
X133945295Y-40021428D02*
X134183390Y-40021428D01*
X134183390Y-40021428D02*
X134278628Y-39992856D01*
X134278628Y-39992856D02*
X134326247Y-39964285D01*
X134326247Y-39964285D02*
X134373866Y-39907142D01*
X134373866Y-39907142D02*
X134373866Y-39792856D01*
X134373866Y-39792856D02*
X134326247Y-39735714D01*
X134326247Y-39735714D02*
X134278628Y-39707142D01*
X134278628Y-39707142D02*
X134183390Y-39678571D01*
X145119819Y-35590601D02*
X144643628Y-35790601D01*
X145119819Y-35933458D02*
X144119819Y-35933458D01*
X144119819Y-35933458D02*
X144119819Y-35704887D01*
X144119819Y-35704887D02*
X144167438Y-35647744D01*
X144167438Y-35647744D02*
X144215057Y-35619173D01*
X144215057Y-35619173D02*
X144310295Y-35590601D01*
X144310295Y-35590601D02*
X144453152Y-35590601D01*
X144453152Y-35590601D02*
X144548390Y-35619173D01*
X144548390Y-35619173D02*
X144596009Y-35647744D01*
X144596009Y-35647744D02*
X144643628Y-35704887D01*
X144643628Y-35704887D02*
X144643628Y-35933458D01*
X144215057Y-35362030D02*
X144167438Y-35333458D01*
X144167438Y-35333458D02*
X144119819Y-35276316D01*
X144119819Y-35276316D02*
X144119819Y-35133458D01*
X144119819Y-35133458D02*
X144167438Y-35076316D01*
X144167438Y-35076316D02*
X144215057Y-35047744D01*
X144215057Y-35047744D02*
X144310295Y-35019173D01*
X144310295Y-35019173D02*
X144405533Y-35019173D01*
X144405533Y-35019173D02*
X144548390Y-35047744D01*
X144548390Y-35047744D02*
X145119819Y-35390601D01*
X145119819Y-35390601D02*
X145119819Y-35019173D01*
X151009580Y-35999999D02*
X151057200Y-36028571D01*
X151057200Y-36028571D02*
X151104819Y-36114285D01*
X151104819Y-36114285D02*
X151104819Y-36171428D01*
X151104819Y-36171428D02*
X151057200Y-36257142D01*
X151057200Y-36257142D02*
X150961961Y-36314285D01*
X150961961Y-36314285D02*
X150866723Y-36342856D01*
X150866723Y-36342856D02*
X150676247Y-36371428D01*
X150676247Y-36371428D02*
X150533390Y-36371428D01*
X150533390Y-36371428D02*
X150342914Y-36342856D01*
X150342914Y-36342856D02*
X150247676Y-36314285D01*
X150247676Y-36314285D02*
X150152438Y-36257142D01*
X150152438Y-36257142D02*
X150104819Y-36171428D01*
X150104819Y-36171428D02*
X150104819Y-36114285D01*
X150104819Y-36114285D02*
X150152438Y-36028571D01*
X150152438Y-36028571D02*
X150200057Y-35999999D01*
X150200057Y-35771428D02*
X150152438Y-35742856D01*
X150152438Y-35742856D02*
X150104819Y-35685714D01*
X150104819Y-35685714D02*
X150104819Y-35542856D01*
X150104819Y-35542856D02*
X150152438Y-35485714D01*
X150152438Y-35485714D02*
X150200057Y-35457142D01*
X150200057Y-35457142D02*
X150295295Y-35428571D01*
X150295295Y-35428571D02*
X150390533Y-35428571D01*
X150390533Y-35428571D02*
X150533390Y-35457142D01*
X150533390Y-35457142D02*
X151104819Y-35799999D01*
X151104819Y-35799999D02*
X151104819Y-35428571D01*
X143609580Y-35565601D02*
X143657200Y-35594173D01*
X143657200Y-35594173D02*
X143704819Y-35679887D01*
X143704819Y-35679887D02*
X143704819Y-35737030D01*
X143704819Y-35737030D02*
X143657200Y-35822744D01*
X143657200Y-35822744D02*
X143561961Y-35879887D01*
X143561961Y-35879887D02*
X143466723Y-35908458D01*
X143466723Y-35908458D02*
X143276247Y-35937030D01*
X143276247Y-35937030D02*
X143133390Y-35937030D01*
X143133390Y-35937030D02*
X142942914Y-35908458D01*
X142942914Y-35908458D02*
X142847676Y-35879887D01*
X142847676Y-35879887D02*
X142752438Y-35822744D01*
X142752438Y-35822744D02*
X142704819Y-35737030D01*
X142704819Y-35737030D02*
X142704819Y-35679887D01*
X142704819Y-35679887D02*
X142752438Y-35594173D01*
X142752438Y-35594173D02*
X142800057Y-35565601D01*
X143704819Y-34994173D02*
X143704819Y-35337030D01*
X143704819Y-35165601D02*
X142704819Y-35165601D01*
X142704819Y-35165601D02*
X142847676Y-35222744D01*
X142847676Y-35222744D02*
X142942914Y-35279887D01*
X142942914Y-35279887D02*
X142990533Y-35337030D01*
X150454818Y-29494642D02*
X151264341Y-29494642D01*
X151264341Y-29494642D02*
X151359579Y-29466071D01*
X151359579Y-29466071D02*
X151407199Y-29437500D01*
X151407199Y-29437500D02*
X151454818Y-29380357D01*
X151454818Y-29380357D02*
X151454818Y-29266071D01*
X151454818Y-29266071D02*
X151407199Y-29208928D01*
X151407199Y-29208928D02*
X151359579Y-29180357D01*
X151359579Y-29180357D02*
X151264341Y-29151785D01*
X151264341Y-29151785D02*
X150454818Y-29151785D01*
X150454818Y-28608929D02*
X150454818Y-28723214D01*
X150454818Y-28723214D02*
X150502437Y-28780357D01*
X150502437Y-28780357D02*
X150550056Y-28808929D01*
X150550056Y-28808929D02*
X150692913Y-28866071D01*
X150692913Y-28866071D02*
X150883389Y-28894643D01*
X150883389Y-28894643D02*
X151264341Y-28894643D01*
X151264341Y-28894643D02*
X151359579Y-28866071D01*
X151359579Y-28866071D02*
X151407199Y-28837500D01*
X151407199Y-28837500D02*
X151454818Y-28780357D01*
X151454818Y-28780357D02*
X151454818Y-28666071D01*
X151454818Y-28666071D02*
X151407199Y-28608929D01*
X151407199Y-28608929D02*
X151359579Y-28580357D01*
X151359579Y-28580357D02*
X151264341Y-28551786D01*
X151264341Y-28551786D02*
X151026246Y-28551786D01*
X151026246Y-28551786D02*
X150931008Y-28580357D01*
X150931008Y-28580357D02*
X150883389Y-28608929D01*
X150883389Y-28608929D02*
X150835770Y-28666071D01*
X150835770Y-28666071D02*
X150835770Y-28780357D01*
X150835770Y-28780357D02*
X150883389Y-28837500D01*
X150883389Y-28837500D02*
X150931008Y-28866071D01*
X150931008Y-28866071D02*
X151026246Y-28894643D01*
X133104819Y-43457142D02*
X133914342Y-43457142D01*
X133914342Y-43457142D02*
X134009580Y-43428571D01*
X134009580Y-43428571D02*
X134057200Y-43400000D01*
X134057200Y-43400000D02*
X134104819Y-43342857D01*
X134104819Y-43342857D02*
X134104819Y-43228571D01*
X134104819Y-43228571D02*
X134057200Y-43171428D01*
X134057200Y-43171428D02*
X134009580Y-43142857D01*
X134009580Y-43142857D02*
X133914342Y-43114285D01*
X133914342Y-43114285D02*
X133104819Y-43114285D01*
X133104819Y-42885714D02*
X133104819Y-42514286D01*
X133104819Y-42514286D02*
X133485771Y-42714286D01*
X133485771Y-42714286D02*
X133485771Y-42628571D01*
X133485771Y-42628571D02*
X133533390Y-42571429D01*
X133533390Y-42571429D02*
X133581009Y-42542857D01*
X133581009Y-42542857D02*
X133676247Y-42514286D01*
X133676247Y-42514286D02*
X133914342Y-42514286D01*
X133914342Y-42514286D02*
X134009580Y-42542857D01*
X134009580Y-42542857D02*
X134057200Y-42571429D01*
X134057200Y-42571429D02*
X134104819Y-42628571D01*
X134104819Y-42628571D02*
X134104819Y-42800000D01*
X134104819Y-42800000D02*
X134057200Y-42857143D01*
X134057200Y-42857143D02*
X134009580Y-42885714D01*
X150809580Y-41909397D02*
X150857200Y-41937969D01*
X150857200Y-41937969D02*
X150904819Y-42023683D01*
X150904819Y-42023683D02*
X150904819Y-42080826D01*
X150904819Y-42080826D02*
X150857200Y-42166540D01*
X150857200Y-42166540D02*
X150761961Y-42223683D01*
X150761961Y-42223683D02*
X150666723Y-42252254D01*
X150666723Y-42252254D02*
X150476247Y-42280826D01*
X150476247Y-42280826D02*
X150333390Y-42280826D01*
X150333390Y-42280826D02*
X150142914Y-42252254D01*
X150142914Y-42252254D02*
X150047676Y-42223683D01*
X150047676Y-42223683D02*
X149952438Y-42166540D01*
X149952438Y-42166540D02*
X149904819Y-42080826D01*
X149904819Y-42080826D02*
X149904819Y-42023683D01*
X149904819Y-42023683D02*
X149952438Y-41937969D01*
X149952438Y-41937969D02*
X150000057Y-41909397D01*
X149904819Y-41709397D02*
X149904819Y-41337969D01*
X149904819Y-41337969D02*
X150285771Y-41537969D01*
X150285771Y-41537969D02*
X150285771Y-41452254D01*
X150285771Y-41452254D02*
X150333390Y-41395112D01*
X150333390Y-41395112D02*
X150381009Y-41366540D01*
X150381009Y-41366540D02*
X150476247Y-41337969D01*
X150476247Y-41337969D02*
X150714342Y-41337969D01*
X150714342Y-41337969D02*
X150809580Y-41366540D01*
X150809580Y-41366540D02*
X150857200Y-41395112D01*
X150857200Y-41395112D02*
X150904819Y-41452254D01*
X150904819Y-41452254D02*
X150904819Y-41623683D01*
X150904819Y-41623683D02*
X150857200Y-41680826D01*
X150857200Y-41680826D02*
X150809580Y-41709397D01*
X138559580Y-41649999D02*
X138607200Y-41678571D01*
X138607200Y-41678571D02*
X138654819Y-41764285D01*
X138654819Y-41764285D02*
X138654819Y-41821428D01*
X138654819Y-41821428D02*
X138607200Y-41907142D01*
X138607200Y-41907142D02*
X138511961Y-41964285D01*
X138511961Y-41964285D02*
X138416723Y-41992856D01*
X138416723Y-41992856D02*
X138226247Y-42021428D01*
X138226247Y-42021428D02*
X138083390Y-42021428D01*
X138083390Y-42021428D02*
X137892914Y-41992856D01*
X137892914Y-41992856D02*
X137797676Y-41964285D01*
X137797676Y-41964285D02*
X137702438Y-41907142D01*
X137702438Y-41907142D02*
X137654819Y-41821428D01*
X137654819Y-41821428D02*
X137654819Y-41764285D01*
X137654819Y-41764285D02*
X137702438Y-41678571D01*
X137702438Y-41678571D02*
X137750057Y-41649999D01*
X137988152Y-41135714D02*
X138654819Y-41135714D01*
X137607200Y-41278571D02*
X138321485Y-41421428D01*
X138321485Y-41421428D02*
X138321485Y-41049999D01*
X148499579Y-51949999D02*
X148547199Y-51978571D01*
X148547199Y-51978571D02*
X148594818Y-52064285D01*
X148594818Y-52064285D02*
X148594818Y-52121428D01*
X148594818Y-52121428D02*
X148547199Y-52207142D01*
X148547199Y-52207142D02*
X148451960Y-52264285D01*
X148451960Y-52264285D02*
X148356722Y-52292856D01*
X148356722Y-52292856D02*
X148166246Y-52321428D01*
X148166246Y-52321428D02*
X148023389Y-52321428D01*
X148023389Y-52321428D02*
X147832913Y-52292856D01*
X147832913Y-52292856D02*
X147737675Y-52264285D01*
X147737675Y-52264285D02*
X147642437Y-52207142D01*
X147642437Y-52207142D02*
X147594818Y-52121428D01*
X147594818Y-52121428D02*
X147594818Y-52064285D01*
X147594818Y-52064285D02*
X147642437Y-51978571D01*
X147642437Y-51978571D02*
X147690056Y-51949999D01*
X148023389Y-51607142D02*
X147975770Y-51664285D01*
X147975770Y-51664285D02*
X147928151Y-51692856D01*
X147928151Y-51692856D02*
X147832913Y-51721428D01*
X147832913Y-51721428D02*
X147785294Y-51721428D01*
X147785294Y-51721428D02*
X147690056Y-51692856D01*
X147690056Y-51692856D02*
X147642437Y-51664285D01*
X147642437Y-51664285D02*
X147594818Y-51607142D01*
X147594818Y-51607142D02*
X147594818Y-51492856D01*
X147594818Y-51492856D02*
X147642437Y-51435714D01*
X147642437Y-51435714D02*
X147690056Y-51407142D01*
X147690056Y-51407142D02*
X147785294Y-51378571D01*
X147785294Y-51378571D02*
X147832913Y-51378571D01*
X147832913Y-51378571D02*
X147928151Y-51407142D01*
X147928151Y-51407142D02*
X147975770Y-51435714D01*
X147975770Y-51435714D02*
X148023389Y-51492856D01*
X148023389Y-51492856D02*
X148023389Y-51607142D01*
X148023389Y-51607142D02*
X148071008Y-51664285D01*
X148071008Y-51664285D02*
X148118627Y-51692856D01*
X148118627Y-51692856D02*
X148213865Y-51721428D01*
X148213865Y-51721428D02*
X148404341Y-51721428D01*
X148404341Y-51721428D02*
X148499579Y-51692856D01*
X148499579Y-51692856D02*
X148547199Y-51664285D01*
X148547199Y-51664285D02*
X148594818Y-51607142D01*
X148594818Y-51607142D02*
X148594818Y-51492856D01*
X148594818Y-51492856D02*
X148547199Y-51435714D01*
X148547199Y-51435714D02*
X148499579Y-51407142D01*
X148499579Y-51407142D02*
X148404341Y-51378571D01*
X148404341Y-51378571D02*
X148213865Y-51378571D01*
X148213865Y-51378571D02*
X148118627Y-51407142D01*
X148118627Y-51407142D02*
X148071008Y-51435714D01*
X148071008Y-51435714D02*
X148023389Y-51492856D01*
X139759580Y-60215601D02*
X139807200Y-60244173D01*
X139807200Y-60244173D02*
X139854819Y-60329887D01*
X139854819Y-60329887D02*
X139854819Y-60387030D01*
X139854819Y-60387030D02*
X139807200Y-60472744D01*
X139807200Y-60472744D02*
X139711961Y-60529887D01*
X139711961Y-60529887D02*
X139616723Y-60558458D01*
X139616723Y-60558458D02*
X139426247Y-60587030D01*
X139426247Y-60587030D02*
X139283390Y-60587030D01*
X139283390Y-60587030D02*
X139092914Y-60558458D01*
X139092914Y-60558458D02*
X138997676Y-60529887D01*
X138997676Y-60529887D02*
X138902438Y-60472744D01*
X138902438Y-60472744D02*
X138854819Y-60387030D01*
X138854819Y-60387030D02*
X138854819Y-60329887D01*
X138854819Y-60329887D02*
X138902438Y-60244173D01*
X138902438Y-60244173D02*
X138950057Y-60215601D01*
X139854819Y-59644173D02*
X139854819Y-59987030D01*
X139854819Y-59815601D02*
X138854819Y-59815601D01*
X138854819Y-59815601D02*
X138997676Y-59872744D01*
X138997676Y-59872744D02*
X139092914Y-59929887D01*
X139092914Y-59929887D02*
X139140533Y-59987030D01*
X138854819Y-59272744D02*
X138854819Y-59215601D01*
X138854819Y-59215601D02*
X138902438Y-59158458D01*
X138902438Y-59158458D02*
X138950057Y-59129887D01*
X138950057Y-59129887D02*
X139045295Y-59101315D01*
X139045295Y-59101315D02*
X139235771Y-59072744D01*
X139235771Y-59072744D02*
X139473866Y-59072744D01*
X139473866Y-59072744D02*
X139664342Y-59101315D01*
X139664342Y-59101315D02*
X139759580Y-59129887D01*
X139759580Y-59129887D02*
X139807200Y-59158458D01*
X139807200Y-59158458D02*
X139854819Y-59215601D01*
X139854819Y-59215601D02*
X139854819Y-59272744D01*
X139854819Y-59272744D02*
X139807200Y-59329887D01*
X139807200Y-59329887D02*
X139759580Y-59358458D01*
X139759580Y-59358458D02*
X139664342Y-59387029D01*
X139664342Y-59387029D02*
X139473866Y-59415601D01*
X139473866Y-59415601D02*
X139235771Y-59415601D01*
X139235771Y-59415601D02*
X139045295Y-59387029D01*
X139045295Y-59387029D02*
X138950057Y-59358458D01*
X138950057Y-59358458D02*
X138902438Y-59329887D01*
X138902438Y-59329887D02*
X138854819Y-59272744D01*
X146954819Y-43507142D02*
X147764342Y-43507142D01*
X147764342Y-43507142D02*
X147859580Y-43478571D01*
X147859580Y-43478571D02*
X147907200Y-43450000D01*
X147907200Y-43450000D02*
X147954819Y-43392857D01*
X147954819Y-43392857D02*
X147954819Y-43278571D01*
X147954819Y-43278571D02*
X147907200Y-43221428D01*
X147907200Y-43221428D02*
X147859580Y-43192857D01*
X147859580Y-43192857D02*
X147764342Y-43164285D01*
X147764342Y-43164285D02*
X146954819Y-43164285D01*
X147954819Y-42564286D02*
X147954819Y-42907143D01*
X147954819Y-42735714D02*
X146954819Y-42735714D01*
X146954819Y-42735714D02*
X147097676Y-42792857D01*
X147097676Y-42792857D02*
X147192914Y-42850000D01*
X147192914Y-42850000D02*
X147240533Y-42907143D01*
X145864285Y-24104819D02*
X145664285Y-23628628D01*
X145521428Y-24104819D02*
X145521428Y-23104819D01*
X145521428Y-23104819D02*
X145749999Y-23104819D01*
X145749999Y-23104819D02*
X145807142Y-23152438D01*
X145807142Y-23152438D02*
X145835713Y-23200057D01*
X145835713Y-23200057D02*
X145864285Y-23295295D01*
X145864285Y-23295295D02*
X145864285Y-23438152D01*
X145864285Y-23438152D02*
X145835713Y-23533390D01*
X145835713Y-23533390D02*
X145807142Y-23581009D01*
X145807142Y-23581009D02*
X145749999Y-23628628D01*
X145749999Y-23628628D02*
X145521428Y-23628628D01*
X146435713Y-24104819D02*
X146092856Y-24104819D01*
X146264285Y-24104819D02*
X146264285Y-23104819D01*
X146264285Y-23104819D02*
X146207142Y-23247676D01*
X146207142Y-23247676D02*
X146149999Y-23342914D01*
X146149999Y-23342914D02*
X146092856Y-23390533D01*
X146635714Y-23104819D02*
X147007142Y-23104819D01*
X147007142Y-23104819D02*
X146807142Y-23485771D01*
X146807142Y-23485771D02*
X146892857Y-23485771D01*
X146892857Y-23485771D02*
X146950000Y-23533390D01*
X146950000Y-23533390D02*
X146978571Y-23581009D01*
X146978571Y-23581009D02*
X147007142Y-23676247D01*
X147007142Y-23676247D02*
X147007142Y-23914342D01*
X147007142Y-23914342D02*
X146978571Y-24009580D01*
X146978571Y-24009580D02*
X146950000Y-24057200D01*
X146950000Y-24057200D02*
X146892857Y-24104819D01*
X146892857Y-24104819D02*
X146721428Y-24104819D01*
X146721428Y-24104819D02*
X146664285Y-24057200D01*
X146664285Y-24057200D02*
X146635714Y-24009580D01*
X138704819Y-31500000D02*
X139419104Y-31500000D01*
X139419104Y-31500000D02*
X139561961Y-31528571D01*
X139561961Y-31528571D02*
X139657200Y-31585714D01*
X139657200Y-31585714D02*
X139704819Y-31671428D01*
X139704819Y-31671428D02*
X139704819Y-31728571D01*
X139704819Y-30900000D02*
X139704819Y-31242857D01*
X139704819Y-31071428D02*
X138704819Y-31071428D01*
X138704819Y-31071428D02*
X138847676Y-31128571D01*
X138847676Y-31128571D02*
X138942914Y-31185714D01*
X138942914Y-31185714D02*
X138990533Y-31242857D01*
X148554820Y-50649999D02*
X148078629Y-50849999D01*
X148554820Y-50992856D02*
X147554820Y-50992856D01*
X147554820Y-50992856D02*
X147554820Y-50764285D01*
X147554820Y-50764285D02*
X147602439Y-50707142D01*
X147602439Y-50707142D02*
X147650058Y-50678571D01*
X147650058Y-50678571D02*
X147745296Y-50649999D01*
X147745296Y-50649999D02*
X147888153Y-50649999D01*
X147888153Y-50649999D02*
X147983391Y-50678571D01*
X147983391Y-50678571D02*
X148031010Y-50707142D01*
X148031010Y-50707142D02*
X148078629Y-50764285D01*
X148078629Y-50764285D02*
X148078629Y-50992856D01*
X147554820Y-50135714D02*
X147554820Y-50249999D01*
X147554820Y-50249999D02*
X147602439Y-50307142D01*
X147602439Y-50307142D02*
X147650058Y-50335714D01*
X147650058Y-50335714D02*
X147792915Y-50392856D01*
X147792915Y-50392856D02*
X147983391Y-50421428D01*
X147983391Y-50421428D02*
X148364343Y-50421428D01*
X148364343Y-50421428D02*
X148459581Y-50392856D01*
X148459581Y-50392856D02*
X148507201Y-50364285D01*
X148507201Y-50364285D02*
X148554820Y-50307142D01*
X148554820Y-50307142D02*
X148554820Y-50192856D01*
X148554820Y-50192856D02*
X148507201Y-50135714D01*
X148507201Y-50135714D02*
X148459581Y-50107142D01*
X148459581Y-50107142D02*
X148364343Y-50078571D01*
X148364343Y-50078571D02*
X148126248Y-50078571D01*
X148126248Y-50078571D02*
X148031010Y-50107142D01*
X148031010Y-50107142D02*
X147983391Y-50135714D01*
X147983391Y-50135714D02*
X147935772Y-50192856D01*
X147935772Y-50192856D02*
X147935772Y-50307142D01*
X147935772Y-50307142D02*
X147983391Y-50364285D01*
X147983391Y-50364285D02*
X148031010Y-50392856D01*
X148031010Y-50392856D02*
X148126248Y-50421428D01*
X147814285Y-24104819D02*
X147614285Y-23628628D01*
X147471428Y-24104819D02*
X147471428Y-23104819D01*
X147471428Y-23104819D02*
X147699999Y-23104819D01*
X147699999Y-23104819D02*
X147757142Y-23152438D01*
X147757142Y-23152438D02*
X147785713Y-23200057D01*
X147785713Y-23200057D02*
X147814285Y-23295295D01*
X147814285Y-23295295D02*
X147814285Y-23438152D01*
X147814285Y-23438152D02*
X147785713Y-23533390D01*
X147785713Y-23533390D02*
X147757142Y-23581009D01*
X147757142Y-23581009D02*
X147699999Y-23628628D01*
X147699999Y-23628628D02*
X147471428Y-23628628D01*
X148385713Y-24104819D02*
X148042856Y-24104819D01*
X148214285Y-24104819D02*
X148214285Y-23104819D01*
X148214285Y-23104819D02*
X148157142Y-23247676D01*
X148157142Y-23247676D02*
X148099999Y-23342914D01*
X148099999Y-23342914D02*
X148042856Y-23390533D01*
X148614285Y-23200057D02*
X148642857Y-23152438D01*
X148642857Y-23152438D02*
X148700000Y-23104819D01*
X148700000Y-23104819D02*
X148842857Y-23104819D01*
X148842857Y-23104819D02*
X148900000Y-23152438D01*
X148900000Y-23152438D02*
X148928571Y-23200057D01*
X148928571Y-23200057D02*
X148957142Y-23295295D01*
X148957142Y-23295295D02*
X148957142Y-23390533D01*
X148957142Y-23390533D02*
X148928571Y-23533390D01*
X148928571Y-23533390D02*
X148585714Y-24104819D01*
X148585714Y-24104819D02*
X148957142Y-24104819D01*
X143304819Y-38422744D02*
X143304819Y-38708458D01*
X143304819Y-38708458D02*
X142304819Y-38708458D01*
X143304819Y-37908459D02*
X143304819Y-38251316D01*
X143304819Y-38079887D02*
X142304819Y-38079887D01*
X142304819Y-38079887D02*
X142447676Y-38137030D01*
X142447676Y-38137030D02*
X142542914Y-38194173D01*
X142542914Y-38194173D02*
X142590533Y-38251316D01*
X144554819Y-34055827D02*
X144078628Y-34255827D01*
X144554819Y-34398684D02*
X143554819Y-34398684D01*
X143554819Y-34398684D02*
X143554819Y-34170113D01*
X143554819Y-34170113D02*
X143602438Y-34112970D01*
X143602438Y-34112970D02*
X143650057Y-34084399D01*
X143650057Y-34084399D02*
X143745295Y-34055827D01*
X143745295Y-34055827D02*
X143888152Y-34055827D01*
X143888152Y-34055827D02*
X143983390Y-34084399D01*
X143983390Y-34084399D02*
X144031009Y-34112970D01*
X144031009Y-34112970D02*
X144078628Y-34170113D01*
X144078628Y-34170113D02*
X144078628Y-34398684D01*
X144554819Y-33484399D02*
X144554819Y-33827256D01*
X144554819Y-33655827D02*
X143554819Y-33655827D01*
X143554819Y-33655827D02*
X143697676Y-33712970D01*
X143697676Y-33712970D02*
X143792914Y-33770113D01*
X143792914Y-33770113D02*
X143840533Y-33827256D01*
X143888152Y-32970113D02*
X144554819Y-32970113D01*
X143507200Y-33112970D02*
X144221485Y-33255827D01*
X144221485Y-33255827D02*
X144221485Y-32884398D01*
X137504819Y-38957142D02*
X138314342Y-38957142D01*
X138314342Y-38957142D02*
X138409580Y-38928571D01*
X138409580Y-38928571D02*
X138457200Y-38900000D01*
X138457200Y-38900000D02*
X138504819Y-38842857D01*
X138504819Y-38842857D02*
X138504819Y-38728571D01*
X138504819Y-38728571D02*
X138457200Y-38671428D01*
X138457200Y-38671428D02*
X138409580Y-38642857D01*
X138409580Y-38642857D02*
X138314342Y-38614285D01*
X138314342Y-38614285D02*
X137504819Y-38614285D01*
X137600057Y-38357143D02*
X137552438Y-38328571D01*
X137552438Y-38328571D02*
X137504819Y-38271429D01*
X137504819Y-38271429D02*
X137504819Y-38128571D01*
X137504819Y-38128571D02*
X137552438Y-38071429D01*
X137552438Y-38071429D02*
X137600057Y-38042857D01*
X137600057Y-38042857D02*
X137695295Y-38014286D01*
X137695295Y-38014286D02*
X137790533Y-38014286D01*
X137790533Y-38014286D02*
X137933390Y-38042857D01*
X137933390Y-38042857D02*
X138504819Y-38385714D01*
X138504819Y-38385714D02*
X138504819Y-38014286D01*
X133759580Y-57949999D02*
X133807200Y-57978571D01*
X133807200Y-57978571D02*
X133854819Y-58064285D01*
X133854819Y-58064285D02*
X133854819Y-58121428D01*
X133854819Y-58121428D02*
X133807200Y-58207142D01*
X133807200Y-58207142D02*
X133711961Y-58264285D01*
X133711961Y-58264285D02*
X133616723Y-58292856D01*
X133616723Y-58292856D02*
X133426247Y-58321428D01*
X133426247Y-58321428D02*
X133283390Y-58321428D01*
X133283390Y-58321428D02*
X133092914Y-58292856D01*
X133092914Y-58292856D02*
X132997676Y-58264285D01*
X132997676Y-58264285D02*
X132902438Y-58207142D01*
X132902438Y-58207142D02*
X132854819Y-58121428D01*
X132854819Y-58121428D02*
X132854819Y-58064285D01*
X132854819Y-58064285D02*
X132902438Y-57978571D01*
X132902438Y-57978571D02*
X132950057Y-57949999D01*
X132854819Y-57435714D02*
X132854819Y-57549999D01*
X132854819Y-57549999D02*
X132902438Y-57607142D01*
X132902438Y-57607142D02*
X132950057Y-57635714D01*
X132950057Y-57635714D02*
X133092914Y-57692856D01*
X133092914Y-57692856D02*
X133283390Y-57721428D01*
X133283390Y-57721428D02*
X133664342Y-57721428D01*
X133664342Y-57721428D02*
X133759580Y-57692856D01*
X133759580Y-57692856D02*
X133807200Y-57664285D01*
X133807200Y-57664285D02*
X133854819Y-57607142D01*
X133854819Y-57607142D02*
X133854819Y-57492856D01*
X133854819Y-57492856D02*
X133807200Y-57435714D01*
X133807200Y-57435714D02*
X133759580Y-57407142D01*
X133759580Y-57407142D02*
X133664342Y-57378571D01*
X133664342Y-57378571D02*
X133426247Y-57378571D01*
X133426247Y-57378571D02*
X133331009Y-57407142D01*
X133331009Y-57407142D02*
X133283390Y-57435714D01*
X133283390Y-57435714D02*
X133235771Y-57492856D01*
X133235771Y-57492856D02*
X133235771Y-57607142D01*
X133235771Y-57607142D02*
X133283390Y-57664285D01*
X133283390Y-57664285D02*
X133331009Y-57692856D01*
X133331009Y-57692856D02*
X133426247Y-57721428D01*
D13*
%TO.C,TP1*%
X143850000Y-49550000D02*
X145250000Y-49550000D01*
X143850000Y-50950000D02*
X143850000Y-49550000D01*
X145250000Y-49550000D02*
X145250000Y-50950000D01*
X145250000Y-50950000D02*
X143850000Y-50950000D01*
%TO.C,D5*%
X126800000Y-38045000D02*
X126800000Y-41345000D01*
X127500000Y-42045000D02*
X126800000Y-41345000D01*
X127500000Y-42045000D02*
X128800000Y-42045000D01*
X128800000Y-38045000D02*
X126800000Y-38045000D01*
X128800000Y-38045000D02*
X128800000Y-42045000D01*
%TO.C,M1*%
X140300000Y-57450000D02*
X150600000Y-57450000D01*
X140300000Y-63400000D02*
X140300000Y-57450000D01*
X143500000Y-63400000D02*
X140300000Y-63400000D01*
X144170000Y-58560000D02*
X144170000Y-57550000D01*
X149250000Y-57550001D02*
X149250000Y-58559999D01*
X149250000Y-58559999D02*
X144170000Y-58560000D01*
X150600000Y-57450000D02*
X150600000Y-63450000D01*
X150600000Y-63450000D02*
X144850000Y-63450000D01*
%TO.C,R1*%
X145970000Y-35998642D02*
X145970000Y-35691360D01*
X146730000Y-35998642D02*
X146730000Y-35691360D01*
%TO.C,R5*%
X134691359Y-58720000D02*
X134998641Y-58720000D01*
X134691359Y-59480000D02*
X134998641Y-59480000D01*
%TO.C,R9*%
X146406358Y-49120000D02*
X146713640Y-49120000D01*
X146406358Y-49880000D02*
X146713640Y-49880000D01*
%TO.C,C7*%
X137109419Y-57340000D02*
X137390581Y-57340000D01*
X137109419Y-58360000D02*
X137390581Y-58360000D01*
%TO.C,R3*%
X144285000Y-38696359D02*
X144285000Y-39003641D01*
X145045000Y-38696359D02*
X145045000Y-39003641D01*
%TO.C,C5*%
X140611253Y-35015000D02*
X140088747Y-35015000D01*
X140611253Y-36485000D02*
X140088747Y-36485000D01*
%TO.C,U4*%
X129389999Y-39750000D02*
X129390000Y-38950000D01*
X129389999Y-39750000D02*
X129390000Y-40550000D01*
X132510001Y-39750000D02*
X132510000Y-38950000D01*
X132510001Y-39750000D02*
X132510000Y-40550000D01*
X129440000Y-41050000D02*
X129110000Y-41290000D01*
X129110000Y-40810000D01*
X129440000Y-41050000D01*
G36*
X129440000Y-41050000D02*
G01*
X129110000Y-41290000D01*
X129110000Y-40810000D01*
X129440000Y-41050000D01*
G37*
%TO.C,R4*%
X146713640Y-48070000D02*
X146406358Y-48070000D01*
X146713640Y-48830000D02*
X146406358Y-48830000D01*
D14*
%TO.C,J2*%
X130700000Y-28180000D02*
X129020000Y-28180000D01*
X130700000Y-37120000D02*
X129020000Y-37120000D01*
D13*
%TO.C,D3*%
X134940000Y-31090000D02*
X136760000Y-31090000D01*
X134940000Y-31140000D02*
X134940000Y-31090000D01*
X134940000Y-34210000D02*
X134940000Y-34160000D01*
X136760000Y-31090000D02*
X136760000Y-31140000D01*
X136760000Y-34160000D02*
X136760000Y-34210000D01*
X136760000Y-34210000D02*
X134940000Y-34210000D01*
X134400000Y-31140000D02*
X134160000Y-30810000D01*
X134640000Y-30810000D01*
X134400000Y-31140000D01*
G36*
X134400000Y-31140000D02*
G01*
X134160000Y-30810000D01*
X134640000Y-30810000D01*
X134400000Y-31140000D01*
G37*
%TO.C,U5*%
X135877500Y-60040000D02*
X137697500Y-60040000D01*
X135877500Y-60090000D02*
X135877500Y-60040000D01*
X135877500Y-63160000D02*
X135877500Y-63110000D01*
X137697500Y-60040000D02*
X137697500Y-60090000D01*
X137697500Y-61210000D02*
X137697500Y-61990000D01*
X137697500Y-63110000D02*
X137697500Y-63160000D01*
X137697500Y-63160000D02*
X135877500Y-63160000D01*
X135337500Y-60090000D02*
X135097500Y-59760000D01*
X135577500Y-59760000D01*
X135337500Y-60090000D01*
G36*
X135337500Y-60090000D02*
G01*
X135097500Y-59760000D01*
X135577500Y-59760000D01*
X135337500Y-60090000D01*
G37*
%TO.C,C9*%
X132790000Y-40287836D02*
X132790000Y-40072164D01*
X133510000Y-40287836D02*
X133510000Y-40072164D01*
%TO.C,R2*%
X144285000Y-36821359D02*
X144285000Y-37128641D01*
X145045000Y-36821359D02*
X145045000Y-37128641D01*
%TO.C,TP2*%
X143850000Y-51150000D02*
X145250000Y-51150000D01*
X143850000Y-52550000D02*
X143850000Y-51150000D01*
X145250000Y-51150000D02*
X145250000Y-52550000D01*
X145250000Y-52550000D02*
X143850000Y-52550000D01*
%TO.C,C2*%
X148188748Y-35165000D02*
X148711252Y-35165000D01*
X148188748Y-36635000D02*
X148711252Y-36635000D01*
%TO.C,C1*%
X143305000Y-37082836D02*
X143305000Y-36867164D01*
X144025000Y-37082836D02*
X144025000Y-36867164D01*
%TO.C,U6*%
X144815000Y-27077500D02*
X144815000Y-26727500D01*
X144815000Y-31347500D02*
X144815000Y-30997500D01*
X150285000Y-26727500D02*
X150285000Y-27077500D01*
X150285000Y-30997500D02*
X150285000Y-31347500D01*
X150855000Y-26442500D02*
X150525000Y-26202500D01*
X150855000Y-25962500D01*
X150855000Y-26442500D01*
G36*
X150855000Y-26442500D02*
G01*
X150525000Y-26202500D01*
X150855000Y-25962500D01*
X150855000Y-26442500D01*
G37*
D14*
%TO.C,U3*%
X126725000Y-43650000D02*
X132105000Y-43650000D01*
X126725000Y-56850000D02*
X126725000Y-43650000D01*
X132105000Y-56850000D02*
X126725000Y-56850000D01*
D13*
%TO.C,SW2*%
X144500000Y-52850001D02*
X144500000Y-53150001D01*
X144500000Y-55650001D02*
X144500000Y-55350001D01*
X147800000Y-52850001D02*
X144500000Y-52850001D01*
X147800000Y-53150001D02*
X147800000Y-52850001D01*
X147800000Y-55350001D02*
X147800000Y-55650001D01*
X147800000Y-55650001D02*
X144500000Y-55650001D01*
%TO.C,C3*%
X149715000Y-39811253D02*
X149715000Y-39288747D01*
X151185000Y-39811253D02*
X151185000Y-39288747D01*
%TO.C,SW1*%
X144525000Y-44849999D02*
X144525000Y-45149999D01*
X144525000Y-47649999D02*
X144525000Y-47349999D01*
X147825000Y-44849999D02*
X144525000Y-44849999D01*
X147825000Y-45149999D02*
X147825000Y-44849999D01*
X147825000Y-47349999D02*
X147825000Y-47649999D01*
X147825000Y-47649999D02*
X144525000Y-47649999D01*
%TO.C,C4*%
X140611254Y-40840000D02*
X140088748Y-40840000D01*
X140611254Y-42310000D02*
X140088748Y-42310000D01*
%TO.C,R7*%
X133570000Y-35086360D02*
X133570000Y-35393642D01*
X134330000Y-35086360D02*
X134330000Y-35393642D01*
%TO.C,C8*%
X146452163Y-51490000D02*
X146667835Y-51490000D01*
X146452163Y-52210000D02*
X146667835Y-52210000D01*
%TO.C,C10*%
X139040000Y-61677836D02*
X139040000Y-61462164D01*
X139760000Y-61677836D02*
X139760000Y-61462164D01*
D15*
%TO.C,U1*%
X145500000Y-38150000D02*
X145500000Y-38150000D01*
X145500000Y-38250000D02*
X145500000Y-38250000D01*
X146000000Y-37950000D02*
X146000000Y-37250000D01*
X146000000Y-42150000D02*
X146000000Y-42250000D01*
X146000000Y-42250000D02*
X149000000Y-42250000D01*
X149000000Y-37950000D02*
X149000000Y-37250000D01*
X149000000Y-42250000D02*
X149000000Y-42150000D01*
X145500000Y-38150000D02*
G75*
G02*
X145500000Y-38250000I0J-50000D01*
G01*
X145500000Y-38250000D02*
G75*
G02*
X145500000Y-38150000I0J50000D01*
G01*
D13*
%TO.C,R13*%
X146403641Y-24370000D02*
X146096359Y-24370000D01*
X146403641Y-25130000D02*
X146096359Y-25130000D01*
%TO.C,J1*%
X135927500Y-23900000D02*
X136677500Y-23900000D01*
X135927500Y-28200000D02*
X135927500Y-23900000D01*
X135927500Y-29550000D02*
X136177500Y-28550000D01*
X136177500Y-28550000D02*
X136677500Y-28550000D01*
X136677500Y-28200000D02*
X135927500Y-28200000D01*
X136677500Y-28550000D02*
X136677500Y-28200000D01*
X138177500Y-23900000D02*
X138927500Y-23900000D01*
X138177500Y-28200000D02*
X138177500Y-28550000D01*
X138177500Y-28550000D02*
X138677500Y-28550000D01*
X138677500Y-28550000D02*
X138927500Y-29550000D01*
X138927500Y-23900000D02*
X138927500Y-28200000D01*
X138927500Y-28200000D02*
X138177500Y-28200000D01*
X138927500Y-29550000D02*
X135927500Y-29550000D01*
X139737500Y-23900000D02*
X140487500Y-23900000D01*
X139737500Y-28200000D02*
X139737500Y-23900000D01*
X139737500Y-29550000D02*
X139987500Y-28550000D01*
X139987500Y-28550000D02*
X140487500Y-28550000D01*
X140487500Y-28200000D02*
X139737500Y-28200000D01*
X140487500Y-28550000D02*
X140487500Y-28200000D01*
X141987500Y-23900000D02*
X142737500Y-23900000D01*
X141987500Y-28200000D02*
X141987500Y-28550000D01*
X141987500Y-28550000D02*
X142487500Y-28550000D01*
X142487500Y-28550000D02*
X142737500Y-29550000D01*
X142737500Y-23900000D02*
X142737500Y-28200000D01*
X142737500Y-28200000D02*
X141987500Y-28200000D01*
X142737500Y-29550000D02*
X139737500Y-29550000D01*
X144337500Y-29650000D02*
X144337500Y-30900000D01*
X144337500Y-30900000D02*
X142337500Y-30900000D01*
X143947500Y-30510000D02*
X134717500Y-30510000D01*
X134717500Y-23040000D01*
X143947500Y-23040000D01*
X143947500Y-30510000D01*
X138177500Y-23900000D02*
G75*
G02*
X136677853Y-23900156I-750000J1700000D01*
G01*
X141987500Y-23900000D02*
G75*
G02*
X140487853Y-23900156I-750000J1700000D01*
G01*
%TO.C,R6*%
X146713640Y-50170000D02*
X146406358Y-50170000D01*
X146713640Y-50930000D02*
X146406358Y-50930000D01*
%TO.C,R8*%
X133470000Y-30013640D02*
X133470000Y-29706358D01*
X134230000Y-30013640D02*
X134230000Y-29706358D01*
%TO.C,R12*%
X148363640Y-24370000D02*
X148056358Y-24370000D01*
X148363640Y-25130000D02*
X148056358Y-25130000D01*
%TO.C,L1*%
X142240001Y-40912122D02*
X142240001Y-40112878D01*
X143360001Y-40912122D02*
X143360001Y-40112878D01*
%TO.C,R14*%
X143720000Y-32053641D02*
X143720000Y-31746359D01*
X144480000Y-32053641D02*
X144480000Y-31746359D01*
%TO.C,U2*%
X138790001Y-37752500D02*
X139790001Y-37752500D01*
X138790001Y-39272500D02*
X138790001Y-37752500D01*
X138840001Y-39272500D02*
X138790001Y-39272500D01*
X140740001Y-39272500D02*
X139960001Y-39272500D01*
X140910001Y-37752500D02*
X141910001Y-37752500D01*
X141910001Y-37752500D02*
X141910001Y-39272500D01*
X141910001Y-39272500D02*
X141860001Y-39272500D01*
X140300001Y-40052500D02*
X139970001Y-39812500D01*
X140300001Y-39572500D01*
X140300001Y-40052500D01*
G36*
X140300001Y-40052500D02*
G01*
X139970001Y-39812500D01*
X140300001Y-39572500D01*
X140300001Y-40052500D01*
G37*
%TO.C,C6*%
X134737164Y-57490000D02*
X134952836Y-57490000D01*
X134737164Y-58210000D02*
X134952836Y-58210000D01*
%TD*%
M02*
